<?xml version="1.0" encoding="UTF-8" standalone="no"?>
<!DOCTYPE svg PUBLIC "-//W3C//DTD SVG 1.1//EN" "http://www.w3.org/Graphics/SVG/1.1/DTD/svg11.dtd">
<svg version="1.1" xmlns="http://www.w3.org/2000/svg" xmlns:xlink="http://www.w3.org/1999/xlink" preserveAspectRatio="xMidYMid meet" viewBox="0 0 640 640" width="640" height="640"><defs><path d="M313.66 14.04L44.52 168.52L44.52 477.49L313.66 631.97L582.81 477.49L582.81 168.52L313.66 14.04Z" id="a1BXL7MTTo"></path><clipPath id="clipdHbBwjmLH"><use xlink:href="#a1BXL7MTTo" opacity="1"></use></clipPath><path d="M343.48 39.82L81.94 155.46L52.18 438.6L283.96 606.1L545.49 490.45L575.25 207.31L343.48 39.82Z" id="l2bkFHr9AD"></path><clipPath id="clipd10J8Zothn"><use xlink:href="#l2bkFHr9AD" opacity="1"></use></clipPath><path d="M409.61 113.78L180.05 137.32L86.61 347.19L222.72 533.53L452.27 510L545.72 300.12L409.61 113.78Z" id="bi4reGOFA"></path><clipPath id="clipk3Jk9aB4cq"><use xlink:href="#bi4reGOFA" opacity="1"></use></clipPath><path d="M422.95 137.81L206.54 137.6L98.52 324.71L206.91 512.02L423.32 512.23L531.34 325.12L422.95 137.81Z" id="a973DNgk6"></path><clipPath id="clipb2sQe1YQ86"><use xlink:href="#a973DNgk6" opacity="1"></use></clipPath><path d="M390.82 88.68L148.5 139.54L72.33 373.98L238.47 557.57L480.79 506.7L556.97 272.26L390.82 88.68Z" id="b4rQNXSnKp"></path><clipPath id="clipcloQXBK1S"><use xlink:href="#b4rQNXSnKp" opacity="1"></use></clipPath><path d="M371.27 63.77L117.88 145.39L62.78 404.62L261.06 582.24L514.44 500.63L569.55 241.39L371.27 63.77Z" id="c5s7jZsMAb"></path><clipPath id="clipah5Ay9QAs"><use xlink:href="#c5s7jZsMAb" opacity="1"></use></clipPath><path d="M378.36 399.98L378.38 400L288.11 503.82L120.88 311.5L211.16 207.68L288.08 296.15L517.57 32.23L607.84 136.05L378.36 399.98Z" id="cKwDs82xu"></path><linearGradient id="gradientf55r0jzjBO" gradientUnits="userSpaceOnUse" x1="120.88" y1="314.37" x2="613.81" y2="144.27"><stop style="stop-color: #a4c97a;stop-opacity: 1" offset="0%"></stop><stop style="stop-color: #1d7700;stop-opacity: 1" offset="100%"></stop></linearGradient><clipPath id="clipan8ajvdzh"><use xlink:href="#cKwDs82xu" opacity="1"></use></clipPath></defs><g><g><g><use xlink:href="#a1BXL7MTTo" opacity="1" fill="#000000" fill-opacity="0"></use><g clip-path="url(#clipdHbBwjmLH)"><use xlink:href="#a1BXL7MTTo" opacity="1" fill-opacity="0" stroke="#54a5cb" stroke-width="16" stroke-opacity="1"></use></g></g><g><use xlink:href="#l2bkFHr9AD" opacity="1" fill="#70197b" fill-opacity="0"></use><g clip-path="url(#clipd10J8Zothn)"><use xlink:href="#l2bkFHr9AD" opacity="1" fill-opacity="0" stroke="#54a5cb" stroke-width="14" stroke-opacity="1"></use></g></g><g><use xlink:href="#bi4reGOFA" opacity="1" fill="#70197b" fill-opacity="0"></use><g clip-path="url(#clipk3Jk9aB4cq)"><use xlink:href="#bi4reGOFA" opacity="1" fill-opacity="0" stroke="#54a5cb" stroke-width="8" stroke-opacity="1"></use></g></g><g><use xlink:href="#a973DNgk6" opacity="1" fill="#70197b" fill-opacity="0"></use><g clip-path="url(#clipb2sQe1YQ86)"><use xlink:href="#a973DNgk6" opacity="1" fill-opacity="0" stroke="#54a5cb" stroke-width="8" stroke-opacity="1"></use></g></g><g><use xlink:href="#b4rQNXSnKp" opacity="1" fill="#70197b" fill-opacity="0"></use><g clip-path="url(#clipcloQXBK1S)"><use xlink:href="#b4rQNXSnKp" opacity="1" fill-opacity="0" stroke="#54a5cb" stroke-width="10" stroke-opacity="1"></use></g></g><g><use xlink:href="#c5s7jZsMAb" opacity="1" fill="#70197b" fill-opacity="0"></use><g clip-path="url(#clipah5Ay9QAs)"><use xlink:href="#c5s7jZsMAb" opacity="1" fill-opacity="0" stroke="#54a5cb" stroke-width="12" stroke-opacity="1"></use></g></g><g><use xlink:href="#cKwDs82xu" opacity="1" fill="url(#gradientf55r0jzjBO)"></use><g clip-path="url(#clipan8ajvdzh)"><use xlink:href="#cKwDs82xu" opacity="1" fill-opacity="0" stroke="#000000" stroke-width="28" stroke-opacity="1"></use></g></g></g></g></svg>