<?xml version="1.0" encoding="UTF-8" standalone="no"?>
<!DOCTYPE svg PUBLIC "-//W3C//DTD SVG 1.1//EN" "http://www.w3.org/Graphics/SVG/1.1/DTD/svg11.dtd">
<svg version="1.1" xmlns="http://www.w3.org/2000/svg" xmlns:xlink="http://www.w3.org/1999/xlink" preserveAspectRatio="xMidYMid meet" viewBox="0 0 640 640" width="640" height="640"><defs><path d="M-17.2 -22.44L660.08 -22.44L660.08 666.95L-17.2 666.95L-17.2 -22.44Z" id="h3R308ufd7"></path><path d="M315.94 14.04L46.79 168.52L46.79 477.49L315.94 631.97L585.09 477.49L585.09 168.52L315.94 14.04Z" id="fEspO1rNh"></path><clipPath id="clipeiujSYQjg"><use xlink:href="#fEspO1rNh" opacity="1"></use></clipPath><path d="M408.42 120.75L186.26 143.53L95.82 346.65L227.55 526.99L449.71 504.21L540.14 301.09L408.42 120.75Z" id="g131FvQALI"></path><clipPath id="clipaTCgopB4"><use xlink:href="#g131FvQALI" opacity="1"></use></clipPath><path d="M346.79 37.98L84.37 154.02L54.51 438.12L287.07 606.19L549.49 490.15L579.35 206.05L346.79 37.98Z" id="bbJIUD2Pw"></path><clipPath id="clipb1t8vnn1Z0"><use xlink:href="#bbJIUD2Pw" opacity="1"></use></clipPath><path d="M372.3 65.81L119.92 147.1L65.03 405.32L262.53 582.24L514.92 500.95L569.8 242.73L372.3 65.81Z" id="b137ePb4K8"></path><clipPath id="clipaY2IwEN6N"><use xlink:href="#b137ePb4K8" opacity="1"></use></clipPath><path d="M391.79 93.69L153.72 143.66L78.88 373.99L242.11 554.36L480.18 504.38L555.02 274.05L391.79 93.69Z" id="a1PsrQPqWP"></path><clipPath id="clipaladMs4UL"><use xlink:href="#a1PsrQPqWP" opacity="1"></use></clipPath><path d="M419.34 148.61L216.05 148.31L114.66 323.91L216.57 499.82L419.87 500.12L521.26 324.52L419.34 148.61Z" id="j1CYyaueIX"></path><clipPath id="clipe1aE3dRAks"><use xlink:href="#j1CYyaueIX" opacity="1"></use></clipPath></defs><g><g><g><use xlink:href="#h3R308ufd7" opacity="1" fill="#000000" fill-opacity="1"></use></g><g><use xlink:href="#fEspO1rNh" opacity="1" fill="#000000" fill-opacity="0"></use><g clip-path="url(#clipeiujSYQjg)"><use xlink:href="#fEspO1rNh" opacity="1" fill-opacity="0" stroke="#54a5cb" stroke-width="20" stroke-opacity="1"></use></g></g><g><use xlink:href="#g131FvQALI" opacity="1" fill="#70197b" fill-opacity="0"></use><g clip-path="url(#clipaTCgopB4)"><use xlink:href="#g131FvQALI" opacity="1" fill-opacity="0" stroke="#54a5cb" stroke-width="20" stroke-opacity="1"></use></g></g><g><use xlink:href="#bbJIUD2Pw" opacity="1" fill="#70197b" fill-opacity="0"></use><g clip-path="url(#clipb1t8vnn1Z0)"><use xlink:href="#bbJIUD2Pw" opacity="1" fill-opacity="0" stroke="#54a5cb" stroke-width="20" stroke-opacity="1"></use></g></g><g><use xlink:href="#b137ePb4K8" opacity="1" fill="#70197b" fill-opacity="0"></use><g clip-path="url(#clipaY2IwEN6N)"><use xlink:href="#b137ePb4K8" opacity="1" fill-opacity="0" stroke="#54a5cb" stroke-width="20" stroke-opacity="1"></use></g></g><g><use xlink:href="#a1PsrQPqWP" opacity="1" fill="#70197b" fill-opacity="0"></use><g clip-path="url(#clipaladMs4UL)"><use xlink:href="#a1PsrQPqWP" opacity="1" fill-opacity="0" stroke="#54a5cb" stroke-width="20" stroke-opacity="1"></use></g></g><g><use xlink:href="#j1CYyaueIX" opacity="1" fill="#70197b" fill-opacity="0"></use><g clip-path="url(#clipe1aE3dRAks)"><use xlink:href="#j1CYyaueIX" opacity="1" fill-opacity="0" stroke="#54a5cb" stroke-width="20" stroke-opacity="1"></use></g></g></g></g></svg>