<?xml version="1.0" encoding="UTF-8" standalone="no"?>
<svg
   xmlns:dc="http://purl.org/dc/elements/1.1/"
   xmlns:cc="http://creativecommons.org/ns#"
   xmlns:rdf="http://www.w3.org/1999/02/22-rdf-syntax-ns#"
   xmlns:svg="http://www.w3.org/2000/svg"
   xmlns="http://www.w3.org/2000/svg"
   xmlns:xlink="http://www.w3.org/1999/xlink"
   xmlns:sodipodi="http://sodipodi.sourceforge.net/DTD/sodipodi-0.dtd"
   xmlns:inkscape="http://www.inkscape.org/namespaces/inkscape"
   version="1.1"
   preserveAspectRatio="xMidYMid meet"
   viewBox="0 0 640 640"
   width="640"
   height="640"
   id="svg1139"
   sodipodi:docname="tr_spiral_with_analytics_a.svg"
   inkscape:version="0.92.2 5c3e80d, 2017-08-06">
  <metadata
     id="metadata1143">
    <rdf:RDF>
      <cc:Work
         rdf:about="">
        <dc:format>image/svg+xml</dc:format>
        <dc:type
           rdf:resource="http://purl.org/dc/dcmitype/StillImage" />
        <dc:title></dc:title>
      </cc:Work>
    </rdf:RDF>
  </metadata>
  <sodipodi:namedview
     pagecolor="#ffffff"
     bordercolor="#666666"
     borderopacity="1"
     objecttolerance="10"
     gridtolerance="10"
     guidetolerance="10"
     inkscape:pageopacity="0"
     inkscape:pageshadow="2"
     inkscape:window-width="1192"
     inkscape:window-height="699"
     id="namedview1141"
     showgrid="false"
     inkscape:zoom="0.5"
     inkscape:cx="122"
     inkscape:cy="340"
     inkscape:window-x="0"
     inkscape:window-y="0"
     inkscape:window-maximized="0"
     inkscape:current-layer="g4958" />
  <defs
     id="defs989">
    <path
       d="M349.32 31.28L83.99 149.31L53.66 437.95L288.64 608.57L553.97 490.54L584.31 201.89L349.32 31.28Z"
       id="c9KdBax78" />
    <path
       d="M320 11.26L52.42 165.63L52.42 474.37L320 628.74L587.58 474.37L587.58 165.63L320 11.26Z"
       id="aqmqnyBVg" />
    <path
       d="M435.05 120.34L204.27 120.27L88.95 320.02L204.4 519.84L435.18 519.92L550.51 320.17L435.05 120.34Z"
       id="b1rLKzj4dk" />
    <path
       d="M377.09 51.39L115.75 136.21L58.66 404.82L262.91 588.61L524.25 503.79L581.34 235.18L377.09 51.39Z"
       id="m6och8RA6R" />
    <path
       d="M399.26 74.25L145.89 128.02L65.9 374.21L239.27 566.64L492.64 512.87L572.63 266.67L399.26 74.25Z"
       id="b14NP9rOPD" />
    <path
       d="M418.24 97.2L175.49 122.64L76.26 345.5L219.79 542.92L462.55 517.48L561.77 294.63L418.24 97.2Z"
       id="dWmRHHyhs" />
    <path
       d="M349.32 31.28L83.99 149.31L53.66 437.95L288.64 608.57L553.97 490.54L584.31 201.89L349.32 31.28Z"
       id="a48Nyp5xG4" />
    <path
       d="M320 11.26L52.42 165.63L52.42 474.37L320 628.74L587.58 474.37L587.58 165.63L320 11.26Z"
       id="b1NGApQo4S" />
    <path
       d="M435.05 120.34L204.27 120.27L88.95 320.02L204.4 519.84L435.18 519.92L550.51 320.17L435.05 120.34Z"
       id="m1vm2D5si" />
    <path
       d="M377.09 51.39L115.75 136.21L58.66 404.82L262.91 588.61L524.25 503.79L581.34 235.18L377.09 51.39Z"
       id="d3a1SQ6bJR" />
    <path
       d="M399.26 74.25L145.89 128.02L65.9 374.21L239.27 566.64L492.64 512.87L572.63 266.67L399.26 74.25Z"
       id="j1daZNS0j8" />
    <path
       d="M418.24 97.2L175.49 122.64L76.26 345.5L219.79 542.92L462.55 517.48L561.77 294.63L418.24 97.2Z"
       id="a2UuZK97PU" />
    <path
       d="M349.32 31.28L83.99 149.31L53.66 437.95L288.64 608.57L553.97 490.54L584.31 201.89L349.32 31.28Z"
       id="a3zRPhToTF" />
    <path
       d="M418.24 97.2L175.49 122.64L76.26 345.5L219.79 542.92L462.55 517.48L561.77 294.63L418.24 97.2Z"
       id="aaXNwPAvE" />
    <path
       d="M320 11.26L52.42 165.63L52.42 474.37L320 628.74L587.58 474.37L587.58 165.63L320 11.26Z"
       id="dvEt8LruN" />
    <path
       d="M399.26 74.25L145.89 128.02L65.9 374.21L239.27 566.64L492.64 512.87L572.63 266.67L399.26 74.25Z"
       id="dFqcmJiRz" />
    <path
       d="M435.05 120.34L204.27 120.27L88.95 320.02L204.4 519.84L435.18 519.92L550.51 320.17L435.05 120.34Z"
       id="ehlVn3Qar" />
    <path
       d="M377.09 51.39L115.75 136.21L58.66 404.82L262.91 588.61L524.25 503.79L581.34 235.18L377.09 51.39Z"
       id="a41zs5FURL" />
  </defs>
  <g
     id="g1137">
    <g
       id="g1135">
      <g
         id="g997">
        <use
           xlink:href="#c9KdBax78"
           opacity="1"
           fill="#05e5b3"
           fill-opacity="0"
           id="use991" />
        <g
           id="g995">
          <use
             xlink:href="#c9KdBax78"
             opacity="1"
             fill-opacity="0"
             stroke="#2b6f93"
             stroke-width="9"
             stroke-opacity="1"
             id="use993" />
        </g>
      </g>
      <g
         id="g1005">
        <use
           xlink:href="#aqmqnyBVg"
           opacity="1"
           fill="#05e5b3"
           fill-opacity="0"
           id="use999" />
        <g
           id="g1003">
          <use
             xlink:href="#aqmqnyBVg"
             opacity="1"
             fill-opacity="0"
             stroke="#2b6f93"
             stroke-width="9"
             stroke-opacity="1"
             id="use1001" />
        </g>
      </g>
      <g
         id="g1013">
        <use
           xlink:href="#b1rLKzj4dk"
           opacity="1"
           fill="#05e5b3"
           fill-opacity="0"
           id="use1007" />
        <g
           id="g1011">
          <use
             xlink:href="#b1rLKzj4dk"
             opacity="1"
             fill-opacity="0"
             stroke="#2b6f93"
             stroke-width="9"
             stroke-opacity="1"
             id="use1009" />
        </g>
      </g>
      <g
         id="g1021">
        <use
           xlink:href="#m6och8RA6R"
           opacity="1"
           fill="#05e5b3"
           fill-opacity="0"
           id="use1015" />
        <g
           id="g1019">
          <use
             xlink:href="#m6och8RA6R"
             opacity="1"
             fill-opacity="0"
             stroke="#2b6f93"
             stroke-width="9"
             stroke-opacity="1"
             id="use1017" />
        </g>
      </g>
      <g
         id="g1029">
        <use
           xlink:href="#b14NP9rOPD"
           opacity="1"
           fill="#05e5b3"
           fill-opacity="0"
           id="use1023" />
        <g
           id="g1027">
          <use
             xlink:href="#b14NP9rOPD"
             opacity="1"
             fill-opacity="0"
             stroke="#2b6f93"
             stroke-width="9"
             stroke-opacity="1"
             id="use1025" />
        </g>
      </g>
      <g
         id="g1037">
        <use
           xlink:href="#dWmRHHyhs"
           opacity="1"
           fill="#05e5b3"
           fill-opacity="0"
           id="use1031" />
        <g
           id="g1035">
          <use
             xlink:href="#dWmRHHyhs"
             opacity="1"
             fill-opacity="0"
             stroke="#2b6f93"
             stroke-width="9"
             stroke-opacity="1"
             id="use1033" />
        </g>
      </g>
      <g
         id="g1045">
        <use
           xlink:href="#a48Nyp5xG4"
           opacity="1"
           fill="#05e5b2"
           fill-opacity="0"
           id="use1039" />
        <g
           id="g1043">
          <use
             xlink:href="#a48Nyp5xG4"
             opacity="1"
             fill-opacity="0"
             stroke="#2facf0"
             stroke-width="4"
             stroke-opacity="1"
             id="use1041" />
        </g>
      </g>
      <g
         id="g1053">
        <use
           xlink:href="#b1NGApQo4S"
           opacity="1"
           fill="#05e5b2"
           fill-opacity="0"
           id="use1047" />
        <g
           id="g1051">
          <use
             xlink:href="#b1NGApQo4S"
             opacity="1"
             fill-opacity="0"
             stroke="#2facf0"
             stroke-width="4"
             stroke-opacity="1"
             id="use1049" />
        </g>
      </g>
      <g
         id="g1061">
        <use
           xlink:href="#m1vm2D5si"
           opacity="1"
           fill="#05e5b2"
           fill-opacity="0"
           id="use1055" />
        <g
           id="g1059">
          <use
             xlink:href="#m1vm2D5si"
             opacity="1"
             fill-opacity="0"
             stroke="#2facf0"
             stroke-width="4"
             stroke-opacity="1"
             id="use1057" />
        </g>
      </g>
      <g
         id="g1069">
        <use
           xlink:href="#d3a1SQ6bJR"
           opacity="1"
           fill="#05e5b2"
           fill-opacity="0"
           id="use1063" />
        <g
           id="g1067">
          <use
             xlink:href="#d3a1SQ6bJR"
             opacity="1"
             fill-opacity="0"
             stroke="#2facf0"
             stroke-width="4"
             stroke-opacity="1"
             id="use1065" />
        </g>
      </g>
      <g
         id="g1077">
        <use
           xlink:href="#j1daZNS0j8"
           opacity="1"
           fill="#05e5b2"
           fill-opacity="0"
           id="use1071" />
        <g
           id="g1075">
          <use
             xlink:href="#j1daZNS0j8"
             opacity="1"
             fill-opacity="0"
             stroke="#2facf0"
             stroke-width="4"
             stroke-opacity="1"
             id="use1073" />
        </g>
      </g>
      <g
         id="g1085">
        <use
           xlink:href="#a2UuZK97PU"
           opacity="1"
           fill="#05e5b2"
           fill-opacity="0"
           id="use1079" />
        <g
           id="g1083">
          <use
             xlink:href="#a2UuZK97PU"
             opacity="1"
             fill-opacity="0"
             stroke="#2facf0"
             stroke-width="3"
             stroke-opacity="1"
             id="use1081" />
        </g>
      </g>
      <g
         id="g1093">
        <use
           xlink:href="#a3zRPhToTF"
           opacity="1"
           fill="#05e5b2"
           fill-opacity="0"
           id="use1087" />
        <g
           id="g1091">
          <use
             xlink:href="#a3zRPhToTF"
             opacity="1"
             fill-opacity="0"
             stroke="#9cdcff"
             stroke-width="1"
             stroke-opacity="1"
             id="use1089" />
        </g>
      </g>
      <g
         id="g1101">
        <use
           xlink:href="#aaXNwPAvE"
           opacity="1"
           fill="#05e5b2"
           fill-opacity="0"
           id="use1095" />
        <g
           id="g1099">
          <use
             xlink:href="#aaXNwPAvE"
             opacity="1"
             fill-opacity="0"
             stroke="#9cdcff"
             stroke-width="1"
             stroke-opacity="1"
             id="use1097" />
        </g>
      </g>
      <g
         id="g1109">
        <use
           xlink:href="#dvEt8LruN"
           opacity="1"
           fill="#05e5b2"
           fill-opacity="0"
           id="use1103" />
        <g
           id="g1107">
          <use
             xlink:href="#dvEt8LruN"
             opacity="1"
             fill-opacity="0"
             stroke="#9cdcff"
             stroke-width="1"
             stroke-opacity="1"
             id="use1105" />
        </g>
      </g>
      <g
         id="g1117">
        <use
           xlink:href="#dFqcmJiRz"
           opacity="1"
           fill="#05e5b2"
           fill-opacity="0"
           id="use1111" />
        <g
           id="g1115">
          <use
             xlink:href="#dFqcmJiRz"
             opacity="1"
             fill-opacity="0"
             stroke="#9cdcff"
             stroke-width="1"
             stroke-opacity="1"
             id="use1113" />
        </g>
      </g>
      <g
         id="g1125">
        <use
           xlink:href="#ehlVn3Qar"
           opacity="1"
           fill="#05e5b2"
           fill-opacity="0"
           id="use1119" />
        <g
           id="g1123">
          <use
             xlink:href="#ehlVn3Qar"
             opacity="1"
             fill-opacity="0"
             stroke="#cbecff"
             stroke-width="1"
             stroke-opacity="1"
             id="use1121" />
        </g>
      </g>
      <g
         id="g1133">
        <use
           xlink:href="#a41zs5FURL"
           opacity="1"
           fill="#05e5b2"
           fill-opacity="0"
           id="use1127" />
        <g
           id="g1131">
          <use
             xlink:href="#a41zs5FURL"
             opacity="1"
             fill-opacity="0"
             stroke="#9cdcff"
             stroke-width="1"
             stroke-opacity="1"
             id="use1129" />
        </g>
      </g>
    </g>
  </g>
  <g
     id="g4958"
     transform="matrix(1.3333334,0,0,1.3333334,-21.33335,-21.33335)">
    <path
       id="path4934"
       d="m 314.56656,286.1012 h -21.19968 c -1.95223,0 -3.53408,1.58184 -3.53408,3.53247 0,1.95224 1.58185,3.53408 3.53408,3.53408 h 21.19968 c 1.95224,0 3.53409,-1.58184 3.53409,-3.53408 0,-1.95063 -1.58185,-3.53247 -3.53409,-3.53247 z m 0,0 m 21.19968,-17.66721 h -17.66559 c -1.95224,0 -3.53409,1.58185 -3.53409,3.53247 0,1.95224 1.58185,3.53409 3.53409,3.53409 h 17.66559 c 1.95224,0 3.53408,-1.58185 3.53408,-3.53409 0,-1.95062 -1.58184,-3.53247 -3.53408,-3.53247 z m 0,0 m -42.39936,7.06656 h 10.59903 c 1.95225,0 3.53409,-1.58185 3.53409,-3.53409 0,-1.95062 -1.58184,-3.53247 -3.53409,-3.53247 h -10.59903 c -1.95223,0 -3.53408,1.58185 -3.53408,3.53247 0,1.95224 1.58185,3.53409 3.53408,3.53409 z m 0,0 m 49.46591,-24.73377 h -49.46591 c -1.95223,0 -3.53408,1.58185 -3.53408,3.53409 0,1.95062 1.58185,3.53246 3.53408,3.53246 h 49.46591 c 1.95225,0 3.5341,-1.58184 3.5341,-3.53246 0,-1.95224 -1.58185,-3.53409 -3.5341,-3.53409 z m 0,0 m -48.43075,-22.23484 c 0.66153,0.66315 1.56082,1.03516 2.49732,1.03516 0.93811,0 1.83578,-0.37201 2.49892,-1.03516 l 38.86689,-38.86688 c 0.9187,-0.88635 1.28585,-2.20133 0.96238,-3.43542 -0.32187,-1.23571 -1.28749,-2.20132 -2.5232,-2.52481 -1.23572,-0.32187 -2.54907,0.0453 -3.43543,0.96398 l -38.86688,38.86689 c -0.66315,0.66315 -1.03516,1.56082 -1.03516,2.49894 0,0.93648 0.37201,1.83578 1.03516,2.4973 z m 0,0 m -128.23485,4.56925 h 98.93346 c 1.95063,0 3.53247,-1.58185 3.53247,-3.53409 0,-1.95062 -1.58184,-3.53246 -3.53247,-3.53246 h -3.53409 v -24.73377 c -0.005,-3.90125 -3.16531,-7.06171 -7.06656,-7.06656 h -7.06656 c -3.90124,0.005 -7.06171,3.16531 -7.06656,7.06656 v 24.73377 h -10.60065 v -35.33442 c -0.005,-3.90125 -3.16531,-7.0617 -7.06656,-7.06656 h -7.06655 c -3.90125,0.005 -7.06172,3.16531 -7.06657,7.06656 v 35.33442 h -10.60064 v -10.60065 c -0.003,-3.90125 -3.16531,-7.06171 -7.06656,-7.06657 h -7.06656 c -3.89963,0.005 -7.06171,3.16532 -7.06657,7.06657 v 10.60065 h -7.06655 v -38.8669 c 0,-1.95223 -1.58185,-3.53408 -3.53248,-3.53408 -1.95223,0 -3.53408,1.58185 -3.53408,3.53408 v 42.39936 c 0,1.95224 1.58185,3.53409 3.53408,3.53409 z m 81.26625,-31.80032 H 254.5 v 24.73377 h -7.06656 z m -31.80032,-10.60065 h 7.06655 v 35.33442 h -7.06655 z m -31.80033,24.73377 h 7.06656 v 10.60065 h -7.06656 z m 0,0 m 31.80033,24.73376 c -27.65,0.0744 -50.65312,21.2757 -52.97736,48.82703 -0.1569,1.99592 0.52566,3.96594 1.88106,5.43942 1.336,1.44275 3.21385,2.26441 5.18064,2.26603 h 91.83131 c 1.96679,-0.002 3.84463,-0.82328 5.18063,-2.26603 1.35541,-1.47348 2.03796,-3.4435 1.88107,-5.43942 -2.32424,-27.55133 -25.32735,-48.75263 -52.97735,-48.82703 z m 8.53032,49.46592 15.16829,-15.16828 c 1.33923,-1.38614 1.31982,-3.5907 -0.0437,-4.95257 -1.36187,-1.3635 -3.56643,-1.38291 -4.95257,-0.0437 l -20.16452,20.16453 h -44.4535 l -0.0161,-0.0858 c 1.96356,-23.92181 21.9615,-42.32818 45.96418,-42.30715 24.00107,0.0226 43.96503,18.46782 45.8833,42.39287 z m 0,0 m -37.36267,-17.19331 c -1.23733,-0.71489 -2.78359,-0.613 -3.91741,0.25718 -1.13382,0.87018 -1.632,2.33719 -1.2616,3.71686 0.37038,1.38129 1.53494,2.40351 2.95181,2.58951 1.41687,0.18601 2.80625,-0.4998 3.52115,-1.73713 0.97531,-1.69022 0.39627,-3.8511 -1.29395,-4.82642 z m 0,0 m 9.3989,-12.93297 c -1.23733,0.71489 -1.92312,2.10428 -1.73712,3.52114 0.18762,1.41688 1.20822,2.58142 2.58951,2.95182 1.37966,0.37039 2.84667,-0.12778 3.71686,-1.2616 0.87018,-1.13382 0.97207,-2.68008 0.25717,-3.91743 -0.97532,-1.69021 -3.1362,-2.26925 -4.82642,-1.29393 z m 0,0 m 104.23378,-54.67405 c 5.85348,0 10.60065,-4.74555 10.60065,-10.59903 0,-5.8551 -4.74717,-10.60065 -10.60065,-10.60065 -5.85511,0 -10.60065,4.74555 -10.60065,10.60065 0.006,5.85187 4.74877,10.59255 10.60065,10.59903 z m 0,-14.13312 c 1.95062,0 3.53246,1.58185 3.53246,3.53409 0,1.95062 -1.58184,3.53246 -3.53246,3.53246 -1.95225,0 -3.53409,-1.58184 -3.53409,-3.53246 0.002,-1.95063 1.58346,-3.53248 3.53409,-3.53409 z m 0,0 m 24.73376,28.26624 c 0,5.8551 4.74555,10.60064 10.59903,10.60064 5.8551,0 10.60065,-4.74554 10.60065,-10.60064 0,-5.85349 -4.74555,-10.59904 -10.60065,-10.59904 -5.85187,0.006 -10.59256,4.74879 -10.59903,10.59904 z m 14.13311,0 c 0,1.95224 -1.58184,3.53408 -3.53408,3.53408 -1.95062,0 -3.53247,-1.58184 -3.53247,-3.53408 0,-1.95062 1.58185,-3.53247 3.53247,-3.53247 1.95063,0.002 3.53247,1.58185 3.53408,3.53247 z m 0,0 M 219.1672,257.83333 c 0,1.95225 -1.58185,3.5341 -3.53408,3.5341 -1.95063,0 -3.53248,-1.58185 -3.53248,-3.5341 0,-1.95062 1.58185,-3.53246 3.53248,-3.53246 1.95223,0 3.53408,1.58184 3.53408,3.53246 z m 0,0 m 38.86689,63.60067 c 0,1.95062 -1.58347,3.53246 -3.53409,3.53246 -1.95062,0 -3.53409,-1.58184 -3.53409,-3.53246 0,-1.95225 1.58347,-3.53409 3.53409,-3.53409 1.95062,0 3.53409,1.58184 3.53409,3.53409 z m 0,0 m 84.7987,-151.93346 h -176.6656 c -9.75311,0.0113 -17.65588,7.91409 -17.6672,17.6672 V 321.434 c 0.0113,9.75148 7.91409,17.65427 17.6672,17.6672 h 66.85817 42.94928 66.85815 c 9.75313,-0.0129 17.6559,-7.91572 17.66722,-17.6672 V 187.16774 c -0.0113,-9.75311 -7.91409,-17.65588 -17.66722,-17.6672 z m -60.06656,74.19968 h 70.66722 v 60.06656 h -70.66722 z m 70.66722,-56.53248 v 49.46593 H 282.76623 V 176.5671 h 60.06656 c 5.85188,0.006 10.59418,4.74878 10.60066,10.60064 z M 166.16719,176.5671 H 275.69968 V 303.76678 H 155.56655 V 187.16774 c 0.006,-5.85186 4.74878,-10.59418 10.60064,-10.60064 z M 353.43345,321.434 c -0.006,5.85186 -4.74878,10.59417 -10.60066,10.60065 h -176.6656 c -5.85186,-0.006 -10.59418,-4.74879 -10.60064,-10.60065 v -10.60065 h 197.8669 z"
       style="fill:#2d99d3;fill-opacity:1;stroke-width:2.24999989;stroke-miterlimit:4;stroke-dasharray:none;stroke:#2b6f93;stroke-opacity:1"
       inkscape:connector-curvature="0" />
    <path
       style="fill:#cbecff;fill-opacity:1;stroke:#6dc8f9;stroke-width:1.42499993;stroke-miterlimit:4;stroke-dasharray:none;stroke-opacity:1"
       d="m 165.34375,171.52539 c -10.34133,0.21844 -16.72939,11.14982 -14.84375,20.69336 0.21707,44.1131 -0.43271,88.2841 0.32227,132.36133 1.68164,9.76618 12.44196,14.12141 21.40234,12.52148 57.66365,-0.12379 115.35137,0.24752 173,-0.18554 10.16848,-1.24336 14.98007,-12.30632 13.27539,-21.53321 -0.2171,-43.78241 0.43274,-87.62239 -0.32227,-131.36914 -1.68952,-9.74583 -12.44137,-14.12665 -21.40234,-12.51367 -57.14375,0.017 -114.2885,-0.0339 -171.43164,0.0254 z m 0.79492,3.04102 c 37.18685,0 74.3737,0 111.56055,0 0,43.73372 0,87.46744 0,131.20117 -41.37761,0 -82.75521,0 -124.13281,0 0.19045,-40.38819 -0.37304,-80.82813 0.26757,-121.18555 1.11453,-5.70196 6.48888,-10.08934 12.30469,-10.01562 z m 116.62695,0 c 20.87428,0.21931 41.8081,-0.41336 62.6504,0.26953 7.82184,1.38564 11.42202,10.11928 10.01757,17.33203 0,15.48828 0,30.97656 0,46.46484 -24.88932,0 -49.77864,0 -74.66797,0 10e-6,-21.35547 0,-42.71094 0,-64.0664 h 1 z m 52.92774,11.03125 c -10.21039,8.87711 -19.45078,19.35517 -29.31943,28.79403 -3.17047,4.20336 -9.00454,7.16675 -10.97159,11.95597 2.32221,3.79107 5.52866,-3.14443 7.5573,-4.20549 11.34579,-11.66395 23.44949,-22.83703 34.36458,-34.78084 0.17116,-0.94381 -0.67273,-1.8674 -1.63086,-1.76367 z m -120.31641,0.043 c -6.89112,0.72908 -4.52596,9.52951 -4.81054,14.11329 0,9.42708 0,18.85416 0,28.28125 -4.76348,-1.4364 -15.95797,3.55822 -14.59961,-4 -0.0144,-4.4731 1.81024,-13.40635 -5.1211,-13.66797 -4.18373,-0.38362 -12.01321,-1.0467 -12.08008,5.12109 -0.66022,5.52207 2.92936,15.29394 -6,12.54688 -8.30577,2.28363 -4.05624,-7.98803 -5.0664,-13 -0.36222,-9.58821 0.68004,-19.552 -0.43945,-28.94141 -4.03557,-1.94713 -2.43684,5.18312 -2.62696,7.13086 0.27295,12.40248 -0.52175,25.05623 0.35352,37.31836 7.352,1.48574 15.60407,0.0529 23.25195,0.55859 25.914,-0.23687 52.04334,0.46868 77.82617,-0.34375 2.24844,-3.28718 -3.66529,-3.14824 -5.49804,-2.72265 -2.3151,-4.01824 -0.34697,-12.3197 -1,-18 -0.17562,-4.46857 1.93822,-13.11686 -4.78907,-13.79102 -4.24723,-0.31891 -12.30485,-1.22852 -12.41015,5.11133 0,8.89323 0,17.78646 0,26.67969 -4.7639,-1.43663 -15.95963,3.55858 -14.60157,-4 -0.43887,-11.81237 0.82029,-23.89289 -0.51953,-35.56641 -2.18742,-4.47092 -8.03653,-2.35431 -11.86914,-2.82813 z m 84.59961,0.006 c -8.8059,-0.0472 -11.17152,13.54141 -2.89844,16.50586 7.78858,3.85715 15.89911,-6.97834 10.01172,-13.36523 -1.6996,-2.09822 -4.41448,-3.30655 -7.11328,-3.14063 z m 0.55469,3.05664 c 6.12726,-0.24658 7.42321,9.46427 1.45313,10.83985 -5.81147,2.06924 -9.91252,-6.88834 -4.56836,-9.94531 0.91563,-0.60323 2.01959,-0.91755 3.11523,-0.89454 z m -84.89844,-0.002 c 7.74509,-1.72296 10.78568,1.25859 9.06641,9 0,10.11133 0,20.22266 0,30.33399 -6.19663,0.17449 -13.77546,1.73119 -11.06641,-7 0,-10.778 0,-21.55599 0,-32.33399 h 1 z m 31.80078,10.59961 c 7.7451,-1.72296 10.78569,1.25859 9.06641,9 0,6.57813 0,13.15625 0,19.73438 -6.19662,0.17449 -13.77546,1.73119 -11.06641,-7 0,-7.2448 0,-14.48959 0,-21.73438 h 1 z m 87.89063,11.07813 c -8.78367,-0.0472 -11.16643,13.51674 -2.9375,16.49804 8.01288,4.00279 16.08882,-7.43433 9.76367,-13.67383 -1.70179,-1.905 -4.27488,-2.97123 -6.82617,-2.82421 z m 0.54883,3.05664 c 6.12166,-0.23045 7.41139,9.46141 1.44726,10.84179 -5.81787,2.07205 -9.91645,-6.90211 -4.5625,-9.95312 0.91745,-0.60123 2.01943,-0.91223 3.11524,-0.88867 z m -152.04102,-0.002 c 7.74509,-1.72295 10.78568,1.25859 9.06641,9 3.18386,7.7477 -8.17667,6.31072 -11.06641,4.60157 1.09615,-3.74394 -2.33238,-13.28756 2,-13.60157 z m 98.93359,28.26758 c 24.22266,0 48.44532,0 72.66797,0 0,21.35547 0,42.71094 0,64.06641 -24.88932,0 -49.77864,0 -74.66797,0 10e-6,-21.35547 0,-42.71094 0,-64.06641 h 1 z m -68.39648,0.48633 c -25.77251,0.10483 -49.36953,22.65044 -49.5957,48.56445 2.14298,6.70605 10.92528,3.02337 15.94726,3.94922 27.51932,-0.22927 55.14701,0.44999 82.60157,-0.32422 6.13376,-2.98154 2.11904,-11.02666 1.21875,-15.98047 -6.40476,-21.60876 -27.63912,-36.97636 -50.17188,-36.20898 z m 1.29883,3.05273 c 23.44552,-0.48263 45.14018,18.62068 47.63476,41.93555 2.50487,6.36565 -4.50904,4.19877 -8.7539,4.45703 -11.73763,0 -23.47526,0 -35.21289,0 6.10994,-6.66856 13.59857,-12.55588 18.98633,-19.63867 -1.51984,-4.17011 -5.34822,1.95722 -6.87155,3.18795 -5.85348,5.25697 -11.01586,12.18239 -17.27884,16.45072 -15.37501,0 -30.75,0 -46.125,0 -0.67737,-13.76222 6.97393,-27.27891 17.52929,-35.8457 8.44798,-6.81037 19.24069,-10.5925 30.0918,-10.54688 z m 77.53711,7.53711 c -3.05183,0.76382 -0.16851,4.68855 2.23242,3.05664 16.09042,-0.259 32.41927,0.5028 48.37109,-0.35351 2.27376,-3.54085 -4.22097,-2.98716 -6.0332,-2.71289 -14.85669,0.007 -29.71398,-0.0131 -44.57031,0.01 z m -77.72852,3.53321 c -3.4143,0.6932 0.57732,5.16855 1.65235,1.85156 0.24744,-0.98328 -0.64737,-1.98524 -1.65235,-1.85156 z m -17.70117,4.73633 c -3.29685,0.69097 0.45618,5.08228 1.6582,1.95703 0.33811,-1.01605 -0.5953,-2.12066 -1.6582,-1.95703 z m 95.42969,9.39843 c -3.04593,0.75438 -0.18049,4.68403 2.21875,3.05469 2.72826,-1.10915 9.43519,2.32364 10.04101,-1.85742 -2.35285,-3.24777 -8.14758,-0.11396 -11.57031,-1.20899 h -0.45703 z m 24.73633,0 c -3.05029,0.75059 -0.18602,4.68314 2.21484,3.05469 5.44734,-0.70723 11.841,1.25639 16.87695,-0.66992 1.10948,-4.35259 -6.15149,-1.71754 -8.33789,-2.39649 -3.58448,0.009 -7.16993,-0.0171 -10.7539,0.0117 z m -133.01953,3.52735 c -3.20514,0.44963 -0.0293,5.01343 1.50585,2.16406 0.50368,-1.01885 -0.38188,-2.27586 -1.50585,-2.16406 z m 108.28515,14.13867 c -3.04745,0.75406 -0.18528,4.68611 2.2168,3.05664 6.65016,-0.58322 14.0025,1.04123 20.33594,-0.57227 1.43196,-4.39343 -6.09885,-1.89269 -8.25,-2.49414 -4.76748,0.007 -9.53563,-0.0138 -14.30274,0.01 z m -137.64062,20.72265 c 66.62239,0 133.24479,0 199.86718,0 -0.17274,7.75218 2.19502,18.6586 -6.06836,23.37305 -7.80551,4.03138 -17.16184,0.77984 -25.5332,1.82813 -53.39431,-0.17719 -106.83507,0.35003 -160.20117,-0.25586 -7.84411,-1.36796 -11.47758,-10.11306 -10.06445,-17.34571 0.79204,-2.15608 -1.85364,-8.69241 2,-7.59961 z m 98.77734,11.07618 c -3.42536,0.70004 0.59372,5.17111 1.65625,1.83984 0.23541,-0.98066 -0.65672,-1.9703 -1.65625,-1.83984 z"
       id="path5766"
       inkscape:connector-curvature="0" />
  </g>
</svg>
