<?xml version="1.0" encoding="UTF-8" standalone="no"?>
<!DOCTYPE svg PUBLIC "-//W3C//DTD SVG 1.1//EN" "http://www.w3.org/Graphics/SVG/1.1/DTD/svg11.dtd">
<svg version="1.1" xmlns="http://www.w3.org/2000/svg" xmlns:xlink="http://www.w3.org/1999/xlink" preserveAspectRatio="xMidYMid meet" viewBox="0 0 640 640" width="640" height="640"><defs><path d="M349.32 31.28L83.99 149.31L53.66 437.95L288.64 608.57L553.97 490.54L584.31 201.89L349.32 31.28Z" id="c9KdBax78"></path><path d="M320 11.26L52.42 165.63L52.42 474.37L320 628.74L587.58 474.37L587.58 165.63L320 11.26Z" id="aqmqnyBVg"></path><path d="M435.05 120.34L204.27 120.27L88.95 320.02L204.4 519.84L435.18 519.92L550.51 320.17L435.05 120.34Z" id="b1rLKzj4dk"></path><path d="M377.09 51.39L115.75 136.21L58.66 404.82L262.91 588.61L524.25 503.79L581.34 235.18L377.09 51.39Z" id="m6och8RA6R"></path><path d="M399.26 74.25L145.89 128.02L65.9 374.21L239.27 566.64L492.64 512.87L572.63 266.67L399.26 74.25Z" id="b14NP9rOPD"></path><path d="M418.24 97.2L175.49 122.64L76.26 345.5L219.79 542.92L462.55 517.48L561.77 294.63L418.24 97.2Z" id="dWmRHHyhs"></path><path d="M349.32 31.28L83.99 149.31L53.66 437.95L288.64 608.57L553.97 490.54L584.31 201.89L349.32 31.28Z" id="a48Nyp5xG4"></path><path d="M320 11.26L52.42 165.63L52.42 474.37L320 628.74L587.58 474.37L587.58 165.63L320 11.26Z" id="b1NGApQo4S"></path><path d="M435.05 120.34L204.27 120.27L88.95 320.02L204.4 519.84L435.18 519.92L550.51 320.17L435.05 120.34Z" id="m1vm2D5si"></path><path d="M377.09 51.39L115.75 136.21L58.66 404.82L262.91 588.61L524.25 503.79L581.34 235.18L377.09 51.39Z" id="d3a1SQ6bJR"></path><path d="M399.26 74.25L145.89 128.02L65.9 374.21L239.27 566.64L492.64 512.87L572.63 266.67L399.26 74.25Z" id="j1daZNS0j8"></path><path d="M418.24 97.2L175.49 122.64L76.26 345.5L219.79 542.92L462.55 517.48L561.77 294.63L418.24 97.2Z" id="a2UuZK97PU"></path><path d="M349.32 31.28L83.99 149.31L53.66 437.95L288.64 608.57L553.97 490.54L584.31 201.89L349.32 31.28Z" id="a3zRPhToTF"></path><path d="M418.24 97.2L175.49 122.64L76.26 345.5L219.79 542.92L462.55 517.48L561.77 294.63L418.24 97.2Z" id="aaXNwPAvE"></path><path d="M320 11.26L52.42 165.63L52.42 474.37L320 628.74L587.58 474.37L587.58 165.63L320 11.26Z" id="dvEt8LruN"></path><path d="M399.26 74.25L145.89 128.02L65.9 374.21L239.27 566.64L492.64 512.87L572.63 266.67L399.26 74.25Z" id="dFqcmJiRz"></path><path d="M435.05 120.34L204.27 120.27L88.95 320.02L204.4 519.84L435.18 519.92L550.51 320.17L435.05 120.34Z" id="ehlVn3Qar"></path><path d="M377.09 51.39L115.75 136.21L58.66 404.82L262.91 588.61L524.25 503.79L581.34 235.18L377.09 51.39Z" id="a41zs5FURL"></path></defs><g><g><g><use xlink:href="#c9KdBax78" opacity="1" fill="#05e5b3" fill-opacity="0"></use><g><use xlink:href="#c9KdBax78" opacity="1" fill-opacity="0" stroke="#2b6f93" stroke-width="9" stroke-opacity="1"></use></g></g><g><use xlink:href="#aqmqnyBVg" opacity="1" fill="#05e5b3" fill-opacity="0"></use><g><use xlink:href="#aqmqnyBVg" opacity="1" fill-opacity="0" stroke="#2b6f93" stroke-width="9" stroke-opacity="1"></use></g></g><g><use xlink:href="#b1rLKzj4dk" opacity="1" fill="#05e5b3" fill-opacity="0"></use><g><use xlink:href="#b1rLKzj4dk" opacity="1" fill-opacity="0" stroke="#2b6f93" stroke-width="9" stroke-opacity="1"></use></g></g><g><use xlink:href="#m6och8RA6R" opacity="1" fill="#05e5b3" fill-opacity="0"></use><g><use xlink:href="#m6och8RA6R" opacity="1" fill-opacity="0" stroke="#2b6f93" stroke-width="9" stroke-opacity="1"></use></g></g><g><use xlink:href="#b14NP9rOPD" opacity="1" fill="#05e5b3" fill-opacity="0"></use><g><use xlink:href="#b14NP9rOPD" opacity="1" fill-opacity="0" stroke="#2b6f93" stroke-width="9" stroke-opacity="1"></use></g></g><g><use xlink:href="#dWmRHHyhs" opacity="1" fill="#05e5b3" fill-opacity="0"></use><g><use xlink:href="#dWmRHHyhs" opacity="1" fill-opacity="0" stroke="#2b6f93" stroke-width="9" stroke-opacity="1"></use></g></g><g><use xlink:href="#a48Nyp5xG4" opacity="1" fill="#05e5b2" fill-opacity="0"></use><g><use xlink:href="#a48Nyp5xG4" opacity="1" fill-opacity="0" stroke="#2facf0" stroke-width="4" stroke-opacity="1"></use></g></g><g><use xlink:href="#b1NGApQo4S" opacity="1" fill="#05e5b2" fill-opacity="0"></use><g><use xlink:href="#b1NGApQo4S" opacity="1" fill-opacity="0" stroke="#2facf0" stroke-width="4" stroke-opacity="1"></use></g></g><g><use xlink:href="#m1vm2D5si" opacity="1" fill="#05e5b2" fill-opacity="0"></use><g><use xlink:href="#m1vm2D5si" opacity="1" fill-opacity="0" stroke="#2facf0" stroke-width="4" stroke-opacity="1"></use></g></g><g><use xlink:href="#d3a1SQ6bJR" opacity="1" fill="#05e5b2" fill-opacity="0"></use><g><use xlink:href="#d3a1SQ6bJR" opacity="1" fill-opacity="0" stroke="#2facf0" stroke-width="4" stroke-opacity="1"></use></g></g><g><use xlink:href="#j1daZNS0j8" opacity="1" fill="#05e5b2" fill-opacity="0"></use><g><use xlink:href="#j1daZNS0j8" opacity="1" fill-opacity="0" stroke="#2facf0" stroke-width="4" stroke-opacity="1"></use></g></g><g><use xlink:href="#a2UuZK97PU" opacity="1" fill="#05e5b2" fill-opacity="0"></use><g><use xlink:href="#a2UuZK97PU" opacity="1" fill-opacity="0" stroke="#2facf0" stroke-width="3" stroke-opacity="1"></use></g></g><g><use xlink:href="#a3zRPhToTF" opacity="1" fill="#05e5b2" fill-opacity="0"></use><g><use xlink:href="#a3zRPhToTF" opacity="1" fill-opacity="0" stroke="#9cdcff" stroke-width="1" stroke-opacity="1"></use></g></g><g><use xlink:href="#aaXNwPAvE" opacity="1" fill="#05e5b2" fill-opacity="0"></use><g><use xlink:href="#aaXNwPAvE" opacity="1" fill-opacity="0" stroke="#9cdcff" stroke-width="1" stroke-opacity="1"></use></g></g><g><use xlink:href="#dvEt8LruN" opacity="1" fill="#05e5b2" fill-opacity="0"></use><g><use xlink:href="#dvEt8LruN" opacity="1" fill-opacity="0" stroke="#9cdcff" stroke-width="1" stroke-opacity="1"></use></g></g><g><use xlink:href="#dFqcmJiRz" opacity="1" fill="#05e5b2" fill-opacity="0"></use><g><use xlink:href="#dFqcmJiRz" opacity="1" fill-opacity="0" stroke="#9cdcff" stroke-width="1" stroke-opacity="1"></use></g></g><g><use xlink:href="#ehlVn3Qar" opacity="1" fill="#05e5b2" fill-opacity="0"></use><g><use xlink:href="#ehlVn3Qar" opacity="1" fill-opacity="0" stroke="#cbecff" stroke-width="1" stroke-opacity="1"></use></g></g><g><use xlink:href="#a41zs5FURL" opacity="1" fill="#05e5b2" fill-opacity="0"></use><g><use xlink:href="#a41zs5FURL" opacity="1" fill-opacity="0" stroke="#9cdcff" stroke-width="1" stroke-opacity="1"></use></g></g></g></g></svg>