<?xml version="1.0" encoding="UTF-8" standalone="no"?>
<svg
   xmlns:osb="http://www.openswatchbook.org/uri/2009/osb"
   xmlns:dc="http://purl.org/dc/elements/1.1/"
   xmlns:cc="http://creativecommons.org/ns#"
   xmlns:rdf="http://www.w3.org/1999/02/22-rdf-syntax-ns#"
   xmlns:svg="http://www.w3.org/2000/svg"
   xmlns="http://www.w3.org/2000/svg"
   xmlns:xlink="http://www.w3.org/1999/xlink"
   xmlns:sodipodi="http://sodipodi.sourceforge.net/DTD/sodipodi-0.dtd"
   xmlns:inkscape="http://www.inkscape.org/namespaces/inkscape"
   version="1.1"
   preserveAspectRatio="xMidYMid meet"
   viewBox="0 0 640 640"
   width="640"
   height="640"
   id="svg420"
   sodipodi:docname="tr_spiral_with_hand_dumbbell_a.svg"
   inkscape:version="0.92.2 5c3e80d, 2017-08-06">
  <metadata
     id="metadata424">
    <rdf:RDF>
      <cc:Work
         rdf:about="">
        <dc:format>image/svg+xml</dc:format>
        <dc:type
           rdf:resource="http://purl.org/dc/dcmitype/StillImage" />
        <dc:title></dc:title>
      </cc:Work>
    </rdf:RDF>
  </metadata>
  <sodipodi:namedview
     pagecolor="#ffffff"
     bordercolor="#666666"
     borderopacity="1"
     objecttolerance="10"
     gridtolerance="10"
     guidetolerance="10"
     inkscape:pageopacity="0"
     inkscape:pageshadow="2"
     inkscape:window-width="1280"
     inkscape:window-height="755"
     id="namedview422"
     showgrid="false"
     inkscape:zoom="0.75"
     inkscape:cx="341"
     inkscape:cy="320"
     inkscape:window-x="4"
     inkscape:window-y="0"
     inkscape:window-maximized="0"
     inkscape:current-layer="g4228" />
  <defs
     id="defs270">
    <linearGradient
       inkscape:collect="always"
       id="linearGradient6740">
      <stop
         style="stop-color:#2b7298;stop-opacity:1;"
         offset="0"
         id="stop6736" />
      <stop
         style="stop-color:#2b7298;stop-opacity:0;"
         offset="1"
         id="stop6738" />
    </linearGradient>
    <linearGradient
       id="linearGradient5136"
       osb:paint="solid">
      <stop
         style="stop-color:#b3e4ff;stop-opacity:1;"
         offset="0"
         id="stop5134" />
    </linearGradient>
    <path
       d="M349.32 31.28L83.99 149.31L53.66 437.95L288.64 608.57L553.97 490.54L584.31 201.89L349.32 31.28Z"
       id="c9KdBax78" />
    <path
       d="M320 11.26L52.42 165.63L52.42 474.37L320 628.74L587.58 474.37L587.58 165.63L320 11.26Z"
       id="aqmqnyBVg" />
    <path
       d="M435.05 120.34L204.27 120.27L88.95 320.02L204.4 519.84L435.18 519.92L550.51 320.17L435.05 120.34Z"
       id="b1rLKzj4dk" />
    <path
       d="M377.09 51.39L115.75 136.21L58.66 404.82L262.91 588.61L524.25 503.79L581.34 235.18L377.09 51.39Z"
       id="m6och8RA6R" />
    <path
       d="M399.26 74.25L145.89 128.02L65.9 374.21L239.27 566.64L492.64 512.87L572.63 266.67L399.26 74.25Z"
       id="b14NP9rOPD" />
    <path
       d="M418.24 97.2L175.49 122.64L76.26 345.5L219.79 542.92L462.55 517.48L561.77 294.63L418.24 97.2Z"
       id="dWmRHHyhs" />
    <path
       d="M349.32 31.28L83.99 149.31L53.66 437.95L288.64 608.57L553.97 490.54L584.31 201.89L349.32 31.28Z"
       id="a48Nyp5xG4" />
    <path
       d="M320 11.26L52.42 165.63L52.42 474.37L320 628.74L587.58 474.37L587.58 165.63L320 11.26Z"
       id="b1NGApQo4S" />
    <path
       d="M435.05 120.34L204.27 120.27L88.95 320.02L204.4 519.84L435.18 519.92L550.51 320.17L435.05 120.34Z"
       id="m1vm2D5si" />
    <path
       d="M377.09 51.39L115.75 136.21L58.66 404.82L262.91 588.61L524.25 503.79L581.34 235.18L377.09 51.39Z"
       id="d3a1SQ6bJR" />
    <path
       d="M399.26 74.25L145.89 128.02L65.9 374.21L239.27 566.64L492.64 512.87L572.63 266.67L399.26 74.25Z"
       id="j1daZNS0j8" />
    <path
       d="M418.24 97.2L175.49 122.64L76.26 345.5L219.79 542.92L462.55 517.48L561.77 294.63L418.24 97.2Z"
       id="a2UuZK97PU" />
    <path
       d="M349.32 31.28L83.99 149.31L53.66 437.95L288.64 608.57L553.97 490.54L584.31 201.89L349.32 31.28Z"
       id="a3zRPhToTF" />
    <path
       d="M418.24 97.2L175.49 122.64L76.26 345.5L219.79 542.92L462.55 517.48L561.77 294.63L418.24 97.2Z"
       id="aaXNwPAvE" />
    <path
       d="M320 11.26L52.42 165.63L52.42 474.37L320 628.74L587.58 474.37L587.58 165.63L320 11.26Z"
       id="dvEt8LruN" />
    <path
       d="M399.26 74.25L145.89 128.02L65.9 374.21L239.27 566.64L492.64 512.87L572.63 266.67L399.26 74.25Z"
       id="dFqcmJiRz" />
    <path
       d="M435.05 120.34L204.27 120.27L88.95 320.02L204.4 519.84L435.18 519.92L550.51 320.17L435.05 120.34Z"
       id="ehlVn3Qar" />
    <path
       d="M377.09 51.39L115.75 136.21L58.66 404.82L262.91 588.61L524.25 503.79L581.34 235.18L377.09 51.39Z"
       id="a41zs5FURL" />
    <meshgradient
       inkscape:collect="always"
       id="meshgradient6620"
       gradientUnits="userSpaceOnUse"
       x="0"
       y="48">
      <meshrow
         id="meshrow6622">
        <meshpatch
           id="meshpatch6624">
          <stop
             path="c 160,0  320,0  480,0"
             style="stop-color:#ffffff;stop-opacity:1"
             id="stop6626" />
          <stop
             path="c 0,128  0,256  0,384"
             style="stop-color:#b3e4ff;stop-opacity:1"
             id="stop6628" />
          <stop
             path="c -160,0  -320,0  -480,0"
             style="stop-color:#ffffff;stop-opacity:1"
             id="stop6630" />
          <stop
             path="c 0,-128  0,-256  0,-384"
             style="stop-color:#b3e4ff;stop-opacity:1"
             id="stop6632" />
        </meshpatch>
      </meshrow>
    </meshgradient>
    <radialGradient
       inkscape:collect="always"
       xlink:href="#linearGradient6740"
       id="radialGradient6742"
       cx="240"
       cy="240"
       fx="240"
       fy="240"
       r="243.06709"
       gradientTransform="matrix(1,0,0,0.80252366,0,47.394322)"
       gradientUnits="userSpaceOnUse" />
  </defs>
  <g
     id="g418">
    <g
       id="g416">
      <g
         id="g278">
        <use
           xlink:href="#c9KdBax78"
           opacity="1"
           fill="#05e5b3"
           fill-opacity="0"
           id="use272" />
        <g
           id="g276">
          <use
             xlink:href="#c9KdBax78"
             opacity="1"
             fill-opacity="0"
             stroke="#2b6f93"
             stroke-width="9"
             stroke-opacity="1"
             id="use274" />
        </g>
      </g>
      <g
         id="g286">
        <use
           xlink:href="#aqmqnyBVg"
           opacity="1"
           fill="#05e5b3"
           fill-opacity="0"
           id="use280" />
        <g
           id="g284">
          <use
             xlink:href="#aqmqnyBVg"
             opacity="1"
             fill-opacity="0"
             stroke="#2b6f93"
             stroke-width="9"
             stroke-opacity="1"
             id="use282" />
        </g>
      </g>
      <g
         id="g294">
        <use
           xlink:href="#b1rLKzj4dk"
           opacity="1"
           fill="#05e5b3"
           fill-opacity="0"
           id="use288" />
        <g
           id="g292">
          <use
             xlink:href="#b1rLKzj4dk"
             opacity="1"
             fill-opacity="0"
             stroke="#2b6f93"
             stroke-width="9"
             stroke-opacity="1"
             id="use290" />
        </g>
      </g>
      <g
         id="g302">
        <use
           xlink:href="#m6och8RA6R"
           opacity="1"
           fill="#05e5b3"
           fill-opacity="0"
           id="use296" />
        <g
           id="g300">
          <use
             xlink:href="#m6och8RA6R"
             opacity="1"
             fill-opacity="0"
             stroke="#2b6f93"
             stroke-width="9"
             stroke-opacity="1"
             id="use298" />
        </g>
      </g>
      <g
         id="g310">
        <use
           xlink:href="#b14NP9rOPD"
           opacity="1"
           fill="#05e5b3"
           fill-opacity="0"
           id="use304" />
        <g
           id="g308">
          <use
             xlink:href="#b14NP9rOPD"
             opacity="1"
             fill-opacity="0"
             stroke="#2b6f93"
             stroke-width="9"
             stroke-opacity="1"
             id="use306" />
        </g>
      </g>
      <g
         id="g318">
        <use
           xlink:href="#dWmRHHyhs"
           opacity="1"
           fill="#05e5b3"
           fill-opacity="0"
           id="use312" />
        <g
           id="g316">
          <use
             xlink:href="#dWmRHHyhs"
             opacity="1"
             fill-opacity="0"
             stroke="#2b6f93"
             stroke-width="9"
             stroke-opacity="1"
             id="use314" />
        </g>
      </g>
      <g
         id="g326">
        <use
           xlink:href="#a48Nyp5xG4"
           opacity="1"
           fill="#05e5b2"
           fill-opacity="0"
           id="use320" />
        <g
           id="g324">
          <use
             xlink:href="#a48Nyp5xG4"
             opacity="1"
             fill-opacity="0"
             stroke="#2facf0"
             stroke-width="4"
             stroke-opacity="1"
             id="use322" />
        </g>
      </g>
      <g
         id="g334">
        <use
           xlink:href="#b1NGApQo4S"
           opacity="1"
           fill="#05e5b2"
           fill-opacity="0"
           id="use328" />
        <g
           id="g332">
          <use
             xlink:href="#b1NGApQo4S"
             opacity="1"
             fill-opacity="0"
             stroke="#2facf0"
             stroke-width="4"
             stroke-opacity="1"
             id="use330" />
        </g>
      </g>
      <g
         id="g342">
        <use
           xlink:href="#m1vm2D5si"
           opacity="1"
           fill="#05e5b2"
           fill-opacity="0"
           id="use336" />
        <g
           id="g340">
          <use
             xlink:href="#m1vm2D5si"
             opacity="1"
             fill-opacity="0"
             stroke="#2facf0"
             stroke-width="4"
             stroke-opacity="1"
             id="use338" />
        </g>
      </g>
      <g
         id="g350">
        <use
           xlink:href="#d3a1SQ6bJR"
           opacity="1"
           fill="#05e5b2"
           fill-opacity="0"
           id="use344" />
        <g
           id="g348">
          <use
             xlink:href="#d3a1SQ6bJR"
             opacity="1"
             fill-opacity="0"
             stroke="#2facf0"
             stroke-width="4"
             stroke-opacity="1"
             id="use346" />
        </g>
      </g>
      <g
         id="g358">
        <use
           xlink:href="#j1daZNS0j8"
           opacity="1"
           fill="#05e5b2"
           fill-opacity="0"
           id="use352" />
        <g
           id="g356">
          <use
             xlink:href="#j1daZNS0j8"
             opacity="1"
             fill-opacity="0"
             stroke="#2facf0"
             stroke-width="4"
             stroke-opacity="1"
             id="use354" />
        </g>
      </g>
      <g
         id="g366">
        <use
           xlink:href="#a2UuZK97PU"
           opacity="1"
           fill="#05e5b2"
           fill-opacity="0"
           id="use360" />
        <g
           id="g364">
          <use
             xlink:href="#a2UuZK97PU"
             opacity="1"
             fill-opacity="0"
             stroke="#2facf0"
             stroke-width="3"
             stroke-opacity="1"
             id="use362" />
        </g>
      </g>
      <g
         id="g374">
        <use
           xlink:href="#a3zRPhToTF"
           opacity="1"
           fill="#05e5b2"
           fill-opacity="0"
           id="use368" />
        <g
           id="g372">
          <use
             xlink:href="#a3zRPhToTF"
             opacity="1"
             fill-opacity="0"
             stroke="#9cdcff"
             stroke-width="1"
             stroke-opacity="1"
             id="use370" />
        </g>
      </g>
      <g
         id="g382">
        <use
           xlink:href="#aaXNwPAvE"
           opacity="1"
           fill="#05e5b2"
           fill-opacity="0"
           id="use376" />
        <g
           id="g380">
          <use
             xlink:href="#aaXNwPAvE"
             opacity="1"
             fill-opacity="0"
             stroke="#9cdcff"
             stroke-width="1"
             stroke-opacity="1"
             id="use378" />
        </g>
      </g>
      <g
         id="g390">
        <use
           xlink:href="#dvEt8LruN"
           opacity="1"
           fill="#05e5b2"
           fill-opacity="0"
           id="use384" />
        <g
           id="g388">
          <use
             xlink:href="#dvEt8LruN"
             opacity="1"
             fill-opacity="0"
             stroke="#9cdcff"
             stroke-width="1"
             stroke-opacity="1"
             id="use386" />
        </g>
      </g>
      <g
         id="g398">
        <use
           xlink:href="#dFqcmJiRz"
           opacity="1"
           fill="#05e5b2"
           fill-opacity="0"
           id="use392" />
        <g
           id="g396">
          <use
             xlink:href="#dFqcmJiRz"
             opacity="1"
             fill-opacity="0"
             stroke="#9cdcff"
             stroke-width="1"
             stroke-opacity="1"
             id="use394" />
        </g>
      </g>
      <g
         id="g406">
        <use
           xlink:href="#ehlVn3Qar"
           opacity="1"
           fill="#05e5b2"
           fill-opacity="0"
           id="use400" />
        <g
           id="g404">
          <use
             xlink:href="#ehlVn3Qar"
             opacity="1"
             fill-opacity="0"
             stroke="#cbecff"
             stroke-width="1"
             stroke-opacity="1"
             id="use402" />
        </g>
      </g>
      <g
         id="g414">
        <use
           xlink:href="#a41zs5FURL"
           opacity="1"
           fill="#05e5b2"
           fill-opacity="0"
           id="use408" />
        <g
           id="g412">
          <use
             xlink:href="#a41zs5FURL"
             opacity="1"
             fill-opacity="0"
             stroke="#9cdcff"
             stroke-width="1"
             stroke-opacity="1"
             id="use410" />
        </g>
      </g>
    </g>
  </g>
  <g
     id="g4287"
     transform="matrix(0.65208333,0,0,0.65208333,164.51,179.87)">
    <g
       id="g4230">
      <g
         id="g4228"
         style="fill:#afe0fc;fill-opacity:1;stroke:#2b7298;stroke-opacity:1;stroke-width:0;stroke-miterlimit:4;stroke-dasharray:none;stroke-linejoin:round">
        <path
           id="path4226"
           d="M 456,112 H 440 V 72 C 440,58.768 429.232,48 416,48 h -32 c -13.232,0 -24,10.768 -24,24 v 64 h -18.832 l -1.76,-4.48 C 330.928,109.944 310.472,96 287.288,96 h -0.76 C 283.216,86.712 274.416,80 264,80 257.832,80 252.256,82.408 248,86.24 243.744,82.4 238.168,80 232,80 225.832,80 220.256,82.408 216,86.24 211.744,82.4 206.168,80 200,80 193.832,80 188.256,82.408 184,86.24 179.744,82.4 174.168,80 168,80 c -13.232,0 -24,10.768 -24,24 v 32 H 120 V 72 C 120,58.768 109.232,48 96,48 H 64 C 50.768,48 40,58.768 40,72 v 40 H 24 C 10.768,112 0,122.768 0,136 v 80 c 0,13.232 10.768,24 24,24 h 16 v 40 c 0,13.232 10.768,24 24,24 h 32 c 13.232,0 24,-10.768 24,-24 v -64 h 18.144 l 6.232,19.72 c 0.28,0.896 0.72,1.736 1.296,2.488 l 21.352,27.624 -13.68,143.728 c -0.552,5.736 1.352,11.472 5.232,15.736 3.88,4.256 9.4,6.704 15.168,6.704 h 108.448 c 5.784,0 11.32,-2.456 15.192,-6.744 3.88,-4.288 5.776,-10.04 5.2,-15.8 L 288.608,269.688 c -0.152,-1.464 0.432,-2.904 1.544,-3.856 l 43.896,-37.624 c 3.84,-3.296 6.536,-7.552 8.176,-12.208 H 360 v 64 c 0,13.232 10.768,24 24,24 h 32 c 13.232,0 24,-10.768 24,-24 v -40 h 16 c 13.232,0 24,-10.768 24,-24 v -80 c 0,-13.232 -10.768,-24 -24,-24 z M 40,224 H 24 c -4.416,0 -8,-3.592 -8,-8 v -80 c 0,-4.408 3.584,-8 8,-8 h 16 z m 64,-80 v 64 72 c 0,4.408 -3.584,8 -8,8 H 64 c -4.416,0 -8,-3.592 -8,-8 V 232 120 72 c 0,-4.408 3.584,-8 8,-8 h 32 c 4.416,0 8,3.592 8,8 z m 152,-40 c 0,-4.408 3.584,-8 8,-8 4.416,0 8,3.592 8,8 v 40 7.144 c 0,3.04 -1.488,5.784 -3.648,7.384 -0.232,0.16 -0.448,0.336 -0.696,0.472 -0.424,0.248 -0.888,0.384 -1.352,0.528 -0.512,0.16 -1.032,0.272 -1.584,0.32 -0.648,0.048 -1.28,0 -1.904,-0.096 -0.464,-0.072 -0.928,-0.128 -1.36,-0.272 -0.64,-0.216 -1.232,-0.568 -1.808,-0.952 -0.344,-0.232 -0.72,-0.408 -1.024,-0.688 -0.568,-0.52 -0.984,-1.16 -1.376,-1.808 -0.168,-0.28 -0.408,-0.504 -0.544,-0.808 -0.44,-1 -0.704,-2.096 -0.704,-3.224 z m -32,0 c 0,-4.408 3.584,-8 8,-8 4.416,0 8,3.592 8,8 v 48 c 0,4.408 -3.584,8 -8,8 -4.416,0 -8,-3.592 -8,-8 z m -32,0 c 0,-4.408 3.584,-8 8,-8 4.416,0 8,3.592 8,8 v 48 c 0,4.408 -3.584,8 -8,8 -4.416,0 -8,-3.592 -8,-8 z m -32,40 v -40 c 0,-4.408 3.584,-8 8,-8 4.416,0 8,3.592 8,8 v 48 c 0,1.128 -0.264,2.224 -0.712,3.232 -0.136,0.304 -0.376,0.528 -0.544,0.808 -0.392,0.648 -0.808,1.28 -1.376,1.808 -0.296,0.272 -0.672,0.456 -1.008,0.68 -0.584,0.384 -1.176,0.744 -1.832,0.96 -0.416,0.144 -0.872,0.192 -1.312,0.264 -0.64,0.096 -1.28,0.152 -1.944,0.096 -0.544,-0.048 -1.064,-0.16 -1.568,-0.32 -0.472,-0.152 -0.936,-0.288 -1.368,-0.536 -0.248,-0.128 -0.456,-0.304 -0.68,-0.464 -2.16,-1.6 -3.656,-4.352 -3.656,-7.392 z m -40,56 v -48 h 24 c 0,8.784 4.792,16.392 11.848,20.576 0.432,0.264 0.88,0.48 1.328,0.72 0.72,0.368 1.432,0.736 2.184,1.024 0.84,0.336 1.72,0.576 2.608,0.808 0.528,0.136 1.04,0.312 1.584,0.416 0.168,0.032 0.312,0.096 0.48,0.128 0.56,0.096 1.112,0.04 1.672,0.096 0.768,0.072 1.512,0.232 2.296,0.232 0.232,0 0.448,-0.064 0.672,-0.072 0.736,-0.024 1.448,-0.136 2.168,-0.216 0.96,-0.112 1.904,-0.24 2.824,-0.464 0.688,-0.168 1.344,-0.4 2.016,-0.624 0.896,-0.304 1.776,-0.64 2.624,-1.04 0.648,-0.312 1.272,-0.664 1.896,-1.032 0.8,-0.48 1.56,-0.992 2.304,-1.56 0.336,-0.256 0.72,-0.432 1.04,-0.704 0.16,-0.136 0.312,-0.264 0.464,-0.4 0.464,0.416 1.008,0.744 1.504,1.12 0.496,0.384 0.976,0.776 1.504,1.12 0.752,0.488 1.56,0.88 2.368,1.288 0.536,0.264 1.04,0.568 1.592,0.792 0.928,0.376 1.912,0.64 2.888,0.896 0.496,0.128 0.96,0.32 1.472,0.424 1.512,0.296 3.064,0.472 4.664,0.472 1.6,0 3.152,-0.176 4.664,-0.472 0.52,-0.104 0.992,-0.296 1.496,-0.432 0.968,-0.264 1.944,-0.512 2.864,-0.888 0.568,-0.232 1.08,-0.536 1.624,-0.808 0.8,-0.4 1.6,-0.792 2.344,-1.272 0.536,-0.344 1.016,-0.744 1.512,-1.128 0.496,-0.376 1.032,-0.704 1.496,-1.12 0.464,0.416 1,0.736 1.496,1.12 0.504,0.384 0.984,0.792 1.52,1.136 0.744,0.48 1.544,0.872 2.344,1.272 0.544,0.272 1.056,0.576 1.624,0.808 0.92,0.376 1.888,0.632 2.864,0.888 0.504,0.136 0.984,0.328 1.496,0.432 1.504,0.288 3.056,0.464 4.656,0.464 1.6,0 3.152,-0.176 4.664,-0.472 0.504,-0.104 0.976,-0.288 1.472,-0.424 0.984,-0.264 1.96,-0.52 2.888,-0.896 0.56,-0.224 1.064,-0.528 1.6,-0.8 0.808,-0.4 1.608,-0.8 2.36,-1.288 0.528,-0.344 1,-0.736 1.504,-1.12 0.496,-0.376 1.04,-0.704 1.504,-1.12 0.152,0.136 0.304,0.272 0.464,0.4 0.32,0.272 0.704,0.448 1.032,0.704 0.744,0.568 1.512,1.088 2.328,1.576 0.608,0.36 1.216,0.704 1.856,1.008 0.88,0.424 1.784,0.76 2.72,1.08 0.632,0.216 1.256,0.432 1.904,0.592 0.976,0.24 1.976,0.368 2.984,0.488 0.672,0.08 1.328,0.184 2.008,0.2 0.24,0.008 0.464,0.072 0.712,0.072 0.8,0 1.56,-0.16 2.336,-0.24 0.544,-0.048 1.088,0 1.64,-0.088 0.184,-0.032 0.352,-0.096 0.536,-0.128 0.36,-0.072 0.704,-0.176 1.056,-0.264 1.024,-0.248 2.016,-0.544 2.976,-0.928 0.528,-0.2 1.04,-0.416 1.544,-0.656 0.56,-0.272 1.104,-0.576 1.64,-0.888 5.848,-3.312 10.2,-8.92 11.68,-15.664 0.352,0.896 0.592,1.848 0.592,2.856 v 28.688 L 276.688,200 Z m 208,6.568 c 0,3.656 -1.592,7.112 -4.36,9.496 l -43.888,37.616 c -5.088,4.36 -7.728,10.936 -7.064,17.608 l 13.976,139.768 c 0.168,1.736 -0.64,2.92 -1.144,3.472 -0.496,0.544 -1.6,1.472 -3.336,1.472 h -108.44 c -1.728,0 -2.832,-0.92 -3.328,-1.472 -0.496,-0.552 -1.312,-1.728 -1.152,-3.456 l 13.984,-146.88 c 0.192,-2.024 -0.392,-4.04 -1.632,-5.656 L 159.2,229.544 154.92,216 h 121.768 c 4.208,0 8.336,-1.704 11.312,-4.688 L 299.312,200 C 302.336,196.976 304,192.96 304,188.688 V 160 c 0,-10.416 -6.712,-19.216 -16,-22.528 v -25.464 c 16.264,0.28 30.544,10.168 36.512,25.36 l 3.008,7.56 c 0.312,0.632 0.48,1.328 0.48,2.016 z M 360,200 h -16 v -48 h 16 z m 64,-80 v 112 48 c 0,4.408 -3.584,8 -8,8 h -32 c -4.416,0 -8,-3.592 -8,-8 V 208 144 72 c 0,-4.408 3.584,-8 8,-8 h 32 c 4.416,0 8,3.592 8,8 z m 40,96 c 0,4.408 -3.584,8 -8,8 h -16 v -96 h 16 c 4.416,0 8,3.592 8,8 z"
           inkscape:connector-curvature="0"
           style="fill:#2b6f93;fill-opacity:1;stroke:#2b7298;stroke-opacity:1;stroke-width:0;stroke-miterlimit:4;stroke-dasharray:none;stroke-linejoin:round" />
        <path
           style="fill:#2facf0;fill-opacity:1;stroke:#2b7298;stroke-width:0;stroke-linejoin:round;stroke-miterlimit:4;stroke-dasharray:none;stroke-opacity:1"
           d="m 93.332031,51.763672 c -11.831857,1.299725 -24.090856,-1.36663 -35.751953,1.216797 -10.154654,3.426275 -15.312108,14.934889 -13.635894,25.09883 -0.565681,12.108625 1.511688,24.712721 -1.166949,36.525851 -7.493384,3.06921 -16.682398,-0.0906 -24.654188,2.32649 -10.6571908,2.58535 -15.3305165,14.42531 -14.3007814,24.47656 1.1209185,26.74647 -1.201537,53.96788 1.0644532,80.64453 3.2214865,11.00776 15.7126072,15.66504 26.2128902,13.99024 4.739255,-0.59818 13.348884,-0.84515 13.21875,5.9082 0.02702,14.78834 -1.586238,29.91473 0.72461,44.54883 3.578921,11.297 16.518949,15.31141 27.175781,13.34766 12.313439,-0.76114 26.49263,3.50119 37.06055,-4.83399 10.23956,-9.24377 5.93026,-23.74933 6.76562,-35.76953 0.21815,-15.00322 -0.91042,-30.31863 0.82444,-45.13352 5.87878,-4.33521 14.28187,-1.27712 21.14041,-1.92117 7.23465,2.78241 5.65858,12.17492 8.62109,18.00586 3.54558,10.7326 13.03015,17.92412 19.0251,27.22441 4.52327,4.42187 6.75497,10.88818 4.57395,16.98762 -4.15439,46.56532 -9.45454,93.04985 -12.83147,139.64539 1.33852,10.66985 13.6843,16.01189 23.39452,13.94227 35.3065,-0.35545 70.7112,0.75199 105.95704,-0.57703 10.21575,-2.64628 14.10959,-15.20542 11.16291,-24.54149 -4.22207,-45.20197 -9.67324,-90.35318 -13.07893,-135.59132 3.50174,-8.32948 13.02188,-11.42299 18.5413,-18.15963 10.84568,-9.84243 23.34732,-18.17904 32.73019,-29.46342 1.38023,-4.8205 5.83346,-9.96928 11.32031,-7.46094 5.35796,0.32684 14.05902,-2.92063 16.43164,4.00391 0.92721,23.23764 -1.13093,46.73852 1.0293,69.84765 3.36911,11.46173 16.52749,15.88557 27.33203,13.79493 12.31344,-0.76114 26.49263,3.50119 37.06055,-4.83399 10.07295,-9.1495 6.12531,-23.43831 6.69737,-35.36703 0.2915,-7.52691 -1.12061,-15.74988 1.5995,-22.81852 10.88526,-2.42445 24.67381,2.54632 33.02149,-7.15234 8.78159,-9.44024 4.35043,-23.30816 5.40039,-34.75976 -0.578,-21.64292 1.17193,-43.49022 -0.88477,-64.96875 -3.22149,-11.00776 -15.71261,-15.66504 -26.21289,-13.99024 -4.73925,0.59818 -13.34888,0.84515 -13.21875,-5.9082 -0.0252,-14.788669 1.58387,-29.914172 -0.72461,-44.54883 -3.57898,-11.297 -16.51888,-15.311568 -27.17578,-13.347656 -12.31344,0.761138 -26.49263,-3.501194 -37.06055,4.833984 -10.23956,9.243775 -5.93026,23.749327 -6.76562,35.769531 -0.21815,15.003221 0.91042,30.318631 -0.82444,45.133521 -6.01351,4.41499 -14.52272,1.136 -21.54275,2.02468 -7.06198,-1.77263 -5.79872,-11.00125 -10.18555,-15.54492 C 322.15722,109.22859 304.2321,99.453525 286.56055,100 280.53723,97.205702 280.12352,88.48555 273.2832,86.277344 c -7.94456,-4.544135 -17.64068,-1.595225 -24.31445,3.521484 -6.04951,-0.123701 -9.79347,-6.818982 -16.25,-5.884766 -6.57731,-0.475109 -11.80746,4.317282 -17.55859,6.226563 -7.98351,-7.538628 -21.30563,-8.169861 -29.38525,-0.511893 -6.14444,1.023319 -9.8439,-6.336574 -16.1421,-5.638498 -12.82887,-1.241318 -23.85875,11.445136 -21.69726,24.025386 -0.66901,10.29597 1.84187,21.37137 -1.53907,31.17383 -9.2792,1.29104 -19.13795,1.38864 -28.31857,-0.0804 -4.47888,-6.22086 -0.90704,-14.87228 -2.11071,-22.07559 -0.56491,-17.20032 1.34584,-34.62048 -1.02189,-51.619408 -2.93095,-8.855197 -12.57434,-14.18209 -21.613279,-13.65039 z m -7.142578,8.089844 c 7.366371,0.182611 18.119797,-1.105767 20.892577,7.857422 2.58737,10.203689 0.0152,20.944179 0.89693,31.353503 -0.19765,61.394909 0.54758,122.848789 -0.41255,184.207039 -2.30821,8.79407 -12.932072,9.97279 -20.474297,8.60183 -9.922558,-0.69729 -20.920021,2.46275 -30.185863,-2.14089 -8.449378,-7.04931 -3.738471,-19.37901 -4.896823,-28.7539 0.210446,-63.99046 -0.490818,-128.02521 0.369479,-191.988286 1.697037,-7.488267 10.226928,-10.298376 17.070311,-8.875148 5.581188,0.01418 11.159155,-0.254024 16.740236,-0.26157 z m 319.999997,0 c 7.36637,0.182611 18.1198,-1.105767 20.89258,7.857422 2.58737,10.203689 0.0152,20.944179 0.89693,31.353503 -0.19765,61.394909 0.54758,122.848789 -0.41255,184.207039 -2.30821,8.79407 -12.93207,9.97279 -20.4743,8.60183 -9.92255,-0.69729 -20.92002,2.46275 -30.18586,-2.14089 -8.44938,-7.04931 -3.73847,-19.37901 -4.89682,-28.7539 0.21044,-63.99046 -0.49082,-128.02521 0.36948,-191.988286 1.69703,-7.488267 10.22692,-10.298376 17.07031,-8.875148 5.58118,0.01418 11.15915,-0.254024 16.74023,-0.26157 z M 168.06445,92 c 9.2202,-0.263088 13.88419,10.28506 11.90199,18.20873 -0.54641,15.54202 1.33809,31.38751 -1.01527,46.73658 -3.90356,9.72066 -20.42134,8.75728 -22.18555,-1.93164 -2.22046,-10.71761 0.19321,-21.76063 -0.68924,-32.61296 0.48934,-8.41502 -2.16901,-18.13215 2.40995,-25.71321 2.25091,-2.915223 5.88008,-4.752785 9.57812,-4.6875 z m 32,0 c 9.21638,-0.26328 13.89486,10.28737 11.89319,18.21057 -0.60071,15.6631 1.49775,31.66143 -1.12561,47.10974 -4.18236,9.97009 -21.62753,8.03826 -22.42187,-3.16992 -1.4518,-13.77386 0.56163,-27.70834 -0.58985,-41.49219 -0.32004,-7.46455 -0.10615,-17.901545 8.82422,-20.181638 1.1076,-0.327652 2.26476,-0.491071 3.41992,-0.476562 z m 32,0 c 9.21638,-0.26328 13.89486,10.28737 11.89319,18.21057 -0.60071,15.6631 1.49775,31.66143 -1.12561,47.10974 -4.18236,9.97009 -21.62753,8.03826 -22.42187,-3.16992 -1.4518,-13.77386 0.56163,-27.70834 -0.58985,-41.49219 -0.32004,-7.46455 -0.10615,-17.901545 8.82422,-20.181638 1.1076,-0.327652 2.26476,-0.491071 3.41992,-0.476562 z m 32,0 c 9.21545,-0.263252 13.89901,10.28889 11.88987,18.21245 -0.56199,15.50079 1.45008,31.27916 -1.09494,46.60005 -3.68833,9.80319 -20.23358,8.94803 -22.21094,-1.5918 -2.03628,-9.63138 0.28479,-19.56094 -0.53524,-29.31243 0.37936,-9.28965 -1.84804,-19.35286 1.65047,-28.181708 2.14974,-3.503074 6.17537,-5.801504 10.30078,-5.726562 z m 24.86524,16.01562 c 25.52357,0.21553 46.46031,25.98977 43.04041,50.91829 -0.77758,17.63292 1.48738,35.67626 -0.9994,53.21648 -4.82837,10.5199 -16.41731,15.12685 -23.84961,23.48047 -9.47191,8.73232 -20.93783,15.76064 -28.70312,26.11523 -4.46051,11.0361 1.00937,22.73268 0.73827,34.1178 3.57796,39.31106 8.63735,78.6144 11.20509,117.93884 -2.52706,8.28461 -12.62384,6.11514 -19.18749,6.19229 -33.51756,-0.39298 -67.16566,0.82388 -100.60157,-0.62002 -7.83174,-3.30403 -4.80177,-13.2001 -4.24805,-19.62891 4.10133,-45.76977 9.23569,-91.53562 12.68164,-137.2832 -8.8257,-15.42551 -25.67985,-26.89163 -27.60156,-45.72266 0.7395,-6.71578 9.47541,-4.66529 14.09765,-4.60937 38.01663,-0.59053 76.12737,0.51736 114.11719,-0.55469 8.0793,-3.16611 13.05027,-11.01865 18.74609,-17.04883 3.98104,-9.86486 0.16167,-20.50597 1.91993,-30.80078 0.34186,-9.07962 -3.85481,-19.22349 -13.0918,-22.08398 -6.29879,-5.40625 -1.80947,-14.65222 -3.2793,-21.71094 0.29316,-3.95024 -1.22428,-12.40781 5.01563,-11.91602 z m 155.20117,15.70313 c 6.63509,1.5079 14.64273,-1.9063 19.99414,3.51172 7.12457,7.1048 2.70057,17.81816 3.8282,26.59179 -0.3022,22.19846 0.98648,44.59502 -0.78523,66.67188 -3.13948,8.23173 -13.18011,8.08176 -20.44531,7.76367 -5.57446,1.15326 -13.05549,-2.60286 -11.05664,-9.23242 C 436.44668,188.76848 435.77632,158.32757 436,128 c 0.91447,-3.35712 5.0941,-4.306 8.13086,-4.28125 z m -408.339844,0.0625 c 4.494284,-0.26731 9.811063,2.39612 8.100171,7.82409 0.03816,31.0864 0.496939,62.34827 -0.247239,93.32522 -4.875452,6.23426 -13.556853,1.61042 -20.15176,3.12803 -8.955163,-0.26979 -13.419467,-10.44624 -11.476121,-18.26752 0.398329,-25.92508 -0.901554,-51.98814 0.675339,-77.82623 2.107109,-6.52019 9.533499,-8.99098 15.769532,-7.8164 2.442656,-0.1319 4.880148,-0.42505 7.330078,-0.36719 z m 312.339844,23.9375 c 4.5414,0.78964 9.61982,-0.26364 13.73047,1.27539 4.89833,6.02843 0.71275,14.25669 2.06121,21.21867 -0.45676,10.73336 1.46796,21.98271 -1.15672,32.40796 -6.2009,2.34114 -13.9039,1.67197 -20.64082,0.66048 -3.39129,-3.75138 -1.40076,-10.25286 -2.16239,-15.19717 0.14785,-12.44554 -0.39491,-25.12757 0.54716,-37.41806 1.82694,-2.26172 4.83783,-2.97627 7.62109,-2.94727 z m -220.02734,0.19727 c 5.89263,0.65582 12.51619,-0.99356 17.92968,1.14648 3.63705,4.20113 1.68226,10.75022 5.85938,14.81641 6.79206,9.41762 21.52716,10.545 30.0293,2.85742 6.00751,-1.92856 9.58609,5.66452 15.625,5.15625 6.97008,1.29222 12.84535,-3.58018 18.83398,-5.69141 6.20781,3.15197 12.90563,7.82319 20.23437,5.16992 4.66392,-0.7843 8.42465,-5.35615 12.95899,-5.02148 9.29522,8.61869 26.01418,6.94766 31.93359,-4.80469 0.82847,-4.05647 4.16998,-9.78641 8.78321,-6.33398 3.85702,5.47772 0.59286,12.95025 1.71289,19.20312 -0.43963,6.68402 2.07297,15.37789 -4.17579,19.875 -4.31238,5.70504 -10.45862,11.70648 -18.30468,9.71094 -49.84115,0 -99.68229,0 -149.52344,0 -7.14147,-3.45889 -2.91993,-12.51724 -3.9668,-18.63867 0.67299,-11.9274 -1.56508,-24.36513 1.20098,-35.9821 2.79765,-1.94578 7.43833,-1.13831 10.86934,-1.46321 z"
           id="path6892"
           inkscape:connector-curvature="0" />
        <path
           style="fill:#9cdcff;fill-opacity:1;stroke:#2b7298;stroke-width:0;stroke-linejoin:round;stroke-miterlimit:4;stroke-dasharray:none;stroke-opacity:1"
           d="m 411.91016,53.699219 c -13.25265,2.357575 -28.78758,-4.042652 -40.29297,5.1875 -8.9947,8.929228 -4.76856,22.758294 -5.66211,33.917969 -0.48971,15.337262 1.49896,31.117372 -1.34957,46.162702 -6.62401,5.76428 -16.29072,2.22361 -24.21879,2.67909 -8.15598,-2.9586 -6.61926,-13.64409 -12.4668,-18.92187 -9.51446,-13.43734 -25.94377,-21.15853 -42.26562,-20.94141 -6.96055,-3.372157 -7.59409,-13.610007 -16.05274,-14.9707 -7.36576,-2.589361 -14.63457,1.387678 -20.74414,4.982422 -7.03387,-0.263637 -11.80689,-8.311692 -19.36328,-5.675781 -5.60036,0.746146 -10.04007,6.381091 -15.66992,5.509765 -7.48899,-7.372608 -20.23332,-6.981441 -27.79688,-0.01563 -7.28036,1.173677 -11.8071,-7.565164 -19.26367,-5.667969 -11.06012,0.751321 -19.02425,12.515411 -16.88476,23.146488 -0.82707,10.49383 2.75386,22.42951 -2.69922,31.9375 -10.0928,1.24403 -21.06069,2.31519 -30.76172,-0.80469 -5.26999,-8.23717 -0.89647,-18.34397 -2.53897,-27.39839 -0.4363,-16.041077 1.74493,-32.427473 -1.39658,-48.236376 -4.14543,-9.37364 -15.385543,-12.109004 -24.689451,-10.472656 -11.527123,0.796667 -23.79155,-2.925583 -34.181641,3.177734 -8.557605,6.025408 -8.345292,17.117634 -7.763407,26.367169 -0.271606,10.598782 1.877809,22.059319 -1.76629,32.122559 -9.91203,5.67101 -24.080646,-2.15477 -32.763272,7.33254 -9.1702906,10.00061 -4.1210113,24.30729 -5.1757809,36.3789 0.2042232,21.09478 -1.4402308,42.46544 1.1132813,63.31446 4.3835446,11.00785 17.6248746,12.73368 27.8847656,10.95312 5.907312,-0.7271 12.69823,3.52414 11.167889,10.19724 0.212901,14.58804 -2.141038,29.53384 1.347736,43.77737 4.911278,10.65739 17.991363,11.47048 28.089844,10.01367 11.377937,-0.0549 26.148566,3.43045 34.468746,-6.70117 7.00016,-10.21992 2.65423,-23.18759 3.85547,-34.64062 0.34192,-14.40708 -1.41333,-29.25999 1.32296,-43.37827 6.36772,-5.67555 15.71192,-2.29322 23.40361,-2.68033 9.17512,3.88413 6.61853,15.63175 11.23242,22.85938 5.83669,11.3597 16.99687,19.2378 22.16797,30.93359 2.32055,7.96332 -1.50924,16.05461 -1.23101,24.15621 -3.75376,42.26594 -8.97646,84.51709 -11.35103,126.80278 2.4487,9.75484 14.40065,12.72128 23.16206,10.87587 34.87924,-0.4977 69.97506,1.14512 104.71099,-0.88564 9.79158,-3.86822 10.59493,-16.23524 8.14982,-25.01389 -4.0501,-44.54211 -9.86144,-89.01468 -12.62638,-133.61697 4.5206,-9.6428 15.28646,-13.48711 21.86376,-21.33191 9.9505,-9.08724 22.13416,-16.47668 29.85694,-27.6095 1.86876,-5.50146 7.97714,-9.73808 13.71485,-7.29687 6.0596,-0.65208 15.57175,-1.99269 17.4082,5.9082 1.16699,23.57076 -1.62609,47.40156 1.43945,70.7793 4.22248,10.51446 17.23441,12.73541 27.24024,10.84766 11.52066,-0.31308 25.94196,3.56155 34.97656,-5.84766 8.04974,-10.27723 3.34954,-24.26586 4.49324,-36.12297 0.31756,-6.84582 -1.66201,-15.42706 3.17668,-20.92195 10.59693,-2.5219 24.3504,2.59944 32.33398,-6.97657 7.96645,-9.95301 3.22657,-23.45017 4.44013,-35.02498 -0.64373,-21.23585 1.5849,-42.71036 -1.21161,-63.67619 -4.38354,-11.00785 -17.62487,-12.73368 -27.88476,-10.95312 -5.90732,0.7271 -12.69823,-3.52414 -11.16789,-10.19724 -0.21123,-14.599385 2.1392,-29.533045 -1.34774,-43.777371 -3.44135,-7.674074 -12.49869,-10.943129 -20.43359,-10.5625 z m -345.695316,4.0625 c 12.301389,1.648682 25.53876,-2.436186 37.308596,2.478515 8.79415,5.356674 6.38959,17.51268 6.50817,26.159009 -0.43126,65.793947 0.67633,131.650627 -0.54919,197.446457 -2.79062,10.39027 -15.403713,11.57254 -24.296873,9.93946 -10.25405,-0.47075 -22.683861,3.25926 -31.230469,-4.12891 C 46.38463,280.41353 51.465809,267.74384 50.019536,256.97267 50.364451,193.886 49.18884,130.70966 50.658203,67.679688 52.546231,61.028251 59.702974,57.584981 66.214844,57.761719 Z m 319.999996,0 c 12.30139,1.648673 25.53877,-2.436197 37.3086,2.478515 8.79415,5.356674 6.38959,17.51268 6.50817,26.159009 -0.43126,65.793947 0.67633,131.650627 -0.54919,197.446457 -2.79062,10.39027 -15.40371,11.57254 -24.29687,9.93946 -10.25405,-0.47075 -22.68386,3.25926 -31.23047,-4.12891 -7.57045,-9.24272 -2.48927,-21.91241 -3.93554,-32.68358 0.34491,-63.08667 -0.8307,-126.26301 0.63866,-189.292982 1.88803,-6.651437 9.04477,-10.094707 15.55664,-9.917969 z M 168.54102,89.996094 c 10.49081,0.06574 15.78573,12.384406 13.39384,21.454736 -0.70046,15.72496 1.95457,31.90745 -1.63017,47.33237 -5.1379,10.48134 -23.75221,8.59561 -25.50391,-3.39648 -2.34733,-13.82483 0.43974,-27.66252 -0.88548,-41.39777 -1.01243,-8.86275 0.32849,-21.417722 10.89915,-23.627622 1.21796,-0.30584 2.47533,-0.381759 3.72657,-0.365234 z m 31.99804,0 c 10.48943,0.06437 15.79883,12.386496 13.38411,21.456636 -0.74322,15.86275 2.12927,32.23932 -1.7845,47.76016 -5.55795,10.74321 -25.04493,7.66742 -25.71875,-4.86719 -1.22453,-15.90453 0.26501,-31.882 -0.60742,-47.80078 -0.17449,-8.567049 5.35953,-17.162034 14.72656,-16.548826 z m 32,0 c 10.48943,0.06437 15.79883,12.386496 13.38411,21.456636 -0.74322,15.86275 2.12927,32.23932 -1.7845,47.76016 -5.55795,10.74321 -25.04493,7.66742 -25.71875,-4.86719 -1.22453,-15.90453 0.26501,-31.882 -0.60742,-47.80078 -0.17449,-8.567049 5.35953,-17.162034 14.72656,-16.548826 z m 32,0 c 10.49006,0.06511 15.8005,12.387756 13.38326,21.458626 -0.78409,15.82069 2.24815,32.24735 -1.93404,47.67028 -5.52611,10.46574 -24.36128,7.82442 -25.48828,-4.47266 -1.69331,-13.74464 0.70753,-27.42813 -0.6875,-41.16406 -0.54972,-8.66352 0.40364,-20.800289 10.76172,-23.068358 1.2933,-0.346178 2.63073,-0.444598 3.96484,-0.423828 z M 289,106.01758 c 27.14025,0.14815 49.22306,28.21866 44.90625,54.6289 -0.86923,17.76 2.19046,35.99048 -1.65039,53.42774 -5.99473,11.02715 -18.26678,16.18494 -26.3837,25.34316 -8.72765,7.84086 -19.36211,14.16559 -25.9581,24.0377 -3.47548,12.08812 1.99117,24.03193 1.61506,36.29917 3.36253,38.32962 8.86722,76.6954 10.58611,115.12075 -3.16456,9.00583 -14.47288,7.31988 -21.95894,7.11043 -33.58502,-0.57168 -67.35275,1.26224 -100.82231,-0.97371 -8.5407,-4.09842 -5.76828,-15.03579 -4.9093,-22.46854 4.07345,-45.22427 9.10644,-90.35626 12.53821,-135.60568 -9.18877,-15.5476 -26.86049,-27.82088 -27.4082,-47.2793 2.01977,-8.01688 11.96909,-5.46097 17.94905,-5.55319 37.35247,-0.62677 74.80495,0.72547 112.09587,-0.68704 7.51344,-3.74495 12.86361,-10.7502 17.50586,-17.32422 2.63784,-10.13299 -0.34039,-20.5683 1.1582,-30.85937 -0.13869,-8.25442 -5.31605,-15.97024 -13.0957,-18.75 -6.3702,-7.03857 -1.72287,-16.8868 -3.21813,-25.23631 -0.33015,-4.73697 0.63006,-11.84764 7.05016,-11.23049 z m 155.5293,15.74023 c 7.67698,1.09594 17.71551,-1.93684 22.71289,6.07031 5.8172,9.07188 1.36615,20.17666 2.67187,30.17774 -0.40299,21.34158 1.5217,42.99094 -1.27539,64.13867 -4.78571,9.6642 -17.10012,8.24283 -26.07812,8.15625 -6.03732,-0.52039 -10.88095,-6.56005 -8.86567,-12.55442 0.9626,-30.33486 -0.38539,-60.81474 0.64887,-91.06863 1.62154,-3.87002 6.35936,-5.10659 10.18555,-4.91992 z m -407.888675,0.008 c 5.909687,-0.39141 11.356991,5.17061 9.252746,11.11524 -0.173853,30.98672 0.931076,62.15275 -0.603009,93.02698 -5.3689,7.52623 -15.365312,2.74995 -22.895831,4.07849 -10.491341,-1.12906 -14.5018599,-13.38821 -12.353425,-22.41979 0.504054,-25.63819 -1.3065941,-51.454 1.019441,-76.9767 3.016509,-8.1066 12.664948,-9.39447 20.085268,-8.62902 1.828127,-0.16196 3.660901,-0.19871 5.49481,-0.1952 z m 311.783205,23.97461 c 5.88794,1.0664 15.65569,-1.86924 17.26367,6.33789 1.53716,7.64688 -0.85307,15.4664 0.17298,23.19526 -0.21545,9.36027 1.78648,19.71521 -1.8155,28.55464 -6.79294,3.66181 -15.78202,2.62715 -23.08307,0.94587 -5.09299,-5.5056 -1.94067,-13.96381 -2.97555,-20.70156 0.30005,-11.54038 -0.86853,-23.36331 1.01755,-34.72272 2.24613,-2.75503 5.99292,-3.75244 9.41992,-3.60938 z m -210.00586,0.17969 c 5.06487,-0.46433 11.1927,1.24735 11.69531,7.17969 0.13128,10.20953 10.16168,18.08117 20.15625,16.60351 6.50125,0.46901 11.05705,-8.08681 17.60156,-4.32031 4.86199,3.60767 10.99308,6.38191 17.01758,3.75391 5.42079,-1.80611 11.15567,-7.47318 16.54968,-2.527 6.50467,4.48336 15.25206,4.51129 21.55188,-0.3773 3.53845,-2.6535 7.88046,-2.19249 10.875,0.8418 9.52441,6.09455 24.73846,1.65431 27.14844,-10.05469 1.79066,-5.63431 10.74774,-6.81899 12.30078,-0.32617 2.09226,7.4676 -0.37582,15.30913 0.72852,22.93359 0.85947,6.57057 -0.70447,13.55867 -6.13152,17.77377 -4.68761,6.42678 -12.62171,10.55349 -20.60872,8.59928 -49.40492,-0.15797 -98.88791,0.31567 -148.24414,-0.23633 -8.29502,-4.16034 -4.17948,-14.45729 -4.96875,-21.61914 0.71928,-11.93167 -2.1191,-24.53778 1.76318,-36.02294 6.12488,-4.15776 14.40406,-1.10194 21.37159,-2.188 0.39793,0.0188 0.79554,-0.0149 1.19336,-0.0137 z"
           id="path6898"
           inkscape:connector-curvature="0" />
      </g>
      <g
         style="fill:url(#meshgradient6620);fill-opacity:1;stroke:url(#radialGradient6742);stroke-opacity:1;stroke-width:6.13418533;stroke-miterlimit:4;stroke-dasharray:none;stroke-linejoin:round;paint-order:normal;stroke-linecap:square"
         id="g5096" />
    </g>
    <g
       id="g4232" />
    <g
       id="g4234" />
    <g
       id="g4236" />
    <g
       id="g4238" />
    <g
       id="g4240" />
    <g
       id="g4242" />
    <g
       id="g4244" />
    <g
       id="g4246" />
    <g
       id="g4248" />
    <g
       id="g4250" />
    <g
       id="g4252" />
    <g
       id="g4254" />
    <g
       id="g4256" />
    <g
       id="g4258" />
    <g
       id="g4260" />
  </g>
</svg>
