<?xml version="1.0" encoding="UTF-8" standalone="no"?>
<!DOCTYPE svg PUBLIC "-//W3C//DTD SVG 1.1//EN" "http://www.w3.org/Graphics/SVG/1.1/DTD/svg11.dtd">
<svg version="1.1" xmlns="http://www.w3.org/2000/svg" xmlns:xlink="http://www.w3.org/1999/xlink" preserveAspectRatio="xMidYMid meet" viewBox="0 0 640 640" width="640" height="640"><defs><path d="M348.49 39.46L90.68 154.14L61.2 434.61L289.53 600.4L547.35 485.71L576.82 205.24L348.49 39.46Z" id="a1ZQ7FBvLP"></path><path d="M320 20L60 170L60 470L320 620L580 470L580 170L320 20Z" id="amuVnHnRC"></path><radialGradient id="gradientaUD3yztX" gradientUnits="userSpaceOnUse" cx="320" cy="320" dx="166.97" dy="570" r="293.12"><stop style="stop-color: #000000;stop-opacity: 1" offset="0%"></stop><stop style="stop-color: #000000;stop-opacity: 1" offset="26.10052453356353%"></stop><stop style="stop-color: #29536a;stop-opacity: 1" offset="66.70539804793847%"></stop><stop style="stop-color: #4285a9;stop-opacity: 1" offset="92.98519354624534%"></stop><stop style="stop-color: #4f9fcb;stop-opacity: 1" offset="100%"></stop></radialGradient><path d="M431.8 126L207.55 125.93L95.49 320.02L207.68 514.19L431.92 514.26L543.98 320.16L431.8 126Z" id="a7dYBJf3Mv"></path><path d="M375.48 59L121.54 141.42L66.06 402.42L264.52 581L518.46 498.58L573.94 237.58L375.48 59Z" id="b15YfTW3NN"></path><path d="M397.01 81.21L150.82 133.45L73.09 372.68L241.56 559.66L487.75 507.41L565.48 268.18L397.01 81.21Z" id="b1aPYaPXXp"></path><path d="M415.46 103.51L179.58 128.23L83.16 344.78L222.63 536.61L458.51 511.89L554.93 295.34L415.46 103.51Z" id="f57uMGLU3z"></path><path d="M442.35 151.16L233.61 129.16L110.3 298.87L195.73 490.6L404.48 512.61L527.78 342.89L442.35 151.16Z" id="a7n5vUlp9Y"></path><path d="M451.96 173.45L258.97 132.36L127.01 278.91L188.04 466.55L381.03 507.64L512.99 361.09L451.96 173.45Z" id="cyjN6fbOx"></path><path d="M457.17 195.38L279.63 137.63L140.96 262.48L179.84 445.09L357.38 502.83L496.04 377.98L457.17 195.38Z" id="c2Rc6jviJl"></path><path d="M460.76 217.44L300.01 145.81L157.71 249.2L176.16 424.22L336.91 495.85L479.21 392.46L460.76 217.44Z" id="b2ZuZceIzv"></path><path d="M462.03 237.64L318.42 154.67L174.87 237.55L174.93 403.4L318.53 486.37L462.08 403.49L462.03 237.64Z" id="b5r6AXdMch"></path><path d="M462.03 257.08L335.19 164.87L192.02 228.61L175.68 384.57L302.51 476.78L445.68 413.03L462.03 257.08Z" id="b1yl3WOH2Y"></path><path d="M460 274.51L350.58 175.92L210.58 221.41L180 365.49L289.42 464.08L429.42 418.59L460 274.51Z" id="dheNzf3MG"></path><path d="M455.24 290.76L362.63 187.83L227.27 216.6L184.53 348.3L277.14 451.22L412.5 422.45L455.24 290.76Z" id="d8bONJbfz5"></path><path d="M450.18 305.72L373.21 199.71L242.99 213.4L189.75 333.1L266.72 439.1L396.93 425.42L450.18 305.72Z" id="ftA7q0pF1"></path><path d="M443.11 319.73L381.4 212.76L257.98 212.76L196.27 319.73L257.98 426.7L381.4 426.7L443.11 319.73Z" id="b1ZawyCAJn"></path><path d="M435.5 331.72L388.2 225.39L272.53 213.23L204.15 307.41L251.45 413.74L367.13 425.89L435.5 331.72Z" id="a1CieNBMTS"></path><path d="M427.49 342.75L393.52 238.1L285.95 215.23L212.35 297.03L246.32 401.68L353.89 424.55L427.49 342.75Z" id="d8ZIh6sCE6"></path><path d="M422.67 355.65L400.62 251.79L299.71 219L220.83 290.07L242.87 393.92L343.79 426.71L422.67 355.65Z" id="cCV4c0hSd"></path><path d="M413.01 363.1L402.61 263.84L311.48 223.27L230.76 281.96L241.16 381.22L332.28 421.79L413.01 363.1Z" id="a7v287VnSu"></path><path d="M403.71 369.69L403.74 275.25L322.01 228.06L240.24 275.31L240.21 369.74L321.95 416.93L403.71 369.69Z" id="b1aCFCqpQf"></path><path d="M393.66 374.86L402.99 286.34L331.01 234.04L249.7 270.27L240.37 358.8L312.35 411.1L393.66 374.86Z" id="azYxCQ4L2"></path><path d="M384.14 378.63L401.61 296.58L339.3 240.48L259.52 266.43L242.06 348.48L304.36 404.58L384.14 378.63Z" id="aeNd2qBHD"></path><path d="M374.79 381.67L399.32 306.24L346.28 247.33L268.7 263.85L244.17 339.27L297.21 398.18L374.79 381.67Z" id="b1aZINC8jy"></path><path d="M348.72 40.13L90.79 154.87L61.3 435.46L289.74 601.32L547.67 486.58L577.16 205.99L348.72 40.13Z" id="h4Z3LbX5b5"></path></defs><g><g><g><use xlink:href="#a1ZQ7FBvLP" opacity="1" fill="#05e5b3" fill-opacity="0"></use><g><use xlink:href="#a1ZQ7FBvLP" opacity="1" fill-opacity="0" stroke="#683e1c" stroke-width="4" stroke-opacity="1"></use></g></g><g><use xlink:href="#amuVnHnRC" opacity="1" fill="url(#gradientaUD3yztX)"></use><g><use xlink:href="#amuVnHnRC" opacity="1" fill-opacity="0" stroke="#000000" stroke-width="4" stroke-opacity="1"></use></g></g><g><use xlink:href="#a7dYBJf3Mv" opacity="1" fill="#05e5b3" fill-opacity="0"></use><g><use xlink:href="#a7dYBJf3Mv" opacity="1" fill-opacity="0" stroke="#000000" stroke-width="4" stroke-opacity="1"></use></g></g><g><use xlink:href="#b15YfTW3NN" opacity="1" fill="#05e5b3" fill-opacity="0"></use><g><use xlink:href="#b15YfTW3NN" opacity="1" fill-opacity="0" stroke="#000000" stroke-width="4" stroke-opacity="1"></use></g></g><g><use xlink:href="#b1aPYaPXXp" opacity="1" fill="#05e5b3" fill-opacity="0"></use><g><use xlink:href="#b1aPYaPXXp" opacity="1" fill-opacity="0" stroke="#000000" stroke-width="4" stroke-opacity="1"></use></g></g><g><use xlink:href="#f57uMGLU3z" opacity="1" fill="#05e5b3" fill-opacity="0"></use><g><use xlink:href="#f57uMGLU3z" opacity="1" fill-opacity="0" stroke="#000000" stroke-width="4" stroke-opacity="1"></use></g></g><g><use xlink:href="#a7n5vUlp9Y" opacity="1" fill="#05e5b2" fill-opacity="0"></use><g><use xlink:href="#a7n5vUlp9Y" opacity="1" fill-opacity="0" stroke="#000000" stroke-width="4" stroke-opacity="1"></use></g></g><g><use xlink:href="#cyjN6fbOx" opacity="1" fill="#05e5b2" fill-opacity="0"></use><g><use xlink:href="#cyjN6fbOx" opacity="1" fill-opacity="0" stroke="#000000" stroke-width="4" stroke-opacity="1"></use></g></g><g><use xlink:href="#c2Rc6jviJl" opacity="1" fill="#05e5b2" fill-opacity="0"></use><g><use xlink:href="#c2Rc6jviJl" opacity="1" fill-opacity="0" stroke="#000000" stroke-width="4" stroke-opacity="1"></use></g></g><g><use xlink:href="#b2ZuZceIzv" opacity="1" fill="#05e5b2" fill-opacity="0"></use><g><use xlink:href="#b2ZuZceIzv" opacity="1" fill-opacity="0" stroke="#000000" stroke-width="4" stroke-opacity="1"></use></g></g><g><use xlink:href="#b5r6AXdMch" opacity="1" fill="#05e5b2" fill-opacity="0"></use><g><use xlink:href="#b5r6AXdMch" opacity="1" fill-opacity="0" stroke="#000000" stroke-width="4" stroke-opacity="1"></use></g></g><g><use xlink:href="#b1yl3WOH2Y" opacity="1" fill="#05e5b2" fill-opacity="0"></use><g><use xlink:href="#b1yl3WOH2Y" opacity="1" fill-opacity="0" stroke="#000000" stroke-width="4" stroke-opacity="1"></use></g></g><g><use xlink:href="#dheNzf3MG" opacity="1" fill="#05e5b2" fill-opacity="0"></use><g><use xlink:href="#dheNzf3MG" opacity="1" fill-opacity="0" stroke="#000000" stroke-width="4" stroke-opacity="1"></use></g></g><g><use xlink:href="#d8bONJbfz5" opacity="1" fill="#05e5b2" fill-opacity="0"></use><g><use xlink:href="#d8bONJbfz5" opacity="1" fill-opacity="0" stroke="#000000" stroke-width="4" stroke-opacity="1"></use></g></g><g><use xlink:href="#ftA7q0pF1" opacity="1" fill="#05e5b2" fill-opacity="0"></use><g><use xlink:href="#ftA7q0pF1" opacity="1" fill-opacity="0" stroke="#000000" stroke-width="4" stroke-opacity="1"></use></g></g><g><use xlink:href="#b1ZawyCAJn" opacity="1" fill="#05e5b2" fill-opacity="0"></use><g><use xlink:href="#b1ZawyCAJn" opacity="1" fill-opacity="0" stroke="#000000" stroke-width="4" stroke-opacity="1"></use></g></g><g><use xlink:href="#a1CieNBMTS" opacity="1" fill="#05e5b2" fill-opacity="0"></use><g><use xlink:href="#a1CieNBMTS" opacity="1" fill-opacity="0" stroke="#000000" stroke-width="4" stroke-opacity="1"></use></g></g><g><use xlink:href="#d8ZIh6sCE6" opacity="1" fill="#05e5b2" fill-opacity="0"></use><g><use xlink:href="#d8ZIh6sCE6" opacity="1" fill-opacity="0" stroke="#000000" stroke-width="4" stroke-opacity="1"></use></g></g><g><use xlink:href="#cCV4c0hSd" opacity="1" fill="#05e5b2" fill-opacity="0"></use><g><use xlink:href="#cCV4c0hSd" opacity="1" fill-opacity="0" stroke="#000000" stroke-width="4" stroke-opacity="1"></use></g></g><g><use xlink:href="#a7v287VnSu" opacity="1" fill="#05e5b2" fill-opacity="0"></use><g><use xlink:href="#a7v287VnSu" opacity="1" fill-opacity="0" stroke="#000000" stroke-width="4" stroke-opacity="1"></use></g></g><g><use xlink:href="#b1aCFCqpQf" opacity="1" fill="#05e5b2" fill-opacity="0"></use><g><use xlink:href="#b1aCFCqpQf" opacity="1" fill-opacity="0" stroke="#000000" stroke-width="4" stroke-opacity="1"></use></g></g><g><use xlink:href="#azYxCQ4L2" opacity="1" fill="#05e5b2" fill-opacity="0"></use><g><use xlink:href="#azYxCQ4L2" opacity="1" fill-opacity="0" stroke="#000000" stroke-width="4" stroke-opacity="1"></use></g></g><g><use xlink:href="#aeNd2qBHD" opacity="1" fill="#05e5b2" fill-opacity="0"></use><g><use xlink:href="#aeNd2qBHD" opacity="1" fill-opacity="0" stroke="#000000" stroke-width="4" stroke-opacity="1"></use></g></g><g><use xlink:href="#b1aZINC8jy" opacity="1" fill="#05e5b2" fill-opacity="0"></use><g><use xlink:href="#b1aZINC8jy" opacity="1" fill-opacity="0" stroke="#000000" stroke-width="4" stroke-opacity="1"></use></g></g><g><use xlink:href="#h4Z3LbX5b5" opacity="1" fill="#05e5b2" fill-opacity="0"></use><g><use xlink:href="#h4Z3LbX5b5" opacity="1" fill-opacity="0" stroke="#000000" stroke-width="4" stroke-opacity="1"></use></g></g></g></g></svg>