<?xml version="1.0" encoding="UTF-8" standalone="no"?>
<!-- Generator: Adobe Illustrator 19.0.0, SVG Export Plug-In . SVG Version: 6.00 Build 0)  -->

<svg
   xmlns:dc="http://purl.org/dc/elements/1.1/"
   xmlns:cc="http://creativecommons.org/ns#"
   xmlns:rdf="http://www.w3.org/1999/02/22-rdf-syntax-ns#"
   xmlns:svg="http://www.w3.org/2000/svg"
   xmlns="http://www.w3.org/2000/svg"
   xmlns:xlink="http://www.w3.org/1999/xlink"
   xmlns:sodipodi="http://sodipodi.sourceforge.net/DTD/sodipodi-0.dtd"
   xmlns:inkscape="http://www.inkscape.org/namespaces/inkscape"
   version="1.1"
   id="Layer_1"
   x="0px"
   y="0px"
   viewBox="0 0 512 512"
   style="enable-background:new 0 0 512 512;"
   xml:space="preserve"
   sodipodi:docname="tr_timer_a.svg"
   inkscape:version="0.92.2 5c3e80d, 2017-08-06"><metadata
     id="metadata49"><rdf:RDF><cc:Work
         rdf:about=""><dc:format>image/svg+xml</dc:format><dc:type
           rdf:resource="http://purl.org/dc/dcmitype/StillImage" /><dc:title></dc:title></cc:Work></rdf:RDF></metadata><defs
     id="defs47"><path
       id="c9KdBax78"
       d="M349.32 31.28L83.99 149.31L53.66 437.95L288.64 608.57L553.97 490.54L584.31 201.89L349.32 31.28Z" /><path
       id="aqmqnyBVg"
       d="M320 11.26L52.42 165.63L52.42 474.37L320 628.74L587.58 474.37L587.58 165.63L320 11.26Z" /><path
       id="b1rLKzj4dk"
       d="M435.05 120.34L204.27 120.27L88.95 320.02L204.4 519.84L435.18 519.92L550.51 320.17L435.05 120.34Z" /><path
       id="m6och8RA6R"
       d="M377.09 51.39L115.75 136.21L58.66 404.82L262.91 588.61L524.25 503.79L581.34 235.18L377.09 51.39Z" /><path
       id="b14NP9rOPD"
       d="M399.26 74.25L145.89 128.02L65.9 374.21L239.27 566.64L492.64 512.87L572.63 266.67L399.26 74.25Z" /><path
       id="dWmRHHyhs"
       d="M418.24 97.2L175.49 122.64L76.26 345.5L219.79 542.92L462.55 517.48L561.77 294.63L418.24 97.2Z" /><path
       id="a48Nyp5xG4"
       d="M349.32 31.28L83.99 149.31L53.66 437.95L288.64 608.57L553.97 490.54L584.31 201.89L349.32 31.28Z" /><path
       id="b1NGApQo4S"
       d="M320 11.26L52.42 165.63L52.42 474.37L320 628.74L587.58 474.37L587.58 165.63L320 11.26Z" /><path
       id="m1vm2D5si"
       d="M435.05 120.34L204.27 120.27L88.95 320.02L204.4 519.84L435.18 519.92L550.51 320.17L435.05 120.34Z" /><path
       id="d3a1SQ6bJR"
       d="M377.09 51.39L115.75 136.21L58.66 404.82L262.91 588.61L524.25 503.79L581.34 235.18L377.09 51.39Z" /><path
       id="j1daZNS0j8"
       d="M399.26 74.25L145.89 128.02L65.9 374.21L239.27 566.64L492.64 512.87L572.63 266.67L399.26 74.25Z" /><path
       id="a2UuZK97PU"
       d="M418.24 97.2L175.49 122.64L76.26 345.5L219.79 542.92L462.55 517.48L561.77 294.63L418.24 97.2Z" /><path
       id="a3zRPhToTF"
       d="M349.32 31.28L83.99 149.31L53.66 437.95L288.64 608.57L553.97 490.54L584.31 201.89L349.32 31.28Z" /><path
       id="aaXNwPAvE"
       d="M418.24 97.2L175.49 122.64L76.26 345.5L219.79 542.92L462.55 517.48L561.77 294.63L418.24 97.2Z" /><path
       id="dvEt8LruN"
       d="M320 11.26L52.42 165.63L52.42 474.37L320 628.74L587.58 474.37L587.58 165.63L320 11.26Z" /><path
       id="dFqcmJiRz"
       d="M399.26 74.25L145.89 128.02L65.9 374.21L239.27 566.64L492.64 512.87L572.63 266.67L399.26 74.25Z" /><path
       id="ehlVn3Qar"
       d="M435.05 120.34L204.27 120.27L88.95 320.02L204.4 519.84L435.18 519.92L550.51 320.17L435.05 120.34Z" /><path
       id="a41zs5FURL"
       d="M377.09 51.39L115.75 136.21L58.66 404.82L262.91 588.61L524.25 503.79L581.34 235.18L377.09 51.39Z" /><filter
       style="color-interpolation-filters:sRGB;"
       inkscape:label="Drop Shadow"
       id="filter5183"><feFlood
         flood-opacity="0.498039"
         flood-color="rgb(0,0,0)"
         result="flood"
         id="feFlood5173" /><feComposite
         in="flood"
         in2="SourceGraphic"
         operator="in"
         result="composite1"
         id="feComposite5175" /><feGaussianBlur
         in="composite1"
         stdDeviation="4"
         result="blur"
         id="feGaussianBlur5177" /><feOffset
         dx="0"
         dy="0"
         result="offset"
         id="feOffset5179" /><feComposite
         in="SourceGraphic"
         in2="offset"
         operator="over"
         result="composite2"
         id="feComposite5181" /></filter></defs><sodipodi:namedview
     pagecolor="#ffffff"
     bordercolor="#666666"
     borderopacity="1"
     objecttolerance="10"
     gridtolerance="10"
     guidetolerance="10"
     inkscape:pageopacity="0"
     inkscape:pageshadow="2"
     inkscape:window-width="1181"
     inkscape:window-height="722"
     id="namedview45"
     showgrid="false"
     inkscape:zoom="0.5"
     inkscape:cx="139.23069"
     inkscape:cy="256"
     inkscape:window-x="0"
     inkscape:window-y="0"
     inkscape:window-maximized="0"
     inkscape:current-layer="Layer_1" /><g
     id="g12"
     transform="matrix(0.55084746,0,0,0.55084746,114.98271,120.98305)"
     style="fill:#2b6f93;fill-opacity:1;filter:url(#filter5183)"><g
       id="g10"
       style="fill:#2b6f93;fill-opacity:1"><g
         id="g8"
         style="fill:#2b6f93;fill-opacity:1"><path
           d="m 469.337,154.624 c 6.818,0 13.636,-2.594 18.833,-7.791 10.385,-10.377 10.385,-27.281 0,-37.666 L 454.037,75.034 c -10.385,-10.377 -27.29,-10.377 -37.666,0 -8.269,8.269 -9.847,20.608 -4.958,30.558 l -13.85,13.85 C 367.415,94.405 330.568,77.168 290.137,70.904 V 51.2 H 306.7 c 9.685,0 17.57,-7.876 17.57,-17.562 V 17.57 C 324.27,7.885 316.385,0 306.7,0 H 205.298 c -9.685,0 -17.562,7.885 -17.562,17.57 v 16.068 c 0,9.685 7.876,17.562 17.562,17.562 h 16.572 v 19.703 c -40.431,6.263 -77.286,23.501 -107.426,48.538 l -13.858,-13.85 c 4.89,-9.95 3.311,-22.289 -4.949,-30.558 -10.385,-10.377 -27.29,-10.377 -37.666,0 l -34.133,34.133 c -10.394,10.385 -10.394,27.29 0,37.666 5.188,5.197 12.006,7.791 18.833,7.791 6.025,0 11.981,-2.15 16.888,-6.195 l 14.694,14.694 C 49.011,199.133 34.138,242.917 34.138,290.132 34.137,412.476 133.661,512 256.003,512 378.337,512 477.87,412.476 477.87,290.133 c 0,-47.215 -14.874,-90.999 -40.124,-127.01 l 14.703,-14.694 c 4.898,4.045 10.854,6.195 16.888,6.195 z M 238.937,51.2 h 34.133 v 17.758 c -0.324,-0.026 -0.623,-0.017 -0.939,-0.034 -5.333,-0.393 -10.701,-0.657 -16.128,-0.657 -5.436,0 -10.795,0.265 -16.128,0.657 -0.324,0.017 -0.623,0.009 -0.939,0.034 V 51.2 Z m -167.134,85.333 17.801,-17.801 12.058,12.066 c -6.059,5.862 -11.767,12.049 -17.092,18.509 z m 371.934,153.6 c 0,51.592 -20.924,98.372 -54.716,132.343 -0.119,0.119 -0.154,0.282 -0.273,0.41 -0.119,0.119 -0.282,0.154 -0.41,0.265 -33.963,33.801 -80.751,54.716 -132.335,54.716 -51.593,0 -98.372,-20.915 -132.344,-54.716 -0.119,-0.111 -0.282,-0.145 -0.41,-0.265 -0.119,-0.128 -0.154,-0.29 -0.265,-0.41 -33.799,-33.97 -54.714,-80.75 -54.714,-132.343 0,-51.584 20.915,-98.372 54.716,-132.335 0.111,-0.128 0.145,-0.29 0.265,-0.41 0.128,-0.119 0.29,-0.154 0.41,-0.265 33.971,-33.801 80.751,-54.724 132.344,-54.724 51.584,0 98.372,20.924 132.335,54.724 0.128,0.111 0.29,0.145 0.41,0.265 0.12,0.119 0.154,0.282 0.273,0.41 33.79,33.963 54.714,80.751 54.714,132.335 z M 427.429,149.308 c -5.325,-6.46 -11.034,-12.646 -17.084,-18.509 l 12.058,-12.066 17.8,17.801 z"
           id="path2"
           inkscape:connector-curvature="0"
           style="fill:#2b6f93;fill-opacity:1" /><path
           d="m 401.066,281.604 h 25.165 c -2.022,-40.61 -18.227,-77.457 -43.861,-105.771 l -17.758,17.758 c -1.664,1.664 -3.849,2.5 -6.033,2.5 -2.185,0 -4.369,-0.836 -6.033,-2.5 -3.337,-3.336 -3.337,-8.73 0,-12.066 l 17.758,-17.758 C 341.99,138.133 305.143,121.928 264.533,119.906 v 25.165 c 0,4.71 -3.823,8.533 -8.533,8.533 -4.71,0 -8.533,-3.823 -8.533,-8.533 v -25.165 c -40.61,2.022 -77.457,18.227 -105.771,43.861 l 17.758,17.758 c 3.337,3.337 3.337,8.73 0,12.066 -1.664,1.664 -3.849,2.5 -6.033,2.5 -2.185,0 -4.369,-0.836 -6.033,-2.5 L 129.63,175.833 c -25.634,28.314 -41.839,65.161 -43.861,105.771 h 25.165 c 4.71,0 8.533,3.823 8.533,8.533 0,4.71 -3.823,8.533 -8.533,8.533 H 85.768 c 2.022,40.61 18.227,77.457 43.861,105.771 l 17.758,-17.758 c 3.337,-3.336 8.73,-3.336 12.066,0 3.337,3.337 3.337,8.73 0,12.066 l -17.758,17.758 c 28.314,25.626 65.161,41.839 105.771,43.861 v -25.165 c 0,-4.71 3.823,-8.533 8.533,-8.533 4.71,0 8.533,3.823 8.533,8.533 v 25.165 c 40.61,-2.022 77.457,-18.236 105.771,-43.861 l -17.758,-17.758 c -3.337,-3.337 -3.337,-8.73 0,-12.066 3.337,-3.336 8.73,-3.336 12.066,0 l 17.758,17.758 C 408.003,376.127 424.208,339.28 426.23,298.67 h -25.165 c -4.71,0 -8.533,-3.823 -8.533,-8.533 0.001,-4.71 3.824,-8.533 8.534,-8.533 z M 256,324.066 c -18.765,0 -34.031,-15.266 -34.031,-34.031 0,-15.804 10.871,-29.005 25.498,-32.819 v -78.012 c 0,-4.71 3.823,-8.533 8.533,-8.533 4.71,0 8.533,3.823 8.533,8.533 v 78.012 c 14.626,3.814 25.498,17.015 25.498,32.819 0,18.765 -15.266,34.031 -34.031,34.031 z"
           id="path4"
           inkscape:connector-curvature="0"
           style="fill:#2b6f93;fill-opacity:1" /><path
           d="m 256,273.07 c -9.353,0 -16.964,7.612 -16.964,16.964 0,9.352 7.612,16.964 16.964,16.964 9.352,0 16.964,-7.612 16.964,-16.964 0,-9.352 -7.612,-16.964 -16.964,-16.964 z"
           id="path6"
           inkscape:connector-curvature="0"
           style="fill:#2b6f93;fill-opacity:1" /></g></g></g><g
     id="g14" /><g
     id="g16" /><g
     id="g18" /><g
     id="g20" /><g
     id="g22" /><g
     id="g24" /><g
     id="g26" /><g
     id="g28" /><g
     id="g30" /><g
     id="g32" /><g
     id="g34" /><g
     id="g36" /><g
     id="g38" /><g
     id="g40" /><g
     id="g42" /><g
     id="g445"
     transform="matrix(0.77420154,0,0,0.77420154,8.2555062,8.2555062)"><g
       id="g443"><g
         id="g305"><use
           id="use299"
           xlink:href="#c9KdBax78"
           style="opacity:1;fill:#05e5b3;fill-opacity:0"
           x="0"
           y="0"
           width="100%"
           height="100%" /><g
           id="g303"><use
             id="use301"
             xlink:href="#c9KdBax78"
             style="opacity:1;fill-opacity:0;stroke:#2b6f93;stroke-width:9;stroke-opacity:1"
             x="0"
             y="0"
             width="100%"
             height="100%" /></g></g><g
         id="g313"><use
           id="use307"
           xlink:href="#aqmqnyBVg"
           style="opacity:1;fill:#05e5b3;fill-opacity:0"
           x="0"
           y="0"
           width="100%"
           height="100%" /><g
           id="g311"><use
             id="use309"
             xlink:href="#aqmqnyBVg"
             style="opacity:1;fill-opacity:0;stroke:#2b6f93;stroke-width:9;stroke-opacity:1"
             x="0"
             y="0"
             width="100%"
             height="100%" /></g></g><g
         id="g321"><use
           id="use315"
           xlink:href="#b1rLKzj4dk"
           style="opacity:1;fill:#05e5b3;fill-opacity:0"
           x="0"
           y="0"
           width="100%"
           height="100%" /><g
           id="g319"><use
             id="use317"
             xlink:href="#b1rLKzj4dk"
             style="opacity:1;fill-opacity:0;stroke:#2b6f93;stroke-width:9;stroke-opacity:1"
             x="0"
             y="0"
             width="100%"
             height="100%" /></g></g><g
         id="g329"><use
           id="use323"
           xlink:href="#m6och8RA6R"
           style="opacity:1;fill:#05e5b3;fill-opacity:0"
           x="0"
           y="0"
           width="100%"
           height="100%" /><g
           id="g327"><use
             id="use325"
             xlink:href="#m6och8RA6R"
             style="opacity:1;fill-opacity:0;stroke:#2b6f93;stroke-width:9;stroke-opacity:1"
             x="0"
             y="0"
             width="100%"
             height="100%" /></g></g><g
         id="g337"><use
           id="use331"
           xlink:href="#b14NP9rOPD"
           style="opacity:1;fill:#05e5b3;fill-opacity:0"
           x="0"
           y="0"
           width="100%"
           height="100%" /><g
           id="g335"><use
             id="use333"
             xlink:href="#b14NP9rOPD"
             style="opacity:1;fill-opacity:0;stroke:#2b6f93;stroke-width:9;stroke-opacity:1"
             x="0"
             y="0"
             width="100%"
             height="100%" /></g></g><g
         id="g345"><use
           id="use339"
           xlink:href="#dWmRHHyhs"
           style="opacity:1;fill:#05e5b3;fill-opacity:0"
           x="0"
           y="0"
           width="100%"
           height="100%" /><g
           id="g343"><use
             id="use341"
             xlink:href="#dWmRHHyhs"
             style="opacity:1;fill-opacity:0;stroke:#2b6f93;stroke-width:9;stroke-opacity:1"
             x="0"
             y="0"
             width="100%"
             height="100%" /></g></g><g
         id="g353"><use
           id="use347"
           xlink:href="#a48Nyp5xG4"
           style="opacity:1;fill:#05e5b2;fill-opacity:0"
           x="0"
           y="0"
           width="100%"
           height="100%" /><g
           id="g351"><use
             id="use349"
             xlink:href="#a48Nyp5xG4"
             style="opacity:1;fill-opacity:0;stroke:#2facf0;stroke-width:4;stroke-opacity:1"
             x="0"
             y="0"
             width="100%"
             height="100%" /></g></g><g
         id="g361"><use
           id="use355"
           xlink:href="#b1NGApQo4S"
           style="opacity:1;fill:#05e5b2;fill-opacity:0"
           x="0"
           y="0"
           width="100%"
           height="100%" /><g
           id="g359"><use
             id="use357"
             xlink:href="#b1NGApQo4S"
             style="opacity:1;fill-opacity:0;stroke:#2facf0;stroke-width:4;stroke-opacity:1"
             x="0"
             y="0"
             width="100%"
             height="100%" /></g></g><g
         id="g369"><use
           id="use363"
           xlink:href="#m1vm2D5si"
           style="opacity:1;fill:#05e5b2;fill-opacity:0"
           x="0"
           y="0"
           width="100%"
           height="100%" /><g
           id="g367"><use
             id="use365"
             xlink:href="#m1vm2D5si"
             style="opacity:1;fill-opacity:0;stroke:#2facf0;stroke-width:4;stroke-opacity:1"
             x="0"
             y="0"
             width="100%"
             height="100%" /></g></g><g
         id="g377"><use
           id="use371"
           xlink:href="#d3a1SQ6bJR"
           style="opacity:1;fill:#05e5b2;fill-opacity:0"
           x="0"
           y="0"
           width="100%"
           height="100%" /><g
           id="g375"><use
             id="use373"
             xlink:href="#d3a1SQ6bJR"
             style="opacity:1;fill-opacity:0;stroke:#2facf0;stroke-width:4;stroke-opacity:1"
             x="0"
             y="0"
             width="100%"
             height="100%" /></g></g><g
         id="g385"><use
           id="use379"
           xlink:href="#j1daZNS0j8"
           style="opacity:1;fill:#05e5b2;fill-opacity:0"
           x="0"
           y="0"
           width="100%"
           height="100%" /><g
           id="g383"><use
             id="use381"
             xlink:href="#j1daZNS0j8"
             style="opacity:1;fill-opacity:0;stroke:#2facf0;stroke-width:4;stroke-opacity:1"
             x="0"
             y="0"
             width="100%"
             height="100%" /></g></g><g
         id="g393"><use
           id="use387"
           xlink:href="#a2UuZK97PU"
           style="opacity:1;fill:#05e5b2;fill-opacity:0"
           x="0"
           y="0"
           width="100%"
           height="100%" /><g
           id="g391"><use
             id="use389"
             xlink:href="#a2UuZK97PU"
             style="opacity:1;fill-opacity:0;stroke:#2facf0;stroke-width:3;stroke-opacity:1"
             x="0"
             y="0"
             width="100%"
             height="100%" /></g></g><g
         id="g401"><use
           id="use395"
           xlink:href="#a3zRPhToTF"
           style="opacity:1;fill:#05e5b2;fill-opacity:0"
           x="0"
           y="0"
           width="100%"
           height="100%" /><g
           id="g399"><use
             id="use397"
             xlink:href="#a3zRPhToTF"
             style="opacity:1;fill-opacity:0;stroke:#9cdcff;stroke-width:1;stroke-opacity:1"
             x="0"
             y="0"
             width="100%"
             height="100%" /></g></g><g
         id="g409"><use
           id="use403"
           xlink:href="#aaXNwPAvE"
           style="opacity:1;fill:#05e5b2;fill-opacity:0"
           x="0"
           y="0"
           width="100%"
           height="100%" /><g
           id="g407"><use
             id="use405"
             xlink:href="#aaXNwPAvE"
             style="opacity:1;fill-opacity:0;stroke:#9cdcff;stroke-width:1;stroke-opacity:1"
             x="0"
             y="0"
             width="100%"
             height="100%" /></g></g><g
         id="g417"><use
           id="use411"
           xlink:href="#dvEt8LruN"
           style="opacity:1;fill:#05e5b2;fill-opacity:0"
           x="0"
           y="0"
           width="100%"
           height="100%" /><g
           id="g415"><use
             id="use413"
             xlink:href="#dvEt8LruN"
             style="opacity:1;fill-opacity:0;stroke:#9cdcff;stroke-width:1;stroke-opacity:1"
             x="0"
             y="0"
             width="100%"
             height="100%" /></g></g><g
         id="g425"><use
           id="use419"
           xlink:href="#dFqcmJiRz"
           style="opacity:1;fill:#05e5b2;fill-opacity:0"
           x="0"
           y="0"
           width="100%"
           height="100%" /><g
           id="g423"><use
             id="use421"
             xlink:href="#dFqcmJiRz"
             style="opacity:1;fill-opacity:0;stroke:#9cdcff;stroke-width:1;stroke-opacity:1"
             x="0"
             y="0"
             width="100%"
             height="100%" /></g></g><g
         id="g433"><use
           id="use427"
           xlink:href="#ehlVn3Qar"
           style="opacity:1;fill:#05e5b2;fill-opacity:0"
           x="0"
           y="0"
           width="100%"
           height="100%" /><g
           id="g431"><use
             id="use429"
             xlink:href="#ehlVn3Qar"
             style="opacity:1;fill-opacity:0;stroke:#cbecff;stroke-width:1;stroke-opacity:1"
             x="0"
             y="0"
             width="100%"
             height="100%" /></g></g><g
         id="g441"><use
           id="use435"
           xlink:href="#a41zs5FURL"
           style="opacity:1;fill:#05e5b2;fill-opacity:0"
           x="0"
           y="0"
           width="100%"
           height="100%" /><g
           id="g439"><use
             id="use437"
             xlink:href="#a41zs5FURL"
             style="opacity:1;fill-opacity:0;stroke:#9cdcff;stroke-width:1;stroke-opacity:1"
             x="0"
             y="0"
             width="100%"
             height="100%" /></g></g></g></g><g
     style="fill:#2b6f93;fill-opacity:1"
     transform="matrix(0.55084746,0,0,0.55084746,114.98271,120.98305)"
     id="g5061"><g
       style="fill:#2b6f93;fill-opacity:1"
       id="g5059"><g
         style="display:inline;fill:#2facf0;fill-opacity:1"
         id="g5057"><path
           style="fill:#c6eaff;fill-opacity:1"
           d="m 303.33789,0.06649638 c -33.68018,0.9060336 -67.50256,-0.302728 -101.18164,0.6054688 -8.86813,1.99001492 -11.8687,12.16866082 -10.50586,20.12695382 -0.96343,8.215567 0.42311,20.626363 10.43555,22.214843 7.88212,1.658594 15.82673,-0.241063 23.7832,0.689453 0,8.998698 0,17.997396 0,26.996094 -40.97118,5.643743 -80.25969,23.48761 -111.67187,50.517581 -6.17535,-6.16906 -12.3496,-12.33921 -18.523442,-18.50977 C 104.99432,89.824018 95.735088,69.191306 79.839844,67.752043 67.903116,65.860929 58.827062,75.108035 51.814453,83.3497 c -9.92793,10.64734 -22.117315,19.60395 -29.976562,31.94922 -6.328032,13.68529 4.344828,31.75459 19.835937,31.67383 6.785034,0.25801 13.436187,-2.75236 18.111328,-7.60547 6.558117,6.55646 13.114062,13.1151 19.673828,19.66992 -42.672223,57.92955 -53.119091,137.49215 -27.423828,204.25586 24.714281,66.18598 83.732194,118.85309 152.647454,135.01959 64.16176,15.8331 135.67662,0.2998 187.23514,-41.57786 52.88628,-41.94366 84.62304,-109.58784 81.88889,-177.08626 -1.34561,-42.91302 -15.84988,-85.8047 -41.26562,-120.60938 6.58119,-6.57505 13.16076,-13.15173 19.74023,-19.72851 9.75884,11.98359 31.15827,9.24338 37.41992,-4.93164 5.54184,-10.88614 0.23054,-24.2266 -9.34225,-30.90128 -11.97658,-11.111346 -22.1145,-24.497205 -35.57962,-33.833098 -13.58809,-6.724603 -32.17979,3.774877 -32.10547,19.326171 -0.23806,4.830417 1.18353,9.629278 3.59765,13.787107 -6.15314,6.1535 -12.30581,12.30747 -18.45898,18.46094 C 366.376,94.202502 327.1247,76.327791 286.13672,70.703215 c 0,-8.995442 0,-17.990885 0,-26.986328 10.06649,-1.615214 22.49735,3.387663 30.63281,-4.615234 6.15802,-8.305187 2.96337,-19.344279 3.03516,-28.882813 -1.79005,-7.0957847 -9.68483,-10.54668372 -16.4668,-10.15234362 z M 236.93555,43.56845 c 13.37825,0 26.75651,0 40.13476,0 0,8.663411 0,17.326823 0,25.990234 -14.05494,-1.157516 -28.07806,-1.159724 -42.13476,0.002 0,-8.664062 0,-17.328125 0,-25.992187 h 1 z m 19.06836,51.199219 c 67.56099,-0.725144 133.48813,37.959501 166.58199,96.741841 32.21665,55.76982 33.64191,127.97411 2.90685,184.68658 -29.11605,55.18458 -86.30473,94.65158 -148.5379,100.96267 C 217.67774,483.87399 155.91951,461.07951 115.59604,417.02604 75.12559,373.83879 56.389573,311.36549 67.11992,253.0783 77.856215,191.21831 120.92417,136.10127 178.57434,111.11041 202.87031,100.35731 229.42779,94.703091 256.00391,94.767669 Z M 91.017578,110.85946 c 5.445586,5.44635 10.888382,10.89548 16.333982,16.3418 -8.034313,7.6247 -15.549835,15.78634 -22.509763,24.40235 -6.232431,-6.23307 -12.462923,-12.46807 -18.695313,-18.70118 7.819011,-7.81901 15.638021,-15.63802 23.457032,-23.45703 l 0.707106,0.70711 z m 332.798832,0 c 7.34765,7.34766 14.69531,14.69532 22.04297,22.04297 -6.23348,6.23398 -12.46572,12.46919 -18.69922,18.70313 -6.96193,-8.61203 -14.47347,-16.77413 -22.5,-24.4043 5.91341,-5.91927 11.82714,-11.83822 17.74218,-17.75586 l 0.70711,0.70711 z"
           id="path5051"
           inkscape:connector-curvature="0" /><path
           style="fill:#2facf0;fill-opacity:1"
           d="m 268.35938,121.78525 c -0.60012,9.05967 2.73554,19.66656 -2.68946,27.76171 -6.11037,7.79852 -20.74086,4.47973 -21.83008,-5.71093 -1.67593,-7.69015 0.59689,-15.56686 -0.45898,-23.29688 -35.02466,2.52954 -69.22255,16.69794 -95.94727,39.86133 6.05925,7.17854 16.07355,12.2834 18.50977,21.94336 1.6427,9.9915 -11.30346,18.448 -19.42969,11.87109 -6.69662,-4.0959 -10.95898,-12.32553 -17.02734,-16.03125 -20.34237,24.21154 -34.219299,54.11821 -38.371096,85.41797 -0.481514,3.51393 -0.850012,7.01236 -1.099609,10.50391 9.386693,0.77013 20.072295,-2.6821 28.646485,2.42578 8.18329,5.86949 5.11099,20.89355 -5.19727,22.11719 -7.66291,1.62477 -16.467989,-0.4823 -23.503902,0.35937 2.650462,35.11798 16.753982,69.38314 39.935542,96.06445 7.18991,-6.09192 12.31125,-16.12915 22.01954,-18.52343 10.19701,-1.61563 18.59708,11.92988 11.45898,19.9082 -4.17084,6.39275 -11.74621,10.48474 -15.73633,16.51172 25.39542,21.40366 57.0685,35.55966 90.22266,39.01367 3.3529,0.61848 7.18881,1.3013 5.76523,-3.46074 0.33865,-8.34329 -2.58928,-18.60491 3.2543,-25.67598 6.42552,-7.05657 20.22171,-3.51535 21.2793,6.33789 1.83201,7.62979 -0.96587,16.80171 0.69726,23.45508 22.88463,-2.21933 45.45092,-8.32386 65.73755,-19.42619 10.66584,-5.7181 20.78376,-12.64706 29.96948,-20.60311 -6.10893,-7.19168 -16.11994,-12.31324 -18.52343,-22.02148 -1.61551,-10.20048 11.94015,-18.59756 19.91601,-11.45313 6.37506,4.21521 10.46734,11.6127 16.47266,15.76368 22.12757,-26.18258 36.48435,-59.23771 39.34179,-93.30469 1.59422,-4.77838 -5.10497,-2.01281 -7.81054,-2.56641 -7.90888,-0.0192 -19.17828,2.17074 -23.77149,-6.26367 -4.34305,-7.31018 0.51634,-18.08346 9.30664,-18.58398 7.42212,-1.40963 15.72327,0.86966 22.65625,-0.37891 -2.13,-20.59847 -6.8675,-40.60462 -16.09278,-59.29422 -6.32738,-13.1739 -14.39613,-25.51409 -23.95604,-36.56906 -7.1853,6.11032 -12.30715,16.11068 -22.00782,18.52148 -10.19965,1.63086 -18.614,-11.91858 -11.47461,-19.90234 4.2119,-6.38201 11.65834,-10.48594 15.75782,-16.49609 -26.01729,-21.96362 -58.75922,-36.29692 -92.7379,-39.27421 -1.00975,0.32769 -4.11088,-1.44471 -3.28163,0.99882 z m -12.36524,41.25586 c 8.9721,-0.3597 14.48353,9.7265 12.53906,17.72656 0.26387,23.2219 -0.52717,47.2126 0.39453,69.95508 20.59759,6.80335 31.46943,33.09393 21.32813,52.38867 -8.85383,18.87277 -34.33987,27.32868 -52.50586,16.7539 -18.38145,-9.69148 -25.84194,-35.54282 -14.25977,-53.12109 4.5686,-7.43591 11.73061,-13.26991 19.98829,-16.12305 0.43572,-26.36984 -0.93175,-52.88776 0.67578,-79.16797 1.65922,-4.91709 6.63454,-8.50196 11.83984,-8.4121 z"
           id="path5053"
           inkscape:connector-curvature="0" /><path
           style="fill:#2facf0;fill-opacity:1"
           inkscape:connector-curvature="0"
           id="path5055"
           d="m 256,273.07 c -9.353,0 -16.964,7.612 -16.964,16.964 0,9.352 7.612,16.964 16.964,16.964 9.352,0 16.964,-7.612 16.964,-16.964 0,-9.352 -7.612,-16.964 -16.964,-16.964 z" /><path
           inkscape:connector-curvature="0"
           id="path5087"
           d="m 268.35938,121.78525 c -0.60012,9.05967 2.73554,19.66656 -2.68946,27.76171 -6.11037,7.79852 -20.74086,4.47973 -21.83008,-5.71093 -1.67593,-7.69015 0.59689,-15.56686 -0.45898,-23.29688 -35.02466,2.52954 -69.22255,16.69794 -95.94727,39.86133 6.05925,7.17854 16.07355,12.2834 18.50977,21.94336 1.6427,9.9915 -11.30346,18.448 -19.42969,11.87109 -6.69662,-4.0959 -10.95898,-12.32553 -17.02734,-16.03125 -20.34237,24.21154 -34.219299,54.11821 -38.371096,85.41797 -0.481514,3.51393 -0.850012,7.01236 -1.099609,10.50391 9.386693,0.77013 20.072295,-2.6821 28.646485,2.42578 8.18329,5.86949 5.11099,20.89355 -5.19727,22.11719 -7.66291,1.62477 -16.467989,-0.4823 -23.503902,0.35937 2.650462,35.11798 16.753982,69.38314 39.935542,96.06445 7.18991,-6.09192 12.31125,-16.12915 22.01954,-18.52343 10.19701,-1.61563 18.59708,11.92988 11.45898,19.9082 -4.17084,6.39275 -11.74621,10.48474 -15.73633,16.51172 25.39542,21.40366 57.0685,35.55966 90.22266,39.01367 3.3529,0.61848 7.18881,1.3013 5.76523,-3.46074 0.33865,-8.34329 -2.58928,-18.60491 3.2543,-25.67598 6.42552,-7.05657 20.22171,-3.51535 21.2793,6.33789 1.83201,7.62979 -0.96587,16.80171 0.69726,23.45508 22.88463,-2.21933 45.45092,-8.32386 65.73755,-19.42619 10.66584,-5.7181 20.78376,-12.64706 29.96948,-20.60311 -6.10893,-7.19168 -16.11994,-12.31324 -18.52343,-22.02148 -1.61551,-10.20048 11.94015,-18.59756 19.91601,-11.45313 6.37506,4.21521 10.46734,11.6127 16.47266,15.76368 22.12757,-26.18258 36.48435,-59.23771 39.34179,-93.30469 1.59422,-4.77838 -5.10497,-2.01281 -7.81054,-2.56641 -7.90888,-0.0192 -19.17828,2.17074 -23.77149,-6.26367 -4.34305,-7.31018 0.51634,-18.08346 9.30664,-18.58398 7.42212,-1.40963 15.72327,0.86966 22.65625,-0.37891 -2.13,-20.59847 -6.8675,-40.60462 -16.09278,-59.29422 -6.32738,-13.1739 -14.39613,-25.51409 -23.95604,-36.56906 -7.1853,6.11032 -12.30715,16.11068 -22.00782,18.52148 -10.19965,1.63086 -18.614,-11.91858 -11.47461,-19.90234 4.2119,-6.38201 11.65834,-10.48594 15.75782,-16.49609 -26.01729,-21.96362 -58.75922,-36.29692 -92.7379,-39.27421 -1.00975,0.32769 -4.11088,-1.44471 -3.28163,0.99882 z m -12.36524,41.25586 c 8.9721,-0.3597 14.48353,9.7265 12.53906,17.72656 0.26387,23.2219 -0.52717,47.2126 0.39453,69.95508 20.59759,6.80335 31.46943,33.09393 21.32813,52.38867 -8.85383,18.87277 -34.33987,27.32868 -52.50586,16.7539 -18.38145,-9.69148 -25.84194,-35.54282 -14.25977,-53.12109 4.5686,-7.43591 11.73061,-13.26991 19.98829,-16.12305 0.43572,-26.36984 -0.93175,-52.88776 0.67578,-79.16797 1.65922,-4.91709 6.63454,-8.50196 11.83984,-8.4121 z"
           style="fill:#c6eaff;fill-opacity:1" /><path
           style="fill:#2facf0;fill-opacity:1"
           d="m 238.9668,124.94141 c -31.35916,3.27137 -61.33016,15.79678 -85.70118,35.77734 7.58633,6.8329 18.47503,14.89448 16.49219,26.52734 -2.21147,11.69937 -18.5984,17.81101 -27.28515,9.05664 -4.76334,-3.51847 -8.06415,-8.55123 -12.36133,-12.55859 -19.84943,24.70107 -32.765384,54.92577 -35.751955,86.45508 10.158675,-0.5631 24.204305,-2.57526 30.783205,7.59375 6.37138,10.12624 -1.51479,25.84284 -13.93164,25.25586 -5.63783,0.62438 -11.270932,-0.18669 -16.894534,-0.23047 3.165379,31.36751 15.830424,62.07131 35.890624,86.41992 6.84771,-7.63918 15.03693,-18.59938 26.73633,-16.45117 11.82617,2.40328 17.66339,19.23741 8.44726,27.72461 -3.48005,4.51478 -8.25027,7.7615 -12.14062,11.88086 24.64657,19.76602 55.13265,33.03222 86.5918,35.61914 -0.90208,-10.25092 -2.59529,-23.90726 7.29687,-30.55078 10.1258,-6.59746 25.88918,1.41755 25.47461,13.82812 0.77714,5.64337 -0.69808,11.30499 -0.16406,16.95313 31.25526,-3.39978 61.91708,-15.77367 86.2832,-35.93555 -7.62933,-6.8492 -18.56831,-15.01857 -16.46484,-26.70703 2.31147,-11.52406 18.6351,-17.66582 27.18945,-8.89453 4.77111,3.52711 8.18281,8.47493 12.43164,12.55078 19.78838,-24.63195 32.85489,-54.94778 35.68555,-86.46094 -10.12005,0.62657 -23.63007,2.54917 -30.38477,-7.05469 -6.41931,-9.51994 -0.0972,-25.01809 11.88672,-25.62109 6.19593,-0.93346 12.44768,0.0844 18.66602,0.0273 -3.40488,-31.41288 -15.76062,-61.93605 -35.94531,-86.37109 -6.84641,7.63489 -15.03244,18.58151 -26.72461,16.45313 -11.50952,-2.3194 -17.6386,-18.623 -8.88086,-27.17188 3.526,-4.77729 8.48401,-8.17974 12.55273,-12.44141 -24.67271,-19.81756 -54.95351,-32.83404 -86.43359,-35.69726 0.5163,10.19175 2.52439,23.59657 -7.10938,30.41601 -10.10028,6.96424 -26.39866,-1.06314 -25.77344,-13.71875 -0.63393,-5.59782 0.2712,-11.16807 0.23243,-16.74218 z m 16.86718,34.08007 c 11.57915,-0.57653 19.3746,12.67522 16.71094,23.1543 0.21064,21.90184 -0.46059,43.88042 0.28711,65.73047 23.46898,9.44453 33.17875,42.39205 17.70117,62.70508 -13.52959,19.79075 -45.10139,24.22335 -62.61328,7.22656 -17.2602,-15.1529 -19.03048,-45.24056 -1.63625,-61.01331 3.79185,-3.78567 8.3022,-6.85754 13.23391,-8.95739 0.7061,-26.29009 -1.7519,-52.86087 1.3457,-78.98047 2.52715,-5.80671 8.62853,-9.85772 14.9707,-9.86524 z"
           id="path5089"
           inkscape:connector-curvature="0" /><path
           style="fill:#2facf0;fill-opacity:1"
           d="m 300.86523,4.140625 c -33.15714,1.0349122 -66.48364,-0.9587509 -99.5332,1.0175781 -8.10676,4.6556993 -5.58293,15.3393899 -5.88476,23.1171879 0.11959,6.323506 5.03886,12.336898 11.71267,11.348994 7.55583,0.369532 15.17398,-0.908408 22.7092,0.545537 0,11.337239 0,22.674479 0,34.011719 C 187.20263,79.347281 146.07595,98.12555 113.99219,126.66406 106.11783,118.79754 98.243848,110.93063 90.371094,103.0625 102.33675,92.047315 91.231431,68.820165 75.082031,71.664062 61.564326,73.868724 55.125784,87.57425 45.267578,95.539062 37.374891,103.81499 26.035833,111.0896 23.947266,123.10352 c -0.918829,12.74712 13.344483,24.49216 25.492187,18.51953 4.124031,-1.60519 7.449583,-4.66013 10.269531,-7.98828 8.334339,8.33363 16.66953,16.6664 25.003907,25 C 36.155162,222.088 28.370394,313.66276 65.668628,384.19262 99.902876,450.98597 170.94791,497.75867 246.12678,500.22113 313.7212,503.40196 382.17854,472.89164 423.6934,419.17279 464.36014,367.90242 480.1473,297.98646 463.46664,234.71192 456.63952,207.4024 444.2835,181.21184 427.29883,158.625 c 8.46799,-8.46561 16.93848,-16.92871 25.40625,-25.39453 6.65771,14.2135 30.82489,12.01886 34.50586,-3.30664 3.51154,-11.37114 -5.29272,-21.08917 -13.64063,-27.37695 -11.02538,-10.33658 -20.0202,-23.813697 -33.8789,-30.541021 -12.96062,-3.419968 -27.19867,10.206985 -22.375,23.347657 2.02108,4.088133 5.20862,9.856874 -0.67986,12.697704 -6.20569,6.20621 -12.41122,12.4126 -18.61702,18.6187 C 365.78935,98.043408 324.79161,79.352501 282.13672,74.1875 c 0,-11.277344 0,-22.554687 0,-33.832031 10.30122,-3.337042 22.37446,3.084055 31.58594,-3.900391 4.79537,-8.222456 2.55536,-18.439973 1.38476,-27.2285155 -2.91071,-4.753428 -9.17572,-5.6239493 -14.24219,-5.0859375 z m -67.92968,35.427734 c 16.04492,0 32.08984,0 48.13476,0 0,11.441407 0,22.882813 0,34.324219 -16.70788,-1.584616 -33.42731,-1.585128 -50.13476,0.002 0,-11.442057 0,-22.884114 0,-34.326172 h 1 z m 22.70703,51.173829 c 79.12088,-1.189589 155.74916,51.427902 183.18597,125.635702 24.19244,62.58006 13.83392,137.62347 -28.27159,190.20404 -39.94335,51.54915 -106.63533,81.60381 -171.79943,74.96534 C 175.0122,476.02062 114.91991,437.48994 84.560547,380.95703 54.425375,326.58736 51.767371,257.579 79.583854,201.72506 106.37498,145.9256 160.64483,103.91613 221.91016,93.744141 c 11.13012,-1.968898 22.43028,-2.95764 33.73242,-3.001953 z M 91.017578,105.20312 c 7.354179,7.35546 14.706352,14.71293 22.060542,22.06836 -10.12761,9.3886 -19.418023,19.51091 -27.923823,30.30079 -8.221841,-8.22282 -16.442259,-16.44707 -24.664063,-24.66993 9.704427,-9.70442 19.408855,-19.40885 29.113282,-29.11328 l 0.707106,0.70711 z m 332.798832,0 c 9.23307,9.23308 18.46614,18.46615 27.69921,27.69922 -8.22213,8.22448 -16.44546,16.44777 -24.66601,24.67383 -8.51925,-10.80213 -17.8132,-20.92527 -27.91211,-30.30664 7.82077,-7.82766 15.64245,-15.65442 23.46484,-23.48047 l 0.70711,0.70711 z"
           id="path5095"
           inkscape:connector-curvature="0" /></g></g></g></svg>