<?xml version="1.0" encoding="UTF-8" standalone="no"?>
<!DOCTYPE svg PUBLIC "-//W3C//DTD SVG 1.1//EN" "http://www.w3.org/Graphics/SVG/1.1/DTD/svg11.dtd">
<svg version="1.1" xmlns="http://www.w3.org/2000/svg" xmlns:xlink="http://www.w3.org/1999/xlink" preserveAspectRatio="xMidYMid meet" viewBox="0 0 560 486" width="280" height="243"><defs><path d="M423.22 569.46L563.22 488.46L563.22 326.46L423.22 245.46L283.22 326.46L283.22 488.46L423.22 569.46Z" id="c10dRUSZ2h"></path><path d="M143.28 569.5L283.28 488.5L283.28 326.5L143.28 245.5L3.28 326.5L3.28 488.5L143.28 569.5Z" id="b4R9ThJx1U"></path><path d="M563 326.54L703 245.54L703 83.54L563 2.54L423 83.54L423 245.54L563 326.54Z" id="m5McHbNWQ1"></path><path d="M283.2 326.13L423.2 245.13L423.2 83.12L283.2 2.12L143.2 83.13L143.2 245.13L283.2 326.13Z" id="hkgg7kD7T"></path><path d="M3.28 326.75L143.28 245.75L143.28 83.75L3.28 2.75L-136.72 83.75L-136.72 245.75L3.28 326.75Z" id="a2qH1pbhzH"></path><path d="M423 -79.25L283 1.75L283 163.75L423 244.75L563 163.75L563 1.75L423 -79.25Z" id="nuufmu8ls"></path><path d="M143.06 -79.21L3.06 1.79L3.06 163.79L143.06 244.79L283.06 163.79L283.06 1.79L143.06 -79.21Z" id="duAm2iOLN"></path><path d="M3.28 163.71L-136.72 244.71L-136.72 406.71L3.28 487.71L143.28 406.71L143.28 244.71L3.28 163.71Z" id="adaesBG7O"></path><path d="M283.08 164.13L143.08 245.13L143.08 407.13L283.08 488.13L423.08 407.13L423.08 245.13L283.08 164.13Z" id="hfdstdv27"></path><path d="M563 163.5L423 244.5L423 406.5L563 487.5L703 406.5L703 244.5L563 163.5Z" id="a4JKNtFZ2M"></path><path d="M423 -78.88L283 2.12L283 164.12L423 245.13L563 164.12L563 2.12L423 -78.88Z" id="a2VSAQxnYl"></path><path d="M143.06 -78.83L3.06 2.17L3.06 164.17L143.06 245.17L283.06 164.17L283.06 2.17L143.06 -78.83Z" id="coSXVNmHk"></path><path d="M3.28 164.08L-136.72 245.08L-136.72 407.08L3.28 488.08L143.28 407.08L143.28 245.08L3.28 164.08Z" id="cIAyWVWLg"></path><path d="M283.08 164.5L143.08 245.5L143.08 407.5L283.08 488.5L423.08 407.5L423.08 245.5L283.08 164.5Z" id="cpYTTcsUS"></path><path d="M563 163.87L423 244.87L423 406.88L563 487.88L703 406.88L703 244.87L563 163.87Z" id="b1Nd0qBhZM"></path></defs><g><g><g><use xlink:href="#c10dRUSZ2h" opacity="1" fill="#e277fa" fill-opacity="0"></use><g><use xlink:href="#c10dRUSZ2h" opacity="1" fill-opacity="0" stroke="#0b191e" stroke-width="3" stroke-opacity="1"></use></g></g><g><use xlink:href="#b4R9ThJx1U" opacity="1" fill="#e277fa" fill-opacity="0"></use><g><use xlink:href="#b4R9ThJx1U" opacity="1" fill-opacity="0" stroke="#0b191e" stroke-width="3" stroke-opacity="1"></use></g></g><g><use xlink:href="#m5McHbNWQ1" opacity="1" fill="#e277fa" fill-opacity="0"></use><g><use xlink:href="#m5McHbNWQ1" opacity="1" fill-opacity="0" stroke="#0b191e" stroke-width="3" stroke-opacity="1"></use></g></g><g><g></g><use xlink:href="#hkgg7kD7T" opacity="1" fill="#e277fa" fill-opacity="0"></use><g><use xlink:href="#hkgg7kD7T" opacity="1" fill-opacity="0" stroke="#0b191e" stroke-width="3" stroke-opacity="1"></use></g></g><g><g></g><use xlink:href="#a2qH1pbhzH" opacity="1" fill="#e277fa" fill-opacity="0"></use><g><use xlink:href="#a2qH1pbhzH" opacity="1" fill-opacity="0" stroke="#0b191e" stroke-width="3" stroke-opacity="1"></use></g></g><g><g><filter id="shadow8179462" x="158" y="-204.25" width="530" height="574" filterUnits="userSpaceOnUse" primitiveUnits="userSpaceOnUse"><feFlood></feFlood><feComposite in2="SourceAlpha" operator="in"></feComposite><feGaussianBlur stdDeviation="7.07"></feGaussianBlur><feOffset dx="0" dy="0" result="afterOffset"></feOffset><feFlood flood-color="#000000" flood-opacity="1"></feFlood><feComposite in2="afterOffset" operator="in"></feComposite><feMorphology operator="dilate" radius="20"></feMorphology><feComposite in2="SourceAlpha" operator="out"></feComposite></filter><path d="M423 -79.25L283 1.75L283 163.75L423 244.75L563 163.75L563 1.75L423 -79.25Z" id="bj2xDwa2q" fill="white" fill-opacity="1" filter="url(#shadow8179462)"></path></g><use xlink:href="#nuufmu8ls" opacity="1" fill="#e277fa" fill-opacity="0"></use><g><use xlink:href="#nuufmu8ls" opacity="1" fill-opacity="0" stroke="#051218" stroke-width="6" stroke-opacity="1"></use></g></g><g><g><filter id="shadow12137928" x="-121.94" y="-204.21" width="530" height="574" filterUnits="userSpaceOnUse" primitiveUnits="userSpaceOnUse"><feFlood></feFlood><feComposite in2="SourceAlpha" operator="in"></feComposite><feGaussianBlur stdDeviation="7.07"></feGaussianBlur><feOffset dx="0" dy="0" result="afterOffset"></feOffset><feFlood flood-color="#000000" flood-opacity="1"></feFlood><feComposite in2="afterOffset" operator="in"></feComposite><feMorphology operator="dilate" radius="20"></feMorphology><feComposite in2="SourceAlpha" operator="out"></feComposite></filter><path d="M143.06 -79.21L3.06 1.79L3.06 163.79L143.06 244.79L283.06 163.79L283.06 1.79L143.06 -79.21Z" id="dq18WO1sq" fill="white" fill-opacity="1" filter="url(#shadow12137928)"></path></g><use xlink:href="#duAm2iOLN" opacity="1" fill="#e277fa" fill-opacity="0"></use><g><use xlink:href="#duAm2iOLN" opacity="1" fill-opacity="0" stroke="#051218" stroke-width="6" stroke-opacity="1"></use></g></g><g><g><filter id="shadow8058476" x="-261.72" y="38.71" width="530" height="574" filterUnits="userSpaceOnUse" primitiveUnits="userSpaceOnUse"><feFlood></feFlood><feComposite in2="SourceAlpha" operator="in"></feComposite><feGaussianBlur stdDeviation="7.07"></feGaussianBlur><feOffset dx="0" dy="0" result="afterOffset"></feOffset><feFlood flood-color="#000000" flood-opacity="1"></feFlood><feComposite in2="afterOffset" operator="in"></feComposite><feMorphology operator="dilate" radius="20"></feMorphology><feComposite in2="SourceAlpha" operator="out"></feComposite></filter><path d="M3.28 163.71L-136.72 244.71L-136.72 406.71L3.28 487.71L143.28 406.71L143.28 244.71L3.28 163.71Z" id="aR45zU6Tk" fill="white" fill-opacity="1" filter="url(#shadow8058476)"></path></g><use xlink:href="#adaesBG7O" opacity="1" fill="#e277fa" fill-opacity="0"></use><g><use xlink:href="#adaesBG7O" opacity="1" fill-opacity="0" stroke="#051218" stroke-width="6" stroke-opacity="1"></use></g></g><g><g><filter id="shadow12785847" x="18.08" y="39.13" width="530" height="574" filterUnits="userSpaceOnUse" primitiveUnits="userSpaceOnUse"><feFlood></feFlood><feComposite in2="SourceAlpha" operator="in"></feComposite><feGaussianBlur stdDeviation="7.07"></feGaussianBlur><feOffset dx="0" dy="0" result="afterOffset"></feOffset><feFlood flood-color="#000000" flood-opacity="1"></feFlood><feComposite in2="afterOffset" operator="in"></feComposite><feMorphology operator="dilate" radius="20"></feMorphology><feComposite in2="SourceAlpha" operator="out"></feComposite></filter><path d="M283.08 164.13L143.08 245.13L143.08 407.13L283.08 488.13L423.08 407.13L423.08 245.13L283.08 164.13Z" id="a4utnAL8D" fill="white" fill-opacity="1" filter="url(#shadow12785847)"></path></g><use xlink:href="#hfdstdv27" opacity="1" fill="#e277fa" fill-opacity="0"></use><g><use xlink:href="#hfdstdv27" opacity="1" fill-opacity="0" stroke="#051218" stroke-width="6" stroke-opacity="1"></use></g></g><g><g><filter id="shadow16639598" x="298" y="38.5" width="530" height="574" filterUnits="userSpaceOnUse" primitiveUnits="userSpaceOnUse"><feFlood></feFlood><feComposite in2="SourceAlpha" operator="in"></feComposite><feGaussianBlur stdDeviation="7.07"></feGaussianBlur><feOffset dx="0" dy="0" result="afterOffset"></feOffset><feFlood flood-color="#000000" flood-opacity="1"></feFlood><feComposite in2="afterOffset" operator="in"></feComposite><feMorphology operator="dilate" radius="20"></feMorphology><feComposite in2="SourceAlpha" operator="out"></feComposite></filter><path d="M563 163.5L423 244.5L423 406.5L563 487.5L703 406.5L703 244.5L563 163.5Z" id="bguhtDzI" fill="white" fill-opacity="1" filter="url(#shadow16639598)"></path></g><use xlink:href="#a4JKNtFZ2M" opacity="1" fill="#e277fa" fill-opacity="0"></use><g><use xlink:href="#a4JKNtFZ2M" opacity="1" fill-opacity="0" stroke="#051218" stroke-width="6" stroke-opacity="1"></use></g></g><g><use xlink:href="#a2VSAQxnYl" opacity="1" fill="#e277fa" fill-opacity="0"></use><g><use xlink:href="#a2VSAQxnYl" opacity="1" fill-opacity="0" stroke="#051218" stroke-width="6" stroke-opacity="1"></use></g></g><g><use xlink:href="#coSXVNmHk" opacity="1" fill="#e277fa" fill-opacity="0"></use><g><use xlink:href="#coSXVNmHk" opacity="1" fill-opacity="0" stroke="#051218" stroke-width="6" stroke-opacity="1"></use></g></g><g><use xlink:href="#cIAyWVWLg" opacity="1" fill="#e277fa" fill-opacity="0"></use><g><use xlink:href="#cIAyWVWLg" opacity="1" fill-opacity="0" stroke="#051218" stroke-width="6" stroke-opacity="1"></use></g></g><g><use xlink:href="#cpYTTcsUS" opacity="1" fill="#e277fa" fill-opacity="0"></use><g><use xlink:href="#cpYTTcsUS" opacity="1" fill-opacity="0" stroke="#051218" stroke-width="6" stroke-opacity="1"></use></g></g><g><use xlink:href="#b1Nd0qBhZM" opacity="1" fill="#e277fa" fill-opacity="0"></use><g><use xlink:href="#b1Nd0qBhZM" opacity="1" fill-opacity="0" stroke="#051218" stroke-width="6" stroke-opacity="1"></use></g></g></g></g></svg>