<?xml version="1.0" encoding="UTF-8" standalone="no"?>
<!DOCTYPE svg PUBLIC "-//W3C//DTD SVG 1.1//EN" "http://www.w3.org/Graphics/SVG/1.1/DTD/svg11.dtd">
<svg version="1.1" xmlns="http://www.w3.org/2000/svg" xmlns:xlink="http://www.w3.org/1999/xlink" preserveAspectRatio="xMidYMid meet" viewBox="0 0 560 475" width="560" height="475"><defs><path d="M287.37 82.54L147.37 163.31L147.37 324.85L287.37 405.62L427.37 324.85L427.37 163.31L287.37 82.54Z" id="b1cKREIQdh"></path><path d="M427.37 -159L287.37 -78.23L287.37 83.31L427.37 164.08L567.37 83.31L567.37 -78.23L427.37 -159Z" id="d3XhNs1rhO"></path><path d="M147.37 324.08L7.37 404.85L7.37 566.38L147.37 647.15L287.37 566.38L287.37 404.85L147.37 324.08Z" id="d3FPbXVHsX"></path><path d="M567.37 83.08L427.37 163.85L427.37 325.38L567.37 406.15L707.38 325.38L707.38 163.85L567.37 83.08Z" id="c2azP2D6em"></path><path d="M427.37 324.08L287.37 404.85L287.37 566.38L427.37 647.15L567.37 566.38L567.37 404.85L427.37 324.08Z" id="e12FcAnu1"></path><path d="M147.37 -159L7.37 -78.23L7.37 83.31L147.37 164.08L287.37 83.31L287.37 -78.23L147.37 -159Z" id="b3qetXuzMW"></path><path d="M7.37 82.54L-132.63 163.31L-132.63 324.85L7.37 405.62L147.37 324.85L147.37 163.31L7.37 82.54Z" id="b3MIDtQzz"></path><path d="" id="c4JoQYXHPB"></path></defs><g><g><g><use xlink:href="#b1cKREIQdh" opacity="1" fill="#e378fa" fill-opacity="0"></use><g><use xlink:href="#b1cKREIQdh" opacity="1" fill-opacity="0" stroke="#2f2f2f" stroke-width="15" stroke-opacity="1"></use></g></g><g><use xlink:href="#d3XhNs1rhO" opacity="1" fill="#e378fa" fill-opacity="0"></use><g><use xlink:href="#d3XhNs1rhO" opacity="1" fill-opacity="0" stroke="#2f2f2f" stroke-width="15" stroke-opacity="1"></use></g></g><g><use xlink:href="#d3FPbXVHsX" opacity="1" fill="#e378fa" fill-opacity="0"></use><g><use xlink:href="#d3FPbXVHsX" opacity="1" fill-opacity="0" stroke="#2f2f2f" stroke-width="15" stroke-opacity="1"></use></g></g><g><use xlink:href="#c2azP2D6em" opacity="1" fill="#e378fa" fill-opacity="0"></use><g><use xlink:href="#c2azP2D6em" opacity="1" fill-opacity="0" stroke="#2f2f2f" stroke-width="15" stroke-opacity="1"></use></g></g><g><use xlink:href="#e12FcAnu1" opacity="1" fill="#e378fa" fill-opacity="0"></use><g><use xlink:href="#e12FcAnu1" opacity="1" fill-opacity="0" stroke="#2f2f2f" stroke-width="15" stroke-opacity="1"></use></g></g><g><use xlink:href="#b3qetXuzMW" opacity="1" fill="#e378fa" fill-opacity="0"></use><g><use xlink:href="#b3qetXuzMW" opacity="1" fill-opacity="0" stroke="#2f2f2f" stroke-width="15" stroke-opacity="1"></use></g></g><g><use xlink:href="#b3MIDtQzz" opacity="1" fill="#e378fa" fill-opacity="0"></use><g><use xlink:href="#b3MIDtQzz" opacity="1" fill-opacity="0" stroke="#2f2f2f" stroke-width="15" stroke-opacity="1"></use></g></g><g><g><use xlink:href="#c4JoQYXHPB" opacity="1" fill-opacity="0" stroke="#4e4e4e" stroke-width="13" stroke-opacity="1"></use></g></g></g></g></svg>