<?xml version="1.0" encoding="UTF-8" standalone="no"?>
<!DOCTYPE svg PUBLIC "-//W3C//DTD SVG 1.1//EN" "http://www.w3.org/Graphics/SVG/1.1/DTD/svg11.dtd">
<svg version="1.1" xmlns="http://www.w3.org/2000/svg" xmlns:xlink="http://www.w3.org/1999/xlink" preserveAspectRatio="xMidYMid meet" viewBox="0 0 560 475" width="560" height="475"><defs><path d="M291.37 91.91L151.37 172.68L151.37 334.22L291.37 414.99L431.37 334.22L431.37 172.68L291.37 91.91Z" id="e1y5FYm4i"></path><path d="M431.37 -149.62L291.37 -68.86L291.37 92.68L431.37 173.45L571.37 92.68L571.37 -68.86L431.37 -149.62Z" id="ibKFpZ2Bw"></path><path d="M151.37 333.45L11.37 414.22L11.37 575.76L151.37 656.53L291.37 575.76L291.37 414.22L151.37 333.45Z" id="ak5brmaNY"></path><path d="M571.37 92.45L431.37 173.22L431.37 334.76L571.37 415.53L711.38 334.76L711.38 173.22L571.37 92.45Z" id="aBpAMchxS"></path><path d="M431.37 333.45L291.37 414.22L291.37 575.76L431.37 656.53L571.37 575.76L571.37 414.22L431.37 333.45Z" id="a3WAjKjtw"></path><path d="M151.37 -149.62L11.37 -68.86L11.37 92.68L151.37 173.45L291.37 92.68L291.37 -68.86L151.37 -149.62Z" id="brXbU8bxY"></path><path d="M11.37 91.91L-128.63 172.68L-128.63 334.22L11.37 414.99L151.37 334.22L151.37 172.68L11.37 91.91Z" id="a1kV4R5hfr"></path><path d="M427.37 -159L287.37 -78.23L287.37 83.31L427.37 164.08L567.37 83.31L567.37 -78.23L427.37 -159Z" id="ciyv0ySvY"></path><path d="M147.37 324.08L7.37 404.85L7.37 566.38L147.37 647.15L287.37 566.38L287.37 404.85L147.37 324.08Z" id="iXcEaD4Rk"></path><path d="M567.37 83.08L427.37 163.85L427.37 325.38L567.37 406.15L707.38 325.38L707.38 163.85L567.37 83.08Z" id="awDvejkB2"></path><path d="M427.37 324.08L287.37 404.85L287.37 566.38L427.37 647.15L567.37 566.38L567.37 404.85L427.37 324.08Z" id="bEvW45Y1d"></path><path d="M147.37 -159L7.37 -78.23L7.37 83.31L147.37 164.08L287.37 83.31L287.37 -78.23L147.37 -159Z" id="aU83i63o"></path><path d="M7.37 82.54L-132.63 163.31L-132.63 324.85L7.37 405.62L147.37 324.85L147.37 163.31L7.37 82.54Z" id="b9PaFbDq4N"></path><path d="" id="c4JoQYXHPB"></path></defs><g><g><g><use xlink:href="#e1y5FYm4i" opacity="1" fill="#e277fa" fill-opacity="0"></use><g><use xlink:href="#e1y5FYm4i" opacity="1" fill-opacity="0" stroke="#141f24" stroke-width="15" stroke-opacity="1"></use></g></g><g><use xlink:href="#ibKFpZ2Bw" opacity="1" fill="#e277fa" fill-opacity="0"></use><g><use xlink:href="#ibKFpZ2Bw" opacity="1" fill-opacity="0" stroke="#141f24" stroke-width="15" stroke-opacity="1"></use></g></g><g><use xlink:href="#ak5brmaNY" opacity="1" fill="#e277fa" fill-opacity="0"></use><g><use xlink:href="#ak5brmaNY" opacity="1" fill-opacity="0" stroke="#141f24" stroke-width="15" stroke-opacity="1"></use></g></g><g><use xlink:href="#aBpAMchxS" opacity="1" fill="#e277fa" fill-opacity="0"></use><g><use xlink:href="#aBpAMchxS" opacity="1" fill-opacity="0" stroke="#141f24" stroke-width="15" stroke-opacity="1"></use></g></g><g><use xlink:href="#a3WAjKjtw" opacity="1" fill="#e277fa" fill-opacity="0"></use><g><use xlink:href="#a3WAjKjtw" opacity="1" fill-opacity="0" stroke="#141f24" stroke-width="15" stroke-opacity="1"></use></g></g><g><use xlink:href="#brXbU8bxY" opacity="1" fill="#e277fa" fill-opacity="0"></use><g><use xlink:href="#brXbU8bxY" opacity="1" fill-opacity="0" stroke="#141f24" stroke-width="15" stroke-opacity="1"></use></g></g><g><use xlink:href="#a1kV4R5hfr" opacity="1" fill="#e277fa" fill-opacity="0"></use><g><use xlink:href="#a1kV4R5hfr" opacity="1" fill-opacity="0" stroke="#141f24" stroke-width="15" stroke-opacity="1"></use></g></g><g><use xlink:href="#ciyv0ySvY" opacity="1" fill="#e378fa" fill-opacity="0"></use><g><use xlink:href="#ciyv0ySvY" opacity="1" fill-opacity="0" stroke="#080808" stroke-width="15" stroke-opacity="1"></use></g></g><g><use xlink:href="#iXcEaD4Rk" opacity="1" fill="#e378fa" fill-opacity="0"></use><g><use xlink:href="#iXcEaD4Rk" opacity="1" fill-opacity="0" stroke="#080808" stroke-width="15" stroke-opacity="1"></use></g></g><g><use xlink:href="#awDvejkB2" opacity="1" fill="#e378fa" fill-opacity="0"></use><g><use xlink:href="#awDvejkB2" opacity="1" fill-opacity="0" stroke="#080808" stroke-width="15" stroke-opacity="1"></use></g></g><g><use xlink:href="#bEvW45Y1d" opacity="1" fill="#e378fa" fill-opacity="0"></use><g><use xlink:href="#bEvW45Y1d" opacity="1" fill-opacity="0" stroke="#080808" stroke-width="15" stroke-opacity="1"></use></g></g><g><use xlink:href="#aU83i63o" opacity="1" fill="#e378fa" fill-opacity="0"></use><g><use xlink:href="#aU83i63o" opacity="1" fill-opacity="0" stroke="#080808" stroke-width="15" stroke-opacity="1"></use></g></g><g><use xlink:href="#b9PaFbDq4N" opacity="1" fill="#e378fa" fill-opacity="0"></use><g><use xlink:href="#b9PaFbDq4N" opacity="1" fill-opacity="0" stroke="#080808" stroke-width="15" stroke-opacity="1"></use></g></g><g><g><use xlink:href="#c4JoQYXHPB" opacity="1" fill-opacity="0" stroke="#4e4e4e" stroke-width="13" stroke-opacity="1"></use></g></g></g></g></svg>