<?xml version="1.0" encoding="UTF-8" standalone="no"?>
<!DOCTYPE svg PUBLIC "-//W3C//DTD SVG 1.1//EN" "http://www.w3.org/Graphics/SVG/1.1/DTD/svg11.dtd">
<svg version="1.1" xmlns="http://www.w3.org/2000/svg" xmlns:xlink="http://www.w3.org/1999/xlink" preserveAspectRatio="xMidYMid meet" viewBox="0 0 560 486" width="280" height="243"><defs><path d="M423.22 569.46L563.22 488.46L563.22 326.46L423.22 245.46L283.22 326.46L283.22 488.46L423.22 569.46Z" id="b37vX5UHKx"></path><path d="M3.28 326.75L143.28 245.75L143.28 83.75L3.28 2.75L-136.72 83.75L-136.72 245.75L3.28 326.75Z" id="e1XTCaqHOr"></path><path d="M283.2 326.13L423.2 245.13L423.2 83.12L283.2 2.12L143.2 83.13L143.2 245.13L283.2 326.13Z" id="adWj8Zx6m"></path><path d="M423 -79.25L283 1.75L283 163.75L423 244.75L563 163.75L563 1.75L423 -79.25Z" id="e10uhzhglS"></path><path d="M563 326.54L703 245.54L703 83.54L563 2.54L423 83.54L423 245.54L563 326.54Z" id="a3xqe1Dmv5"></path><path d="M143.06 -79.21L3.06 1.79L3.06 163.79L143.06 244.79L283.06 163.79L283.06 1.79L143.06 -79.21Z" id="l48fEP6h73"></path><path d="M143.28 569.5L283.28 488.5L283.28 326.5L143.28 245.5L3.28 326.5L3.28 488.5L143.28 569.5Z" id="e5pPhItG29"></path><path d="M3.28 163.71L-136.72 244.71L-136.72 406.71L3.28 487.71L143.28 406.71L143.28 244.71L3.28 163.71Z" id="chwM2ilnu"></path><path d="M283.08 164.13L143.08 245.13L143.08 407.13L283.08 488.13L423.08 407.13L423.08 245.13L283.08 164.13Z" id="b70YfPzOkx"></path><path d="M563 163.5L423 244.5L423 406.5L563 487.5L703 406.5L703 244.5L563 163.5Z" id="aCGlWVXNM"></path><path d="M423 -78.88L283 2.12L283 164.12L423 245.13L563 164.12L563 2.12L423 -78.88Z" id="g4503yipsk"></path><path d="M143.06 -78.83L3.06 2.17L3.06 164.17L143.06 245.17L283.06 164.17L283.06 2.17L143.06 -78.83Z" id="g2FhJSth2f"></path><path d="M3.28 164.08L-136.72 245.08L-136.72 407.08L3.28 488.08L143.28 407.08L143.28 245.08L3.28 164.08Z" id="cZ9wR3bvM"></path><path d="M283.08 164.5L143.08 245.5L143.08 407.5L283.08 488.5L423.08 407.5L423.08 245.5L283.08 164.5Z" id="a4HH4ao0"></path><path d="M563 163.87L423 244.87L423 406.88L563 487.88L703 406.88L703 244.87L563 163.87Z" id="a2l8s64Z3"></path></defs><g><g><g><use xlink:href="#b37vX5UHKx" opacity="1" fill="#e277fa" fill-opacity="0"></use><g><use xlink:href="#b37vX5UHKx" opacity="1" fill-opacity="0" stroke="#15475c" stroke-width="3" stroke-opacity="1"></use></g></g><g><g></g><use xlink:href="#e1XTCaqHOr" opacity="1" fill="#e277fa" fill-opacity="0"></use><g><use xlink:href="#e1XTCaqHOr" opacity="1" fill-opacity="0" stroke="#15475c" stroke-width="3" stroke-opacity="1"></use></g></g><g><g></g><use xlink:href="#adWj8Zx6m" opacity="1" fill="#e277fa" fill-opacity="0"></use><g><use xlink:href="#adWj8Zx6m" opacity="1" fill-opacity="0" stroke="#15475c" stroke-width="3" stroke-opacity="1"></use></g></g><g><use xlink:href="#e10uhzhglS" opacity="1" fill="#e277fa" fill-opacity="0"></use><g><use xlink:href="#e10uhzhglS" opacity="1" fill-opacity="0" stroke="#051218" stroke-width="6" stroke-opacity="1"></use></g></g><g><use xlink:href="#a3xqe1Dmv5" opacity="1" fill="#e277fa" fill-opacity="0"></use><g><use xlink:href="#a3xqe1Dmv5" opacity="1" fill-opacity="0" stroke="#15475c" stroke-width="3" stroke-opacity="1"></use></g></g><g><use xlink:href="#l48fEP6h73" opacity="1" fill="#e277fa" fill-opacity="0"></use><g><use xlink:href="#l48fEP6h73" opacity="1" fill-opacity="0" stroke="#051218" stroke-width="6" stroke-opacity="1"></use></g></g><g><use xlink:href="#e5pPhItG29" opacity="1" fill="#e277fa" fill-opacity="0"></use><g><use xlink:href="#e5pPhItG29" opacity="1" fill-opacity="0" stroke="#15475c" stroke-width="3" stroke-opacity="1"></use></g></g><g><use xlink:href="#chwM2ilnu" opacity="1" fill="#e277fa" fill-opacity="0"></use><g><use xlink:href="#chwM2ilnu" opacity="1" fill-opacity="0" stroke="#051218" stroke-width="6" stroke-opacity="1"></use></g></g><g><use xlink:href="#b70YfPzOkx" opacity="1" fill="#e277fa" fill-opacity="0"></use><g><use xlink:href="#b70YfPzOkx" opacity="1" fill-opacity="0" stroke="#051218" stroke-width="6" stroke-opacity="1"></use></g></g><g><use xlink:href="#aCGlWVXNM" opacity="1" fill="#e277fa" fill-opacity="0"></use><g><use xlink:href="#aCGlWVXNM" opacity="1" fill-opacity="0" stroke="#051218" stroke-width="6" stroke-opacity="1"></use></g></g><g><use xlink:href="#g4503yipsk" opacity="1" fill="#e277fa" fill-opacity="0"></use><g><use xlink:href="#g4503yipsk" opacity="1" fill-opacity="0" stroke="#09232f" stroke-width="6" stroke-opacity="1"></use></g></g><g><use xlink:href="#g2FhJSth2f" opacity="1" fill="#e277fa" fill-opacity="0"></use><g><use xlink:href="#g2FhJSth2f" opacity="1" fill-opacity="0" stroke="#09232f" stroke-width="6" stroke-opacity="1"></use></g></g><g><use xlink:href="#cZ9wR3bvM" opacity="1" fill="#e277fa" fill-opacity="0"></use><g><use xlink:href="#cZ9wR3bvM" opacity="1" fill-opacity="0" stroke="#09232f" stroke-width="6" stroke-opacity="1"></use></g></g><g><use xlink:href="#a4HH4ao0" opacity="1" fill="#e277fa" fill-opacity="0"></use><g><use xlink:href="#a4HH4ao0" opacity="1" fill-opacity="0" stroke="#09232f" stroke-width="6" stroke-opacity="1"></use></g></g><g><use xlink:href="#a2l8s64Z3" opacity="1" fill="#e277fa" fill-opacity="0"></use><g><use xlink:href="#a2l8s64Z3" opacity="1" fill-opacity="0" stroke="#09232f" stroke-width="6" stroke-opacity="1"></use></g></g></g></g></svg>