<?xml version="1.0" encoding="UTF-8" standalone="no"?>
<!DOCTYPE svg PUBLIC "-//W3C//DTD SVG 1.1//EN" "http://www.w3.org/Graphics/SVG/1.1/DTD/svg11.dtd">
<svg version="1.1" xmlns="http://www.w3.org/2000/svg" xmlns:xlink="http://www.w3.org/1999/xlink" preserveAspectRatio="xMidYMid meet" viewBox="0 0 560 475" width="560" height="475"><defs><path d="M296.37 87.91L156.37 168.68L156.37 330.22L296.37 410.99L436.37 330.22L436.37 168.68L296.37 87.91Z" id="b3QBPYzO2j"></path><path d="M436.37 -153.62L296.37 -72.86L296.37 88.68L436.37 169.45L576.37 88.68L576.37 -72.86L436.37 -153.62Z" id="c75Vz5Q0vn"></path><path d="M156.37 329.45L16.37 410.22L16.37 571.76L156.37 652.53L296.37 571.76L296.37 410.22L156.37 329.45Z" id="a2Fb2EyF3q"></path><path d="M576.37 88.45L436.37 169.22L436.37 330.76L576.37 411.53L716.38 330.76L716.38 169.22L576.37 88.45Z" id="a2C0s0FYhc"></path><path d="M436.37 329.45L296.37 410.22L296.37 571.76L436.37 652.53L576.37 571.76L576.37 410.22L436.37 329.45Z" id="e1a1ObNRk5"></path><path d="M156.37 -153.62L16.37 -72.86L16.37 88.68L156.37 169.45L296.37 88.68L296.37 -72.86L156.37 -153.62Z" id="b8wYsaMIs"></path><path d="M16.37 87.91L-123.63 168.68L-123.63 330.22L16.37 410.99L156.37 330.22L156.37 168.68L16.37 87.91Z" id="bmcANotfs"></path><path d="M432.37 -163L292.37 -82.23L292.37 79.31L432.37 160.08L572.37 79.31L572.37 -82.23L432.37 -163Z" id="a7UigtGur"></path><path d="M147.37 324.08L7.37 404.85L7.37 566.38L147.37 647.15L287.37 566.38L287.37 404.85L147.37 324.08Z" id="a3BkXBib32"></path><path d="M567.37 83.08L427.37 163.85L427.37 325.38L567.37 406.15L707.38 325.38L707.38 163.85L567.37 83.08Z" id="c9H3uN3Tw"></path><path d="M427.37 324.08L287.37 404.85L287.37 566.38L427.37 647.15L567.37 566.38L567.37 404.85L427.37 324.08Z" id="k1jhQ14mZy"></path><path d="M147.37 -159L7.37 -78.23L7.37 83.31L147.37 164.08L287.37 83.31L287.37 -78.23L147.37 -159Z" id="fEyTHc5XQ"></path><path d="M7.37 82.54L-132.63 163.31L-132.63 324.85L7.37 405.62L147.37 324.85L147.37 163.31L7.37 82.54Z" id="dA3dI6qGF"></path><path d="" id="c4JoQYXHPB"></path></defs><g><g><g><use xlink:href="#b3QBPYzO2j" opacity="1" fill="#e277fa" fill-opacity="0"></use><g><use xlink:href="#b3QBPYzO2j" opacity="1" fill-opacity="0" stroke="#141f24" stroke-width="15" stroke-opacity="1"></use></g></g><g><use xlink:href="#c75Vz5Q0vn" opacity="1" fill="#e277fa" fill-opacity="0"></use><g><use xlink:href="#c75Vz5Q0vn" opacity="1" fill-opacity="0" stroke="#141f24" stroke-width="15" stroke-opacity="1"></use></g></g><g><use xlink:href="#a2Fb2EyF3q" opacity="1" fill="#e277fa" fill-opacity="0"></use><g><use xlink:href="#a2Fb2EyF3q" opacity="1" fill-opacity="0" stroke="#141f24" stroke-width="15" stroke-opacity="1"></use></g></g><g><use xlink:href="#a2C0s0FYhc" opacity="1" fill="#e277fa" fill-opacity="0"></use><g><use xlink:href="#a2C0s0FYhc" opacity="1" fill-opacity="0" stroke="#141f24" stroke-width="15" stroke-opacity="1"></use></g></g><g><use xlink:href="#e1a1ObNRk5" opacity="1" fill="#e277fa" fill-opacity="0"></use><g><use xlink:href="#e1a1ObNRk5" opacity="1" fill-opacity="0" stroke="#141f24" stroke-width="15" stroke-opacity="1"></use></g></g><g><use xlink:href="#b8wYsaMIs" opacity="1" fill="#e277fa" fill-opacity="0"></use><g><use xlink:href="#b8wYsaMIs" opacity="1" fill-opacity="0" stroke="#141f24" stroke-width="15" stroke-opacity="1"></use></g></g><g><use xlink:href="#bmcANotfs" opacity="1" fill="#e277fa" fill-opacity="0"></use><g><use xlink:href="#bmcANotfs" opacity="1" fill-opacity="0" stroke="#141f24" stroke-width="15" stroke-opacity="1"></use></g></g><g><use xlink:href="#a7UigtGur" opacity="1" fill="#e378fa" fill-opacity="0"></use><g><use xlink:href="#a7UigtGur" opacity="1" fill-opacity="0" stroke="#000000" stroke-width="15" stroke-opacity="1"></use></g></g><g><use xlink:href="#a3BkXBib32" opacity="1" fill="#e378fa" fill-opacity="0"></use><g><use xlink:href="#a3BkXBib32" opacity="1" fill-opacity="0" stroke="#000000" stroke-width="15" stroke-opacity="1"></use></g></g><g><use xlink:href="#c9H3uN3Tw" opacity="1" fill="#e378fa" fill-opacity="0"></use><g><use xlink:href="#c9H3uN3Tw" opacity="1" fill-opacity="0" stroke="#000000" stroke-width="15" stroke-opacity="1"></use></g></g><g><use xlink:href="#k1jhQ14mZy" opacity="1" fill="#e378fa" fill-opacity="0"></use><g><use xlink:href="#k1jhQ14mZy" opacity="1" fill-opacity="0" stroke="#000000" stroke-width="15" stroke-opacity="1"></use></g></g><g><use xlink:href="#fEyTHc5XQ" opacity="1" fill="#e378fa" fill-opacity="0"></use><g><use xlink:href="#fEyTHc5XQ" opacity="1" fill-opacity="0" stroke="#000000" stroke-width="15" stroke-opacity="1"></use></g></g><g><use xlink:href="#dA3dI6qGF" opacity="1" fill="#e378fa" fill-opacity="0"></use><g><use xlink:href="#dA3dI6qGF" opacity="1" fill-opacity="0" stroke="#000000" stroke-width="15" stroke-opacity="1"></use></g></g><g><g><use xlink:href="#c4JoQYXHPB" opacity="1" fill-opacity="0" stroke="#4e4e4e" stroke-width="13" stroke-opacity="1"></use></g></g></g></g></svg>