<svg height="512pt" viewBox="0 0 512 512" width="512pt" xmlns="http://www.w3.org/2000/svg"><path d="m469.332031 0h-426.664062c-23.554688.0273438-42.6406252 19.113281-42.667969 42.667969v324.265625c.0273438 23.550781 19.113281 42.636718 42.667969 42.667968h161.46875c-3.671875 26.207032-23.296875 51.199219-42.003907 51.199219-14.136718 0-25.597656 11.460938-25.597656 25.597657 0 14.140624 11.460938 25.601562 25.597656 25.601562h187.734376c14.136718 0 25.597656-11.460938 25.597656-25.601562 0-14.136719-11.460938-25.597657-25.597656-25.597657-18.707032 0-38.332032-24.992187-42.003907-51.199219h161.46875c23.554688-.03125 42.640625-19.117187 42.667969-42.667968v-324.265625c-.027344-23.554688-19.113281-42.6406252-42.667969-42.667969zm-145.066406 179.199219h170.667969v145.066406h-170.667969zm170.667969-136.53125v119.464843h-170.667969v-145.066406h145.066406c14.132813.015625 25.585938 11.46875 25.601563 25.601563zm-452.265625-25.601563h264.53125v307.199219h-290.132813v-281.597656c.015625-14.132813 11.46875-25.585938 25.601563-25.601563zm307.199219 477.867188h-187.734376c-4.710937 0-8.53125-3.820313-8.53125-8.535156 0-4.710938 3.820313-8.53125 8.53125-8.53125h187.734376c4.710937 0 8.53125 3.820312 8.53125 8.53125 0 4.714843-3.820313 8.535156-8.53125 8.535156zm-35.242188-34.132813h-117.25c13.375-13.992187 21.808594-31.972656 24.015625-51.199219h69.207031c2.210938 19.226563 10.648438 37.207032 24.027344 51.199219zm180.308594-93.867187c-.015625 14.132812-11.46875 25.585937-25.601563 25.601562h-426.664062c-14.132813-.015625-25.585938-11.46875-25.601563-25.601562v-25.601563h477.867188zm0 0"/><path d="m264.535156 366.933594c0 4.710937-3.824218 8.53125-8.535156 8.53125s-8.535156-3.820313-8.535156-8.53125c0-4.714844 3.824218-8.535156 8.535156-8.535156s8.535156 3.820312 8.535156 8.535156zm0 0"/><path d="m170.667969 213.332031c0 4.714844-3.820313 8.535157-8.535157 8.535157-4.710937 0-8.53125-3.820313-8.53125-8.535157 0-4.710937 3.820313-8.53125 8.53125-8.53125 4.714844 0 8.535157 3.820313 8.535157 8.53125zm0 0"/><path d="m426.667969 119.464844c0 14.140625 11.460937 25.601562 25.597656 25.601562 14.140625 0 25.601563-11.460937 25.601563-25.601562 0-14.136719-11.460938-25.597656-25.601563-25.597656-14.132813.015624-25.582031 11.46875-25.597656 25.597656zm34.132812 0c0 4.714844-3.820312 8.535156-8.535156 8.535156-4.710937 0-8.53125-3.820312-8.53125-8.535156 0-4.710938 3.820313-8.53125 8.53125-8.53125 4.710937.003906 8.53125 3.820312 8.535156 8.53125zm0 0"/><path d="m366.933594 85.332031c14.136718 0 25.601562-11.460937 25.601562-25.597656 0-14.140625-11.464844-25.601563-25.601562-25.601563-14.140625 0-25.601563 11.460938-25.601563 25.601563.015625 14.132813 11.46875 25.582031 25.601563 25.597656zm0-34.132812c4.710937 0 8.53125 3.820312 8.53125 8.535156 0 4.710937-3.820313 8.53125-8.53125 8.53125-4.714844 0-8.535156-3.820313-8.535156-8.53125.003906-4.710937 3.824218-8.53125 8.535156-8.535156zm0 0"/><path d="m115.199219 217.375c-2.988281 1.726562-4.644531 5.082031-4.195313 8.503906.453125 3.421875 2.917969 6.234375 6.253906 7.128906 3.332032.894532 6.875-.308593 8.976563-3.046874 2.101563-2.738282 2.347656-6.472657.621094-9.460938-2.355469-4.082031-7.574219-5.480469-11.65625-3.125zm0 0"/><path d="m92.5 248.609375c-2.988281-1.726563-6.722656-1.480469-9.460938.621094-2.738281 2.101562-3.941406 5.644531-3.046874 8.976562.894531 3.335938 3.707031 5.804688 7.128906 6.253907 3.421875.449218 6.777344-1.207032 8.503906-4.195313 2.355469-4.082031.957031-9.300781-3.125-11.65625zm0 0"/><path d="m162.132812 170.667969c-66.777343.179687-122.332031 51.382812-127.945312 117.921875-.378906 4.820312 1.269531 9.578125 4.542969 13.136718 3.226562 3.484376 7.761719 5.46875 12.511719 5.472657h221.78125c4.75-.003907 9.285156-1.988281 12.511718-5.472657 3.273438-3.558593 4.921875-8.316406 4.542969-13.136718-5.613281-66.539063-61.167969-117.742188-127.945313-117.921875zm20.601563 119.464843 36.632813-36.632812c3.234374-3.347656 3.1875-8.671875-.105469-11.960938-3.289063-3.292968-8.613281-3.339843-11.960938-.105468l-48.699219 48.699218h-107.359374l-.039063-.207031c4.742187-57.773437 53.039063-102.226562 111.007813-102.175781 57.964843.054688 106.179687 44.601562 110.8125 102.382812zm0 0"/><path d="m42.667969 153.601562h238.933593c4.710938 0 8.53125-3.820312 8.53125-8.535156 0-4.710937-3.820312-8.53125-8.53125-8.53125h-8.535156v-59.734375c-.011718-9.421875-7.644531-17.054687-17.066406-17.066406h-17.066406c-9.421875.011719-17.054688 7.644531-17.066406 17.066406v59.734375h-25.601563v-85.335937c-.011719-9.421875-7.644531-17.054688-17.066406-17.066407h-17.066407c-9.421874.011719-17.054687 7.644532-17.066406 17.066407v85.335937h-25.601562v-25.601562c-.007813-9.421875-7.644532-17.054688-17.066406-17.066406h-17.066407c-9.417969.011718-17.054687 7.644531-17.066406 17.066406v25.601562h-17.066406v-93.867187c0-4.714844-3.820313-8.535157-8.53125-8.535157-4.714844 0-8.535157 3.820313-8.535157 8.535157v102.398437c0 4.714844 3.820313 8.535156 8.535157 8.535156zm196.265625-76.800781h17.066406v59.734375h-17.066406zm-76.800782-25.601562h17.066407v85.335937h-17.066407zm-76.800781 59.734375h17.066407v25.601562h-17.066407zm0 0"/><path d="m352.367188 142.566406c1.597656 1.601563 3.769531 2.5 6.03125 2.5 2.265624 0 4.433593-.898437 6.035156-2.5l93.867187-93.867187c2.21875-2.140625 3.105469-5.316407 2.324219-8.296875-.777344-2.984375-3.109375-5.316406-6.09375-6.097656-2.984375-.777344-6.15625.109374-8.296875 2.328124l-93.867187 93.867188c-1.601563 1.601562-2.5 3.769531-2.5 6.035156 0 2.261719.898437 4.433594 2.5 6.03125zm0 0"/><path d="m469.332031 196.265625h-119.464843c-4.714844 0-8.535157 3.820313-8.535157 8.535156 0 4.710938 3.820313 8.53125 8.535157 8.53125h119.464843c4.714844 0 8.535157-3.820312 8.535157-8.53125 0-4.714843-3.820313-8.535156-8.535157-8.535156zm0 0"/><path d="m349.867188 256h25.597656c4.714844 0 8.535156-3.820312 8.535156-8.535156 0-4.710938-3.820312-8.53125-8.535156-8.53125h-25.597656c-4.714844 0-8.535157 3.820312-8.535157 8.53125 0 4.714844 3.820313 8.535156 8.535157 8.535156zm0 0"/><path d="m452.265625 238.933594h-42.664063c-4.714843 0-8.535156 3.820312-8.535156 8.53125 0 4.714844 3.820313 8.535156 8.535156 8.535156h42.664063c4.714844 0 8.535156-3.820312 8.535156-8.535156 0-4.710938-3.820312-8.53125-8.535156-8.53125zm0 0"/><path d="m401.066406 281.601562h-51.199218c-4.714844 0-8.535157 3.820313-8.535157 8.53125 0 4.714844 3.820313 8.535157 8.535157 8.535157h51.199218c4.714844 0 8.535156-3.820313 8.535156-8.535157 0-4.710937-3.820312-8.53125-8.535156-8.53125zm0 0"/></svg>