<svg width="640" height="640" xmlns="http://www.w3.org/2000/svg" xmlns:xlink="http://www.w3.org/1999/xlink" preserveAspectRatio="xMidYMid meet">
 <defs>
  <path id="diU4eRVla" d="m382.459991,140.860001l6.309998,0.639999l6.230011,0.889999l6.160004,1.130005l6.059998,1.369995l5.980011,1.600006l5.869995,1.830002l5.779999,2.059998l5.669983,2.269989l1.110016,0.490005l-38.080017,45.229996l-3.409973,-0.769989l-3.980011,-0.740005l-4.029999,-0.570007l-4.089996,-0.419998l-4.130005,-0.25l-4.170013,-0.080002l-4.169983,0.080002l-4.130005,0.25l-4.080017,0.419998l-4.039978,0.570007l-3.980011,0.740005l-3.929993,0.87999l-3.860016,1.040009l-3.809998,1.179993l-3.73999,1.330002l-3.670013,1.470001l-3.589996,1.610001l-3.529999,1.740005l-3.440002,1.869995l-3.359985,2l-3.279999,2.119995l-3.190002,2.25l-3.089996,2.360001l-3.01001,2.479996l-2.899994,2.590012l-2.799988,2.690002l-2.700012,2.809998l-2.589996,2.899994l-2.480011,3l-2.359985,3.100006l-2.240021,3.190002l-2.129974,3.269989l-2,3.37001l-1.870026,3.439987l-1.73999,3.520004l-1.609985,3.600006l-1.470001,3.669983l-1.320007,3.740021l-1.190002,3.799988l-1.029999,3.869995l-0.890015,3.930023l-0.72998,3.97998l-0.580017,4.029999l-0.410004,4.089996l-0.259979,4.130005l-0.080017,4.170013l0.080017,4.169983l0.259979,4.130005l0.410004,4.080017l0.580017,4.039978l0.72998,3.980011l0.890015,3.929993l1.029999,3.860016l1.190002,3.809998l1.320007,3.73999l1.470001,3.670013l1.609985,3.589996l1.73999,3.529999l1.870026,3.440002l2,3.359985l2.129974,3.279999l2.240021,3.190002l2.359985,3.089996l2.480011,3.01001l2.589996,2.899994l2.700012,2.800018l2.799988,2.699982l2.899994,2.589996l3.01001,2.470001l3.089996,2.369995l3.190002,2.240021l3.279999,2.130005l3.359985,2l3.440002,1.869995l3.529999,1.73999l3.589996,1.610016l3.670013,1.459991l3.73999,1.329987l3.809998,1.190002l3.860016,1.029999l3.929993,0.890015l3.980011,0.72998l4.039978,0.580017l4.080017,0.410004l4.130005,0.259979l4.169983,0.080017l4.170013,-0.080017l4.130005,-0.259979l4.089996,-0.410004l4.029999,-0.580017l3.980011,-0.72998l3.929993,-0.890015l3.869995,-1.029999l3.799988,-1.190002l3.740021,-1.329987l3.669983,-1.459991l3.600006,-1.610016l3.519989,-1.73999l3.440002,-1.869995l3.369995,-2l3.27002,-2.130005l3.190002,-2.240021l3.100006,-2.369995l3,-2.470001l2.899994,-2.589996l2.799988,-2.699982l2.700012,-2.800018l2.589996,-2.899994l2.47998,-3.01001l2.360016,-3.089996l2.25,-3.190002l2.119995,-3.279999l2,-3.359985l1.869995,-3.440002l1.740021,-3.529999l1.609985,-3.589996l1.470001,-3.670013l1.329987,-3.73999l1.180023,-3.809998l1.039978,-3.860016l0.880005,-3.929993l0.740021,-3.980011l0.569977,-4.039978l0.420013,-4.080017l0.25,-4.130005l0.079987,-4.169983l0,-0.210022l45.430023,-53.959991l1.679993,4.730011l1.830017,5.87999l1.599976,5.970016l1.369995,6.069977l1.130005,6.150024l0.890015,6.22998l0.640015,6.309998l0.389954,6.380005l0.130005,6.450012l-0.130005,6.440002l-0.389954,6.380005l-0.640015,6.309998l-0.890015,6.23999l-1.130005,6.149994l-1.369995,6.059998l-1.599976,5.980011l-1.830017,5.869995l-2.049988,5.779999l-2.27002,5.670013l-2.480011,5.559998l-2.689972,5.440002l-2.890015,5.319977l-3.089996,5.200012l-3.290009,5.059998l-3.459991,4.929993l-3.649994,4.779999l-3.830017,4.640015l-4,4.47998l-4.169983,4.330017l-4.330017,4.169983l-4.47998,4l-4.640015,3.830017l-4.790009,3.649994l-4.919983,3.470001l-5.059998,3.279999l-5.200012,3.089996l-5.320007,2.890015l-5.440002,2.690002l-5.559998,2.47998l-5.669983,2.27002l-5.779999,2.049988l-5.869995,1.830017l-5.980011,1.599976l-6.059998,1.369995l-6.160004,1.140015l-6.230011,0.880005l-6.309998,0.649994l-6.380005,0.380005l-6.439972,0.139984l-6.450012,-0.139984l-6.380005,-0.380005l-6.309998,-0.649994l-6.230011,-0.880005l-6.149994,-1.140015l-6.070007,-1.369995l-5.970001,-1.599976l-5.879974,-1.830017l-5.779999,-2.049988l-5.670013,-2.27002l-5.559998,-2.47998l-5.440002,-2.690002l-5.320007,-2.890015l-5.190002,-3.089996l-5.069977,-3.279999l-4.920013,-3.470001l-4.790009,-3.649994l-4.630005,-3.830017l-4.48999,-4l-4.329987,-4.169983l-4.160004,-4.330017l-4,-4.47998l-3.830002,-4.640015l-3.650009,-4.779999l-3.470001,-4.929993l-3.279999,-5.059998l-3.089996,-5.200012l-2.889999,-5.319977l-2.690002,-5.440002l-2.48999,-5.559998l-2.270004,-5.670013l-2.050003,-5.779999l-1.830002,-5.869995l-1.599991,-5.980011l-1.37001,-6.059998l-1.12999,-6.149994l-0.889999,-6.23999l-0.640015,-6.309998l-0.389999,-6.380005l-0.12999,-6.440002l0.12999,-6.450012l0.389999,-6.380005l0.640015,-6.309998l0.889999,-6.22998l1.12999,-6.150024l1.37001,-6.069977l1.599991,-5.970016l1.830002,-5.87999l2.050003,-5.779999l2.270004,-5.670013l2.48999,-5.549988l2.690002,-5.450012l2.889999,-5.319992l3.089996,-5.190002l3.279999,-5.059998l3.470001,-4.930008l3.650009,-4.779999l3.830002,-4.639999l4,-4.48999l4.160004,-4.330002l4.329987,-4.160004l4.48999,-4l4.630005,-3.830002l4.790009,-3.649994l4.920013,-3.470001l5.069977,-3.279999l5.190002,-3.089996l5.320007,-2.889999l5.440002,-2.690002l5.559998,-2.480011l5.670013,-2.269989l5.779999,-2.059998l5.879974,-1.830002l5.970001,-1.600006l6.070007,-1.369995l6.149994,-1.130005l6.230011,-0.889999l6.309998,-0.639999l6.380005,-0.389999l6.450012,-0.130005l6.439972,0.130005l6.380005,0.389999z"/>
  <path id="bnKzMespb" d="m409.130005,318.690002l0.01001,0.01001l-35.720001,42.429993l-76.040009,-84.860016l39.019989,-43.819992l37.01001,43.819992l90.809998,-107.849991l35.730011,42.419998l-90.820007,107.850006z"/>
  <linearGradient y2="0" x2="1" y1="0.263281" x1="0" id="svg_11">
   <stop offset="0" stop-opacity="0.996094" stop-color="#a5d9ff"/>
   <stop offset="1" stop-opacity="0.996094" stop-color="#356484"/>
  </linearGradient>
 </defs>
 <g>
  <title>background</title>
  <rect fill="none" id="canvas_background" height="402" width="582" y="-1" x="-1"/>
 </g>
 <g>
  <title>Layer 1</title>
  <g id="svg_3">
   <use transform="matrix(1.93945, 0, 0, 1.93945, -586.318, -17.2295)" x="97.999985" y="-121.999985" id="svg_4" fill="url(#svg_11)" xlink:href="#diU4eRVla"/>
   <g id="svg_5">
    <use fill="url(#svg_11)" transform="matrix(1.93945, 0, 0, 1.93945, -586.318, -17.2295)" x="97.999985" y="-121.999985" id="svg_6" stroke-width="9" stroke="#7eb2d6" fill-opacity="0" xlink:href="#diU4eRVla"/>
   </g>
  </g>
  <g id="svg_7">
   <use transform="matrix(1.93945, 0, 0, 1.93945, -586.318, -17.2295)" x="97.999985" y="-121.999985" id="svg_8" fill="url(#svg_11)" xlink:href="#bnKzMespb"/>
   <g id="svg_9">
    <use fill="url(#svg_11)" transform="matrix(1.93945, 0, 0, 1.93945, -586.318, -17.2295)" x="97.999985" y="-121.999985" id="svg_10" stroke-width="9" stroke="#7eb2d6" fill-opacity="0" xlink:href="#bnKzMespb"/>
   </g>
  </g>
 </g>
</svg>