<?xml version="1.0" encoding="UTF-8" standalone="no"?>
<!DOCTYPE svg PUBLIC "-//W3C//DTD SVG 1.1//EN" "http://www.w3.org/Graphics/SVG/1.1/DTD/svg11.dtd">
<svg version="1.1" xmlns="http://www.w3.org/2000/svg" xmlns:xlink="http://www.w3.org/1999/xlink" preserveAspectRatio="xMidYMid meet" viewBox="0 0 640 640" width="640" height="640"><defs><path d="M388.77 141.5L395 142.39L401.16 143.52L407.22 144.89L413.2 146.49L419.07 148.32L424.85 150.38L430.52 152.65L431.63 153.14L402.39 187.87L401.89 187.72L397.53 186.55L393.11 185.55L388.62 184.72L384.08 184.07L379.48 183.61L374.82 183.32L370.12 183.23L365.42 183.32L360.77 183.61L356.17 184.07L351.63 184.72L347.14 185.55L342.72 186.55L338.36 187.72L334.07 189.05L329.86 190.55L325.73 192.2L321.67 194.01L317.71 195.97L313.83 198.08L310.04 200.33L306.35 202.73L302.75 205.26L299.27 207.92L295.88 210.71L292.61 213.63L289.46 216.66L286.42 219.82L283.5 223.09L280.71 226.47L278.05 229.96L275.52 233.55L273.13 237.25L270.87 241.03L268.77 244.91L266.8 248.88L264.99 252.93L263.34 257.07L261.84 261.28L260.51 265.57L259.34 269.92L258.34 274.35L257.52 278.83L256.87 283.38L256.4 287.98L256.12 292.63L256.02 297.33L256.12 302.03L256.4 306.68L256.87 311.28L257.52 315.83L258.34 320.31L259.34 324.74L260.51 329.09L261.84 333.38L263.34 337.59L264.99 341.73L266.8 345.78L268.77 349.75L270.87 353.63L273.13 357.42L275.52 361.11L278.05 364.7L280.71 368.19L283.5 371.57L286.42 374.84L289.46 378L292.61 381.04L295.88 383.95L299.27 386.74L302.75 389.41L306.35 391.94L310.04 394.33L313.83 396.58L317.71 398.69L321.67 400.65L325.73 402.46L329.86 404.12L334.07 405.61L338.36 406.95L342.72 408.12L347.14 409.11L351.63 409.94L356.17 410.59L360.77 411.06L365.42 411.34L370.12 411.43L374.82 411.34L379.48 411.06L384.08 410.59L388.62 409.94L393.11 409.11L397.53 408.12L401.89 406.95L406.17 405.61L410.39 404.12L414.52 402.46L418.57 400.65L422.54 398.69L426.42 396.58L430.21 394.33L433.9 391.94L437.49 389.41L440.98 386.74L444.36 383.95L447.63 381.04L450.79 378L453.83 374.84L456.75 371.57L459.54 368.19L462.2 364.7L464.73 361.11L467.12 357.42L469.37 353.63L471.48 349.75L473.44 345.78L475.25 341.73L476.91 337.59L478.41 333.38L479.74 329.09L480.91 324.74L481.91 320.31L482.73 315.83L483.38 311.28L483.85 306.68L484.13 302.03L484.23 297.33L484.13 292.63L483.85 287.98L483.38 283.38L483.2 282.14L516.45 242.65L518.13 247.38L519.96 253.26L521.56 259.23L522.93 265.3L524.06 271.45L524.95 277.68L525.59 283.99L525.98 290.37L526.11 296.82L525.98 303.26L525.59 309.64L524.95 315.95L524.06 322.19L522.93 328.34L521.56 334.4L519.96 340.38L518.13 346.25L516.08 352.03L513.81 357.7L511.33 363.26L508.64 368.7L505.75 374.02L502.66 379.22L499.37 384.28L495.91 389.21L492.26 393.99L488.43 398.63L484.43 403.11L480.26 407.44L475.93 411.61L471.45 415.61L466.81 419.44L462.02 423.09L457.1 426.56L452.04 429.84L446.84 432.93L441.52 435.82L436.08 438.51L430.52 440.99L424.85 443.26L419.07 445.31L413.2 447.14L407.22 448.74L401.16 450.11L395 451.25L388.77 452.13L382.46 452.78L376.08 453.16L369.64 453.3L363.19 453.16L356.81 452.78L350.5 452.13L344.27 451.25L338.12 450.11L332.05 448.74L326.08 447.14L320.2 445.31L314.42 443.26L308.75 440.99L303.19 438.51L297.75 435.82L292.43 432.93L287.24 429.84L282.17 426.56L277.25 423.09L272.46 419.44L267.83 415.61L263.34 411.61L259.01 407.44L254.85 403.11L250.85 398.63L247.02 393.99L243.37 389.21L239.9 384.28L236.62 379.22L233.53 374.02L230.64 368.7L227.95 363.26L225.46 357.7L223.19 352.03L221.14 346.25L219.31 340.38L217.71 334.4L216.34 328.34L215.21 322.19L214.32 315.95L213.68 309.64L213.29 303.26L213.16 296.82L213.29 290.37L213.68 283.99L214.32 277.68L215.21 271.45L216.34 265.3L217.71 259.23L219.31 253.26L221.14 247.38L223.19 241.6L225.46 235.93L227.95 230.38L230.64 224.93L233.53 219.61L236.62 214.42L239.9 209.36L243.37 204.43L247.02 199.65L250.85 195.01L254.85 190.52L259.01 186.19L263.34 182.03L267.83 178.03L272.46 174.2L277.25 170.55L282.17 167.08L287.24 163.8L292.43 160.71L297.75 157.82L303.19 155.13L308.75 152.65L314.42 150.38L320.2 148.32L326.08 146.49L332.05 144.89L338.12 143.52L344.27 142.39L350.5 141.5L356.81 140.86L363.19 140.47L369.64 140.34L376.08 140.47L382.46 140.86L382.46 140.86L388.77 141.5Z" id="arqsGKZpv"></path><path d="M409.13 318.69L409.14 318.7L373.42 361.13L297.38 276.27L336.4 232.45L373.41 276.27L464.22 168.42L499.95 210.84L409.13 318.69Z" id="bnKzMespb"></path></defs><g><g><g><use xlink:href="#arqsGKZpv" opacity="1" fill="#386c8f" fill-opacity="1"></use><g><use xlink:href="#arqsGKZpv" opacity="1" fill-opacity="0" stroke="#7eb2d6" stroke-width="9" stroke-opacity="1"></use></g></g><g><use xlink:href="#bnKzMespb" opacity="1" fill="#386c8f" fill-opacity="1"></use><g><use xlink:href="#bnKzMespb" opacity="1" fill-opacity="0" stroke="#7eb2d6" stroke-width="9" stroke-opacity="1"></use></g></g></g></g></svg>