<?xml version="1.0" encoding="UTF-8" standalone="no"?>
<!DOCTYPE svg PUBLIC "-//W3C//DTD SVG 1.1//EN" "http://www.w3.org/Graphics/SVG/1.1/DTD/svg11.dtd">
<svg version="1.1" xmlns="http://www.w3.org/2000/svg" xmlns:xlink="http://www.w3.org/1999/xlink" preserveAspectRatio="xMidYMid meet" viewBox="0 0 640 640" width="640" height="640"><defs><path d="M382.46 140.86L388.77 141.5L395 142.39L401.16 143.52L407.22 144.89L413.2 146.49L419.07 148.32L424.85 150.38L430.52 152.65L431.63 153.14L393.55 198.37L390.14 197.6L386.16 196.86L382.13 196.29L378.04 195.87L373.91 195.62L369.74 195.54L365.57 195.62L361.44 195.87L357.36 196.29L353.32 196.86L349.34 197.6L345.41 198.48L341.55 199.52L337.74 200.7L334 202.03L330.33 203.5L326.74 205.11L323.21 206.85L319.77 208.72L316.41 210.72L313.13 212.84L309.94 215.09L306.85 217.45L303.84 219.93L300.94 222.52L298.14 225.21L295.44 228.02L292.85 230.92L290.37 233.92L288.01 237.02L285.77 240.21L283.64 243.48L281.64 246.85L279.77 250.29L278.03 253.81L276.42 257.41L274.95 261.08L273.63 264.82L272.44 268.62L271.41 272.49L270.52 276.42L269.79 280.4L269.21 284.43L268.8 288.52L268.54 292.65L268.46 296.82L268.54 300.99L268.8 305.12L269.21 309.2L269.79 313.24L270.52 317.22L271.41 321.15L272.44 325.01L273.63 328.82L274.95 332.56L276.42 336.23L278.03 339.82L279.77 343.35L281.64 346.79L283.64 350.15L285.77 353.43L288.01 356.62L290.37 359.71L292.85 362.72L295.44 365.62L298.14 368.42L300.94 371.12L303.84 373.71L306.85 376.18L309.94 378.55L313.13 380.79L316.41 382.92L319.77 384.92L323.21 386.79L326.74 388.53L330.33 390.14L334 391.6L337.74 392.93L341.55 394.12L345.41 395.15L349.34 396.04L353.32 396.77L357.36 397.35L361.44 397.76L365.57 398.02L369.74 398.1L373.91 398.02L378.04 397.76L382.13 397.35L386.16 396.77L390.14 396.04L394.07 395.15L397.94 394.12L401.74 392.93L405.48 391.6L409.15 390.14L412.75 388.53L416.27 386.79L419.71 384.92L423.08 382.92L426.35 380.79L429.54 378.55L432.64 376.18L435.64 373.71L438.54 371.12L441.34 368.42L444.04 365.62L446.63 362.72L449.11 359.71L451.47 356.62L453.72 353.43L455.84 350.15L457.84 346.79L459.71 343.35L461.45 339.82L463.06 336.23L464.53 332.56L465.86 328.82L467.04 325.01L468.08 321.15L468.96 317.22L469.7 313.24L470.27 309.2L470.69 305.12L470.94 300.99L471.02 296.82L471.02 296.61L516.45 242.65L518.13 247.38L519.96 253.26L521.56 259.23L522.93 265.3L524.06 271.45L524.95 277.68L525.59 283.99L525.98 290.37L526.11 296.82L525.98 303.26L525.59 309.64L524.95 315.95L524.06 322.19L522.93 328.34L521.56 334.4L519.96 340.38L518.13 346.25L516.08 352.03L513.81 357.7L511.33 363.26L508.64 368.7L505.75 374.02L502.66 379.22L499.37 384.28L495.91 389.21L492.26 393.99L488.43 398.63L484.43 403.11L480.26 407.44L475.93 411.61L471.45 415.61L466.81 419.44L462.02 423.09L457.1 426.56L452.04 429.84L446.84 432.93L441.52 435.82L436.08 438.51L430.52 440.99L424.85 443.26L419.07 445.31L413.2 447.14L407.22 448.74L401.16 450.11L395 451.25L388.77 452.13L382.46 452.78L376.08 453.16L369.64 453.3L363.19 453.16L356.81 452.78L350.5 452.13L344.27 451.25L338.12 450.11L332.05 448.74L326.08 447.14L320.2 445.31L314.42 443.26L308.75 440.99L303.19 438.51L297.75 435.82L292.43 432.93L287.24 429.84L282.17 426.56L277.25 423.09L272.46 419.44L267.83 415.61L263.34 411.61L259.01 407.44L254.85 403.11L250.85 398.63L247.02 393.99L243.37 389.21L239.9 384.28L236.62 379.22L233.53 374.02L230.64 368.7L227.95 363.26L225.46 357.7L223.19 352.03L221.14 346.25L219.31 340.38L217.71 334.4L216.34 328.34L215.21 322.19L214.32 315.95L213.68 309.64L213.29 303.26L213.16 296.82L213.29 290.37L213.68 283.99L214.32 277.68L215.21 271.45L216.34 265.3L217.71 259.23L219.31 253.26L221.14 247.38L223.19 241.6L225.46 235.93L227.95 230.38L230.64 224.93L233.53 219.61L236.62 214.42L239.9 209.36L243.37 204.43L247.02 199.65L250.85 195.01L254.85 190.52L259.01 186.19L263.34 182.03L267.83 178.03L272.46 174.2L277.25 170.55L282.17 167.08L287.24 163.8L292.43 160.71L297.75 157.82L303.19 155.13L308.75 152.65L314.42 150.38L320.2 148.32L326.08 146.49L332.05 144.89L338.12 143.52L344.27 142.39L350.5 141.5L356.81 140.86L363.19 140.47L369.64 140.34L376.08 140.47L382.46 140.86Z" id="i1rYUN6Bh"></path><path d="M414.23 320.44L414.24 320.45L372.41 370.13L283.38 270.76L329.06 219.46L372.4 270.76L478.73 144.49L520.56 194.16L414.23 320.44Z" id="a3VC0LkDtf"></path></defs><g><g><g><use xlink:href="#i1rYUN6Bh" opacity="1" fill="#386c8f" fill-opacity="1"></use><g><use xlink:href="#i1rYUN6Bh" opacity="1" fill-opacity="0" stroke="#7eb2d6" stroke-width="10" stroke-opacity="1"></use></g></g><g><use xlink:href="#a3VC0LkDtf" opacity="1" fill="#386c8f" fill-opacity="1"></use><g><use xlink:href="#a3VC0LkDtf" opacity="1" fill-opacity="0" stroke="#7eb2d6" stroke-width="10" stroke-opacity="1"></use></g></g></g></g></svg>