<svg width="640" height="640" xmlns="http://www.w3.org/2000/svg" xmlns:xlink="http://www.w3.org/1999/xlink" preserveAspectRatio="xMidYMid meet">
 <defs>
  <path id="arqsGKZpv" d="m388.769989,141.5l6.230011,0.889999l6.160004,1.130005l6.059998,1.369995l5.980011,1.600006l5.869995,1.830002l5.779999,2.059998l5.669983,2.269989l1.110016,0.490005l-29.23999,34.729996l-0.5,-0.149994l-4.360016,-1.169998l-4.420013,-1l-4.48999,-0.830002l-4.540009,-0.649994l-4.599976,-0.460007l-4.660004,-0.289993l-4.700012,-0.090012l-4.699982,0.090012l-4.650024,0.289993l-4.599976,0.460007l-4.540009,0.649994l-4.48999,0.830002l-4.420013,1l-4.360016,1.169998l-4.289978,1.330002l-4.210022,1.5l-4.129974,1.649994l-4.059998,1.809998l-3.960022,1.960007l-3.880005,2.110001l-3.789978,2.25l-3.690002,2.399994l-3.600006,2.529999l-3.480011,2.660004l-3.389984,2.790009l-3.27002,2.919998l-3.149994,3.029999l-3.039978,3.160004l-2.920013,3.269989l-2.790009,3.380005l-2.660004,3.490005l-2.529999,3.589996l-2.389984,3.699997l-2.26001,3.779999l-2.100006,3.880005l-1.970001,3.970001l-1.809998,4.049988l-1.649994,4.140015l-1.5,4.209991l-1.329987,4.290009l-1.170013,4.350006l-1,4.429993l-0.820007,4.47998l-0.649994,4.550018l-0.470001,4.600006l-0.279999,4.649994l-0.100006,4.699982l0.100006,4.700012l0.279999,4.649994l0.470001,4.600006l0.649994,4.549988l0.820007,4.480011l1,4.429993l1.170013,4.350006l1.329987,4.290009l1.5,4.209991l1.649994,4.140015l1.809998,4.049988l1.970001,3.970001l2.100006,3.880005l2.26001,3.790009l2.389984,3.689972l2.529999,3.590027l2.660004,3.48999l2.790009,3.380005l2.920013,3.269989l3.039978,3.160004l3.149994,3.040009l3.27002,2.910004l3.389984,2.789978l3.480011,2.670013l3.600006,2.529999l3.690002,2.389984l3.789978,2.25l3.880005,2.110016l3.960022,1.959991l4.059998,1.809998l4.129974,1.660004l4.210022,1.48999l4.289978,1.340027l4.360016,1.169983l4.420013,0.98999l4.48999,0.830017l4.540009,0.649994l4.599976,0.470001l4.650024,0.279999l4.699982,0.089996l4.700012,-0.089996l4.660004,-0.279999l4.599976,-0.470001l4.540009,-0.649994l4.48999,-0.830017l4.420013,-0.98999l4.360016,-1.169983l4.279999,-1.340027l4.220001,-1.48999l4.129974,-1.660004l4.050018,-1.809998l3.970001,-1.959991l3.880005,-2.110016l3.789978,-2.25l3.690002,-2.389984l3.589996,-2.529999l3.490021,-2.670013l3.379974,-2.789978l3.27002,-2.910004l3.160004,-3.040009l3.039978,-3.160004l2.920013,-3.269989l2.790009,-3.380005l2.660004,-3.48999l2.529999,-3.590027l2.389984,-3.689972l2.25,-3.790009l2.110016,-3.880005l1.959991,-3.970001l1.809998,-4.049988l1.660004,-4.140015l1.5,-4.209991l1.329987,-4.290009l1.170013,-4.350006l1,-4.429993l0.820007,-4.480011l0.649994,-4.549988l0.470001,-4.600006l0.279999,-4.649994l0.100006,-4.700012l-0.100006,-4.699982l-0.279999,-4.649994l-0.470001,-4.600006l-0.179993,-1.23999l33.25,-39.490021l1.679993,4.730011l1.830017,5.87999l1.599976,5.970016l1.369995,6.069977l1.130005,6.150024l0.890015,6.22998l0.640015,6.309998l0.389954,6.380005l0.130005,6.450012l-0.130005,6.440002l-0.389954,6.380005l-0.640015,6.309998l-0.890015,6.23999l-1.130005,6.149994l-1.369995,6.059998l-1.599976,5.980011l-1.830017,5.869995l-2.049988,5.779999l-2.27002,5.670013l-2.480011,5.559998l-2.689972,5.440002l-2.890015,5.319977l-3.089996,5.200012l-3.290009,5.059998l-3.459991,4.929993l-3.649994,4.779999l-3.830017,4.640015l-4,4.47998l-4.169983,4.330017l-4.330017,4.169983l-4.47998,4l-4.640015,3.830017l-4.790009,3.649994l-4.919983,3.470001l-5.059998,3.279999l-5.200012,3.089996l-5.320007,2.890015l-5.440002,2.690002l-5.559998,2.47998l-5.669983,2.27002l-5.779999,2.049988l-5.869995,1.830017l-5.980011,1.599976l-6.059998,1.369995l-6.160004,1.140015l-6.230011,0.880005l-6.309998,0.649994l-6.380005,0.380005l-6.439972,0.139984l-6.450012,-0.139984l-6.380005,-0.380005l-6.309998,-0.649994l-6.230011,-0.880005l-6.149994,-1.140015l-6.070007,-1.369995l-5.970001,-1.599976l-5.879974,-1.830017l-5.779999,-2.049988l-5.670013,-2.27002l-5.559998,-2.47998l-5.440002,-2.690002l-5.320007,-2.890015l-5.190002,-3.089996l-5.069977,-3.279999l-4.920013,-3.470001l-4.790009,-3.649994l-4.630005,-3.830017l-4.48999,-4l-4.329987,-4.169983l-4.160004,-4.330017l-4,-4.47998l-3.830002,-4.640015l-3.650009,-4.779999l-3.470001,-4.929993l-3.279999,-5.059998l-3.089996,-5.200012l-2.889999,-5.319977l-2.690002,-5.440002l-2.48999,-5.559998l-2.270004,-5.670013l-2.050003,-5.779999l-1.830002,-5.869995l-1.599991,-5.980011l-1.37001,-6.059998l-1.12999,-6.149994l-0.889999,-6.23999l-0.640015,-6.309998l-0.389999,-6.380005l-0.12999,-6.440002l0.12999,-6.450012l0.389999,-6.380005l0.640015,-6.309998l0.889999,-6.22998l1.12999,-6.150024l1.37001,-6.069977l1.599991,-5.970016l1.830002,-5.87999l2.050003,-5.779999l2.270004,-5.670013l2.48999,-5.549988l2.690002,-5.450012l2.889999,-5.319992l3.089996,-5.190002l3.279999,-5.059998l3.470001,-4.930008l3.650009,-4.779999l3.830002,-4.639999l4,-4.48999l4.160004,-4.330002l4.329987,-4.160004l4.48999,-4l4.630005,-3.830002l4.790009,-3.649994l4.920013,-3.470001l5.069977,-3.279999l5.190002,-3.089996l5.320007,-2.889999l5.440002,-2.690002l5.559998,-2.480011l5.670013,-2.269989l5.779999,-2.059998l5.879974,-1.830002l5.970001,-1.600006l6.070007,-1.369995l6.149994,-1.130005l6.230011,-0.889999l6.309998,-0.639999l6.380005,-0.389999l6.450012,-0.130005l6.439972,0.130005l6.380005,0.389999l0,0l6.309998,0.639999z"/>
  <path id="bnKzMespb" d="m409.130005,318.690002l0.01001,0.01001l-35.720001,42.429993l-76.040009,-84.860016l39.019989,-43.819992l37.01001,43.819992l90.809998,-107.849991l35.730011,42.419998l-90.820007,107.850006z"/>
  <linearGradient y2="0" x2="1" y1="0.263281" x1="0" id="svg_11">
   <stop offset="0" stop-opacity="0.996094" stop-color="#a5d9ff"/>
   <stop offset="1" stop-opacity="0.996094" stop-color="#356484"/>
  </linearGradient>
 </defs>
 <g>
  <title>background</title>
  <rect fill="none" id="canvas_background" height="402" width="582" y="-1" x="-1"/>
 </g>
 <g>
  <title>Layer 1</title>
  <g id="svg_1">
   <g id="svg_2">
    <g id="svg_3">
     <use transform="matrix(1.96504, 0, 0, 1.96504, -612.905, -4.18637)" x="104.929314" y="-131.930668" id="svg_4" fill="url(#svg_11)" xlink:href="#arqsGKZpv"/>
     <g id="svg_5">
      <use fill="url(#svg_11)" transform="matrix(1.96504, 0, 0, 1.96504, -612.905, -4.18637)" x="104.929314" y="-131.930668" id="svg_6" stroke-width="9" stroke="#7eb2d6" fill-opacity="0" xlink:href="#arqsGKZpv"/>
     </g>
    </g>
    <g id="svg_7">
     <use transform="matrix(1.96504, 0, 0, 1.96504, -612.905, -4.18637)" x="104.929314" y="-131.930668" id="svg_8" fill="url(#svg_11)" xlink:href="#bnKzMespb"/>
     <g id="svg_9">
      <use fill="url(#svg_11)" transform="matrix(1.96504, 0, 0, 1.96504, -612.905, -4.18637)" x="104.929314" y="-131.930668" id="svg_10" stroke-width="9" stroke="#7eb2d6" fill-opacity="0" xlink:href="#bnKzMespb"/>
     </g>
    </g>
   </g>
  </g>
 </g>
</svg>