<svg width="1000" height="1000" xmlns="http://www.w3.org/2000/svg">
 <metadata>Svg Vector Icons : http://www.onlinewebfonts.com/icon</metadata>

 <g>
  <title>background</title>
  <rect fill="none" id="canvas_background" height="402" width="582" y="-1" x="-1"/>
 </g>
 <g>
  <title>Layer 1</title>
  <path fill="#1b3c54" id="svg_3" d="m906.850037,11.899993c-5.620056,2.01001 -14.650024,9.629981 -29.690063,24.479981l-21.669922,21.670017l44.139954,44.139996l44.140015,44.140015l20.259949,-20.060013c23.070068,-22.869995 25.880005,-27.290016 25.880005,-40.130005c0,-14.849998 -6.819946,-26.079983 -28.889954,-48.350002c-25.879944,-25.689989 -37.919983,-31.510009 -54.169983,-25.889989z"/>
  <path fill="#1b3c54" id="svg_4" d="m742.330017,26.139982c-8.030029,2.61001 -13.640015,7.020021 -30.290039,23.470022c-11.22998,11.23999 -22.070007,24.079983 -24.080017,28.489986c-4.819946,10.22998 -6.019958,22.869972 -3.209961,31.300003c1.600037,5.019997 32.100037,36.709991 108.940002,113.559982c100.319946,100.120041 107.539978,106.740036 115.369995,107.940018c5.619995,0.800018 12.23999,0.200012 19.859924,-2.009979c9.830078,-2.809998 14.040039,-5.820007 32.100037,-23.470032c11.640015,-11.230011 22.469971,-23.869995 24.880066,-28.48999c6.019897,-12.640015 5.419922,-26.279999 -1.810059,-37.519989c-7.420044,-11.240005 -203.840027,-207.049999 -211.860046,-211.060011c-9.629883,-4.820019 -19.259888,-5.62002 -29.899902,-2.210011z"/>
  <path fill="#1b3c54" id="svg_5" d="m571.600037,66.270012c-9.429993,4.810013 -66.810028,63.000008 -71.220062,72.230003c-5.819946,11.839996 -5.419952,29.289993 1,42.12999c3.810028,7.62001 41.53006,46.550003 164.920013,169.530029c88.070068,87.879974 163.109985,161.509979 166.920044,163.309937c9.22998,4.620056 27.890015,6.220032 37.52002,3.01001c5.820007,-1.809998 16.450012,-11.029968 41.72998,-35.909973c18.459961,-18.26001 34.909973,-36.110016 36.509949,-39.730011c4.410095,-10.230011 3.410095,-20.869995 -3.209961,-33.910004c-5.02002,-10.22998 -29.090027,-34.910004 -167.929993,-173.540009c-122.97998,-122.779984 -164.310059,-162.710007 -171.340027,-166.119972c-10.829956,-5.01001 -26.279968,-5.620018 -34.899963,-1z"/>
  <path fill="#1b3c54" id="svg_6" d="m456.639984,456.899994l-132.819977,132.810028l44.139984,44.139954l44.140015,44.140015l133.01004,-133.019958l132.819946,-132.820038l-44.140015,-44.139984l-44.139954,-44.140015l-133.01004,133.029999z"/>
  <path fill="#1b3c54" id="svg_7" d="m139.240005,499.630005c-8.630005,3.609985 -69.020004,63.200012 -73.230003,72.22998c-4.209995,9.230042 -3.809994,23.880005 1.200005,34.710022c3.409996,7.02002 43.339996,48.349976 166.119995,171.340027c138.639999,138.839966 163.309982,162.909973 173.539993,167.929993c13.040009,6.619995 23.670013,7.619995 33.910004,3.209961c3.609985,-1.599976 21.470001,-18.059998 39.730011,-36.509949c24.879974,-25.280029 34.110046,-35.910034 35.910034,-41.730042c3.209961,-9.630005 1.599976,-28.289978 -3.01001,-37.519958c-1.810028,-3.810059 -75.440002,-78.850037 -163.310028,-166.920044c-122.98999,-123.399963 -161.910004,-161.119995 -169.530014,-164.929993c-11.839981,-5.820007 -30.099991,-6.630005 -41.329987,-1.809998z"/>
  <path fill="#1b3c54" id="svg_8" d="m84.07,685.409973c-10.429993,3.809998 -21.869999,12.840027 -38.719997,30.700012c-22.470001,23.470032 -26.280001,36.910034 -17.050001,56.179993c4.01,8.030029 199.630007,204.440002 211.060015,211.860046c11.23999,7.220032 24.880005,7.830017 37.519989,1.809998c4.610016,-2.410034 17.25,-13.23999 28.490021,-24.880005c17.659973,-18.059998 20.669983,-22.27002 23.470001,-32.099976c2.209991,-7.619995 2.809967,-14.240051 2.009979,-19.860046c-1.200012,-7.829956 -8.019989,-15.049988 -106.939987,-114.559998c-60.590012,-60.590027 -108.540009,-107.130005 -112.150009,-108.73999c-7.630005,-3.220032 -19.070007,-3.410034 -27.69001,-0.410034z"/>
  <path fill="#1b3c54" id="svg_9" d="m35.510002,878.02002c-24.480001,24.880005 -27.690001,31.099976 -24.480001,45.940002c2.609999,11.440002 10.43,22.069946 30.090002,40.929993c18.859997,18.059998 31.5,25.079956 44.939995,25.079956c12.840004,0 17.25,-2.809937 40.130005,-25.879944l20.059998,-20.26001l-44.139999,-44.140015l-44.34,-44.340027l-22.259998,22.670044z"/>
 </g>
</svg>