<?xml version="1.0" encoding="UTF-8" standalone="no"?>
<!DOCTYPE svg PUBLIC "-//W3C//DTD SVG 1.1//EN" "http://www.w3.org/Graphics/SVG/1.1/DTD/svg11.dtd">
<svg version="1.1" xmlns="http://www.w3.org/2000/svg" xmlns:xlink="http://www.w3.org/1999/xlink" preserveAspectRatio="xMidYMid meet" viewBox="0 0 640 640" width="640" height="640"><defs><path d="M156.65 18.11L157.44 18.2L158.23 18.31L159 18.45L159.77 18.62L160.52 18.82L161.26 19.05L161.99 19.31L162.7 19.6L163.4 19.91L164.09 20.25L164.76 20.61L165.41 21L166.05 21.41L166.67 21.85L167.27 22.31L167.85 22.79L168.42 23.3L168.96 23.82L169.49 24.36L169.99 24.93L170.47 25.51L170.93 26.12L171.37 26.74L171.78 27.37L172.17 28.03L172.53 28.7L172.87 29.38L173.19 30.08L173.47 30.8L173.73 31.52L173.96 32.26L174.16 33.02L174.33 33.78L174.48 34.56L174.59 35.34L174.67 36.14L174.72 36.94L174.73 37.75L174.73 276.68L316.97 276.68L316.97 189.11L316.99 188.08L317.08 187.07L317.21 186.08L317.4 185.11L317.64 184.17L317.92 183.25L318.25 182.36L318.63 181.5L319.05 180.66L319.51 179.85L320.01 179.07L320.54 178.31L321.12 177.6L321.72 176.91L322.36 176.25L323.03 175.64L323.73 175.05L324.46 174.5L325.21 173.99L325.99 173.52L326.79 173.09L327.61 172.69L328.45 172.34L329.31 172.03L330.18 171.76L331.07 171.54L331.97 171.36L332.88 171.23L333.8 171.14L334.73 171.11L335.66 171.12L336.59 171.18L337.53 171.29L338.47 171.46L339.4 171.67L340.34 171.94L341.27 172.27L342.19 172.65L343.1 173.09L344.01 173.58L595.35 320.3L595.82 320.59L596.28 320.88L596.73 321.19L597.17 321.5L597.6 321.83L598.03 322.17L598.44 322.51L598.84 322.87L599.23 323.23L599.61 323.61L599.98 324L600.34 324.39L600.69 324.79L601.03 325.2L601.36 325.62L601.68 326.05L601.98 326.48L602.27 326.93L602.56 327.38L602.83 327.83L603.08 328.3L603.33 328.77L603.56 329.24L603.79 329.73L604 330.22L604.19 330.71L604.38 331.21L604.55 331.71L604.71 332.22L604.85 332.74L604.99 333.26L605.1 333.78L605.21 334.31L605.3 334.84L605.38 335.37L605.44 335.91L605.49 336.45L605.53 336.99L605.55 337.54L605.56 338.09L605.56 341.4L605.55 341.89L605.53 342.37L605.5 342.85L605.46 343.34L605.4 343.81L605.33 344.29L605.25 344.76L605.16 345.23L605.05 345.7L604.93 346.16L604.8 346.61L604.66 347.07L604.51 347.52L604.35 347.96L604.17 348.4L603.99 348.84L603.79 349.27L603.58 349.69L603.36 350.11L603.13 350.52L602.89 350.93L602.64 351.33L602.38 351.72L602.11 352.11L601.83 352.49L601.54 352.87L601.24 353.23L600.93 353.59L600.61 353.94L600.28 354.29L599.94 354.62L599.59 354.95L599.24 355.27L598.87 355.58L598.5 355.88L598.11 356.17L597.72 356.45L597.32 356.72L596.91 356.98L596.5 357.24L344.37 505.38L343.45 505.89L342.53 506.33L341.59 506.72L340.65 507.05L339.71 507.33L338.76 507.55L337.81 507.72L336.86 507.84L335.92 507.9L334.97 507.92L334.03 507.88L333.1 507.79L332.18 507.66L331.27 507.48L330.37 507.26L329.49 506.99L328.62 506.68L327.76 506.32L326.93 505.92L326.12 505.49L325.33 505.01L324.57 504.49L323.83 503.94L323.12 503.35L322.44 502.72L321.79 502.06L321.18 501.36L320.59 500.64L320.05 499.88L319.54 499.09L319.08 498.27L318.65 497.42L318.27 496.54L317.94 495.63L317.65 494.7L317.41 493.75L317.22 492.77L317.08 491.77L317 490.75L316.97 489.7L316.97 397.74L67.32 397.74L66.54 397.73L65.77 397.68L65.01 397.6L64.26 397.49L63.51 397.36L62.78 397.19L62.06 397L61.35 396.78L60.65 396.53L59.97 396.26L59.3 395.96L58.64 395.63L58 395.28L57.37 394.91L56.76 394.52L56.17 394.1L55.59 393.66L55.03 393.2L54.49 392.71L53.97 392.21L53.46 391.69L52.98 391.15L52.52 390.59L52.08 390.01L51.66 389.42L51.27 388.8L50.89 388.18L50.54 387.54L50.22 386.88L49.92 386.21L49.65 385.52L49.4 384.83L49.18 384.12L48.98 383.39L48.82 382.66L48.68 381.92L48.58 381.17L48.5 380.41L48.45 379.63L48.44 378.86L48.44 37.75L48.45 36.94L48.5 36.14L48.58 35.34L48.69 34.56L48.84 33.78L49.01 33.02L49.21 32.26L49.44 31.52L49.7 30.8L49.98 30.08L50.3 29.38L50.64 28.7L51 28.03L51.39 27.37L51.8 26.74L52.24 26.12L52.7 25.51L53.18 24.93L53.68 24.36L54.21 23.82L54.75 23.3L55.32 22.79L55.9 22.31L56.5 21.85L57.12 21.41L57.76 21L58.41 20.61L59.08 20.25L59.77 19.91L60.47 19.6L61.18 19.31L61.91 19.05L62.65 18.82L63.4 18.62L64.17 18.45L64.94 18.31L65.73 18.2L66.52 18.11L67.33 18.07L68.14 18.05L155.03 18.05L155.84 18.07L156.65 18.11Z" id="fwamTiPF2"></path><linearGradient id="gradientaVkcK0pB0" gradientUnits="userSpaceOnUse" x1="48.44" y1="232.91" x2="605.56" y2="232.91"><stop style="stop-color: #b4daae;stop-opacity: 1" offset="0%"></stop><stop style="stop-color: #36a435;stop-opacity: 1" offset="43.84867604348201%"></stop><stop style="stop-color: #004405;stop-opacity: 1" offset="100%"></stop></linearGradient></defs><g><g><g><use xlink:href="#fwamTiPF2" opacity="1" fill="url(#gradientaVkcK0pB0)"></use><g><use xlink:href="#fwamTiPF2" opacity="1" fill-opacity="0" stroke="#2aa857" stroke-width="24" stroke-opacity="1"></use></g></g></g></g></svg>