<svg width="530" height="530" xmlns="http://www.w3.org/2000/svg">

 <g>
  <title>background</title>
  <rect fill="none" id="canvas_background" height="532" width="532" y="-1" x="-1"/>
 </g>
 <g>
  <title>Layer 1</title>
  <g id="svg_7"/>
  <g id="svg_8"/>
  <g id="svg_9"/>
  <g id="svg_10"/>
  <g id="svg_11"/>
  <g id="svg_12"/>
  <g id="svg_13"/>
  <g id="svg_14"/>
  <g id="svg_15"/>
  <g id="svg_16"/>
  <g id="svg_17"/>
  <g id="svg_18"/>
  <g id="svg_19"/>
  <g id="svg_20"/>
  <g id="svg_21"/>
  <g id="svg_37">
   <g id="svg_1">
    <g id="svg_2">
     <path stroke-width="0" fill="#abc8db" stroke="#3a82b4" id="svg_3" d="m443.210999,102.685997l-49.113007,0c-0.013977,0 -0.027985,-0.000999 -0.041992,-0.000999c-35.037994,0 -64.740997,42.128006 -74.528992,105.227997l-109.068008,0c-1.735001,-11.164001 -4.141006,-21.914001 -7.192993,-31.997009c-1.201004,-3.964996 -5.394012,-6.202988 -9.352005,-5.005997c-3.964996,1.199997 -6.206009,5.388 -5.005997,9.352005c6.427002,21.227997 9.822998,45.688995 9.822998,70.738983c0,72.265015 -28.753006,133.315033 -62.78801,133.315033l-14.513,0c25.777008,-23.897003 43.147003,-74.022034 43.147003,-133.315033c0,-59.292984 -17.369995,-109.417984 -43.147003,-133.314987l14.514008,0c13.949997,0 27.856995,10.656998 39.160004,30.009003c1.394989,2.386993 3.903992,3.718002 6.483002,3.718002c1.283997,0 2.58699,-0.330002 3.774994,-1.024002c3.576996,-2.089996 4.783005,-6.682999 2.694,-10.259003c-14.104004,-24.145996 -32.610992,-37.443001 -52.113007,-37.443001l-49.153992,0c-43.620003,-0.001991 -77.789001,65.145012 -77.789001,148.313011s34.168999,148.315002 77.789001,148.315002l49.154999,0c35.727005,0 65.108994,-43.710999 74.574005,-105.227997l26.393005,0c4.143005,0 7.5,-3.356995 7.5,-7.5s-3.356995,-7.5 -7.5,-7.5l-24.520004,0c0.877991,-9.074005 1.341995,-18.458008 1.341995,-28.087982c0,-9.476013 -0.471008,-18.877991 -1.378006,-28.088013l168.384995,0c3.523987,0 10.264008,10.937988 10.264008,28.088013c0,17.149994 -6.739014,28.087982 -10.264008,28.087982l-109.651001,0c-4.143005,0 -7.5,3.356995 -7.5,7.5s3.356995,7.5 7.5,7.5l48.460999,0c2.666992,17.157013 6.858002,33.067017 12.515015,47.304993c1.167999,2.940002 3.987976,4.732025 6.971985,4.732025c0.921997,0 1.858002,-0.171021 2.768005,-0.532013c3.848999,-1.528992 5.729004,-5.890015 4.200012,-9.739014c-4.993011,-12.565979 -8.77301,-26.596985 -11.277008,-41.765991l12.742981,0c7.134003,38.506012 23.124023,62.247009 42.152008,62.247009c29.838013,0 45.938019,-54.270996 45.938019,-105.334991c0,-51.064011 -16.100006,-105.335007 -45.938019,-105.335007c-19.040985,0 -35.014984,23.733994 -42.148987,62.246994l-12.749023,0c4.233002,-25.537003 12.269012,-48.311005 22.864014,-64.600998c13.769012,-21.169006 27.42099,-25.621994 36.453003,-25.626999c0.005005,0 0.01001,0.001007 0.014984,0.001007l0.035004,0c34.019012,0.041992 62.753021,61.074982 62.753021,133.313995c0,72.264984 -28.753998,133.315002 -62.788025,133.315002c-14.336975,0 -25.658997,-10.968994 -32.632996,-20.171021c-2.502991,-3.302002 -7.205994,-3.948975 -10.507996,-1.446991c-3.300995,2.502014 -3.949005,7.205994 -1.446991,10.507996c12.945007,17.080994 28.363007,26.110016 44.587982,26.110016l49.154999,0c43.619019,0.001984 77.788025,-65.14502 77.788025,-148.313019c0,-83.167007 -34.169006,-148.314003 -77.789001,-148.314003zm-356.421997,281.629005c-34.035004,0 -62.789001,-61.049988 -62.789001,-133.315002s28.753998,-133.315002 62.789001,-133.315002c34.035004,0 62.787994,61.050003 62.787994,133.315002s-28.752991,133.315002 -62.787994,133.315002zm302.833008,-223.650009c12.917999,0 30.937988,34.365997 30.937988,90.335007s-18.019989,90.334991 -30.937988,90.334991c-8.927002,0 -20.64801,-16.200989 -26.876007,-47.247009l17.994019,0c14.401978,0 25.263977,-18.52298 25.263977,-43.087982c0,-24.565002 -10.860992,-43.088013 -25.263977,-43.088013l-17.995026,0c6.226013,-31.047989 17.934998,-47.246994 26.877014,-47.246994zm53.588989,223.650009l-14.514008,0c25.777008,-23.897003 43.147003,-74.022003 43.147003,-133.315002c0,-59.292007 -17.368988,-109.417007 -43.145996,-133.313995l14.513,0c34.035004,0 62.789001,61.049988 62.789001,133.313995c0,72.265015 -28.753998,133.315002 -62.789001,133.315002z"/>
    </g>
   </g>
   <g id="svg_4">
    <g id="svg_5">
     <path stroke-width="0" fill="#abc8db" stroke="#3a82b4" id="svg_6" d="m82.355003,145.664993c-29.838005,0 -45.937004,54.272003 -45.937004,105.335007s16.100006,105.334991 45.938004,105.334991s45.936996,-54.272003 45.936996,-105.334991s-16.100006,-105.335007 -45.937996,-105.335007zm0,195.669998c-12.918007,0 -30.938004,-34.365997 -30.938004,-90.334991s18.019997,-90.335007 30.938004,-90.335007c12.917999,0 30.937996,34.365997 30.937996,90.335007s-18.019997,90.334991 -30.937996,90.334991z"/>
    </g>
   </g>
  </g>
  <g id="svg_35">
   <g id="svg_30">
    <path fill="#3a82b4" stroke="#3a82b4" id="svg_29" d="m442.210999,108.686005l-49.113007,0c-0.013977,0 -0.027985,-0.001007 -0.041992,-0.001007c-35.037994,0 -64.740997,42.127991 -74.528992,105.227997l-109.068008,0c-1.735001,-11.164001 -4.141006,-21.914001 -7.192993,-31.997009c-1.201004,-3.964996 -5.394012,-6.202972 -9.352005,-5.006012c-3.964996,1.200012 -6.206009,5.388 -5.005997,9.35202c6.427002,21.227997 9.822998,45.688995 9.822998,70.738983c0,72.265015 -28.753006,133.315063 -62.78801,133.315063l-14.513,0c25.777008,-23.897034 43.147003,-74.022095 43.147003,-133.315063c0,-59.292969 -17.369995,-109.417969 -43.147003,-133.315002l14.514008,0c13.949997,0 27.856995,10.657013 39.160004,30.009033c1.394989,2.386963 3.903992,3.717987 6.483002,3.717987c1.283997,0 2.58699,-0.329987 3.774994,-1.024017c3.576996,-2.089966 4.783005,-6.682983 2.694,-10.258972c-14.104004,-24.145996 -32.610992,-37.443024 -52.113007,-37.443024l-49.153992,0c-43.620003,-0.001984 -77.789001,65.14502 -77.789001,148.313019s34.168999,148.315002 77.789001,148.315002l49.154999,0c35.727005,0 65.108994,-43.710999 74.574005,-105.227966l26.393005,0c4.143005,0 7.5,-3.357056 7.5,-7.5s-3.356995,-7.500031 -7.5,-7.500031l-24.520004,0c0.877991,-9.074005 1.341995,-18.458008 1.341995,-28.087982c0,-9.476013 -0.471008,-18.877991 -1.378006,-28.088013l168.384995,0c3.523987,0 10.264008,10.937988 10.264008,28.088013c0,17.149994 -6.739014,28.087982 -10.264008,28.087982l-109.651001,0c-4.143005,0 -7.5,3.356964 -7.5,7.500031s3.356995,7.5 7.5,7.5l48.460999,0c2.666992,17.156982 6.858002,33.067017 12.515015,47.304932c1.167999,2.940063 3.987976,4.732056 6.971985,4.732056c0.921997,0 1.858002,-0.171021 2.768005,-0.531982c3.848999,-1.529053 5.729004,-5.890015 4.200012,-9.739014c-4.993011,-12.56604 -8.77301,-26.597046 -11.277008,-41.765991l12.742981,0c7.134003,38.505981 23.124023,62.246948 42.152008,62.246948c29.838013,0 45.938019,-54.270996 45.938019,-105.334961c0,-51.064026 -16.100006,-105.335022 -45.938019,-105.335022c-19.040985,0 -35.014984,23.734009 -42.148987,62.247009l-12.749023,0c4.233002,-25.536987 12.269012,-48.311005 22.864014,-64.601013c13.769012,-21.169006 27.42099,-25.621979 36.453003,-25.626984c0.005005,0 0.01001,0.001007 0.014984,0.001007l0.035004,0c34.019012,0.041992 62.753021,61.074982 62.753021,133.313995c0,72.264984 -28.753998,133.314972 -62.788025,133.314972c-14.336975,0 -25.658997,-10.968994 -32.632996,-20.171021c-2.502991,-3.302002 -7.205994,-3.948975 -10.507996,-1.44696c-3.300995,2.502014 -3.949005,7.205994 -1.446991,10.507996c12.945007,17.080994 28.363007,26.109985 44.587982,26.109985l49.154999,0c43.619019,0.002014 77.788025,-65.14502 77.788025,-148.312988c0,-83.166992 -34.169006,-148.313995 -77.789001,-148.313995zm-356.421997,281.628998c-34.035004,0 -62.789001,-61.049988 -62.789001,-133.315002s28.753998,-133.315002 62.789001,-133.315002c34.035004,0 62.787994,61.049988 62.787994,133.315002s-28.752991,133.315002 -62.787994,133.315002zm302.833008,-223.650024c12.917999,0 30.937988,34.366028 30.937988,90.335022s-18.019989,90.334961 -30.937988,90.334961c-8.927002,0 -20.64801,-16.200928 -26.876007,-47.246948l17.994019,0c14.401978,0 25.263977,-18.52301 25.263977,-43.088013c0,-24.565002 -10.860992,-43.088013 -25.263977,-43.088013l-17.995026,0c6.226013,-31.047974 17.934998,-47.247009 26.877014,-47.247009zm53.588989,223.650024l-14.514008,0c25.777008,-23.897034 43.147003,-74.022034 43.147003,-133.315002c0,-59.291992 -17.368988,-109.416992 -43.145996,-133.313995l14.513,0c34.035004,0 62.789001,61.049988 62.789001,133.313995c0,72.265015 -28.753998,133.315002 -62.789001,133.315002z"/>
    <path id="svg_36" d="m409.5,184.483337" opacity="0.5" fill-opacity="null" stroke-opacity="null" stroke-width="null" stroke="#3a82b4" fill="#3a82b4"/>
   </g>
   <g id="svg_34">
    <g id="svg_33">
     <path fill="#3a82b4" stroke="#3a82b4" id="svg_32" d="m81.355003,151.664978c-29.838005,0 -45.937004,54.272034 -45.937004,105.335022s16.100006,105.334961 45.938004,105.334961s45.936996,-54.271973 45.936996,-105.334961s-16.100006,-105.335022 -45.937996,-105.335022zm0,195.669983c-12.918007,0 -30.938004,-34.365967 -30.938004,-90.334961s18.019997,-90.335022 30.938004,-90.335022c12.917999,0 30.937996,34.366028 30.937996,90.335022s-18.019997,90.334961 -30.937996,90.334961z"/>
    </g>
   </g>
  </g>
 </g>
</svg>