<?xml version="1.0" encoding="iso-8859-1"?>
<!-- Generator: Adobe Illustrator 19.0.0, SVG Export Plug-In . SVG Version: 6.00 Build 0)  -->
<svg version="1.1" id="Capa_1" xmlns="http://www.w3.org/2000/svg" xmlns:xlink="http://www.w3.org/1999/xlink" x="0px" y="0px"
	 viewBox="0 0 512 512" style="enable-background:new 0 0 512 512;" xml:space="preserve">
<g>
	<g>
		<path d="M434.211,107.686h-49.113c-0.014,0-0.028-0.001-0.042-0.001c-35.038,0-64.741,42.128-74.529,105.228H201.459
			c-1.735-11.164-4.141-21.914-7.193-31.997c-1.201-3.965-5.394-6.203-9.352-5.006c-3.965,1.2-6.206,5.388-5.006,9.352
			c6.427,21.228,9.823,45.689,9.823,70.739c0,72.265-28.753,133.315-62.788,133.315H112.43
			c25.777-23.897,43.147-74.022,43.147-133.315c0-59.293-17.37-109.418-43.147-133.315h14.514c13.95,0,27.857,10.657,39.16,30.009
			c1.395,2.387,3.904,3.718,6.483,3.718c1.284,0,2.587-0.33,3.775-1.024c3.577-2.09,4.783-6.683,2.694-10.259
			c-14.104-24.146-32.611-37.443-52.113-37.443H77.789C34.169,107.685,0,172.832,0,256s34.169,148.315,77.789,148.315h49.155
			c35.727,0,65.109-43.711,74.574-105.228h26.393c4.143,0,7.5-3.357,7.5-7.5s-3.357-7.5-7.5-7.5h-24.52
			c0.878-9.074,1.342-18.458,1.342-28.088c0-9.476-0.471-18.878-1.378-28.088H371.74c3.524,0,10.264,10.938,10.264,28.088
			c0,17.15-6.739,28.088-10.264,28.088H262.089c-4.143,0-7.5,3.357-7.5,7.5s3.357,7.5,7.5,7.5h48.461
			c2.667,17.157,6.858,33.067,12.515,47.305c1.168,2.94,3.988,4.732,6.972,4.732c0.922,0,1.858-0.171,2.768-0.532
			c3.849-1.529,5.729-5.89,4.2-9.739c-4.993-12.566-8.773-26.597-11.277-41.766h12.743c7.134,38.506,23.124,62.247,42.152,62.247
			c29.838,0,45.938-54.271,45.938-105.335c0-51.064-16.1-105.335-45.938-105.335c-19.041,0-35.015,23.734-42.149,62.247h-12.749
			c4.233-25.537,12.269-48.311,22.864-64.601c13.769-21.169,27.421-25.622,36.453-25.627c0.005,0,0.01,0.001,0.015,0.001h0.035
			c34.019,0.042,62.753,61.075,62.753,133.314c0,72.265-28.754,133.315-62.788,133.315c-14.337,0-25.659-10.969-32.633-20.171
			c-2.503-3.302-7.206-3.949-10.508-1.447c-3.301,2.502-3.949,7.206-1.447,10.508c12.945,17.081,28.363,26.11,44.588,26.11h49.155
			C477.831,404.315,512,339.168,512,256C512,172.833,477.831,107.686,434.211,107.686z M77.789,389.315
			C43.754,389.315,15,328.265,15,256s28.754-133.315,62.789-133.315c34.035,0,62.788,61.05,62.788,133.315
			S111.824,389.315,77.789,389.315z M380.622,165.665c12.918,0,30.938,34.366,30.938,90.335s-18.02,90.335-30.938,90.335
			c-8.927,0-20.648-16.201-26.876-47.247h17.994c14.402,0,25.264-18.523,25.264-43.088c0-24.565-10.861-43.088-25.264-43.088
			h-17.995C359.971,181.864,371.68,165.665,380.622,165.665z M434.211,389.315h-14.514c25.777-23.897,43.147-74.022,43.147-133.315
			c0-59.292-17.369-109.417-43.146-133.314h14.513C468.246,122.686,497,183.736,497,256
			C497,328.265,468.246,389.315,434.211,389.315z"/>
	</g>
</g>
<g>
	<g>
		<path d="M73.355,150.665c-29.838,0-45.937,54.272-45.937,105.335s16.1,105.335,45.938,105.335S119.293,307.063,119.293,256
			S103.193,150.665,73.355,150.665z M73.355,346.335c-12.918,0-30.938-34.366-30.938-90.335s18.02-90.335,30.938-90.335
			c12.918,0,30.938,34.366,30.938,90.335S86.273,346.335,73.355,346.335z"/>
	</g>
</g>
<g>
</g>
<g>
</g>
<g>
</g>
<g>
</g>
<g>
</g>
<g>
</g>
<g>
</g>
<g>
</g>
<g>
</g>
<g>
</g>
<g>
</g>
<g>
</g>
<g>
</g>
<g>
</g>
<g>
</g>
</svg>
