<svg width="310" height="310" xmlns="http://www.w3.org/2000/svg">
 <defs>
  <linearGradient y2="0" x2="1" y1="0" x1="0" id="svg_21">
   <stop offset="0" stop-color="#abc8db"/>
   <stop offset="1" stop-opacity="0.996094" stop-color="#154566"/>
  </linearGradient>
 </defs>
 <g>
  <title>background</title>
  <rect fill="none" id="canvas_background" height="312" width="312" y="-1" x="-1"/>
 </g>
 <g>
  <title>Layer 1</title>
  <g id="svg_1">
   <g id="svg_2">
    <g id="svg_3">
     <path stroke="#7eb2d6" stroke-width="5" fill="url(#svg_21)" id="svg_4" d="m153.055984,6.5c-31.527,0 -61.649002,9.762001 -87.107002,28.231003c-2.917,2.115997 -3.709,6.120998 -1.819,9.188999l23.911003,38.789997c1.005997,1.631004 2.645996,2.770004 4.525993,3.141006c1.878006,0.371994 3.829002,-0.057007 5.380005,-1.181c14.881996,-10.796005 32.491997,-16.502007 50.926003,-16.502007c47.878998,0 86.830994,38.952003 86.830994,86.831009c0,47.878998 -38.951996,86.830994 -86.830994,86.830994c-18.434998,0 -36.045006,-5.705994 -50.926003,-16.501999c-1.551003,-1.126007 -3.501999,-1.552002 -5.380005,-1.181c-1.879997,0.371002 -3.519997,1.511002 -4.525993,3.141006l-23.910995,38.791977c-1.890003,3.067993 -1.098003,7.072998 1.819,9.188995c25.457993,18.469025 55.579994,28.231018 87.106995,28.231018c81.883011,0 148.500015,-66.617004 148.500015,-148.5s-66.616013,-148.5 -148.500015,-148.5z"/>
     <path stroke="#7eb2d6" stroke-width="5" fill="url(#svg_21)" id="svg_5" d="m114.489983,203.625c-1.408997,2.113007 -1.541,4.830002 -0.341003,7.070007c1.198006,2.238998 3.531006,3.636993 6.071007,3.636993l46.617996,0c2.302002,0 4.453003,-1.151001 5.729996,-3.067001l34.963013,-52.444992c1.542999,-2.314011 1.542999,-5.326004 0,-7.639999l-34.963013,-52.445007c-1.276993,-1.916 -3.427994,-3.067001 -5.729996,-3.067001l-46.617996,0c-2.540001,0 -4.873001,1.398003 -6.070999,3.637001c-1.198997,2.239998 -1.068001,4.957001 0.340996,7.07l16.170998,24.257004l-97.848995,0c-13.437,0 -24.368,10.931 -24.368,24.367996s10.931,24.367996 24.368,24.367996l97.848995,0l-16.170998,24.257004z"/>
    </g>
   </g>
  </g>
  <g id="svg_6"/>
  <g id="svg_7"/>
  <g id="svg_8"/>
  <g id="svg_9"/>
  <g id="svg_10"/>
  <g id="svg_11"/>
  <g id="svg_12"/>
  <g id="svg_13"/>
  <g id="svg_14"/>
  <g id="svg_15"/>
  <g id="svg_16"/>
  <g id="svg_17"/>
  <g id="svg_18"/>
  <g id="svg_19"/>
  <g id="svg_20"/>
 </g>
</svg>