<?xml version="1.0" encoding="UTF-8" standalone="no"?>
<!DOCTYPE svg PUBLIC "-//W3C//DTD SVG 1.1//EN" "http://www.w3.org/Graphics/SVG/1.1/DTD/svg11.dtd">
<svg version="1.1" xmlns="http://www.w3.org/2000/svg" xmlns:xlink="http://www.w3.org/1999/xlink" preserveAspectRatio="xMidYMid meet" viewBox="0 0 640 640" width="640" height="640"><defs><path d="M480.3 268.3L480.3 325.47L394.43 325.47L394.43 374.73L259.42 296.82L394.43 218.9L394.43 268.3L480.3 268.3Z" id="a3q80mIxea"></path><path d="M466.12 140.86L472.43 141.5L478.66 142.39L484.81 143.52L490.88 144.89L496.85 146.49L502.73 148.32L508.51 150.38L514.18 152.65L519.74 155.13L525.18 157.82L530.5 160.71L535.7 163.8L540.76 167.08L545.68 170.55L550.47 174.2L555.11 178.03L559.59 182.03L563.92 186.19L568.09 190.52L572.09 195.01L575.91 199.65L579.57 204.43L583.03 209.36L586.32 214.42L589.4 219.61L592.3 224.93L594.99 230.38L597.47 235.93L599.74 241.6L601.79 247.38L603.62 253.26L605.22 259.23L606.59 265.3L607.72 271.45L608.61 277.68L609.25 283.99L609.64 290.37L609.77 296.82L609.64 303.26L609.25 309.64L608.61 315.95L607.72 322.19L606.59 328.34L605.22 334.4L603.62 340.38L601.79 346.25L599.74 352.03L597.47 357.7L594.99 363.26L592.3 368.7L589.4 374.02L586.32 379.22L583.03 384.28L579.57 389.21L575.91 393.99L572.09 398.63L568.09 403.11L563.92 407.44L559.59 411.61L555.11 415.61L550.47 419.44L545.68 423.09L540.76 426.56L535.7 429.84L530.5 432.93L525.18 435.82L519.74 438.51L514.18 440.99L508.51 443.26L502.73 445.31L496.85 447.14L490.88 448.74L484.81 450.11L478.66 451.25L472.43 452.13L466.12 452.78L459.74 453.16L453.3 453.3L446.85 453.16L440.47 452.78L434.16 452.13L427.93 451.25L421.78 450.11L415.71 448.74L409.74 447.14L403.86 445.31L398.08 443.26L392.41 440.99L386.85 438.51L381.41 435.82L376.09 432.93L370.9 429.84L365.83 426.56L360.91 423.09L356.12 419.44L351.49 415.61L347 411.61L346.14 410.78L396.9 381.48L399.72 383.31L403.1 385.32L406.56 387.2L410.09 388.95L413.71 390.56L417.4 392.04L421.15 393.37L424.97 394.56L428.86 395.6L432.8 396.49L436.8 397.23L440.85 397.81L444.96 398.22L449.1 398.48L453.3 398.56L457.49 398.48L461.63 398.22L465.74 397.81L469.79 397.23L473.79 396.49L477.73 395.6L481.62 394.56L485.44 393.37L489.2 392.04L492.88 390.56L496.5 388.95L500.04 387.2L503.5 385.32L506.87 383.31L510.16 381.17L513.37 378.92L516.48 376.55L519.49 374.06L522.41 371.46L525.22 368.75L527.93 365.93L530.53 363.02L533.02 360L535.4 356.89L537.65 353.69L539.79 350.4L541.79 347.02L543.67 343.56L545.42 340.02L547.04 336.41L548.51 332.72L549.85 328.96L551.04 325.14L552.08 321.26L552.97 317.31L553.71 313.31L554.28 309.26L554.7 305.16L554.95 301.01L555.04 296.82L554.95 292.63L554.7 288.48L554.28 284.38L553.71 280.32L552.97 276.32L552.08 272.38L551.04 268.5L549.85 264.67L548.51 260.92L547.04 257.23L545.42 253.62L543.67 250.08L541.79 246.62L539.79 243.24L537.65 239.95L535.4 236.75L533.02 233.64L530.53 230.62L527.93 227.7L525.22 224.89L522.41 222.18L519.49 219.58L516.48 217.09L513.37 214.72L510.16 212.46L506.87 210.33L503.5 208.32L500.04 206.44L496.5 204.69L492.88 203.08L489.2 201.6L485.44 200.27L481.62 199.08L477.73 198.03L473.79 197.14L469.79 196.41L465.74 195.83L461.63 195.41L457.49 195.16L453.3 195.08L449.1 195.16L444.96 195.41L440.85 195.83L436.8 196.41L432.8 197.14L428.86 198.03L424.97 199.08L421.15 200.27L417.4 201.6L413.71 203.08L410.09 204.69L406.56 206.44L403.1 208.32L399.72 210.33L398.53 211.1L347.46 181.62L351.49 178.03L356.12 174.2L360.91 170.55L365.83 167.08L370.9 163.8L376.09 160.71L381.41 157.82L386.85 155.13L392.41 152.65L398.08 150.38L403.86 148.32L409.74 146.49L415.71 144.89L421.78 143.52L427.93 142.39L434.16 141.5L440.47 140.86L446.85 140.47L453.3 140.34L459.74 140.47L466.12 140.86Z" id="aKmXzG2LL"></path></defs><g><g><g><use xlink:href="#a3q80mIxea" opacity="1" fill="#386c8f" fill-opacity="1"></use><g><use xlink:href="#a3q80mIxea" opacity="1" fill-opacity="0" stroke="#7eb2d6" stroke-width="10" stroke-opacity="1"></use></g></g><g><use xlink:href="#aKmXzG2LL" opacity="1" fill="#386c8f" fill-opacity="1"></use><g><use xlink:href="#aKmXzG2LL" opacity="1" fill-opacity="0" stroke="#7eb2d6" stroke-width="10" stroke-opacity="1"></use></g></g></g></g></svg>