<svg width="640" height="570" xmlns="http://www.w3.org/2000/svg" xmlns:xlink="http://www.w3.org/1999/xlink" preserveAspectRatio="xMidYMid meet">
 <defs>
  <path d="m345.290009,374.730011l0,-49.26001l-85.869995,0l0,-57.170013l85.869995,0l0,-49.399994l135.009979,77.920013l-135.009979,77.910004z" id="abDAZPH1P"/>
  <path d="m466.119995,140.860001l6.309998,0.639999l6.230011,0.889999l6.149994,1.130005l6.070007,1.369995l5.970001,1.600006l5.880005,1.830002l5.779999,2.059998l5.669983,2.269989l5.559998,2.480011l5.440002,2.690002l5.320007,2.889999l5.200012,3.089996l5.059998,3.279999l4.919983,3.470001l4.789978,3.649994l4.640015,3.830002l4.480042,4l4.329956,4.160004l4.170044,4.330002l4,4.48999l3.819946,4.639999l3.660034,4.779999l3.460022,4.930008l3.289978,5.059998l3.080017,5.190002l2.899963,5.319992l2.690002,5.450012l2.47998,5.549988l2.27002,5.670013l2.049988,5.779999l1.830017,5.87999l1.599976,5.970016l1.370056,6.069977l1.129944,6.150024l0.890015,6.22998l0.640015,6.309998l0.390015,6.380005l0.130005,6.450012l-0.130005,6.440002l-0.390015,6.380005l-0.640015,6.309998l-0.890015,6.23999l-1.129944,6.149994l-1.370056,6.059998l-1.599976,5.980011l-1.830017,5.869995l-2.049988,5.779999l-2.27002,5.670013l-2.47998,5.559998l-2.690002,5.440002l-2.899963,5.319977l-3.080017,5.200012l-3.289978,5.059998l-3.460022,4.929993l-3.660034,4.779999l-3.819946,4.640015l-4,4.47998l-4.170044,4.330017l-4.329956,4.169983l-4.480042,4l-4.640015,3.830017l-4.789978,3.649994l-4.919983,3.470001l-5.059998,3.279999l-5.200012,3.089996l-5.320007,2.890015l-5.440002,2.690002l-5.559998,2.47998l-5.669983,2.27002l-5.779999,2.049988l-5.880005,1.830017l-5.970001,1.599976l-6.070007,1.369995l-6.149994,1.140015l-6.230011,0.880005l-6.309998,0.649994l-6.380005,0.380005l-6.440002,0.139984l-6.449982,-0.139984l-6.380005,-0.380005l-6.309998,-0.649994l-6.230011,-0.880005l-6.149994,-1.140015l-6.070007,-1.369995l-5.970001,-1.599976l-5.880005,-1.830017l-5.779999,-2.049988l-5.669983,-2.27002l-5.559998,-2.47998l-5.440002,-2.690002l-5.320007,-2.890015l-5.190002,-3.089996l-5.070007,-3.279999l-4.919983,-3.470001l-4.790009,-3.649994l-4.630005,-3.830017l-4.48999,-4l-0.859985,-0.829987l50.759979,-29.299988l2.820007,1.829987l3.380005,2.01001l3.459991,1.880005l3.529999,1.75l3.619995,1.609985l3.690002,1.480011l3.75,1.329987l3.820007,1.190002l3.889984,1.040009l3.940002,0.889984l4,0.740021l4.050018,0.579987l4.109985,0.410004l4.140015,0.26001l4.199982,0.079987l4.190002,-0.079987l4.140015,-0.26001l4.109985,-0.410004l4.050018,-0.579987l4,-0.740021l3.940002,-0.889984l3.889984,-1.040009l3.820007,-1.190002l3.76001,-1.329987l3.679993,-1.480011l3.619995,-1.609985l3.540009,-1.75l3.459991,-1.880005l3.369995,-2.01001l3.290009,-2.139984l3.209991,-2.25l3.109985,-2.370026l3.01001,-2.48999l2.919983,-2.600006l2.809998,-2.709991l2.710022,-2.820007l2.600037,-2.910004l2.48999,-3.019989l2.380005,-3.109985l2.25,-3.200012l2.139954,-3.290009l2,-3.380005l1.880005,-3.459991l1.75,-3.540009l1.619995,-3.609985l1.470032,-3.690002l1.339966,-3.76001l1.190002,-3.819977l1.040039,-3.880005l0.889954,-3.950012l0.740051,-4l0.570007,-4.049988l0.419983,-4.100006l0.25,-4.149994l0.089966,-4.190002l-0.089966,-4.190002l-0.25,-4.149994l-0.419983,-4.100006l-0.570007,-4.059998l-0.740051,-4l-0.889954,-3.940002l-1.040039,-3.880005l-1.190002,-3.829987l-1.339966,-3.75l-1.470032,-3.690002l-1.619995,-3.610016l-1.75,-3.539993l-1.880005,-3.460007l-2,-3.37999l-2.139954,-3.290009l-2.25,-3.199997l-2.380005,-3.110001l-2.48999,-3.020004l-2.600037,-2.919998l-2.710022,-2.809998l-2.809998,-2.710007l-2.919983,-2.599991l-3.01001,-2.490005l-3.109985,-2.369995l-3.209991,-2.259995l-3.290009,-2.130005l-3.369995,-2.009995l-3.459991,-1.880005l-3.540009,-1.75l-3.619995,-1.610001l-3.679993,-1.479996l-3.76001,-1.330002l-3.820007,-1.190002l-3.889984,-1.050003l-3.940002,-0.889999l-4,-0.729996l-4.050018,-0.580002l-4.109985,-0.419998l-4.140015,-0.25l-4.190002,-0.080002l-4.199982,0.080002l-4.140015,0.25l-4.109985,0.419998l-4.050018,0.580002l-4,0.729996l-3.940002,0.889999l-3.889984,1.050003l-3.820007,1.190002l-3.75,1.330002l-3.690002,1.479996l-3.619995,1.610001l-3.529999,1.75l-3.459991,1.880005l-3.380005,2.009995l-1.190002,0.770004l-51.070007,-29.480011l4.029999,-3.589996l4.630005,-3.830002l4.790009,-3.649994l4.919983,-3.470001l5.070007,-3.279999l5.190002,-3.089996l5.320007,-2.889999l5.440002,-2.690002l5.559998,-2.480011l5.669983,-2.269989l5.779999,-2.059998l5.880005,-1.830002l5.970001,-1.600006l6.070007,-1.369995l6.149994,-1.130005l6.230011,-0.889999l6.309998,-0.639999l6.380005,-0.389999l6.449982,-0.130005l6.440002,0.130005l6.380005,0.389999z" id="aKmXzG2LL"/>
  <linearGradient y2="0" x2="1" y1="0" x1="0" id="svg_2">
   <stop offset="0.128906" stop-opacity="0.976563" stop-color="#a5d9ff"/>
   <stop offset="1" stop-opacity="0.988281" stop-color="#356484"/>
  </linearGradient>
  <linearGradient y2="0" x2="0" y1="0" x1="1" id="svg_11">
   <stop offset="0.128906" stop-opacity="0.976563" stop-color="#a5d9ff"/>
   <stop offset="1" stop-opacity="0.988281" stop-color="#356484"/>
  </linearGradient>
 </defs>
 <g>
  <title>background</title>
  <rect x="-1" y="-1" width="1281.982902" height="1141.984772" id="canvas_background" fill="none"/>
 </g>
 <g>
  <title>Layer 1</title>
  <g transform="rotate(180, 210.991, 282.888)" id="svg_3">
   <use xlink:href="#abDAZPH1P" fill="url(#svg_2)" id="svg_4" transform="matrix(1.6622, 0, 0, 1.6622, -403.79, -135.811)" y="-44.920764"/>
   <g id="svg_5">
    <use xlink:href="#abDAZPH1P" fill-opacity="0" stroke="#7eb2d6" stroke-width="10" id="svg_6" transform="matrix(1.6622, 0, 0, 1.6622, -403.79, -135.811)" y="-44.920764" fill="url(#svg_2)"/>
   </g>
  </g>
  <g id="svg_7">
   <use xlink:href="#aKmXzG2LL" fill="url(#svg_11)" id="svg_8" transform="matrix(1.6622, 0, 0, 1.6622, -403.79, -135.811)" y="-44.920764"/>
   <g id="svg_9">
    <use xlink:href="#aKmXzG2LL" fill-opacity="0" stroke="#7eb2d6" stroke-width="10" id="svg_10" transform="matrix(1.6622, 0, 0, 1.6622, -403.79, -135.811)" y="-44.920764" fill="url(#svg_11)"/>
   </g>
  </g>
 </g>
</svg>