<svg width="65" height="68" xmlns="http://www.w3.org/2000/svg">

 <g>
  <title>background</title>
  <rect fill="none" id="canvas_background" height="70" width="67" y="-1" x="-1"/>
 </g>
 <g>
  <title>Layer 1</title>
  <rect rx="1" id="svg_24" height="65" width="50" y="1.081454" x="0.41754" stroke-opacity="null" stroke-width="null" stroke="null" fill="#447799"/>
  <path fill="#ffffff" id="svg_4" d="m2.5,3.000019l0,60.000004l9.999993,0l36.000023,0l0,-60.000004l-36.000023,0l-9.999993,0zm44.000015,58.000004l-34.000023,0l0,-56.000005l34.000023,0l0,56.000005z"/>
  <path stroke-width="null" fill="#8bacc1" id="svg_5" d="m41.500038,13.500011l-24.00004,0l0,14l24.00004,0l0,-14zm-5,10l-14.00004,0l0,-2l14.00004,0l0,2zm0,-4l-14.00004,0l0,-2l14.00004,0l0,2z"/>
  <g id="svg_6"/>
  <g id="svg_7"/>
  <g id="svg_8"/>
  <g id="svg_9"/>
  <g id="svg_10"/>
  <g id="svg_11"/>
  <g id="svg_12"/>
  <g id="svg_13"/>
  <g id="svg_14"/>
  <g id="svg_15"/>
  <g id="svg_16"/>
  <g id="svg_17"/>
  <g id="svg_18"/>
  <g id="svg_19"/>
  <g id="svg_20"/>
  <path stroke-width="null" fill="#edf2f4" id="svg_26" d="m41.5,14.124987l-24,0l0,14l24,0l0,-14zm-5,10l-14,0l0,-2l14,0l0,2zm0,-4l-14,0l0,-2l14,0l0,2z"/>
  <path stroke-width="2" stroke="#447799" fill="#8bacc1" id="svg_29" d="m52.5,17l0,37.265999l3.400002,7l0,1.734001c0,0.553001 0.379948,1 0.849998,1s0.849998,-0.446999 0.849998,-1l0,-1.734001l3.400002,-7l0,-37.265999l0,-2l-8.5,0l0,2zm6.185452,38l-1.935452,3.984001l-1.935452,-3.984001l3.870903,0z"/>
  <path id="svg_21" d="m1,116.584091l113.826683,0l35.173317,-108.134871l35.17334,108.134871l113.82666,0l-92.08754,66.830261l35.17514,108.134872l-92.087601,-66.832077l-92.08757,66.832077l35.175163,-108.134872l-92.087583,-66.830261z" opacity="0.5" stroke-width="1.5" stroke="#000" fill="#fff"/>
  <path id="svg_22" d="m1,116.584091l113.826683,0l35.173317,-108.134871l35.17334,108.134871l113.82666,0l-92.08754,66.830261l35.17514,108.134872l-92.087601,-66.832077l-92.08757,66.832077l35.175163,-108.134872l-92.087583,-66.830261z" opacity="0.5" stroke-width="1.5" stroke="#000" fill="#fff"/>
  <path id="svg_23" d="m1,116.584091l113.826683,0l35.173317,-108.134871l35.17334,108.134871l113.82666,0l-92.08754,66.830261l35.17514,108.134872l-92.087601,-66.832077l-92.08757,66.832077l35.175163,-108.134872l-92.087583,-66.830261z" opacity="0.5" stroke-width="1.5" stroke="#000" fill="#fff"/>
  <rect transform="rotate(45, 56.6019, 55.8502)" stroke-width="0" id="svg_28" height="4.232233" width="4.93934" y="53.734068" x="54.132247" stroke="#447799" fill="#ffffff"/>
  <path stroke-width="0" fill="#dae4ea" id="svg_27" d="m52.499977,17.000013l0,37.265963l3.400002,7l0,1.734043c0,0.55302 0.379948,1.000034 0.850002,1.000034s0.849998,-0.447014 0.849998,-1.000034l0,-1.734043l3.400024,-7l0,-37.265963l0,-2.000009l-8.500027,0l0,2.000009zm6.185452,37.999964l-1.935448,3.984001l-1.935452,-3.984001l3.870899,0z"/>
  <path stroke-width="2" stroke="#447799" fill="#8bacc1" id="svg_30" d="m58.462749,4l-3.424648,0c-1.399952,0 -2.538101,1.339 -2.538101,2.985l0,4.015l0,2l8.5,0l0,-2l0,-4.015c0,-1.646 -1.138153,-2.985 -2.537251,-2.985z"/>
  <path stroke-width="0" stroke="#447799" fill="#8bacc1" id="svg_3" d="m58.345814,4.000004l-3.357502,0c-1.372501,0 -2.488335,1.339 -2.488335,2.984995l0,4.014995l0,2l8.333359,0l0,-2l0,-4.014995c0,-1.645995 -1.115856,-2.984995 -2.487522,-2.984995z"/>
  <path fill="#dae4ea" id="svg_32" d="m2.499998,3.333349l0,59.999975l10,0l36.00004,0l0,-59.999975l-36.00004,0l-10,0zm44.00004,58.000021l-34.00004,0l0,-56.000021l34.00004,0l0,56.000021z"/>
  <path stroke="null" d="m57.268124,64.379845c0.062386,0 0.168022,-0.091003 0.249535,-0.124763c0.057632,-0.023872 0.062382,-0.062386 0.124767,-0.062386c0,0 0.004749,-0.038513 0.062382,-0.062386c0.081505,-0.03376 0.124767,-0.124763 0.124767,-0.124763c0.062386,0 0.062386,0 0.062386,-0.062382c0,-0.062386 0,-0.124767 0,-0.187153c0,-0.062382 0.033714,-0.128105 0.062382,-0.249535c0.032051,-0.135761 0.062386,-0.249535 0.062386,-0.249535c0.062382,-0.062382 0.062382,-0.062382 0.062382,-0.124767c0,0 0,-0.124767 0,-0.249535c0,-0.187149 -0.023872,-0.254284 0,-0.311916c0.033764,-0.081512 0.062386,-0.124767 0.062386,-0.124767c0,0 -0.009995,-0.063187 0,-0.124767c0.031597,-0.194725 0.062382,-0.249535 0.062382,-0.374302c0,0 0,-0.062382 0,-0.062382c0,0 0,-0.062386 0,-0.124767c0,-0.124767 0,-0.249535 0,-0.31192c0,-0.062382 0,-0.062382 0,-0.062382c0,0 0,-0.062386 0,-0.124767c0,-0.062386 0,-0.124767 0,-0.124767c-0.062382,0 -0.062382,0 -0.124767,0c0,0 0,0 -0.062382,0c0,0 -0.062386,0 -0.124767,0c-0.062386,0 -0.124767,0 -0.187153,0c-0.062382,0 -0.062382,0 -0.062382,0c0,0 0,0 -0.062386,0c-0.062382,0 -0.124767,0 -0.187149,0c-0.124767,0 -0.124767,0 -0.187149,0c0,0 0,0 -0.062386,0c0,0 0,0 -0.062382,0c-0.187153,0 -0.249535,0 -0.374302,0c-0.062386,0 -0.187153,0 -0.249535,0c0,0 0,0 -0.062386,0c0,0 -0.062382,0.062382 -0.062382,0.062382c-0.187153,0 -0.249535,0 -0.31192,0c0,0 -0.062382,0 -0.062382,0c-0.062386,0 -0.043259,0.028622 -0.124767,0.062386c-0.057632,0.023872 -0.187149,0 -0.249535,0.062382c0,0 -0.062382,0 -0.062382,0c0,0 0,0 0,0c0,0.062386 0,0.062386 0,0.062386c0,0 0,0.062382 0,0.124767c0,0.124767 0,0.187149 0,0.249535c0,0 0,0.062382 0,0.062382c-0.062386,0 -0.018272,0.018272 -0.062386,0.062386c-0.044109,0.044109 -0.062382,0.062382 -0.124767,0.187149c0,0 0,0.062386 0,0.062386c0,0 0.023872,0.004749 0,0.062382c-0.03376,0.081509 -0.062382,0.124767 -0.062382,0.187153c0,0.062382 0,0.062382 0,0.124763c0,0 0,0 0,0.062386c0,0.062382 0,0.124767 0,0.187149c0,0 0,0.062386 0,0.124767c0,0 0,0.062386 0,0.124767c0,0.062386 0,0.124767 0,0.187153c0,0.062382 0.018272,0.080658 0.062382,0.124767c0.044109,0.044109 0,0.062382 0,0.062382c0,0.124767 0.028622,0.168026 0.062386,0.249535c0.023876,0.057636 0,0.062386 0,0.062386c0.062382,0.062382 0.124767,0.187149 0.124767,0.187149c0.062382,0.062386 0.062382,0.062386 0.062382,0.062386c0,0 0,0 0.062386,0.062382c0,0 0.018269,0.018272 0.062382,0.062386c0.044113,0.044113 0.062386,0 0.124767,0.062378c0,0 0.062382,0 0.062382,0.062386c0,0 0.062386,0 0.062386,0c0,0 0.018269,0.018272 0.062382,0.062386c0.044113,0.044113 0.062386,0 0.124767,0.062386c0,0 0.018276,0.018272 0.062386,0.062378c0.044109,0.044113 0.067131,-0.023872 0.124767,0c0.081509,0.03376 0.14304,0.018272 0.187149,0.062386c0.044113,0.044113 0.062386,0.062386 0.062386,0.062386c0.062382,0 0.124767,0 0.124767,0c0,0 0,0 0.062382,0c0.062386,0 0.124767,0 0.187153,0c0,0 0,0 0.062382,0l0,0l0,0l0.062386,-0.062386" id="svg_33" stroke-width="null" fill="#447799"/>
 </g>
</svg>