<svg width="66" height="68" xmlns="http://www.w3.org/2000/svg">

 <g>
  <title>background</title>
  <rect fill="none" id="canvas_background" height="70" width="68" y="-1" x="-1"/>
 </g>
 <g>
  <title>Layer 1</title>
  <path d="m59.311733,61.061699c0,0 0,-0.062496 0,-0.124996c0,-0.124996 0.033779,-0.253338 0.062496,-0.374985c0.032112,-0.136005 0.111862,-0.254898 0.187489,-0.437481c0.053482,-0.129116 0.158779,-0.253338 0.187496,-0.374992c0.032104,-0.136013 0.105785,-0.19912 0.187496,-0.312492c0.051682,-0.071701 0.153667,-0.168339 0.187496,-0.25c0.023911,-0.057739 0.062496,-0.124996 0.124996,-0.187496c0.062492,-0.0625 0.062492,-0.124996 0.124989,-0.249996c0.0625,-0.125 0.117348,-0.191624 0.187489,-0.312496c0.11311,-0.194904 0.136898,-0.242588 0.249996,-0.437492c0.070141,-0.120872 0.219551,-0.287125 0.312492,-0.437496c0.103893,-0.168121 0.219551,-0.349621 0.312485,-0.499992c0.103901,-0.168121 0.162891,-0.346165 0.249985,-0.499992c0.126968,-0.224243 0.111877,-0.379898 0.187511,-0.562492c0.053482,-0.129116 0.135815,-0.240791 0.187496,-0.312496c0.081711,-0.113373 0.124996,-0.1875 0.124996,-0.249996c0,-0.0625 0.038574,-0.129757 0.0625,-0.1875c0.033813,-0.081657 0.05484,-0.19162 0.124996,-0.312496c0.113098,-0.194901 0.187496,-0.312492 0.249996,-0.437492c0.062496,-0.125 0.111858,-0.317398 0.187496,-0.499992c0.053478,-0.129116 0.101086,-0.254753 0.124996,-0.312496c0.033829,-0.081661 0.0625,-0.0625 0.0625,-0.0625c0,-0.0625 0,-0.0625 0,-0.125c0,-0.062496 -0.028717,-0.253342 0,-0.374992c0.032116,-0.136017 0.062496,-0.249996 0.062496,-0.249996c0,0 0.044205,0.018303 0,0.062496c-0.044189,0.044193 -0.062496,0.0625 -0.124996,0.0625c0,0 -0.04808,0.081451 -0.124996,0.125c-0.224239,0.126965 -0.437492,0.0625 -0.624989,0.124996c-0.187508,0.0625 -0.43523,0.132244 -0.624992,0.1875c-0.247406,0.072044 -0.49239,0.093338 -0.687477,0.124996c-0.18507,0.030033 -0.374981,0.0625 -0.499981,0.0625c-0.124989,0 -0.249985,0.0625 -0.437481,0.0625c-0.124996,0 -0.238979,0.030392 -0.374992,0.0625c-0.121647,0.028721 -0.251595,-0.020023 -0.374985,0c-0.195084,0.031658 -0.315834,0.033779 -0.437481,0.062496c-0.136013,0.032108 -0.249992,0.0625 -0.437489,0.0625c-0.124996,0 -0.250805,-0.01001 -0.312496,0c-0.195087,0.031658 -0.314915,0.032467 -0.499992,0.0625c-0.195087,0.031658 -0.312496,0.0625 -0.499992,0.0625c-0.125,0 -0.249996,0 -0.437492,0c-0.125,0 -0.312496,0 -0.437496,0c-0.124996,0 -0.242405,0.030838 -0.437492,0.062496c-0.123386,0.020023 -0.249996,0 -0.312496,0c-0.0625,0 -0.129757,0.023918 -0.1875,0c-0.081654,-0.033821 -0.124996,-0.062496 -0.187496,-0.124996c0,0 -0.0625,0 -0.0625,0c-0.062496,0 -0.062496,0 0,0c0,0 0.018307,-0.044193 0.0625,0c0.044193,0.044193 0.048141,0.064171 0.0625,0.124996c0.032108,0.136017 0.124996,0.1875 0.249996,0.312496c0.0625,0.0625 0.168282,0.199123 0.249996,0.312496c0.103363,0.14341 0.187496,0.1875 0.249996,0.249996c0.0625,0.0625 0.125,0.1875 0.1875,0.25c0.062496,0.062496 0.101078,0.129753 0.124996,0.187496c0.033825,0.081661 0.125,0.124996 0.187496,0.187496c0.0625,0.0625 0.101082,0.192257 0.125,0.249996c0.033825,0.081661 0.077168,0.134514 0.125,0.249996c0.033821,0.081657 0.073315,0.115795 0.124996,0.1875c0.081715,0.113373 0.091175,0.168335 0.125,0.249996c0.023918,0.057743 0.091171,0.168335 0.124996,0.249996c0.047836,0.115486 0.033779,0.190842 0.0625,0.312496c0.032108,0.136013 0.124996,0.249996 0.187496,0.374996c0.062496,0.124996 0.134018,0.308376 0.1875,0.437492c0.07563,0.182594 0.182018,0.376911 0.249996,0.562492c0.115765,0.316032 0.187496,0.499992 0.249996,0.624992c0.0625,0.124996 0.07716,0.19701 0.124996,0.312496c0.033825,0.081661 0.077164,0.197014 0.125,0.312492c0.033825,0.081665 0.091175,0.105835 0.125,0.187496c0.023918,0.057739 0.048138,0.126667 0.062496,0.187496c0.032108,0.136013 0.062496,0.249989 0.124996,0.312485c0.0625,0.0625 0.080807,0.143299 0.124996,0.187496c0.044189,0.044197 0.038582,0.067253 0.0625,0.124989c0.033829,0.081665 0.080807,0.080811 0.124996,0.125c0.044189,0.044193 0.0625,0.062496 0.0625,0.124996c0,0 0,0 0,0c0,0.0625 0.03857,0.067257 0.062496,0.124996c0.033821,0.081665 0.0625,0.124996 0.0625,0.124996l0,0l0.0625,0" id="svg_48" stroke-opacity="null" stroke-width="2" stroke="#447799" fill="#4d7fa0"/>
  <path stroke="#447799" stroke-width="2" fill="#4d7fa0" id="svg_2" d="m53.999935,17.16663l0,37.265965l4,6.999962l0,1.733971c0,0.552994 0.447002,0.999992 0.999985,0.999992s0.999977,-0.446999 0.999977,-0.999992l0,-1.733971l3.999969,-6.999962l0,-37.265965l0,-1.999994l-9.999931,0l0,1.999994zm7.276939,37.999966l-2.276955,3.984001l-2.276985,-3.984001l4.55394,0z"/>
  <path stroke="#447799" stroke-width="2" fill="#4d7fa0" id="svg_3" d="m61.01487,4.166615l-4.028934,0c-1.646999,0 -2.986,1.339001 -2.986,2.985001l0,4.015l0,2.000009l9.999931,0l0,-2.000009l0,-4.015c0,-1.646 -1.339005,-2.985001 -2.984997,-2.985001z"/>
  <rect rx="1" id="svg_21" height="65" width="51" y="1.50002" x="1.499965" stroke-opacity="null" stroke-width="2" stroke="#447799" fill="#4d7fa0"/>
  <path stroke="#447799" stroke-width="2" fill="#4d7fa0" id="svg_4" d="m3.999952,4.166615l0,59.999905l10.00002,0l35.999963,0l0,-59.999905l-35.999963,0l-10.00002,0zm43.999983,57.999928l-33.999963,0l0,-55.999927l33.999963,0l0,55.999927z"/>
  <path stroke="#447799" stroke-width="2" fill="#4d7fa0" id="svg_5" d="m42.999935,14.16663l-23.999969,0l0,13.999996l23.999969,0l0,-13.999996zm-5,9.999996l-13.999969,0l0,-2l13.999969,0l0,2zm0,-4l-13.999969,0l0,-2l13.999969,0l0,2z"/>
  <g id="svg_6"/>
  <g id="svg_7"/>
  <g id="svg_8"/>
  <g id="svg_9"/>
  <g id="svg_10"/>
  <g id="svg_11"/>
  <g id="svg_12"/>
  <g id="svg_13"/>
  <g id="svg_14"/>
  <g id="svg_15"/>
  <g id="svg_16"/>
  <g id="svg_17"/>
  <g id="svg_18"/>
  <g id="svg_19"/>
  <g id="svg_20"/>
  <path id="svg_22" d="m2.50002,281.875153l148.999965,-260.750122l149.000168,260.750122z" opacity="0.5" stroke-opacity="null" stroke-width="2" stroke="#447799" fill="#4d7fa0"/>
  <path id="svg_23" d="m2.50002,281.875153l148.999965,-260.750122l149.000168,260.750122z" opacity="0.5" stroke-opacity="null" stroke-width="2" stroke="#447799" fill="#4d7fa0"/>
  <path id="svg_24" d="m2.50002,281.875153l148.999965,-260.750122l149.000168,260.750122z" opacity="0.5" stroke-opacity="null" stroke-width="2" stroke="#447799" fill="#4d7fa0"/>
  <path id="svg_25" d="m2.50002,281.875153l148.999965,-260.750122l149.000168,260.750122z" opacity="0.5" stroke-opacity="null" stroke-width="2" stroke="#447799" fill="#4d7fa0"/>
  <path id="svg_26" d="m2.50002,281.875153l148.999965,-260.750122l149.000168,260.750122z" opacity="0.5" stroke-opacity="null" stroke-width="2" stroke="#447799" fill="#4d7fa0"/>
  <path id="svg_27" d="m2.50002,281.875153l148.999965,-260.750122l149.000168,260.750122z" opacity="0.5" stroke-opacity="null" stroke-width="2" stroke="#447799" fill="#4d7fa0"/>
  <path id="svg_28" d="m2.50002,281.875153l148.999965,-260.750122l149.000168,260.750122z" opacity="0.5" stroke-opacity="null" stroke-width="2" stroke="#447799" fill="#4d7fa0"/>
  <path id="svg_29" d="m2.50002,281.875153l148.999965,-260.750122l149.000168,260.750122z" opacity="0.5" stroke-opacity="null" stroke-width="2" stroke="#447799" fill="#4d7fa0"/>
  <path id="svg_30" d="m2.50002,281.875153l148.999965,-260.750122l149.000168,260.750122z" opacity="0.5" stroke-opacity="null" stroke-width="2" stroke="#447799" fill="#4d7fa0"/>
  <path id="svg_31" d="m2.50002,281.875153l148.999965,-260.750122l149.000168,260.750122z" opacity="0.5" stroke-opacity="null" stroke-width="2" stroke="#447799" fill="#4d7fa0"/>
  <path id="svg_32" d="m2.50002,281.875153l148.999965,-260.750122l149.000168,260.750122z" opacity="0.5" stroke-opacity="null" stroke-width="2" stroke="#447799" fill="#4d7fa0"/>
  <path id="svg_33" d="m2.50002,281.875153l148.999965,-260.750122l149.000168,260.750122z" opacity="0.5" stroke-opacity="null" stroke-width="2" stroke="#447799" fill="#4d7fa0"/>
  <path id="svg_35" d="m2.50002,281.875153l148.999965,-260.750122l149.000168,260.750122z" opacity="0.5" stroke-opacity="null" stroke-width="2" stroke="#447799" fill="#4d7fa0"/>
  <path id="svg_36" d="m2.50002,281.875153l148.999965,-260.750122l149.000168,260.750122z" opacity="0.5" stroke-opacity="null" stroke-width="2" stroke="#447799" fill="#4d7fa0"/>
  <path id="svg_37" d="m2.50002,281.875153l148.999965,-260.750122l149.000168,260.750122z" opacity="0.5" stroke-opacity="null" stroke-width="2" stroke="#447799" fill="#4d7fa0"/>
  <path id="svg_38" d="m2.50002,281.875153l148.999965,-260.750122l149.000168,260.750122z" opacity="0.5" stroke-opacity="null" stroke-width="2" stroke="#447799" fill="#4d7fa0"/>
  <path id="svg_39" d="m2.49846,101.213379l98.714919,0l0,-98.714923l101.262772,0l0,98.714923l98.715134,0l0,101.262802l-98.715134,0l0,98.715103l-101.262772,0l0,-98.715103l-98.714919,0z" opacity="0.5" stroke-opacity="null" stroke-width="2" stroke="#447799" fill="#4d7fa0"/>
  <path id="svg_40" d="m2.49846,101.213379l98.714919,0l0,-98.714923l101.262772,0l0,98.714923l98.715134,0l0,101.262802l-98.715134,0l0,98.715103l-101.262772,0l0,-98.715103l-98.714919,0z" opacity="0.5" stroke-opacity="null" stroke-width="2" stroke="#447799" fill="#4d7fa0"/>
  <path id="svg_41" d="m249.456207,29.623081c-12.199722,2.23394 -21.618866,16.956669 -20.74588,29.015911c1.442093,13.728363 17.934631,5.120674 22.80098,1.239399c-2.909164,11.492031 -26.14035,13.854061 -24.835754,-0.123859c-17.694672,13.058731 -30.950562,33.529083 -52.867813,40.145493c-19.777573,4.590668 -40.507263,3.074188 -60.450668,0.390167c-12.124451,-1.136047 -23.697952,-7.262238 -35.919861,-5.97963c-13.091354,3.591187 -23.594074,13.164673 -36.654034,16.939072c-13.770138,6.030609 -8.510651,22.680496 -9.70401,34.476028c0.36829,17.559769 -2.859127,36.162872 -15.0981,49.55722c-7.11565,10.549927 -7.76445,24.432816 -13.480481,35.442978c18.996801,-0.197708 7.545219,-25.594849 17.997293,-35.917557c14.583046,-6.751892 14.160027,-25.298599 16.194519,-38.955292c1.483398,-5.519409 0.74519,-25.081879 6.61763,-22.443344c7.219238,16.222763 11.33028,34.353882 9.696449,52.12326c-9.555302,8.96405 -24.745758,15.348633 -22.548717,31.871262c0.724579,14.965271 -8.38036,25.740341 -15.490691,37.486328c4.567481,6.892471 1.006079,20.694595 14.115722,16.653122c8.771149,1.688873 13.10825,-2.376984 4.455887,-8.423462c-13.078289,-12.565155 5.135521,-29.168381 12.205853,-40.168167c7.306889,-12.281311 22.161903,-12.868011 33.026482,-20.139786c15.006714,-8.958237 25.979355,-22.792633 35.929993,-36.78595c8.714325,9.262589 -13.757751,17.744736 -17.070755,27.203339c-7.227554,7.75058 -20.156937,21.856506 -2.998886,26.653473c13.26358,4.537964 25.758865,13.791428 25.359741,28.302551c0.22052,9.846313 24.381348,18.765442 19.436111,2.773407c-8.360901,-14.928818 -28.340637,-20.791626 -33.658356,-37.708435c-3.671494,-12.983841 11.61319,-19.273254 18.935257,-8.742691c12.964188,-1.418625 26.579819,-10.040283 40.803558,-11.3647c14.662979,-5.457703 18.06926,14.529572 29.814499,19.766678c9.790466,9.679688 18.779739,21.935822 17.542847,36.478302c1.192596,12.309097 9.526993,25.1689 23.922394,23.902176c16.800552,-2.809631 -5.101181,-20.703262 -12.795685,-24.816483c-11.148956,-13.296951 -9.306763,-32.201126 -16.245972,-47.512589c-5.002167,-4.520828 0.226852,-26.455322 0.406937,-10.763336c-0.900436,17.982422 24.732941,7.662476 22.979401,-6.091522c4.361649,-10.956543 -11.585144,-4.194168 -9.476181,-15.242523c-1.730911,-13.749374 -0.743546,-30.750961 -12.673096,-40.172928c-6.873703,-6.759094 -4.783096,-7.418274 2.702011,-2.072113c14.594391,7.558075 11.75914,24.79303 12.782761,38.376907c4.225891,17.802261 21.307526,-5.243317 20.807114,-14.897568c2.92691,-20.963364 12.92189,-42.469727 32.420609,-52.681381c-5.240173,-2.56694 -30.9478,6.735306 -28.791077,-4.967896c10.599365,9.002441 25.186768,-0.800751 37.715424,1.852646c16.621613,0.682327 20.749603,-22.793167 2.531921,-23.941162c-11.783325,-6.980652 -21.929443,-19.318928 -37.15831,-18.359016c-22.077728,7.399311 -8.439407,-13.111652 -2.537079,-22.378319zm21.6082,9.501827c-1.661926,5.79599 -12.614777,17.625061 0.569733,12.838669c1.892212,-3.91013 1.113098,-8.97168 -0.569733,-12.838669zm-3.499603,26.348728c5.909851,9.819168 -11.805267,1.029938 0,0zm24.395508,10.152939c-2.050293,4.185165 5.514679,4.96759 -0.325531,4.964539c-3.089264,4.101212 -4.432404,-5.29953 0.325531,-4.964539z" opacity="0.5" stroke-opacity="null" stroke-width="2" stroke="#447799" fill="#4d7fa0"/>
  <path id="svg_42" d="m249.456207,29.623081c-12.199722,2.23394 -21.618866,16.956669 -20.74588,29.015911c1.442093,13.728363 17.934631,5.120674 22.80098,1.239399c-2.909164,11.492031 -26.14035,13.854061 -24.835754,-0.123859c-17.694672,13.058731 -30.950562,33.529083 -52.867813,40.145493c-19.777573,4.590668 -40.507263,3.074188 -60.450668,0.390167c-12.124451,-1.136047 -23.697952,-7.262238 -35.919861,-5.97963c-13.091354,3.591187 -23.594074,13.164673 -36.654034,16.939072c-13.770138,6.030609 -8.510651,22.680496 -9.70401,34.476028c0.36829,17.559769 -2.859127,36.162872 -15.0981,49.55722c-7.11565,10.549927 -7.76445,24.432816 -13.480481,35.442978c18.996801,-0.197708 7.545219,-25.594849 17.997293,-35.917557c14.583046,-6.751892 14.160027,-25.298599 16.194519,-38.955292c1.483398,-5.519409 0.74519,-25.081879 6.61763,-22.443344c7.219238,16.222763 11.33028,34.353882 9.696449,52.12326c-9.555302,8.96405 -24.745758,15.348633 -22.548717,31.871262c0.724579,14.965271 -8.38036,25.740341 -15.490691,37.486328c4.567481,6.892471 1.006079,20.694595 14.115722,16.653122c8.771149,1.688873 13.10825,-2.376984 4.455887,-8.423462c-13.078289,-12.565155 5.135521,-29.168381 12.205853,-40.168167c7.306889,-12.281311 22.161903,-12.868011 33.026482,-20.139786c15.006714,-8.958237 25.979355,-22.792633 35.929993,-36.78595c8.714325,9.262589 -13.757751,17.744736 -17.070755,27.203339c-7.227554,7.75058 -20.156937,21.856506 -2.998886,26.653473c13.26358,4.537964 25.758865,13.791428 25.359741,28.302551c0.22052,9.846313 24.381348,18.765442 19.436111,2.773407c-8.360901,-14.928818 -28.340637,-20.791626 -33.658356,-37.708435c-3.671494,-12.983841 11.61319,-19.273254 18.935257,-8.742691c12.964188,-1.418625 26.579819,-10.040283 40.803558,-11.3647c14.662979,-5.457703 18.06926,14.529572 29.814499,19.766678c9.790466,9.679688 18.779739,21.935822 17.542847,36.478302c1.192596,12.309097 9.526993,25.1689 23.922394,23.902176c16.800552,-2.809631 -5.101181,-20.703262 -12.795685,-24.816483c-11.148956,-13.296951 -9.306763,-32.201126 -16.245972,-47.512589c-5.002167,-4.520828 0.226852,-26.455322 0.406937,-10.763336c-0.900436,17.982422 24.732941,7.662476 22.979401,-6.091522c4.361649,-10.956543 -11.585144,-4.194168 -9.476181,-15.242523c-1.730911,-13.749374 -0.743546,-30.750961 -12.673096,-40.172928c-6.873703,-6.759094 -4.783096,-7.418274 2.702011,-2.072113c14.594391,7.558075 11.75914,24.79303 12.782761,38.376907c4.225891,17.802261 21.307526,-5.243317 20.807114,-14.897568c2.92691,-20.963364 12.92189,-42.469727 32.420609,-52.681381c-5.240173,-2.56694 -30.9478,6.735306 -28.791077,-4.967896c10.599365,9.002441 25.186768,-0.800751 37.715424,1.852646c16.621613,0.682327 20.749603,-22.793167 2.531921,-23.941162c-11.783325,-6.980652 -21.929443,-19.318928 -37.15831,-18.359016c-22.077728,7.399311 -8.439407,-13.111652 -2.537079,-22.378319zm21.6082,9.501827c-1.661926,5.79599 -12.614777,17.625061 0.569733,12.838669c1.892212,-3.91013 1.113098,-8.97168 -0.569733,-12.838669zm-3.499603,26.348728c5.909851,9.819168 -11.805267,1.029938 0,0zm24.395508,10.152939c-2.050293,4.185165 5.514679,4.96759 -0.325531,4.964539c-3.089264,4.101212 -4.432404,-5.29953 0.325531,-4.964539z" opacity="0.5" stroke-opacity="null" stroke-width="2" stroke="#447799" fill="#4d7fa0"/>
  <path id="svg_43" d="m249.456207,29.623081c-12.199722,2.23394 -21.618866,16.956669 -20.74588,29.015911c1.442093,13.728363 17.934631,5.120674 22.80098,1.239399c-2.909164,11.492031 -26.14035,13.854061 -24.835754,-0.123859c-17.694672,13.058731 -30.950562,33.529083 -52.867813,40.145493c-19.777573,4.590668 -40.507263,3.074188 -60.450668,0.390167c-12.124451,-1.136047 -23.697952,-7.262238 -35.919861,-5.97963c-13.091354,3.591187 -23.594074,13.164673 -36.654034,16.939072c-13.770138,6.030609 -8.510651,22.680496 -9.70401,34.476028c0.36829,17.559769 -2.859127,36.162872 -15.0981,49.55722c-7.11565,10.549927 -7.76445,24.432816 -13.480481,35.442978c18.996801,-0.197708 7.545219,-25.594849 17.997293,-35.917557c14.583046,-6.751892 14.160027,-25.298599 16.194519,-38.955292c1.483398,-5.519409 0.74519,-25.081879 6.61763,-22.443344c7.219238,16.222763 11.33028,34.353882 9.696449,52.12326c-9.555302,8.96405 -24.745758,15.348633 -22.548717,31.871262c0.724579,14.965271 -8.38036,25.740341 -15.490691,37.486328c4.567481,6.892471 1.006079,20.694595 14.115722,16.653122c8.771149,1.688873 13.10825,-2.376984 4.455887,-8.423462c-13.078289,-12.565155 5.135521,-29.168381 12.205853,-40.168167c7.306889,-12.281311 22.161903,-12.868011 33.026482,-20.139786c15.006714,-8.958237 25.979355,-22.792633 35.929993,-36.78595c8.714325,9.262589 -13.757751,17.744736 -17.070755,27.203339c-7.227554,7.75058 -20.156937,21.856506 -2.998886,26.653473c13.26358,4.537964 25.758865,13.791428 25.359741,28.302551c0.22052,9.846313 24.381348,18.765442 19.436111,2.773407c-8.360901,-14.928818 -28.340637,-20.791626 -33.658356,-37.708435c-3.671494,-12.983841 11.61319,-19.273254 18.935257,-8.742691c12.964188,-1.418625 26.579819,-10.040283 40.803558,-11.3647c14.662979,-5.457703 18.06926,14.529572 29.814499,19.766678c9.790466,9.679688 18.779739,21.935822 17.542847,36.478302c1.192596,12.309097 9.526993,25.1689 23.922394,23.902176c16.800552,-2.809631 -5.101181,-20.703262 -12.795685,-24.816483c-11.148956,-13.296951 -9.306763,-32.201126 -16.245972,-47.512589c-5.002167,-4.520828 0.226852,-26.455322 0.406937,-10.763336c-0.900436,17.982422 24.732941,7.662476 22.979401,-6.091522c4.361649,-10.956543 -11.585144,-4.194168 -9.476181,-15.242523c-1.730911,-13.749374 -0.743546,-30.750961 -12.673096,-40.172928c-6.873703,-6.759094 -4.783096,-7.418274 2.702011,-2.072113c14.594391,7.558075 11.75914,24.79303 12.782761,38.376907c4.225891,17.802261 21.307526,-5.243317 20.807114,-14.897568c2.92691,-20.963364 12.92189,-42.469727 32.420609,-52.681381c-5.240173,-2.56694 -30.9478,6.735306 -28.791077,-4.967896c10.599365,9.002441 25.186768,-0.800751 37.715424,1.852646c16.621613,0.682327 20.749603,-22.793167 2.531921,-23.941162c-11.783325,-6.980652 -21.929443,-19.318928 -37.15831,-18.359016c-22.077728,7.399311 -8.439407,-13.111652 -2.537079,-22.378319zm21.6082,9.501827c-1.661926,5.79599 -12.614777,17.625061 0.569733,12.838669c1.892212,-3.91013 1.113098,-8.97168 -0.569733,-12.838669zm-3.499603,26.348728c5.909851,9.819168 -11.805267,1.029938 0,0zm24.395508,10.152939c-2.050293,4.185165 5.514679,4.96759 -0.325531,4.964539c-3.089264,4.101212 -4.432404,-5.29953 0.325531,-4.964539z" opacity="0.5" stroke-opacity="null" stroke-width="2" stroke="#447799" fill="#4d7fa0"/>
  <path id="svg_44" d="m249.456207,29.623081c-12.199722,2.23394 -21.618866,16.956669 -20.74588,29.015911c1.442093,13.728363 17.934631,5.120674 22.80098,1.239399c-2.909164,11.492031 -26.14035,13.854061 -24.835754,-0.123859c-17.694672,13.058731 -30.950562,33.529083 -52.867813,40.145493c-19.777573,4.590668 -40.507263,3.074188 -60.450668,0.390167c-12.124451,-1.136047 -23.697952,-7.262238 -35.919861,-5.97963c-13.091354,3.591187 -23.594074,13.164673 -36.654034,16.939072c-13.770138,6.030609 -8.510651,22.680496 -9.70401,34.476028c0.36829,17.559769 -2.859127,36.162872 -15.0981,49.55722c-7.11565,10.549927 -7.76445,24.432816 -13.480481,35.442978c18.996801,-0.197708 7.545219,-25.594849 17.997293,-35.917557c14.583046,-6.751892 14.160027,-25.298599 16.194519,-38.955292c1.483398,-5.519409 0.74519,-25.081879 6.61763,-22.443344c7.219238,16.222763 11.33028,34.353882 9.696449,52.12326c-9.555302,8.96405 -24.745758,15.348633 -22.548717,31.871262c0.724579,14.965271 -8.38036,25.740341 -15.490691,37.486328c4.567481,6.892471 1.006079,20.694595 14.115722,16.653122c8.771149,1.688873 13.10825,-2.376984 4.455887,-8.423462c-13.078289,-12.565155 5.135521,-29.168381 12.205853,-40.168167c7.306889,-12.281311 22.161903,-12.868011 33.026482,-20.139786c15.006714,-8.958237 25.979355,-22.792633 35.929993,-36.78595c8.714325,9.262589 -13.757751,17.744736 -17.070755,27.203339c-7.227554,7.75058 -20.156937,21.856506 -2.998886,26.653473c13.26358,4.537964 25.758865,13.791428 25.359741,28.302551c0.22052,9.846313 24.381348,18.765442 19.436111,2.773407c-8.360901,-14.928818 -28.340637,-20.791626 -33.658356,-37.708435c-3.671494,-12.983841 11.61319,-19.273254 18.935257,-8.742691c12.964188,-1.418625 26.579819,-10.040283 40.803558,-11.3647c14.662979,-5.457703 18.06926,14.529572 29.814499,19.766678c9.790466,9.679688 18.779739,21.935822 17.542847,36.478302c1.192596,12.309097 9.526993,25.1689 23.922394,23.902176c16.800552,-2.809631 -5.101181,-20.703262 -12.795685,-24.816483c-11.148956,-13.296951 -9.306763,-32.201126 -16.245972,-47.512589c-5.002167,-4.520828 0.226852,-26.455322 0.406937,-10.763336c-0.900436,17.982422 24.732941,7.662476 22.979401,-6.091522c4.361649,-10.956543 -11.585144,-4.194168 -9.476181,-15.242523c-1.730911,-13.749374 -0.743546,-30.750961 -12.673096,-40.172928c-6.873703,-6.759094 -4.783096,-7.418274 2.702011,-2.072113c14.594391,7.558075 11.75914,24.79303 12.782761,38.376907c4.225891,17.802261 21.307526,-5.243317 20.807114,-14.897568c2.92691,-20.963364 12.92189,-42.469727 32.420609,-52.681381c-5.240173,-2.56694 -30.9478,6.735306 -28.791077,-4.967896c10.599365,9.002441 25.186768,-0.800751 37.715424,1.852646c16.621613,0.682327 20.749603,-22.793167 2.531921,-23.941162c-11.783325,-6.980652 -21.929443,-19.318928 -37.15831,-18.359016c-22.077728,7.399311 -8.439407,-13.111652 -2.537079,-22.378319zm21.6082,9.501827c-1.661926,5.79599 -12.614777,17.625061 0.569733,12.838669c1.892212,-3.91013 1.113098,-8.97168 -0.569733,-12.838669zm-3.499603,26.348728c5.909851,9.819168 -11.805267,1.029938 0,0zm24.395508,10.152939c-2.050293,4.185165 5.514679,4.96759 -0.325531,4.964539c-3.089264,4.101212 -4.432404,-5.29953 0.325531,-4.964539z" opacity="0.5" stroke-opacity="null" stroke-width="2" stroke="#447799" fill="#4d7fa0"/>
  <path id="svg_45" d="m249.456207,29.623081c-12.199722,2.23394 -21.618866,16.956669 -20.74588,29.015911c1.442093,13.728363 17.934631,5.120674 22.80098,1.239399c-2.909164,11.492031 -26.14035,13.854061 -24.835754,-0.123859c-17.694672,13.058731 -30.950562,33.529083 -52.867813,40.145493c-19.777573,4.590668 -40.507263,3.074188 -60.450668,0.390167c-12.124451,-1.136047 -23.697952,-7.262238 -35.919861,-5.97963c-13.091354,3.591187 -23.594074,13.164673 -36.654034,16.939072c-13.770138,6.030609 -8.510651,22.680496 -9.70401,34.476028c0.36829,17.559769 -2.859127,36.162872 -15.0981,49.55722c-7.11565,10.549927 -7.76445,24.432816 -13.480481,35.442978c18.996801,-0.197708 7.545219,-25.594849 17.997293,-35.917557c14.583046,-6.751892 14.160027,-25.298599 16.194519,-38.955292c1.483398,-5.519409 0.74519,-25.081879 6.61763,-22.443344c7.219238,16.222763 11.33028,34.353882 9.696449,52.12326c-9.555302,8.96405 -24.745758,15.348633 -22.548717,31.871262c0.724579,14.965271 -8.38036,25.740341 -15.490691,37.486328c4.567481,6.892471 1.006079,20.694595 14.115722,16.653122c8.771149,1.688873 13.10825,-2.376984 4.455887,-8.423462c-13.078289,-12.565155 5.135521,-29.168381 12.205853,-40.168167c7.306889,-12.281311 22.161903,-12.868011 33.026482,-20.139786c15.006714,-8.958237 25.979355,-22.792633 35.929993,-36.78595c8.714325,9.262589 -13.757751,17.744736 -17.070755,27.203339c-7.227554,7.75058 -20.156937,21.856506 -2.998886,26.653473c13.26358,4.537964 25.758865,13.791428 25.359741,28.302551c0.22052,9.846313 24.381348,18.765442 19.436111,2.773407c-8.360901,-14.928818 -28.340637,-20.791626 -33.658356,-37.708435c-3.671494,-12.983841 11.61319,-19.273254 18.935257,-8.742691c12.964188,-1.418625 26.579819,-10.040283 40.803558,-11.3647c14.662979,-5.457703 18.06926,14.529572 29.814499,19.766678c9.790466,9.679688 18.779739,21.935822 17.542847,36.478302c1.192596,12.309097 9.526993,25.1689 23.922394,23.902176c16.800552,-2.809631 -5.101181,-20.703262 -12.795685,-24.816483c-11.148956,-13.296951 -9.306763,-32.201126 -16.245972,-47.512589c-5.002167,-4.520828 0.226852,-26.455322 0.406937,-10.763336c-0.900436,17.982422 24.732941,7.662476 22.979401,-6.091522c4.361649,-10.956543 -11.585144,-4.194168 -9.476181,-15.242523c-1.730911,-13.749374 -0.743546,-30.750961 -12.673096,-40.172928c-6.873703,-6.759094 -4.783096,-7.418274 2.702011,-2.072113c14.594391,7.558075 11.75914,24.79303 12.782761,38.376907c4.225891,17.802261 21.307526,-5.243317 20.807114,-14.897568c2.92691,-20.963364 12.92189,-42.469727 32.420609,-52.681381c-5.240173,-2.56694 -30.9478,6.735306 -28.791077,-4.967896c10.599365,9.002441 25.186768,-0.800751 37.715424,1.852646c16.621613,0.682327 20.749603,-22.793167 2.531921,-23.941162c-11.783325,-6.980652 -21.929443,-19.318928 -37.15831,-18.359016c-22.077728,7.399311 -8.439407,-13.111652 -2.537079,-22.378319zm21.6082,9.501827c-1.661926,5.79599 -12.614777,17.625061 0.569733,12.838669c1.892212,-3.91013 1.113098,-8.97168 -0.569733,-12.838669zm-3.499603,26.348728c5.909851,9.819168 -11.805267,1.029938 0,0zm24.395508,10.152939c-2.050293,4.185165 5.514679,4.96759 -0.325531,4.964539c-3.089264,4.101212 -4.432404,-5.29953 0.325531,-4.964539z" opacity="0.5" stroke-opacity="null" stroke-width="2" stroke="#447799" fill="#4d7fa0"/>
  <path id="svg_46" d="m9.917341,37.247166" opacity="0.5" stroke-opacity="null" stroke-width="2" stroke="#447799" fill="#4d7fa0"/>
  <g id="svg_95">
   <path d="m59.311733,60.895031c0,0 0,-0.062496 0,-0.124996c0,-0.124996 0.033779,-0.253338 0.062496,-0.374985c0.032112,-0.136005 0.111862,-0.254898 0.187489,-0.437481c0.053482,-0.129116 0.158779,-0.253338 0.187496,-0.374992c0.032104,-0.136013 0.105785,-0.19912 0.187496,-0.312492c0.051682,-0.071701 0.153667,-0.168339 0.187496,-0.25c0.023911,-0.057739 0.062496,-0.124996 0.124996,-0.187496c0.062492,-0.0625 0.062492,-0.124996 0.124989,-0.249996c0.0625,-0.125 0.117348,-0.191624 0.187489,-0.312496c0.11311,-0.194904 0.136898,-0.242588 0.249996,-0.437492c0.070141,-0.120872 0.219551,-0.287125 0.312492,-0.437496c0.103893,-0.168121 0.219551,-0.349621 0.312485,-0.499992c0.103901,-0.168121 0.162891,-0.346165 0.249985,-0.499992c0.126968,-0.224243 0.111877,-0.379898 0.187511,-0.562492c0.053482,-0.129116 0.135815,-0.240791 0.187496,-0.312496c0.081711,-0.113373 0.124996,-0.1875 0.124996,-0.249996c0,-0.0625 0.038574,-0.129757 0.0625,-0.1875c0.033813,-0.081657 0.05484,-0.19162 0.124996,-0.312496c0.113098,-0.194901 0.187496,-0.312492 0.249996,-0.437492c0.062496,-0.125 0.111858,-0.317398 0.187496,-0.499992c0.053478,-0.129116 0.101086,-0.254753 0.124996,-0.312496c0.033829,-0.081661 0.0625,-0.0625 0.0625,-0.0625c0,-0.0625 0,-0.0625 0,-0.125c0,-0.062496 -0.028717,-0.253342 0,-0.374992c0.032116,-0.136017 0.062496,-0.249996 0.062496,-0.249996c0,0 0.044205,0.018303 0,0.062496c-0.044189,0.044193 -0.062496,0.0625 -0.124996,0.0625c0,0 -0.04808,0.081451 -0.124996,0.125c-0.224239,0.126965 -0.437492,0.0625 -0.624989,0.124996c-0.187508,0.0625 -0.43523,0.132244 -0.624992,0.1875c-0.247406,0.072044 -0.49239,0.093338 -0.687477,0.124996c-0.18507,0.030033 -0.374981,0.0625 -0.499981,0.0625c-0.124989,0 -0.249985,0.0625 -0.437481,0.0625c-0.124996,0 -0.238979,0.030392 -0.374992,0.0625c-0.121647,0.028721 -0.251595,-0.020023 -0.374985,0c-0.195084,0.031658 -0.315834,0.033779 -0.437481,0.062496c-0.136013,0.032108 -0.249992,0.0625 -0.437489,0.0625c-0.124996,0 -0.250805,-0.01001 -0.312496,0c-0.195087,0.031658 -0.314915,0.032467 -0.499992,0.0625c-0.195087,0.031658 -0.312496,0.0625 -0.499992,0.0625c-0.125,0 -0.249996,0 -0.437492,0c-0.125,0 -0.312496,0 -0.437496,0c-0.124996,0 -0.242405,0.030838 -0.437492,0.062496c-0.123386,0.020023 -0.249996,0 -0.312496,0c-0.0625,0 -0.129757,0.023918 -0.1875,0c-0.081654,-0.033821 -0.124996,-0.062496 -0.187496,-0.124996c0,0 -0.0625,0 -0.0625,0c-0.062496,0 -0.062496,0 0,0c0,0 0.018307,-0.044193 0.0625,0c0.044193,0.044193 0.048141,0.064171 0.0625,0.124996c0.032108,0.136017 0.124996,0.1875 0.249996,0.312496c0.0625,0.0625 0.168282,0.199123 0.249996,0.312496c0.103363,0.14341 0.187496,0.1875 0.249996,0.249996c0.0625,0.0625 0.125,0.1875 0.1875,0.25c0.062496,0.062496 0.101078,0.129753 0.124996,0.187496c0.033825,0.081661 0.125,0.124996 0.187496,0.187496c0.0625,0.0625 0.101082,0.192257 0.125,0.249996c0.033825,0.081661 0.077168,0.134514 0.125,0.249996c0.033821,0.081657 0.073315,0.115795 0.124996,0.1875c0.081715,0.113373 0.091175,0.168335 0.125,0.249996c0.023918,0.057743 0.091171,0.168335 0.124996,0.249996c0.047836,0.115486 0.033779,0.190842 0.0625,0.312496c0.032108,0.136013 0.124996,0.249996 0.187496,0.374996c0.062496,0.124996 0.134018,0.308376 0.1875,0.437492c0.07563,0.182594 0.182018,0.376911 0.249996,0.562492c0.115765,0.316032 0.187496,0.499992 0.249996,0.624992c0.0625,0.124996 0.07716,0.19701 0.124996,0.312496c0.033825,0.081661 0.077164,0.197014 0.125,0.312492c0.033825,0.081665 0.091175,0.105835 0.125,0.187496c0.023918,0.057739 0.048138,0.126667 0.062496,0.187496c0.032108,0.136013 0.062496,0.249989 0.124996,0.312485c0.0625,0.0625 0.080807,0.143299 0.124996,0.187496c0.044189,0.044197 0.038582,0.067253 0.0625,0.124989c0.033829,0.081665 0.080807,0.080811 0.124996,0.125c0.044189,0.044193 0.0625,0.062496 0.0625,0.124996c0,0 0,0 0,0c0,0.0625 0.03857,0.067257 0.062496,0.124996c0.033821,0.081665 0.0625,0.124996 0.0625,0.124996l0,0l0.0625,0" id="svg_50" stroke-opacity="null" stroke-width="null" stroke="null" fill="#accde2"/>
   <path fill="#accde2" id="svg_51" d="m53.999935,16.999962l0,37.265965l4,6.999962l0,1.733971c0,0.552994 0.447002,0.999992 0.999985,0.999992s0.999977,-0.446999 0.999977,-0.999992l0,-1.733971l3.999969,-6.999962l0,-37.265965l0,-1.999995l-9.999931,0l0,1.999995zm7.276939,37.999966l-2.276955,3.984001l-2.276985,-3.984001l4.55394,0z"/>
   <path fill="#accde2" id="svg_52" d="m61.01487,3.999946l-4.028934,0c-1.646999,0 -2.986,1.339001 -2.986,2.985001l0,4.015l0,2.000009l9.999931,0l0,-2.000009l0,-4.015c0,-1.646 -1.339005,-2.985001 -2.984997,-2.985001z"/>
   <rect rx="1" id="svg_53" height="65" width="51" y="1.333351" x="1.499965" stroke-opacity="null" stroke-width="null" stroke="null" fill="#accde2"/>
   <path fill="#accde2" id="svg_54" d="m3.999952,3.999946l0,59.999906l10.00002,0l35.999963,0l0,-59.999906l-35.999963,0l-10.00002,0zm43.999983,57.999928l-33.999963,0l0,-55.999928l33.999963,0l0,55.999928z"/>
   <path fill="#accde2" id="svg_55" d="m42.999935,13.999961l-23.999969,0l0,13.999997l23.999969,0l0,-13.999997zm-5,9.999997l-13.999969,0l0,-2l13.999969,0l0,2zm0,-4l-13.999969,0l0,-2l13.999969,0l0,2z"/>
   <g id="svg_56"/>
   <g id="svg_57"/>
   <g id="svg_58"/>
   <g id="svg_59"/>
   <g id="svg_60"/>
   <g id="svg_61"/>
   <g id="svg_62"/>
   <g id="svg_63"/>
   <g id="svg_64"/>
   <g id="svg_65"/>
   <g id="svg_66"/>
   <g id="svg_67"/>
   <g id="svg_68"/>
   <g id="svg_69"/>
   <g id="svg_70"/>
   <path id="svg_71" d="m2.50002,281.708496l148.999965,-260.750134l149.000168,260.750134z" opacity="0.5" stroke-opacity="null" stroke-width="null" stroke="null" fill="#accde2"/>
   <path id="svg_72" d="m2.50002,281.708496l148.999965,-260.750134l149.000168,260.750134z" opacity="0.5" stroke-opacity="null" stroke-width="null" stroke="null" fill="#accde2"/>
   <path id="svg_73" d="m2.50002,281.708496l148.999965,-260.750134l149.000168,260.750134z" opacity="0.5" stroke-opacity="null" stroke-width="null" stroke="null" fill="#accde2"/>
   <path id="svg_74" d="m2.50002,281.708496l148.999965,-260.750134l149.000168,260.750134z" opacity="0.5" stroke-opacity="null" stroke-width="null" stroke="null" fill="#accde2"/>
   <path id="svg_75" d="m2.50002,281.708496l148.999965,-260.750134l149.000168,260.750134z" opacity="0.5" stroke-opacity="null" stroke-width="null" stroke="null" fill="#accde2"/>
   <path id="svg_76" d="m2.50002,281.708496l148.999965,-260.750134l149.000168,260.750134z" opacity="0.5" stroke-opacity="null" stroke-width="null" stroke="null" fill="#accde2"/>
   <path id="svg_77" d="m2.50002,281.708496l148.999965,-260.750134l149.000168,260.750134z" opacity="0.5" stroke-opacity="null" stroke-width="null" stroke="null" fill="#accde2"/>
   <path id="svg_78" d="m2.50002,281.708496l148.999965,-260.750134l149.000168,260.750134z" opacity="0.5" stroke-opacity="null" stroke-width="null" stroke="null" fill="#accde2"/>
   <path id="svg_79" d="m2.50002,281.708496l148.999965,-260.750134l149.000168,260.750134z" opacity="0.5" stroke-opacity="null" stroke-width="null" stroke="null" fill="#accde2"/>
   <path id="svg_80" d="m2.50002,281.708496l148.999965,-260.750134l149.000168,260.750134z" opacity="0.5" stroke-opacity="null" stroke-width="null" stroke="null" fill="#accde2"/>
   <path id="svg_81" d="m2.50002,281.708496l148.999965,-260.750134l149.000168,260.750134z" opacity="0.5" stroke-opacity="null" stroke-width="null" stroke="null" fill="#accde2"/>
   <path id="svg_82" d="m2.50002,281.708496l148.999965,-260.750134l149.000168,260.750134z" opacity="0.5" stroke-opacity="null" stroke-width="null" stroke="null" fill="#accde2"/>
   <path id="svg_83" d="m2.50002,281.708496l148.999965,-260.750134l149.000168,260.750134z" opacity="0.5" stroke-opacity="null" stroke-width="null" stroke="null" fill="#accde2"/>
   <path id="svg_84" d="m2.50002,281.708496l148.999965,-260.750134l149.000168,260.750134z" opacity="0.5" stroke-opacity="null" stroke-width="null" stroke="null" fill="#accde2"/>
   <path id="svg_85" d="m2.50002,281.708496l148.999965,-260.750134l149.000168,260.750134z" opacity="0.5" stroke-opacity="null" stroke-width="null" stroke="null" fill="#accde2"/>
   <path id="svg_86" d="m2.50002,281.708496l148.999965,-260.750134l149.000168,260.750134z" opacity="0.5" stroke-opacity="null" stroke-width="null" stroke="null" fill="#accde2"/>
   <path id="svg_87" d="m2.49846,101.046707l98.714919,0l0,-98.71492l101.262772,0l0,98.71492l98.715134,0l0,101.262802l-98.715134,0l0,98.715118l-101.262772,0l0,-98.715118l-98.714919,0z" opacity="0.5" stroke-opacity="null" stroke-width="null" stroke="null" fill="#accde2"/>
   <path id="svg_88" d="m2.49846,101.046707l98.714919,0l0,-98.71492l101.262772,0l0,98.71492l98.715134,0l0,101.262802l-98.715134,0l0,98.715118l-101.262772,0l0,-98.715118l-98.714919,0z" opacity="0.5" stroke-opacity="null" stroke-width="null" stroke="null" fill="#accde2"/>
   <path id="svg_89" d="m249.456207,29.456413c-12.199722,2.23394 -21.618866,16.956669 -20.74588,29.015911c1.442093,13.728359 17.934631,5.120674 22.80098,1.239399c-2.909164,11.492027 -26.14035,13.854057 -24.835754,-0.123859c-17.694672,13.058727 -30.950562,33.529079 -52.867813,40.145489c-19.777573,4.590668 -40.507263,3.074188 -60.450668,0.390167c-12.124451,-1.136047 -23.697952,-7.262238 -35.919861,-5.97963c-13.091354,3.591187 -23.594074,13.164673 -36.654034,16.939072c-13.770138,6.030609 -8.510651,22.680496 -9.70401,34.476028c0.36829,17.559769 -2.859127,36.162872 -15.0981,49.55722c-7.11565,10.549927 -7.76445,24.432816 -13.480481,35.442978c18.996801,-0.197708 7.545219,-25.594849 17.997293,-35.917557c14.583046,-6.751892 14.160027,-25.298599 16.194519,-38.955292c1.483398,-5.519409 0.74519,-25.081879 6.61763,-22.443344c7.219238,16.222763 11.33028,34.353882 9.696449,52.12326c-9.555302,8.96405 -24.745758,15.348633 -22.548717,31.871262c0.724579,14.965271 -8.38036,25.740341 -15.490691,37.486328c4.567481,6.892487 1.006079,20.694611 14.115722,16.653137c8.771149,1.688873 13.10825,-2.376984 4.455887,-8.423462c-13.078289,-12.56517 5.135521,-29.168396 12.205853,-40.168182c7.306889,-12.281311 22.161903,-12.868011 33.026482,-20.139786c15.006714,-8.958237 25.979355,-22.792633 35.929993,-36.78595c8.714325,9.262589 -13.757751,17.744736 -17.070755,27.203339c-7.227554,7.75058 -20.156937,21.856506 -2.998886,26.653473c13.26358,4.537964 25.758865,13.791428 25.359741,28.302551c0.22052,9.846329 24.381348,18.765457 19.436111,2.773407c-8.360901,-14.928818 -28.340637,-20.791626 -33.658356,-37.708435c-3.671494,-12.983841 11.61319,-19.273254 18.935257,-8.742691c12.964188,-1.418625 26.579819,-10.040283 40.803558,-11.3647c14.662979,-5.457703 18.06926,14.529572 29.814499,19.766678c9.790466,9.679688 18.779739,21.935822 17.542847,36.478302c1.192596,12.309113 9.526993,25.168915 23.922394,23.902191c16.800552,-2.809631 -5.101181,-20.703278 -12.795685,-24.816498c-11.148956,-13.296951 -9.306763,-32.201126 -16.245972,-47.512589c-5.002167,-4.520828 0.226852,-26.455322 0.406937,-10.763336c-0.900436,17.982422 24.732941,7.662476 22.979401,-6.091522c4.361649,-10.956543 -11.585144,-4.194168 -9.476181,-15.242523c-1.730911,-13.749374 -0.743546,-30.750961 -12.673096,-40.172928c-6.873703,-6.759094 -4.783096,-7.418274 2.702011,-2.072113c14.594391,7.558075 11.75914,24.79303 12.782761,38.376907c4.225891,17.802261 21.307526,-5.243317 20.807114,-14.897568c2.92691,-20.963364 12.92189,-42.469727 32.420609,-52.681381c-5.240173,-2.56694 -30.9478,6.735306 -28.791077,-4.967896c10.599365,9.002441 25.186768,-0.800751 37.715424,1.852646c16.621613,0.682327 20.749603,-22.793167 2.531921,-23.941162c-11.783325,-6.980648 -21.929443,-19.318924 -37.15831,-18.359013c-22.077728,7.399311 -8.439407,-13.111652 -2.537079,-22.378319zm21.6082,9.501827c-1.661926,5.79599 -12.614777,17.625061 0.569733,12.838669c1.892212,-3.91013 1.113098,-8.97168 -0.569733,-12.838669zm-3.499603,26.348724c5.909851,9.819168 -11.805267,1.029938 0,0zm24.395508,10.152939c-2.050293,4.185165 5.514679,4.96759 -0.325531,4.964539c-3.089264,4.101212 -4.432404,-5.29953 0.325531,-4.964539z" opacity="0.5" stroke-opacity="null" stroke-width="null" stroke="null" fill="#accde2"/>
   <path id="svg_90" d="m249.456207,29.456413c-12.199722,2.23394 -21.618866,16.956669 -20.74588,29.015911c1.442093,13.728359 17.934631,5.120674 22.80098,1.239399c-2.909164,11.492027 -26.14035,13.854057 -24.835754,-0.123859c-17.694672,13.058727 -30.950562,33.529079 -52.867813,40.145489c-19.777573,4.590668 -40.507263,3.074188 -60.450668,0.390167c-12.124451,-1.136047 -23.697952,-7.262238 -35.919861,-5.97963c-13.091354,3.591187 -23.594074,13.164673 -36.654034,16.939072c-13.770138,6.030609 -8.510651,22.680496 -9.70401,34.476028c0.36829,17.559769 -2.859127,36.162872 -15.0981,49.55722c-7.11565,10.549927 -7.76445,24.432816 -13.480481,35.442978c18.996801,-0.197708 7.545219,-25.594849 17.997293,-35.917557c14.583046,-6.751892 14.160027,-25.298599 16.194519,-38.955292c1.483398,-5.519409 0.74519,-25.081879 6.61763,-22.443344c7.219238,16.222763 11.33028,34.353882 9.696449,52.12326c-9.555302,8.96405 -24.745758,15.348633 -22.548717,31.871262c0.724579,14.965271 -8.38036,25.740341 -15.490691,37.486328c4.567481,6.892487 1.006079,20.694611 14.115722,16.653137c8.771149,1.688873 13.10825,-2.376984 4.455887,-8.423462c-13.078289,-12.56517 5.135521,-29.168396 12.205853,-40.168182c7.306889,-12.281311 22.161903,-12.868011 33.026482,-20.139786c15.006714,-8.958237 25.979355,-22.792633 35.929993,-36.78595c8.714325,9.262589 -13.757751,17.744736 -17.070755,27.203339c-7.227554,7.75058 -20.156937,21.856506 -2.998886,26.653473c13.26358,4.537964 25.758865,13.791428 25.359741,28.302551c0.22052,9.846329 24.381348,18.765457 19.436111,2.773407c-8.360901,-14.928818 -28.340637,-20.791626 -33.658356,-37.708435c-3.671494,-12.983841 11.61319,-19.273254 18.935257,-8.742691c12.964188,-1.418625 26.579819,-10.040283 40.803558,-11.3647c14.662979,-5.457703 18.06926,14.529572 29.814499,19.766678c9.790466,9.679688 18.779739,21.935822 17.542847,36.478302c1.192596,12.309113 9.526993,25.168915 23.922394,23.902191c16.800552,-2.809631 -5.101181,-20.703278 -12.795685,-24.816498c-11.148956,-13.296951 -9.306763,-32.201126 -16.245972,-47.512589c-5.002167,-4.520828 0.226852,-26.455322 0.406937,-10.763336c-0.900436,17.982422 24.732941,7.662476 22.979401,-6.091522c4.361649,-10.956543 -11.585144,-4.194168 -9.476181,-15.242523c-1.730911,-13.749374 -0.743546,-30.750961 -12.673096,-40.172928c-6.873703,-6.759094 -4.783096,-7.418274 2.702011,-2.072113c14.594391,7.558075 11.75914,24.79303 12.782761,38.376907c4.225891,17.802261 21.307526,-5.243317 20.807114,-14.897568c2.92691,-20.963364 12.92189,-42.469727 32.420609,-52.681381c-5.240173,-2.56694 -30.9478,6.735306 -28.791077,-4.967896c10.599365,9.002441 25.186768,-0.800751 37.715424,1.852646c16.621613,0.682327 20.749603,-22.793167 2.531921,-23.941162c-11.783325,-6.980648 -21.929443,-19.318924 -37.15831,-18.359013c-22.077728,7.399311 -8.439407,-13.111652 -2.537079,-22.378319zm21.6082,9.501827c-1.661926,5.79599 -12.614777,17.625061 0.569733,12.838669c1.892212,-3.91013 1.113098,-8.97168 -0.569733,-12.838669zm-3.499603,26.348724c5.909851,9.819168 -11.805267,1.029938 0,0zm24.395508,10.152939c-2.050293,4.185165 5.514679,4.96759 -0.325531,4.964539c-3.089264,4.101212 -4.432404,-5.29953 0.325531,-4.964539z" opacity="0.5" stroke-opacity="null" stroke-width="null" stroke="null" fill="#accde2"/>
   <path id="svg_91" d="m249.456207,29.456413c-12.199722,2.23394 -21.618866,16.956669 -20.74588,29.015911c1.442093,13.728359 17.934631,5.120674 22.80098,1.239399c-2.909164,11.492027 -26.14035,13.854057 -24.835754,-0.123859c-17.694672,13.058727 -30.950562,33.529079 -52.867813,40.145489c-19.777573,4.590668 -40.507263,3.074188 -60.450668,0.390167c-12.124451,-1.136047 -23.697952,-7.262238 -35.919861,-5.97963c-13.091354,3.591187 -23.594074,13.164673 -36.654034,16.939072c-13.770138,6.030609 -8.510651,22.680496 -9.70401,34.476028c0.36829,17.559769 -2.859127,36.162872 -15.0981,49.55722c-7.11565,10.549927 -7.76445,24.432816 -13.480481,35.442978c18.996801,-0.197708 7.545219,-25.594849 17.997293,-35.917557c14.583046,-6.751892 14.160027,-25.298599 16.194519,-38.955292c1.483398,-5.519409 0.74519,-25.081879 6.61763,-22.443344c7.219238,16.222763 11.33028,34.353882 9.696449,52.12326c-9.555302,8.96405 -24.745758,15.348633 -22.548717,31.871262c0.724579,14.965271 -8.38036,25.740341 -15.490691,37.486328c4.567481,6.892487 1.006079,20.694611 14.115722,16.653137c8.771149,1.688873 13.10825,-2.376984 4.455887,-8.423462c-13.078289,-12.56517 5.135521,-29.168396 12.205853,-40.168182c7.306889,-12.281311 22.161903,-12.868011 33.026482,-20.139786c15.006714,-8.958237 25.979355,-22.792633 35.929993,-36.78595c8.714325,9.262589 -13.757751,17.744736 -17.070755,27.203339c-7.227554,7.75058 -20.156937,21.856506 -2.998886,26.653473c13.26358,4.537964 25.758865,13.791428 25.359741,28.302551c0.22052,9.846329 24.381348,18.765457 19.436111,2.773407c-8.360901,-14.928818 -28.340637,-20.791626 -33.658356,-37.708435c-3.671494,-12.983841 11.61319,-19.273254 18.935257,-8.742691c12.964188,-1.418625 26.579819,-10.040283 40.803558,-11.3647c14.662979,-5.457703 18.06926,14.529572 29.814499,19.766678c9.790466,9.679688 18.779739,21.935822 17.542847,36.478302c1.192596,12.309113 9.526993,25.168915 23.922394,23.902191c16.800552,-2.809631 -5.101181,-20.703278 -12.795685,-24.816498c-11.148956,-13.296951 -9.306763,-32.201126 -16.245972,-47.512589c-5.002167,-4.520828 0.226852,-26.455322 0.406937,-10.763336c-0.900436,17.982422 24.732941,7.662476 22.979401,-6.091522c4.361649,-10.956543 -11.585144,-4.194168 -9.476181,-15.242523c-1.730911,-13.749374 -0.743546,-30.750961 -12.673096,-40.172928c-6.873703,-6.759094 -4.783096,-7.418274 2.702011,-2.072113c14.594391,7.558075 11.75914,24.79303 12.782761,38.376907c4.225891,17.802261 21.307526,-5.243317 20.807114,-14.897568c2.92691,-20.963364 12.92189,-42.469727 32.420609,-52.681381c-5.240173,-2.56694 -30.9478,6.735306 -28.791077,-4.967896c10.599365,9.002441 25.186768,-0.800751 37.715424,1.852646c16.621613,0.682327 20.749603,-22.793167 2.531921,-23.941162c-11.783325,-6.980648 -21.929443,-19.318924 -37.15831,-18.359013c-22.077728,7.399311 -8.439407,-13.111652 -2.537079,-22.378319zm21.6082,9.501827c-1.661926,5.79599 -12.614777,17.625061 0.569733,12.838669c1.892212,-3.91013 1.113098,-8.97168 -0.569733,-12.838669zm-3.499603,26.348724c5.909851,9.819168 -11.805267,1.029938 0,0zm24.395508,10.152939c-2.050293,4.185165 5.514679,4.96759 -0.325531,4.964539c-3.089264,4.101212 -4.432404,-5.29953 0.325531,-4.964539z" opacity="0.5" stroke-opacity="null" stroke-width="null" stroke="null" fill="#accde2"/>
   <path id="svg_92" d="m249.456207,29.456413c-12.199722,2.23394 -21.618866,16.956669 -20.74588,29.015911c1.442093,13.728359 17.934631,5.120674 22.80098,1.239399c-2.909164,11.492027 -26.14035,13.854057 -24.835754,-0.123859c-17.694672,13.058727 -30.950562,33.529079 -52.867813,40.145489c-19.777573,4.590668 -40.507263,3.074188 -60.450668,0.390167c-12.124451,-1.136047 -23.697952,-7.262238 -35.919861,-5.97963c-13.091354,3.591187 -23.594074,13.164673 -36.654034,16.939072c-13.770138,6.030609 -8.510651,22.680496 -9.70401,34.476028c0.36829,17.559769 -2.859127,36.162872 -15.0981,49.55722c-7.11565,10.549927 -7.76445,24.432816 -13.480481,35.442978c18.996801,-0.197708 7.545219,-25.594849 17.997293,-35.917557c14.583046,-6.751892 14.160027,-25.298599 16.194519,-38.955292c1.483398,-5.519409 0.74519,-25.081879 6.61763,-22.443344c7.219238,16.222763 11.33028,34.353882 9.696449,52.12326c-9.555302,8.96405 -24.745758,15.348633 -22.548717,31.871262c0.724579,14.965271 -8.38036,25.740341 -15.490691,37.486328c4.567481,6.892487 1.006079,20.694611 14.115722,16.653137c8.771149,1.688873 13.10825,-2.376984 4.455887,-8.423462c-13.078289,-12.56517 5.135521,-29.168396 12.205853,-40.168182c7.306889,-12.281311 22.161903,-12.868011 33.026482,-20.139786c15.006714,-8.958237 25.979355,-22.792633 35.929993,-36.78595c8.714325,9.262589 -13.757751,17.744736 -17.070755,27.203339c-7.227554,7.75058 -20.156937,21.856506 -2.998886,26.653473c13.26358,4.537964 25.758865,13.791428 25.359741,28.302551c0.22052,9.846329 24.381348,18.765457 19.436111,2.773407c-8.360901,-14.928818 -28.340637,-20.791626 -33.658356,-37.708435c-3.671494,-12.983841 11.61319,-19.273254 18.935257,-8.742691c12.964188,-1.418625 26.579819,-10.040283 40.803558,-11.3647c14.662979,-5.457703 18.06926,14.529572 29.814499,19.766678c9.790466,9.679688 18.779739,21.935822 17.542847,36.478302c1.192596,12.309113 9.526993,25.168915 23.922394,23.902191c16.800552,-2.809631 -5.101181,-20.703278 -12.795685,-24.816498c-11.148956,-13.296951 -9.306763,-32.201126 -16.245972,-47.512589c-5.002167,-4.520828 0.226852,-26.455322 0.406937,-10.763336c-0.900436,17.982422 24.732941,7.662476 22.979401,-6.091522c4.361649,-10.956543 -11.585144,-4.194168 -9.476181,-15.242523c-1.730911,-13.749374 -0.743546,-30.750961 -12.673096,-40.172928c-6.873703,-6.759094 -4.783096,-7.418274 2.702011,-2.072113c14.594391,7.558075 11.75914,24.79303 12.782761,38.376907c4.225891,17.802261 21.307526,-5.243317 20.807114,-14.897568c2.92691,-20.963364 12.92189,-42.469727 32.420609,-52.681381c-5.240173,-2.56694 -30.9478,6.735306 -28.791077,-4.967896c10.599365,9.002441 25.186768,-0.800751 37.715424,1.852646c16.621613,0.682327 20.749603,-22.793167 2.531921,-23.941162c-11.783325,-6.980648 -21.929443,-19.318924 -37.15831,-18.359013c-22.077728,7.399311 -8.439407,-13.111652 -2.537079,-22.378319zm21.6082,9.501827c-1.661926,5.79599 -12.614777,17.625061 0.569733,12.838669c1.892212,-3.91013 1.113098,-8.97168 -0.569733,-12.838669zm-3.499603,26.348724c5.909851,9.819168 -11.805267,1.029938 0,0zm24.395508,10.152939c-2.050293,4.185165 5.514679,4.96759 -0.325531,4.964539c-3.089264,4.101212 -4.432404,-5.29953 0.325531,-4.964539z" opacity="0.5" stroke-opacity="null" stroke-width="null" stroke="null" fill="#accde2"/>
   <path id="svg_93" d="m249.456207,29.456413c-12.199722,2.23394 -21.618866,16.956669 -20.74588,29.015911c1.442093,13.728359 17.934631,5.120674 22.80098,1.239399c-2.909164,11.492027 -26.14035,13.854057 -24.835754,-0.123859c-17.694672,13.058727 -30.950562,33.529079 -52.867813,40.145489c-19.777573,4.590668 -40.507263,3.074188 -60.450668,0.390167c-12.124451,-1.136047 -23.697952,-7.262238 -35.919861,-5.97963c-13.091354,3.591187 -23.594074,13.164673 -36.654034,16.939072c-13.770138,6.030609 -8.510651,22.680496 -9.70401,34.476028c0.36829,17.559769 -2.859127,36.162872 -15.0981,49.55722c-7.11565,10.549927 -7.76445,24.432816 -13.480481,35.442978c18.996801,-0.197708 7.545219,-25.594849 17.997293,-35.917557c14.583046,-6.751892 14.160027,-25.298599 16.194519,-38.955292c1.483398,-5.519409 0.74519,-25.081879 6.61763,-22.443344c7.219238,16.222763 11.33028,34.353882 9.696449,52.12326c-9.555302,8.96405 -24.745758,15.348633 -22.548717,31.871262c0.724579,14.965271 -8.38036,25.740341 -15.490691,37.486328c4.567481,6.892487 1.006079,20.694611 14.115722,16.653137c8.771149,1.688873 13.10825,-2.376984 4.455887,-8.423462c-13.078289,-12.56517 5.135521,-29.168396 12.205853,-40.168182c7.306889,-12.281311 22.161903,-12.868011 33.026482,-20.139786c15.006714,-8.958237 25.979355,-22.792633 35.929993,-36.78595c8.714325,9.262589 -13.757751,17.744736 -17.070755,27.203339c-7.227554,7.75058 -20.156937,21.856506 -2.998886,26.653473c13.26358,4.537964 25.758865,13.791428 25.359741,28.302551c0.22052,9.846329 24.381348,18.765457 19.436111,2.773407c-8.360901,-14.928818 -28.340637,-20.791626 -33.658356,-37.708435c-3.671494,-12.983841 11.61319,-19.273254 18.935257,-8.742691c12.964188,-1.418625 26.579819,-10.040283 40.803558,-11.3647c14.662979,-5.457703 18.06926,14.529572 29.814499,19.766678c9.790466,9.679688 18.779739,21.935822 17.542847,36.478302c1.192596,12.309113 9.526993,25.168915 23.922394,23.902191c16.800552,-2.809631 -5.101181,-20.703278 -12.795685,-24.816498c-11.148956,-13.296951 -9.306763,-32.201126 -16.245972,-47.512589c-5.002167,-4.520828 0.226852,-26.455322 0.406937,-10.763336c-0.900436,17.982422 24.732941,7.662476 22.979401,-6.091522c4.361649,-10.956543 -11.585144,-4.194168 -9.476181,-15.242523c-1.730911,-13.749374 -0.743546,-30.750961 -12.673096,-40.172928c-6.873703,-6.759094 -4.783096,-7.418274 2.702011,-2.072113c14.594391,7.558075 11.75914,24.79303 12.782761,38.376907c4.225891,17.802261 21.307526,-5.243317 20.807114,-14.897568c2.92691,-20.963364 12.92189,-42.469727 32.420609,-52.681381c-5.240173,-2.56694 -30.9478,6.735306 -28.791077,-4.967896c10.599365,9.002441 25.186768,-0.800751 37.715424,1.852646c16.621613,0.682327 20.749603,-22.793167 2.531921,-23.941162c-11.783325,-6.980648 -21.929443,-19.318924 -37.15831,-18.359013c-22.077728,7.399311 -8.439407,-13.111652 -2.537079,-22.378319zm21.6082,9.501827c-1.661926,5.79599 -12.614777,17.625061 0.569733,12.838669c1.892212,-3.91013 1.113098,-8.97168 -0.569733,-12.838669zm-3.499603,26.348724c5.909851,9.819168 -11.805267,1.029938 0,0zm24.395508,10.152939c-2.050293,4.185165 5.514679,4.96759 -0.325531,4.964539c-3.089264,4.101212 -4.432404,-5.29953 0.325531,-4.964539z" opacity="0.5" stroke-opacity="null" stroke-width="null" stroke="null" fill="#accde2"/>
   <path id="svg_94" d="m9.917341,37.080498" opacity="0.5" stroke-opacity="null" stroke-width="null" stroke="null" fill="#accde2"/>
  </g>
  <path d="m59.311733,61.395046c0,0 0,-0.0625 0,-0.125c0,-0.124996 0.033783,-0.253338 0.0625,-0.374992c0.032108,-0.136013 0.111862,-0.254902 0.187496,-0.437496c0.053482,-0.129112 0.158775,-0.253342 0.187496,-0.374996c0.032108,-0.136013 0.105789,-0.19912 0.1875,-0.312492c0.051678,-0.071701 0.153671,-0.168339 0.187496,-0.25c0.023918,-0.057739 0.0625,-0.124996 0.125,-0.187496c0.062496,-0.0625 0.062496,-0.124996 0.124996,-0.249996c0.0625,-0.125 0.117352,-0.191624 0.187496,-0.312496c0.113106,-0.194904 0.136894,-0.242588 0.25,-0.437492c0.070145,-0.120872 0.219559,-0.287125 0.312492,-0.437496c0.103905,-0.168121 0.219563,-0.349621 0.312496,-0.499992c0.103905,-0.168121 0.162899,-0.346165 0.249996,-0.499992c0.126968,-0.224243 0.11187,-0.379898 0.187504,-0.562492c0.053482,-0.129116 0.135815,-0.240791 0.187496,-0.312496c0.081711,-0.113373 0.124996,-0.1875 0.124996,-0.249996c0,-0.0625 0.038582,-0.129757 0.0625,-0.1875c0.033821,-0.081657 0.054848,-0.19162 0.124996,-0.312496c0.113106,-0.194901 0.187496,-0.312492 0.249996,-0.437492c0.062504,-0.125 0.111866,-0.317398 0.187496,-0.499992c0.053486,-0.129116 0.101086,-0.254753 0.125004,-0.312496c0.033821,-0.081661 0.0625,-0.0625 0.0625,-0.0625c0,-0.0625 0,-0.0625 0,-0.125c0,-0.062496 -0.028717,-0.253342 0,-0.374992c0.032108,-0.136017 0.062496,-0.249996 0.062496,-0.249996c0,0 0.044197,0.018303 0,0.062496c-0.044189,0.044193 -0.062496,0.0625 -0.124996,0.0625c0,0 -0.048088,0.081451 -0.125004,0.125c-0.224239,0.126965 -0.437492,0.0625 -0.624989,0.124996c-0.1875,0.0625 -0.43523,0.132244 -0.624992,0.1875c-0.247414,0.072044 -0.492401,0.093338 -0.687492,0.124996c-0.185074,0.030033 -0.374992,0.0625 -0.499992,0.0625c-0.124996,0 -0.249996,0.0625 -0.437492,0.0625c-0.125,0 -0.238979,0.030392 -0.374996,0.0625c-0.121655,0.028721 -0.25161,-0.020023 -0.374996,0c-0.195087,0.031658 -0.315842,0.033779 -0.437492,0.062496c-0.136017,0.032108 -0.249996,0.0625 -0.437496,0.0625c-0.124996,0 -0.250805,-0.01001 -0.312496,0c-0.195087,0.031658 -0.314915,0.032467 -0.499992,0.0625c-0.195087,0.031658 -0.312496,0.0625 -0.499992,0.0625c-0.125,0 -0.249996,0 -0.437492,0c-0.125,0 -0.312496,0 -0.437496,0c-0.124996,0 -0.242405,0.030838 -0.437492,0.062496c-0.123386,0.020023 -0.249996,0 -0.312496,0c-0.0625,0 -0.129757,0.023918 -0.1875,0c-0.081654,-0.033821 -0.124996,-0.062496 -0.187496,-0.124996c0,0 -0.0625,0 -0.0625,0c-0.062496,0 -0.062496,0 0,0c0,0 0.018307,-0.044193 0.0625,0c0.044193,0.044193 0.048141,0.064171 0.0625,0.124996c0.032108,0.136017 0.124996,0.1875 0.249996,0.312496c0.0625,0.0625 0.168282,0.199123 0.249996,0.312496c0.103363,0.14341 0.187496,0.1875 0.249996,0.249996c0.0625,0.0625 0.125,0.1875 0.1875,0.25c0.062496,0.062496 0.101078,0.129753 0.124996,0.187496c0.033825,0.081661 0.125,0.124996 0.187496,0.187496c0.0625,0.0625 0.101082,0.192257 0.125,0.249996c0.033825,0.081661 0.077168,0.134514 0.125,0.249996c0.033821,0.081657 0.073315,0.115795 0.124996,0.1875c0.081715,0.113373 0.091175,0.168335 0.125,0.249996c0.023918,0.057743 0.091171,0.168335 0.124996,0.249996c0.047836,0.115486 0.033779,0.190842 0.0625,0.312496c0.032108,0.136013 0.124996,0.249996 0.187496,0.374996c0.062496,0.124996 0.134018,0.308376 0.1875,0.437492c0.07563,0.182594 0.182018,0.376911 0.249996,0.562492c0.115765,0.316032 0.187496,0.499992 0.249996,0.624992c0.0625,0.124996 0.07716,0.19701 0.124996,0.312496c0.033825,0.081661 0.077164,0.197014 0.125,0.312496c0.033825,0.081657 0.091175,0.105835 0.125,0.187496c0.023918,0.057743 0.048138,0.126671 0.062496,0.187496c0.032108,0.136017 0.0625,0.249996 0.125,0.312496c0.0625,0.0625 0.080803,0.143307 0.124996,0.1875c0.044193,0.044193 0.038582,0.067253 0.0625,0.124996c0.033825,0.081661 0.080807,0.080807 0.125,0.125c0.044193,0.044193 0.0625,0.062496 0.0625,0.124996c0,0 0,0 0,0c0,0.0625 0.038578,0.067257 0.062496,0.125c0.033825,0.081661 0.0625,0.124996 0.0625,0.124996l0,0l0.0625,0" id="svg_96" stroke-opacity="null" stroke-width="null" stroke="null" fill="#ffffff"/>
  <path fill="#7eb2d6" id="svg_97" d="m53.999916,17.499947l0,37.265965l4,7l0,1.734005c0,0.553001 0.446999,1.000008 1,1.000008s1,-0.447006 1,-1.000008l0,-1.734005l4.000004,-7l0,-37.265965l0,-1.999992l-10.000004,0l0,1.999992zm7.277,37.999966l-2.277,3.984001l-2.277,-3.984001l4.554001,0z"/>
  <path fill="#7eb2d6" id="svg_98" d="m61.014915,4.499952l-4.028999,0c-1.646999,0 -2.986,1.339001 -2.986,2.985001l0,4.015l0,2l10.000004,0l0,-2l0,-4.015c0,-1.646 -1.339005,-2.985001 -2.985004,-2.985001z"/>
  <rect rx="1" id="svg_99" height="65" width="51" y="1.833358" x="1.499965" stroke-opacity="null" stroke-width="null" stroke="null" fill="#7eb2d6"/>
  <path fill="#ffffff" id="svg_100" d="m3.999952,4.499952l0,59.999972l10.000001,0l35.999963,0l0,-59.999972l-35.999963,0l-10.000001,0zm43.999964,57.99996l-33.999963,0l0,-55.999959l33.999963,0l0,55.999959z"/>
  <path fill="#447799" id="svg_101" d="m43.166603,14.999974l-23.999969,0l0,13.999991l23.999969,0l0,-13.999991zm-5,9.999991l-13.999969,0l0,-2l13.999969,0l0,2zm0,-4l-13.999969,0l0,-2l13.999969,0l0,2z"/>
  <g id="svg_102"/>
  <g id="svg_103"/>
  <g id="svg_104"/>
  <g id="svg_105"/>
  <g id="svg_106"/>
  <g id="svg_107"/>
  <g id="svg_108"/>
  <g id="svg_109"/>
  <g id="svg_110"/>
  <g id="svg_111"/>
  <g id="svg_112"/>
  <g id="svg_113"/>
  <g id="svg_114"/>
  <g id="svg_115"/>
  <g id="svg_116"/>
  <path id="svg_117" d="m2.50002,282.208221l149.000026,-260.749874l148.999863,260.749874z" opacity="0.5" stroke-opacity="null" stroke-width="null" stroke="null" fill="#000000"/>
  <path id="svg_118" d="m2.50002,282.208221l149.000026,-260.749874l148.999863,260.749874z" opacity="0.5" stroke-opacity="null" stroke-width="null" stroke="null" fill="#000000"/>
  <path id="svg_119" d="m2.50002,282.208221l149.000026,-260.749874l148.999863,260.749874z" opacity="0.5" stroke-opacity="null" stroke-width="null" stroke="null" fill="#000000"/>
  <path id="svg_120" d="m2.50002,282.208221l149.000026,-260.749874l148.999863,260.749874z" opacity="0.5" stroke-opacity="null" stroke-width="null" stroke="null" fill="#000000"/>
  <path id="svg_121" d="m2.50002,282.208221l149.000026,-260.749874l148.999863,260.749874z" opacity="0.5" stroke-opacity="null" stroke-width="null" stroke="null" fill="#000000"/>
  <path id="svg_122" d="m2.50002,282.208221l149.000026,-260.749874l148.999863,260.749874z" opacity="0.5" stroke-opacity="null" stroke-width="null" stroke="null" fill="#000000"/>
  <path id="svg_123" d="m2.50002,282.208221l149.000026,-260.749874l148.999863,260.749874z" opacity="0.5" stroke-opacity="null" stroke-width="null" stroke="null" fill="#000000"/>
  <path id="svg_124" d="m2.50002,282.208221l149.000026,-260.749874l148.999863,260.749874z" opacity="0.5" stroke-opacity="null" stroke-width="null" stroke="null" fill="#000000"/>
  <path id="svg_125" d="m2.50002,282.208221l149.000026,-260.749874l148.999863,260.749874z" opacity="0.5" stroke-opacity="null" stroke-width="null" stroke="null" fill="#000000"/>
  <path id="svg_126" d="m2.50002,282.208221l149.000026,-260.749874l148.999863,260.749874z" opacity="0.5" stroke-opacity="null" stroke-width="null" stroke="null" fill="#000000"/>
  <path id="svg_127" d="m2.50002,282.208221l149.000026,-260.749874l148.999863,260.749874z" opacity="0.5" stroke-opacity="null" stroke-width="null" stroke="null" fill="#000000"/>
  <path id="svg_128" d="m2.50002,282.208221l149.000026,-260.749874l148.999863,260.749874z" opacity="0.5" stroke-opacity="null" stroke-width="null" stroke="null" fill="#000000"/>
  <path id="svg_129" d="m2.50002,282.208221l149.000026,-260.749874l148.999863,260.749874z" opacity="0.5" stroke-opacity="null" stroke-width="null" stroke="null" fill="#000000"/>
  <path id="svg_130" d="m2.50002,282.208221l149.000026,-260.749874l148.999863,260.749874z" opacity="0.5" stroke-opacity="null" stroke-width="null" stroke="null" fill="#000000"/>
  <path id="svg_131" d="m2.50002,282.208221l149.000026,-260.749874l148.999863,260.749874z" opacity="0.5" stroke-opacity="null" stroke-width="null" stroke="null" fill="#000000"/>
  <path id="svg_132" d="m2.50002,282.208221l149.000026,-260.749874l148.999863,260.749874z" opacity="0.5" stroke-opacity="null" stroke-width="null" stroke="null" fill="#000000"/>
  <path id="svg_133" d="m2.49846,101.546776l98.714972,0l0,-98.714982l101.262779,0l0,98.714982l98.714828,0l0,101.26281l-98.714828,0l0,98.714767l-101.262779,0l0,-98.714767l-98.714972,0z" opacity="0.5" stroke-opacity="null" stroke-width="null" stroke="null" fill="#000000"/>
  <path id="svg_134" d="m2.49846,101.546776l98.714972,0l0,-98.714982l101.262779,0l0,98.714982l98.714828,0l0,101.26281l-98.714828,0l0,98.714767l-101.262779,0l0,-98.714767l-98.714972,0z" opacity="0.5" stroke-opacity="null" stroke-width="null" stroke="null" fill="#000000"/>
  <path id="svg_135" d="m249.456268,29.956398c-12.199722,2.23394 -21.618866,16.956669 -20.74588,29.015911c1.442093,13.728443 17.934631,5.120747 22.800873,1.239407c-2.909058,11.492111 -26.140244,13.854134 -24.835648,-0.123867c-17.694672,13.058819 -30.950562,33.529171 -52.867813,40.145573c-19.777573,4.590668 -40.507263,3.074196 -60.450676,0.390167c-12.124451,-1.13604 -23.697945,-7.262238 -35.919853,-5.979622c-13.091362,3.591187 -23.594154,13.164673 -36.654114,16.939064c-13.770138,6.030617 -8.510651,22.680504 -9.70401,34.476036c0.36829,17.559769 -2.859127,36.162872 -15.0981,49.55722c-7.115631,10.549927 -7.764431,24.432816 -13.480462,35.442978c18.996782,-0.197708 7.545219,-25.594849 17.997274,-35.917557c14.583046,-6.751892 14.160027,-25.298599 16.194519,-38.955292c1.483398,-5.519409 0.74519,-25.081879 6.61763,-22.443344c7.219238,16.222763 11.33028,34.353882 9.696449,52.12326c-9.555302,8.96405 -24.745758,15.348633 -22.548717,31.871262c0.724579,14.965271 -8.38036,25.740341 -15.490691,37.486023c4.567481,6.892441 1.006079,20.694565 14.115722,16.653091c8.771149,1.688873 13.10825,-2.376984 4.455887,-8.423462c-13.078289,-12.564819 5.135521,-29.168045 12.205853,-40.167831c7.306889,-12.281311 22.161983,-12.868011 33.026562,-20.139786c15.006714,-8.958237 25.979355,-22.792633 35.929993,-36.78595c8.714317,9.262589 -13.757759,17.744736 -17.070763,27.203339c-7.227547,7.75058 -20.156937,21.856506 -2.998886,26.653473c13.26358,4.537964 25.758865,13.791428 25.359749,28.302551c0.220512,9.845978 24.381348,18.765106 19.436111,2.773407c-8.360901,-14.928818 -28.340645,-20.791626 -33.658356,-37.708435c-3.671501,-12.983841 11.613182,-19.273254 18.935249,-8.742691c12.964195,-1.418625 26.579826,-10.040283 40.803566,-11.3647c14.662979,-5.457703 18.06926,14.529572 29.814499,19.766678c9.790466,9.679688 18.779739,21.935822 17.542847,36.478302c1.192596,12.308762 9.526993,25.168564 23.922394,23.90184c16.800262,-2.809631 -5.101181,-20.703003 -12.795685,-24.816147c-11.148956,-13.296951 -9.306763,-32.201126 -16.245972,-47.512589c-5.002167,-4.520828 0.226852,-26.455322 0.406937,-10.763336c-0.900436,17.982422 24.732941,7.662476 22.979401,-6.091522c4.361649,-10.956543 -11.585144,-4.194168 -9.476181,-15.242523c-1.730911,-13.749374 -0.743546,-30.750961 -12.673096,-40.172928c-6.873703,-6.759094 -4.783096,-7.418282 2.702011,-2.072113c14.594391,7.558075 11.75914,24.79303 12.782761,38.376907c4.225891,17.802261 21.307526,-5.243317 20.807114,-14.897568c2.92691,-20.963364 12.921585,-42.469727 32.420303,-52.681389c-5.240173,-2.566933 -30.947495,6.735313 -28.790771,-4.967896c10.59906,9.002441 25.186462,-0.800751 37.715118,1.852646c16.621613,0.682335 20.749603,-22.793167 2.531921,-23.941154c-11.783325,-6.980659 -21.929443,-19.319016 -37.158142,-18.359104c-22.077591,7.399311 -8.43927,-13.111652 -2.536942,-22.378319zm21.607895,9.501827c-1.661926,5.79599 -12.614777,17.625061 0.569733,12.838669c1.892212,-3.91013 1.113098,-8.97168 -0.569733,-12.838669zm-3.499603,26.348808c5.909851,9.819168 -11.805267,1.029938 0,0zm24.395508,10.152939c-2.050293,4.185165 5.514679,4.967598 -0.325531,4.964546c-3.089264,4.101212 -4.432404,-5.29953 0.325531,-4.964546z" opacity="0.5" stroke-opacity="null" stroke-width="null" stroke="null" fill="#000000"/>
  <path id="svg_136" d="m249.456268,29.956398c-12.199722,2.23394 -21.618866,16.956669 -20.74588,29.015911c1.442093,13.728443 17.934631,5.120747 22.800873,1.239407c-2.909058,11.492111 -26.140244,13.854134 -24.835648,-0.123867c-17.694672,13.058819 -30.950562,33.529171 -52.867813,40.145573c-19.777573,4.590668 -40.507263,3.074196 -60.450676,0.390167c-12.124451,-1.13604 -23.697945,-7.262238 -35.919853,-5.979622c-13.091362,3.591187 -23.594154,13.164673 -36.654114,16.939064c-13.770138,6.030617 -8.510651,22.680504 -9.70401,34.476036c0.36829,17.559769 -2.859127,36.162872 -15.0981,49.55722c-7.115631,10.549927 -7.764431,24.432816 -13.480462,35.442978c18.996782,-0.197708 7.545219,-25.594849 17.997274,-35.917557c14.583046,-6.751892 14.160027,-25.298599 16.194519,-38.955292c1.483398,-5.519409 0.74519,-25.081879 6.61763,-22.443344c7.219238,16.222763 11.33028,34.353882 9.696449,52.12326c-9.555302,8.96405 -24.745758,15.348633 -22.548717,31.871262c0.724579,14.965271 -8.38036,25.740341 -15.490691,37.486023c4.567481,6.892441 1.006079,20.694565 14.115722,16.653091c8.771149,1.688873 13.10825,-2.376984 4.455887,-8.423462c-13.078289,-12.564819 5.135521,-29.168045 12.205853,-40.167831c7.306889,-12.281311 22.161983,-12.868011 33.026562,-20.139786c15.006714,-8.958237 25.979355,-22.792633 35.929993,-36.78595c8.714317,9.262589 -13.757759,17.744736 -17.070763,27.203339c-7.227547,7.75058 -20.156937,21.856506 -2.998886,26.653473c13.26358,4.537964 25.758865,13.791428 25.359749,28.302551c0.220512,9.845978 24.381348,18.765106 19.436111,2.773407c-8.360901,-14.928818 -28.340645,-20.791626 -33.658356,-37.708435c-3.671501,-12.983841 11.613182,-19.273254 18.935249,-8.742691c12.964195,-1.418625 26.579826,-10.040283 40.803566,-11.3647c14.662979,-5.457703 18.06926,14.529572 29.814499,19.766678c9.790466,9.679688 18.779739,21.935822 17.542847,36.478302c1.192596,12.308762 9.526993,25.168564 23.922394,23.90184c16.800262,-2.809631 -5.101181,-20.703003 -12.795685,-24.816147c-11.148956,-13.296951 -9.306763,-32.201126 -16.245972,-47.512589c-5.002167,-4.520828 0.226852,-26.455322 0.406937,-10.763336c-0.900436,17.982422 24.732941,7.662476 22.979401,-6.091522c4.361649,-10.956543 -11.585144,-4.194168 -9.476181,-15.242523c-1.730911,-13.749374 -0.743546,-30.750961 -12.673096,-40.172928c-6.873703,-6.759094 -4.783096,-7.418282 2.702011,-2.072113c14.594391,7.558075 11.75914,24.79303 12.782761,38.376907c4.225891,17.802261 21.307526,-5.243317 20.807114,-14.897568c2.92691,-20.963364 12.921585,-42.469727 32.420303,-52.681389c-5.240173,-2.566933 -30.947495,6.735313 -28.790771,-4.967896c10.59906,9.002441 25.186462,-0.800751 37.715118,1.852646c16.621613,0.682335 20.749603,-22.793167 2.531921,-23.941154c-11.783325,-6.980659 -21.929443,-19.319016 -37.158142,-18.359104c-22.077591,7.399311 -8.43927,-13.111652 -2.536942,-22.378319zm21.607895,9.501827c-1.661926,5.79599 -12.614777,17.625061 0.569733,12.838669c1.892212,-3.91013 1.113098,-8.97168 -0.569733,-12.838669zm-3.499603,26.348808c5.909851,9.819168 -11.805267,1.029938 0,0zm24.395508,10.152939c-2.050293,4.185165 5.514679,4.967598 -0.325531,4.964546c-3.089264,4.101212 -4.432404,-5.29953 0.325531,-4.964546z" opacity="0.5" stroke-opacity="null" stroke-width="null" stroke="null" fill="#000000"/>
  <path id="svg_137" d="m249.456268,29.956398c-12.199722,2.23394 -21.618866,16.956669 -20.74588,29.015911c1.442093,13.728443 17.934631,5.120747 22.800873,1.239407c-2.909058,11.492111 -26.140244,13.854134 -24.835648,-0.123867c-17.694672,13.058819 -30.950562,33.529171 -52.867813,40.145573c-19.777573,4.590668 -40.507263,3.074196 -60.450676,0.390167c-12.124451,-1.13604 -23.697945,-7.262238 -35.919853,-5.979622c-13.091362,3.591187 -23.594154,13.164673 -36.654114,16.939064c-13.770138,6.030617 -8.510651,22.680504 -9.70401,34.476036c0.36829,17.559769 -2.859127,36.162872 -15.0981,49.55722c-7.115631,10.549927 -7.764431,24.432816 -13.480462,35.442978c18.996782,-0.197708 7.545219,-25.594849 17.997274,-35.917557c14.583046,-6.751892 14.160027,-25.298599 16.194519,-38.955292c1.483398,-5.519409 0.74519,-25.081879 6.61763,-22.443344c7.219238,16.222763 11.33028,34.353882 9.696449,52.12326c-9.555302,8.96405 -24.745758,15.348633 -22.548717,31.871262c0.724579,14.965271 -8.38036,25.740341 -15.490691,37.486023c4.567481,6.892441 1.006079,20.694565 14.115722,16.653091c8.771149,1.688873 13.10825,-2.376984 4.455887,-8.423462c-13.078289,-12.564819 5.135521,-29.168045 12.205853,-40.167831c7.306889,-12.281311 22.161983,-12.868011 33.026562,-20.139786c15.006714,-8.958237 25.979355,-22.792633 35.929993,-36.78595c8.714317,9.262589 -13.757759,17.744736 -17.070763,27.203339c-7.227547,7.75058 -20.156937,21.856506 -2.998886,26.653473c13.26358,4.537964 25.758865,13.791428 25.359749,28.302551c0.220512,9.845978 24.381348,18.765106 19.436111,2.773407c-8.360901,-14.928818 -28.340645,-20.791626 -33.658356,-37.708435c-3.671501,-12.983841 11.613182,-19.273254 18.935249,-8.742691c12.964195,-1.418625 26.579826,-10.040283 40.803566,-11.3647c14.662979,-5.457703 18.06926,14.529572 29.814499,19.766678c9.790466,9.679688 18.779739,21.935822 17.542847,36.478302c1.192596,12.308762 9.526993,25.168564 23.922394,23.90184c16.800262,-2.809631 -5.101181,-20.703003 -12.795685,-24.816147c-11.148956,-13.296951 -9.306763,-32.201126 -16.245972,-47.512589c-5.002167,-4.520828 0.226852,-26.455322 0.406937,-10.763336c-0.900436,17.982422 24.732941,7.662476 22.979401,-6.091522c4.361649,-10.956543 -11.585144,-4.194168 -9.476181,-15.242523c-1.730911,-13.749374 -0.743546,-30.750961 -12.673096,-40.172928c-6.873703,-6.759094 -4.783096,-7.418282 2.702011,-2.072113c14.594391,7.558075 11.75914,24.79303 12.782761,38.376907c4.225891,17.802261 21.307526,-5.243317 20.807114,-14.897568c2.92691,-20.963364 12.921585,-42.469727 32.420303,-52.681389c-5.240173,-2.566933 -30.947495,6.735313 -28.790771,-4.967896c10.59906,9.002441 25.186462,-0.800751 37.715118,1.852646c16.621613,0.682335 20.749603,-22.793167 2.531921,-23.941154c-11.783325,-6.980659 -21.929443,-19.319016 -37.158142,-18.359104c-22.077591,7.399311 -8.43927,-13.111652 -2.536942,-22.378319zm21.607895,9.501827c-1.661926,5.79599 -12.614777,17.625061 0.569733,12.838669c1.892212,-3.91013 1.113098,-8.97168 -0.569733,-12.838669zm-3.499603,26.348808c5.909851,9.819168 -11.805267,1.029938 0,0zm24.395508,10.152939c-2.050293,4.185165 5.514679,4.967598 -0.325531,4.964546c-3.089264,4.101212 -4.432404,-5.29953 0.325531,-4.964546z" opacity="0.5" stroke-opacity="null" stroke-width="null" stroke="null" fill="#000000"/>
  <path id="svg_138" d="m249.456268,29.956398c-12.199722,2.23394 -21.618866,16.956669 -20.74588,29.015911c1.442093,13.728443 17.934631,5.120747 22.800873,1.239407c-2.909058,11.492111 -26.140244,13.854134 -24.835648,-0.123867c-17.694672,13.058819 -30.950562,33.529171 -52.867813,40.145573c-19.777573,4.590668 -40.507263,3.074196 -60.450676,0.390167c-12.124451,-1.13604 -23.697945,-7.262238 -35.919853,-5.979622c-13.091362,3.591187 -23.594154,13.164673 -36.654114,16.939064c-13.770138,6.030617 -8.510651,22.680504 -9.70401,34.476036c0.36829,17.559769 -2.859127,36.162872 -15.0981,49.55722c-7.115631,10.549927 -7.764431,24.432816 -13.480462,35.442978c18.996782,-0.197708 7.545219,-25.594849 17.997274,-35.917557c14.583046,-6.751892 14.160027,-25.298599 16.194519,-38.955292c1.483398,-5.519409 0.74519,-25.081879 6.61763,-22.443344c7.219238,16.222763 11.33028,34.353882 9.696449,52.12326c-9.555302,8.96405 -24.745758,15.348633 -22.548717,31.871262c0.724579,14.965271 -8.38036,25.740341 -15.490691,37.486023c4.567481,6.892441 1.006079,20.694565 14.115722,16.653091c8.771149,1.688873 13.10825,-2.376984 4.455887,-8.423462c-13.078289,-12.564819 5.135521,-29.168045 12.205853,-40.167831c7.306889,-12.281311 22.161983,-12.868011 33.026562,-20.139786c15.006714,-8.958237 25.979355,-22.792633 35.929993,-36.78595c8.714317,9.262589 -13.757759,17.744736 -17.070763,27.203339c-7.227547,7.75058 -20.156937,21.856506 -2.998886,26.653473c13.26358,4.537964 25.758865,13.791428 25.359749,28.302551c0.220512,9.845978 24.381348,18.765106 19.436111,2.773407c-8.360901,-14.928818 -28.340645,-20.791626 -33.658356,-37.708435c-3.671501,-12.983841 11.613182,-19.273254 18.935249,-8.742691c12.964195,-1.418625 26.579826,-10.040283 40.803566,-11.3647c14.662979,-5.457703 18.06926,14.529572 29.814499,19.766678c9.790466,9.679688 18.779739,21.935822 17.542847,36.478302c1.192596,12.308762 9.526993,25.168564 23.922394,23.90184c16.800262,-2.809631 -5.101181,-20.703003 -12.795685,-24.816147c-11.148956,-13.296951 -9.306763,-32.201126 -16.245972,-47.512589c-5.002167,-4.520828 0.226852,-26.455322 0.406937,-10.763336c-0.900436,17.982422 24.732941,7.662476 22.979401,-6.091522c4.361649,-10.956543 -11.585144,-4.194168 -9.476181,-15.242523c-1.730911,-13.749374 -0.743546,-30.750961 -12.673096,-40.172928c-6.873703,-6.759094 -4.783096,-7.418282 2.702011,-2.072113c14.594391,7.558075 11.75914,24.79303 12.782761,38.376907c4.225891,17.802261 21.307526,-5.243317 20.807114,-14.897568c2.92691,-20.963364 12.921585,-42.469727 32.420303,-52.681389c-5.240173,-2.566933 -30.947495,6.735313 -28.790771,-4.967896c10.59906,9.002441 25.186462,-0.800751 37.715118,1.852646c16.621613,0.682335 20.749603,-22.793167 2.531921,-23.941154c-11.783325,-6.980659 -21.929443,-19.319016 -37.158142,-18.359104c-22.077591,7.399311 -8.43927,-13.111652 -2.536942,-22.378319zm21.607895,9.501827c-1.661926,5.79599 -12.614777,17.625061 0.569733,12.838669c1.892212,-3.91013 1.113098,-8.97168 -0.569733,-12.838669zm-3.499603,26.348808c5.909851,9.819168 -11.805267,1.029938 0,0zm24.395508,10.152939c-2.050293,4.185165 5.514679,4.967598 -0.325531,4.964546c-3.089264,4.101212 -4.432404,-5.29953 0.325531,-4.964546z" opacity="0.5" stroke-opacity="null" stroke-width="null" stroke="null" fill="#000000"/>
  <path id="svg_139" d="m249.456268,29.956398c-12.199722,2.23394 -21.618866,16.956669 -20.74588,29.015911c1.442093,13.728443 17.934631,5.120747 22.800873,1.239407c-2.909058,11.492111 -26.140244,13.854134 -24.835648,-0.123867c-17.694672,13.058819 -30.950562,33.529171 -52.867813,40.145573c-19.777573,4.590668 -40.507263,3.074196 -60.450676,0.390167c-12.124451,-1.13604 -23.697945,-7.262238 -35.919853,-5.979622c-13.091362,3.591187 -23.594154,13.164673 -36.654114,16.939064c-13.770138,6.030617 -8.510651,22.680504 -9.70401,34.476036c0.36829,17.559769 -2.859127,36.162872 -15.0981,49.55722c-7.115631,10.549927 -7.764431,24.432816 -13.480462,35.442978c18.996782,-0.197708 7.545219,-25.594849 17.997274,-35.917557c14.583046,-6.751892 14.160027,-25.298599 16.194519,-38.955292c1.483398,-5.519409 0.74519,-25.081879 6.61763,-22.443344c7.219238,16.222763 11.33028,34.353882 9.696449,52.12326c-9.555302,8.96405 -24.745758,15.348633 -22.548717,31.871262c0.724579,14.965271 -8.38036,25.740341 -15.490691,37.486023c4.567481,6.892441 1.006079,20.694565 14.115722,16.653091c8.771149,1.688873 13.10825,-2.376984 4.455887,-8.423462c-13.078289,-12.564819 5.135521,-29.168045 12.205853,-40.167831c7.306889,-12.281311 22.161983,-12.868011 33.026562,-20.139786c15.006714,-8.958237 25.979355,-22.792633 35.929993,-36.78595c8.714317,9.262589 -13.757759,17.744736 -17.070763,27.203339c-7.227547,7.75058 -20.156937,21.856506 -2.998886,26.653473c13.26358,4.537964 25.758865,13.791428 25.359749,28.302551c0.220512,9.845978 24.381348,18.765106 19.436111,2.773407c-8.360901,-14.928818 -28.340645,-20.791626 -33.658356,-37.708435c-3.671501,-12.983841 11.613182,-19.273254 18.935249,-8.742691c12.964195,-1.418625 26.579826,-10.040283 40.803566,-11.3647c14.662979,-5.457703 18.06926,14.529572 29.814499,19.766678c9.790466,9.679688 18.779739,21.935822 17.542847,36.478302c1.192596,12.308762 9.526993,25.168564 23.922394,23.90184c16.800262,-2.809631 -5.101181,-20.703003 -12.795685,-24.816147c-11.148956,-13.296951 -9.306763,-32.201126 -16.245972,-47.512589c-5.002167,-4.520828 0.226852,-26.455322 0.406937,-10.763336c-0.900436,17.982422 24.732941,7.662476 22.979401,-6.091522c4.361649,-10.956543 -11.585144,-4.194168 -9.476181,-15.242523c-1.730911,-13.749374 -0.743546,-30.750961 -12.673096,-40.172928c-6.873703,-6.759094 -4.783096,-7.418282 2.702011,-2.072113c14.594391,7.558075 11.75914,24.79303 12.782761,38.376907c4.225891,17.802261 21.307526,-5.243317 20.807114,-14.897568c2.92691,-20.963364 12.921585,-42.469727 32.420303,-52.681389c-5.240173,-2.566933 -30.947495,6.735313 -28.790771,-4.967896c10.59906,9.002441 25.186462,-0.800751 37.715118,1.852646c16.621613,0.682335 20.749603,-22.793167 2.531921,-23.941154c-11.783325,-6.980659 -21.929443,-19.319016 -37.158142,-18.359104c-22.077591,7.399311 -8.43927,-13.111652 -2.536942,-22.378319zm21.607895,9.501827c-1.661926,5.79599 -12.614777,17.625061 0.569733,12.838669c1.892212,-3.91013 1.113098,-8.97168 -0.569733,-12.838669zm-3.499603,26.348808c5.909851,9.819168 -11.805267,1.029938 0,0zm24.395508,10.152939c-2.050293,4.185165 5.514679,4.967598 -0.325531,4.964546c-3.089264,4.101212 -4.432404,-5.29953 0.325531,-4.964546z" opacity="0.5" stroke-opacity="null" stroke-width="null" stroke="null" fill="#000000"/>
  <path id="svg_140" d="m9.917341,37.580482" opacity="0.5" stroke-opacity="null" stroke-width="null" stroke="null" fill="#000000"/>
  <path fill="#ffffff" id="svg_142" d="m42.999916,14.499953l-23.999969,0l0,13.99999l23.999969,0l0,-13.99999zm-5,9.99999l-13.999969,0l0,-2l13.999969,0l0,2zm0,-4l-13.999969,0l0,-2l13.999969,0l0,2z"/>
 </g>
</svg>