<?xml version="1.0" encoding="UTF-8" standalone="no"?>
<!DOCTYPE svg PUBLIC "-//W3C//DTD SVG 1.1//EN" "http://www.w3.org/Graphics/SVG/1.1/DTD/svg11.dtd">
<svg version="1.1" xmlns="http://www.w3.org/2000/svg" xmlns:xlink="http://www.w3.org/1999/xlink" preserveAspectRatio="xMidYMid meet" viewBox="0 0 640 640" width="640" height="640"><defs><path d="M452.02 51.28L458.25 51.91L464.4 52.79L470.48 53.91L476.47 55.26L482.36 56.84L488.17 58.65L493.87 60.68L499.47 62.92L504.96 65.37L510.33 68.02L515.58 70.88L520.71 73.93L525.71 77.17L530.57 80.59L535.3 84.2L539.87 87.98L544.3 91.93L548.58 96.04L552.69 100.31L556.64 104.74L560.42 109.32L564.02 114.04L567.45 118.91L570.69 123.9L573.74 129.03L576.59 134.29L579.25 139.66L581.7 145.15L583.94 150.75L585.96 156.45L587.77 162.25L589.35 168.15L590.71 174.14L591.82 180.21L592.7 186.37L593.33 192.59L593.72 198.89L593.85 205.26L593.85 523.21L545.13 523.21L545.13 317.79L544.3 318.59L539.87 322.54L535.3 326.32L530.57 329.92L525.71 333.34L520.71 336.58L520.15 336.92L255.03 560.1L253.25 561.95L250.36 564.73L247.37 567.4L244.27 569.96L241.08 572.39L237.79 574.71L234.41 576.9L230.94 578.96L227.39 580.89L223.75 582.69L220.04 584.35L216.25 585.86L212.4 587.23L208.47 588.46L204.48 589.53L200.43 590.44L196.32 591.2L192.16 591.79L187.95 592.22L183.69 592.48L179.38 592.56L175.08 592.48L170.82 592.22L166.61 591.79L162.45 591.2L158.34 590.44L154.29 589.53L150.3 588.46L146.37 587.23L142.52 585.86L138.73 584.35L135.02 582.69L131.38 580.89L127.83 578.96L124.36 576.9L120.98 574.71L117.69 572.39L114.5 569.96L111.4 567.4L108.41 564.73L105.52 561.95L102.73 559.06L100.06 556.06L97.51 552.96L95.07 549.77L92.75 546.48L90.56 543.1L88.5 539.63L86.57 536.08L84.77 532.44L83.11 528.73L81.6 524.95L80.23 521.09L79.01 517.16L77.94 513.17L77.02 509.12L76.27 505.02L75.67 500.85L75.24 496.64L74.98 492.38L74.9 488.08L74.9 487.95L74.9 487.95L74.9 170L123.62 170L123.62 387.45L309.43 120.92L309.82 121.14L311.27 118.91L314.7 114.04L318.3 109.32L322.08 104.74L326.03 100.31L330.14 96.04L334.42 91.93L338.84 87.98L343.42 84.2L348.15 80.59L353.01 77.17L358.01 73.93L363.14 70.88L368.39 68.02L373.76 65.37L379.25 62.92L384.85 60.68L390.55 58.65L396.35 56.84L402.25 55.26L408.24 53.91L414.31 52.79L420.47 51.91L426.7 51.28L433 50.9L439.36 50.77L445.72 50.9L452.02 51.28ZM173.97 422.27L171.31 422.54L168.68 422.92L166.09 423.39L163.53 423.97L161 424.65L158.52 425.42L156.09 426.29L153.69 427.24L151.35 428.29L149.05 429.43L146.81 430.65L144.62 431.95L142.48 433.33L140.4 434.8L138.38 436.34L136.43 437.95L134.53 439.64L132.71 441.4L130.95 443.23L129.26 445.12L127.65 447.07L126.11 449.09L124.64 451.17L123.26 453.31L121.95 455.5L120.73 457.75L119.6 460.04L118.55 462.39L117.59 464.78L116.73 467.22L115.96 469.7L115.28 472.22L114.7 474.78L114.22 477.37L113.85 480L113.58 482.67L113.41 485.36L113.36 488.08L113.41 490.8L113.58 493.49L113.85 496.15L114.22 498.78L114.7 501.38L115.28 503.94L115.96 506.46L116.73 508.94L117.59 511.37L118.55 513.77L119.6 516.11L120.73 518.41L121.95 520.65L123.26 522.85L124.64 524.98L126.11 527.06L127.65 529.08L129.26 531.04L130.95 532.93L132.71 534.75L134.53 536.51L136.43 538.2L138.38 539.82L140.4 541.36L142.48 542.82L144.62 544.2L146.81 545.51L149.05 546.73L151.35 547.86L153.69 548.91L156.09 549.87L158.52 550.73L161 551.51L163.53 552.18L166.09 552.76L168.68 553.24L171.31 553.61L173.97 553.88L176.66 554.05L179.38 554.1L182.1 554.05L184.8 553.88L187.46 553.61L190.09 553.24L192.68 552.76L195.24 552.18L197.76 551.51L200.24 550.73L202.68 549.87L205.07 548.91L207.42 547.86L209.72 546.73L211.96 545.51L214.15 544.2L216.29 542.82L218.37 541.36L220.39 539.82L222.34 538.2L224.24 536.51L226.06 534.75L227.82 532.93L229.51 531.04L231.12 529.08L232.66 527.06L234.13 524.98L235.51 522.85L236.82 520.65L238.04 518.41L239.17 516.11L240.22 513.77L241.18 511.37L242.04 508.94L242.81 506.46L243.49 503.94L244.07 501.38L244.55 498.78L244.92 496.15L245.19 493.49L245.36 490.8L245.41 488.08L245.36 485.36L245.19 482.67L244.92 480L244.55 477.37L244.07 474.78L243.49 472.22L242.81 469.7L242.04 467.22L241.18 464.78L240.22 462.39L239.17 460.04L238.04 457.75L236.82 455.5L235.51 453.31L234.13 451.17L232.66 449.09L231.12 447.07L229.51 445.12L227.82 443.23L226.06 441.4L224.24 439.64L222.34 437.95L220.39 436.34L218.37 434.8L216.29 433.33L214.15 431.95L211.96 430.65L209.72 429.43L207.42 428.29L205.07 427.24L202.68 426.29L200.24 425.42L197.76 424.65L195.24 423.97L192.68 423.39L190.09 422.92L187.46 422.54L184.8 422.27L182.1 422.11L179.38 422.05L176.66 422.11L173.97 422.27ZM187.95 383.94L192.16 384.36L196.32 384.96L200.43 385.71L204.48 386.63L208.47 387.7L212.4 388.92L216.25 390.29L220.04 391.81L223.75 393.46L227.39 395.26L230.94 397.19L234.41 399.25L237.79 401.44L241.08 403.76L244.27 406.2L247.37 408.75L250.36 411.43L253.25 414.21L256.04 417.1L258.71 420.09L261.26 423.19L263.7 426.38L266.02 429.67L268.21 433.05L270.27 436.52L272.2 440.08L274 443.71L275.66 447.42L277.17 451.21L278.54 455.07L279.76 458.99L280.83 462.98L281.75 467.03L282.5 471.14L282.56 471.56L417.3 358.15L414.31 357.72L408.24 356.6L402.25 355.25L396.35 353.67L390.55 351.86L384.85 349.84L379.25 347.6L373.76 345.14L368.39 342.49L363.14 339.63L358.01 336.58L353.01 333.34L348.15 329.92L343.42 326.32L338.84 322.54L334.42 318.59L330.14 314.47L326.03 310.2L322.08 305.77L318.3 301.19L314.7 296.47L311.27 291.61L308.03 286.61L304.98 281.48L302.13 276.23L299.47 270.85L297.02 265.37L294.78 259.77L292.75 254.06L290.95 248.26L289.36 242.36L288.47 238.41L187.05 383.88L187.95 383.94ZM430.79 101.12L426.58 101.54L422.42 102.14L418.31 102.89L414.26 103.81L410.27 104.88L406.35 106.1L402.49 107.47L398.7 108.99L394.99 110.64L391.36 112.44L387.81 114.37L384.34 116.43L380.96 118.62L377.67 120.94L374.47 123.38L371.38 125.93L368.38 128.6L365.49 131.39L362.71 134.28L360.04 137.27L357.48 140.37L355.04 143.56L352.73 146.85L350.54 150.23L348.47 153.7L346.54 157.26L344.75 160.89L343.09 164.6L341.57 168.39L340.2 172.25L338.98 176.17L337.91 180.16L337 184.21L336.24 188.32L335.65 192.48L335.22 196.69L334.96 200.95L334.87 205.26L334.96 209.56L335.22 213.82L335.65 218.03L336.24 222.2L337 226.3L337.91 230.35L338.98 234.34L340.2 238.27L341.57 242.12L343.09 245.91L344.75 249.62L346.54 253.26L348.47 256.81L350.54 260.28L352.73 263.66L355.04 266.95L357.48 270.14L360.04 273.24L362.71 276.24L365.49 279.13L368.38 281.91L371.38 284.58L374.47 287.13L377.67 289.57L380.96 291.89L384.34 294.08L387.81 296.14L391.36 298.07L394.99 299.87L398.7 301.53L402.49 303.04L406.35 304.41L410.27 305.63L414.26 306.7L418.31 307.62L422.42 308.37L426.58 308.97L430.79 309.4L435.05 309.66L439.36 309.74L443.66 309.66L447.92 309.4L452.14 308.97L456.3 308.37L460.41 307.62L464.46 306.7L468.45 305.63L472.37 304.41L476.23 303.04L480.01 301.53L483.73 299.87L487.36 298.07L490.91 296.14L494.38 294.08L497.76 291.89L501.05 289.57L504.25 287.13L507.34 284.58L510.34 281.91L513.23 279.13L516.01 276.24L518.68 273.24L521.24 270.14L523.68 266.95L525.99 263.66L528.18 260.28L530.25 256.81L532.18 253.26L533.97 249.62L535.63 245.91L537.15 242.12L538.52 238.27L539.74 234.34L540.81 230.35L541.72 226.3L542.48 222.2L543.07 218.03L543.5 213.82L543.76 209.56L543.85 205.26L543.76 200.95L543.5 196.69L543.07 192.48L542.48 188.32L541.72 184.21L540.81 180.16L539.74 176.17L538.52 172.25L537.15 168.39L535.63 164.6L533.97 160.89L532.18 157.26L530.25 153.7L528.18 150.23L525.99 146.85L523.68 143.56L521.24 140.37L518.68 137.27L516.01 134.28L513.23 131.39L510.34 128.6L507.34 125.93L504.25 123.38L501.05 120.94L497.76 118.62L494.38 116.43L490.91 114.37L487.36 112.44L483.73 110.64L480.01 108.99L476.23 107.47L472.37 106.1L468.45 104.88L464.46 103.81L460.41 102.89L456.3 102.14L452.14 101.54L447.92 101.12L443.66 100.86L439.36 100.77L435.05 100.86L430.79 101.12ZM442.25 170.12L443.67 170.26L445.07 170.46L446.46 170.72L447.83 171.03L449.17 171.39L450.5 171.8L451.8 172.26L453.08 172.77L454.33 173.33L455.56 173.94L456.75 174.59L457.92 175.29L459.07 176.02L460.18 176.81L461.25 177.63L462.3 178.49L463.31 179.39L464.28 180.33L465.22 181.31L466.12 182.32L466.99 183.36L467.81 184.44L468.59 185.55L469.33 186.69L470.03 187.86L470.68 189.06L471.28 190.29L471.84 191.54L472.35 192.82L472.82 194.12L473.23 195.44L473.59 196.79L473.9 198.15L474.15 199.54L474.35 200.95L474.5 202.37L474.59 203.8L474.62 205.26L474.59 206.71L474.5 208.15L474.35 209.57L474.15 210.97L473.9 212.36L473.59 213.72L473.23 215.07L472.82 216.4L472.35 217.7L471.84 218.97L471.28 220.23L470.68 221.45L470.03 222.65L469.33 223.82L468.59 224.96L467.81 226.07L466.99 227.15L466.12 228.2L465.22 229.21L464.28 230.18L463.31 231.12L462.3 232.02L461.25 232.88L460.18 233.71L459.07 234.49L457.92 235.23L456.75 235.92L455.56 236.58L454.33 237.18L453.08 237.74L451.8 238.25L450.5 238.71L449.17 239.13L447.83 239.49L446.46 239.8L445.07 240.05L443.67 240.25L442.25 240.4L440.81 240.48L439.36 240.51L437.91 240.48L436.47 240.4L435.05 240.25L433.64 240.05L432.26 239.8L430.89 239.49L429.54 239.13L428.22 238.71L426.92 238.25L425.64 237.74L424.39 237.18L423.16 236.58L421.96 235.92L420.79 235.23L419.65 234.49L418.54 233.71L417.46 232.88L416.42 232.02L415.41 231.12L414.43 230.18L413.49 229.21L412.59 228.2L411.73 227.15L410.91 226.07L410.13 224.96L409.39 223.82L408.69 222.65L408.04 221.45L407.43 220.23L406.88 218.97L406.36 217.7L405.9 216.4L405.49 215.07L405.13 213.72L404.82 212.36L404.56 210.97L404.36 209.57L404.22 208.15L404.13 206.71L404.1 205.26L404.13 203.8L404.22 202.37L404.36 200.95L404.56 199.54L404.82 198.15L405.13 196.79L405.49 195.44L405.9 194.12L406.36 192.82L406.88 191.54L407.43 190.29L408.04 189.06L408.69 187.86L409.39 186.69L410.13 185.55L410.91 184.44L411.73 183.36L412.59 182.32L413.49 181.31L414.43 180.33L415.41 179.39L416.42 178.49L417.46 177.63L418.54 176.81L419.65 176.02L420.79 175.29L421.96 174.59L423.16 173.94L424.39 173.33L425.64 172.77L426.92 172.26L428.22 171.8L429.54 171.39L430.89 171.03L432.26 170.72L433.64 170.46L435.05 170.26L436.47 170.12L437.91 170.03L439.36 170L440.81 170.03L442.25 170.12Z" id="faUbeIlQ1"></path><radialGradient id="gradientbCL2i40pQ" gradientUnits="userSpaceOnUse" cx="334.37" cy="309.74" dx="315.14" dy="634.87" r="325.7"><stop style="stop-color: #a7d9ff;stop-opacity: 1" offset="0%"></stop><stop style="stop-color: #3b6989;stop-opacity: 1" offset="100%"></stop></radialGradient><mask id="maska2GUaduj8h" x="44.9" y="20.77" width="578.95" height="601.79" maskUnits="userSpaceOnUse"><rect x="44.9" y="20.77" width="578.95" height="601.79" fill="white"></rect><use xlink:href="#faUbeIlQ1" opacity="1" fill="black"></use></mask></defs><g><g><g><use xlink:href="#faUbeIlQ1" opacity="1" fill="url(#gradientbCL2i40pQ)"></use><g mask="url(#maska2GUaduj8h)"><use xlink:href="#faUbeIlQ1" opacity="1" fill-opacity="0" stroke="#7eb1d6" stroke-width="30" stroke-opacity="1"></use></g></g></g></g></svg>