<svg height="512pt" viewBox="0 0 512 512" width="512pt" xmlns="http://www.w3.org/2000/svg"><path d="m386.542969 125.382812c-9.621094-9.625-22.261719-14.433593-34.898438-14.433593-12.640625 0-25.277343 4.808593-34.898437 14.433593-19.246094 19.242188-19.246094 50.554688 0 69.796876 9.320312 9.320312 21.714844 14.457031 34.898437 14.457031 13.183594 0 25.578125-5.136719 34.898438-14.457031 19.246093-19.242188 19.246093-50.554688 0-69.796876zm0 0"/><path d="m511.921875 159.925781c-.09375-40.945312-15.71875-81.863281-46.890625-113.035156-62.523438-62.523437-164.253906-62.519531-226.777344 0-4.566406 4.566406-8.789062 9.347656-12.6875 14.300781l-.113281-.082031-195.453125 269.523437v-213.375h-30v282.335938h.253906c-1.777344 29.222656 8.464844 59.046875 30.75 81.332031 20.632813 20.632813 47.738282 30.949219 74.84375 30.949219 23.683594 0 47.367188-7.878906 66.734375-23.632812l278.230469-201.769532-.082031-.113281c4.957031-3.902344 9.738281-8.125 14.300781-12.691406 6.292969-6.292969 11.941406-12.988281 16.96875-19.996094v140.921875h30v-234.667969zm-216.390625 56.46875c-14.988281-14.988281-23.242188-34.917969-23.242188-56.113281 0-21.199219 8.253907-41.125 23.242188-56.113281s34.917969-23.242188 56.113281-23.242188c21.195313 0 41.125 8.253907 56.113281 23.242188 14.988282 14.988281 23.242188 34.914062 23.242188 56.113281 0 21.195312-8.253906 41.125-23.242188 56.113281-14.988281 14.988281-34.917968 23.242188-56.113281 23.242188-21.195312 0-41.125-8.253907-56.113281-23.242188zm-174.683594 204.683594h-30v-30h30zm89.289063 2.871094c5.558593-32.699219-4.257813-67.53125-29.445313-92.714844-25.1875-25.191406-60.015625-35.003906-92.714844-29.445313l103.402344-142.585937c-.277344 41.421875 15.34375 82.929687 46.878906 114.464844 31.257813 31.261719 72.324219 46.894531 113.386719 46.894531.359375 0 .71875-.011719 1.078125-.015625zm0 0"/></svg>