<svg width="60" height="60" xmlns="http://www.w3.org/2000/svg">
 <g>
  <title>background</title>
  <rect x="-1" y="-1" width="62" height="62" id="canvas_background" fill="none"/>
 </g>
 <defs>
  <radialGradient r="0.5" cy="0.5" cx="0.5" spreadMethod="pad" id="svg_23">
   <stop offset="0.207031" stop-opacity="0.996094" stop-color="#5fbf00"/>
   <stop offset="0.894531" stop-opacity="0.996094" stop-color="#007f00"/>
  </radialGradient>
 </defs>
 <g>
  <title>Layer 1</title>
  <ellipse fill="url(#svg_23)" stroke="#1b3c54" stroke-width="0" cx="47.166601" cy="47.080494" id="svg_21" rx="11.916625" ry="12"/>
  <g id="svg_1">
   <path d="m47,34c-7.167999,0 -13,5.832001 -13,13s5.832001,13 13,13s13,-5.832001 13,-13s-5.832001,-13 -13,-13zm0,24c-6.064999,0 -11,-4.935001 -11,-11s4.935001,-11 11,-11s11,4.935001 11,11s-4.935001,11 -11,11z" id="svg_2" fill="#1b3c54"/>
   <path d="m53,46l-5,0l0,-5c0,-0.553001 -0.448002,-1 -1,-1s-1,0.446999 -1,1l0,5l-5,0c-0.551998,0 -1,0.446999 -1,1s0.448002,1 1,1l5,0l0,5c0,0.553001 0.448002,1 1,1s1,-0.446999 1,-1l0,-5l5,0c0.551998,0 1,-0.446999 1,-1s-0.448002,-1 -1,-1z" id="svg_3" fill="#1b3c54"/>
   <circle cx="30" cy="29.879" r="2" id="svg_4" fill="#1b3c54"/>
   <path d="m31,47c0,-8.821999 7.178001,-16 16,-16c4.904999,0 9.297001,2.223999 12.234001,5.709999c0.494999,-2.159 0.765999,-4.403 0.765999,-6.709999c0,-16.542 -13.458,-30 -30,-30s-30,13.458 -30,30s13.458,30 30,30c2.306999,0 4.550999,-0.271 6.709999,-0.765999c-3.487,-2.937 -5.709999,-7.329002 -5.709999,-12.234001zm13.141998,-32.678l0.707001,-0.707c0.391003,-0.391 1.023003,-0.391 1.414001,0s0.390999,1.023 0,1.414001l-0.707001,0.707c-0.195,0.195 -0.451,0.292999 -0.707001,0.292999s-0.511997,-0.098 -0.707001,-0.292999c-0.390999,-0.39 -0.390999,-1.023 0,-1.414001zm-15.141998,-6.442999c0,-0.553 0.448,-1 1,-1s1,0.447 1,1l0,1c0,0.553 -0.448,1 -1,1s-1,-0.447 -1,-1l0,-1zm-20,23l-1,0c-0.552,0 -1,-0.447001 -1,-1s0.448,-1 1,-1l1,0c0.552,0 1,0.447001 1,1s-0.448,1 -1,1zm6.858,14.557001l-0.707,0.707001c-0.195,0.195 -0.451,0.292999 -0.707,0.292999s-0.512,-0.098 -0.707,-0.292999c-0.391001,-0.391003 -0.391001,-1.023003 0,-1.414001l0.707,-0.707001c0.391,-0.390999 1.023,-0.390999 1.414,0s0.391001,1.022999 0,1.414001zm0,-29.700001c-0.195,0.195 -0.451,0.292999 -0.707,0.292999s-0.512,-0.098 -0.707,-0.292999l-0.707,-0.707c-0.391001,-0.391001 -0.391001,-1.023001 0,-1.414001s1.023,-0.391 1.414,0l0.707,0.707c0.391001,0.391001 0.391001,1.024 0,1.414001zm10.284,15.143l-7.142,0c-0.552,0 -1,-0.447001 -1,-1s0.448,-1 1,-1l7.142,0c0.364,-1.399 1.459,-2.493999 2.858,-2.858l0,-10.142c0,-0.552999 0.448,-1 1,-1s1,0.447001 1,1l0,10.142c1.720001,0.447001 3,2 3,3.858c0,2.205999 -1.793999,4.000002 -4,4.000002c-1.858,0 -3.410999,-1.279003 -3.858,-3.000002z" id="svg_5" fill="#1b3c54"/>
  </g>
  <g id="svg_6"/>
  <g id="svg_7"/>
  <g id="svg_8"/>
  <g id="svg_9"/>
  <g id="svg_10"/>
  <g id="svg_11"/>
  <g id="svg_12"/>
  <g id="svg_13"/>
  <g id="svg_14"/>
  <g id="svg_15"/>
  <g id="svg_16"/>
  <g id="svg_17"/>
  <g id="svg_18"/>
  <g id="svg_19"/>
  <g id="svg_20"/>
 </g>
</svg>