<svg width="64" height="64" xmlns="http://www.w3.org/2000/svg">
 <g>
  <title>background</title>
  <rect x="-1" y="-1" width="66" height="66" id="canvas_background" fill="none"/>
 </g>
 <defs>
  <radialGradient r="0.5" cy="0.5" cx="0.5" spreadMethod="pad" id="svg_30">
   <stop offset="0.214844" stop-opacity="0.996094" stop-color="#00ff00"/>
   <stop offset="1" stop-opacity="0.992188" stop-color="#007000"/>
  </radialGradient>
 </defs>
 <g>
  <title>Layer 1</title>
  <g id="svg_28">
   <path stroke="#7aaac9" d="m49.000015,36.666687c-7.167999,0 -13,5.832001 -13,13s5.832001,13 13,13s13,-5.832001 13,-13s-5.832001,-13 -13,-13zm0,24c-6.064999,0 -11,-4.935001 -11,-11s4.935001,-11 11,-11s11,4.935001 11,11s-4.935001,11 -11,11z" id="svg_24" fill="#7aaac9"/>
   <path stroke="#7aaac9" d="m55.000015,48.666687l-5,0l0,-5c0,-0.553001 -0.448002,-1 -1,-1s-1,0.446999 -1,1l0,5l-5,0c-0.551998,0 -1,0.446999 -1,1s0.448002,1 1,1l5,0l0,5c0,0.553001 0.448002,1 1,1s1,-0.446999 1,-1l0,-5l5,0c0.551998,0 1,-0.446999 1,-1s-0.448002,-1 -1,-1z" id="svg_25" fill="#7aaac9"/>
   <circle stroke="#7aaac9" cx="31.999998" cy="32.545664" r="1.999992" id="svg_26" fill="#7aaac9"/>
   <path stroke="#7aaac9" d="m33.000004,49.666687c0,-8.821999 7.178013,-16.000011 16.000011,-16.000011c4.904999,0 9.297001,2.22401 12.234001,5.710011c0.494999,-2.159 0.765999,-4.403 0.765999,-6.710022c0,-16.541992 -13.458,-30 -30.000023,-30s-29.999994,13.458008 -29.999994,30s13.458006,30.000023 29.999994,30.000023c2.307022,0 4.551022,-0.271 6.710022,-0.765999c-3.487,-2.937 -5.710011,-7.329002 -5.710011,-12.234001zm13.14201,-32.67802l0.707001,-0.706997c0.391003,-0.390998 1.023003,-0.390998 1.414001,0s0.390999,1.022995 0,1.413992l-0.707001,0.706997c-0.195,0.194998 -0.451,0.292997 -0.707001,0.292997s-0.511997,-0.098 -0.707001,-0.292997c-0.390999,-0.389999 -0.390999,-1.022995 0,-1.413992zm-15.142021,-6.442995c0,-0.553001 0.448,-1.000003 1,-1.000003s1.000011,0.447001 1.000011,1.000003l0,1c0,0.553 -0.448006,1 -1.000011,1s-1,-0.447 -1,-1l0,-1zm-19.999989,23.000002l-1,0c-0.552002,0 -1.000003,-0.447006 -1.000003,-1.000011s0.448001,-1.000006 1.000003,-1.000006l1,0c0.552,0 1,0.447002 1,1.000006s-0.448,1.000011 -1,1.000011zm6.857988,14.557014l-0.706995,0.707001c-0.194998,0.195 -0.450998,0.292999 -0.706995,0.292999s-0.511998,-0.098 -0.706998,-0.292999c-0.391001,-0.391003 -0.391001,-1.023003 0,-1.414001l0.706998,-0.707001c0.390997,-0.390999 1.022993,-0.390999 1.41399,0s0.391001,1.022999 0,1.414001zm0,-29.700029c-0.194998,0.194998 -0.450996,0.292997 -0.706995,0.292997s-0.511997,-0.098 -0.706995,-0.292997l-0.706998,-0.706997c-0.391001,-0.390997 -0.391001,-1.022995 0,-1.413992s1.022996,-0.390998 1.413993,0l0.706995,0.706997c0.391001,0.390997 0.391001,1.023993 0,1.413992zm10.284,15.143015l-7.142,0c-0.552,0 -1,-0.447006 -1,-1.000011s0.448,-1.000006 1,-1.000006l7.142,0c0.364,-1.399 1.459,-2.493999 2.858,-2.858l0,-10.142c0,-0.552996 0.448,-0.999994 1,-0.999994s1.000011,0.446999 1.000011,0.999994l0,10.142c1.720013,0.447001 3.000011,2 3.000011,3.858006c0,2.206024 -1.793999,4.000027 -4.000023,4.000027c-1.858,0 -3.410999,-1.279003 -3.858,-3.000015z" id="svg_27" fill="#7aaac9"/>
  </g>
  <ellipse fill="url(#svg_30)" stroke="#1b3c54" stroke-width="0" cx="49.166599" cy="49.080492" id="svg_21" rx="11.916625" ry="12"/>
  <g id="svg_1">
   <path d="m49.000015,36.000015c-7.167999,0 -13,5.832001 -13,13s5.832001,13 13,13s13,-5.832001 13,-13s-5.832001,-13 -13,-13zm0,24c-6.064999,0 -11,-4.935001 -11,-11s4.935001,-11 11,-11s11,4.935001 11,11s-4.935001,11 -11,11z" id="svg_2" fill="#1b3c54"/>
   <path d="m55.000015,48.000015l-5,0l0,-5c0,-0.553001 -0.448002,-1 -1,-1s-1,0.446999 -1,1l0,5l-5,0c-0.551998,0 -1,0.446999 -1,1s0.448002,1 1,1l5,0l0,5c0,0.553001 0.448002,1 1,1s1,-0.446999 1,-1l0,-5l5,0c0.551998,0 1,-0.446999 1,-1s-0.448002,-1 -1,-1z" id="svg_3" fill="#1b3c54"/>
   <circle cx="31.999998" cy="31.878998" r="1.999993" id="svg_4" fill="#1b3c54"/>
   <path d="m33.000004,49.000015c0,-8.821999 7.178013,-16.000011 16.000011,-16.000011c4.904999,0 9.297001,2.22401 12.234001,5.710011c0.494999,-2.159 0.765999,-4.403 0.765999,-6.710022c0,-16.541988 -13.458,-29.999994 -30.000023,-29.999994s-29.999994,13.458006 -29.999994,29.999994s13.458006,30.000023 29.999994,30.000023c2.307022,0 4.551022,-0.271 6.710022,-0.765999c-3.487,-2.937 -5.710011,-7.329002 -5.710011,-12.234001zm13.14201,-32.678013l0.707001,-0.706999c0.391003,-0.391 1.023003,-0.391 1.414001,0s0.390999,1.022997 0,1.413994l-0.707001,0.706997c-0.195,0.194998 -0.451,0.292997 -0.707001,0.292997s-0.511997,-0.098 -0.707001,-0.292997c-0.390999,-0.389999 -0.390999,-1.022995 0,-1.413992zm-15.142021,-6.442999c0,-0.553001 0.448,-1.000003 1,-1.000003s1.000011,0.447001 1.000011,1.000003l0,1c0,0.553 -0.448006,1 -1.000011,1s-1,-0.447 -1,-1l0,-1zm-19.999989,22.999998l-1,0c-0.552002,0 -1.000003,-0.447006 -1.000003,-1.00001s0.448001,-1 1.000003,-1l1,0c0.552,0 1,0.447001 1,1s-0.448,1.00001 -1,1.00001zm6.857988,14.557014l-0.706995,0.707001c-0.194998,0.195 -0.450998,0.292999 -0.706995,0.292999s-0.511998,-0.098 -0.706998,-0.292999c-0.391001,-0.391003 -0.391001,-1.023003 0,-1.414001l0.706998,-0.707001c0.390997,-0.390999 1.022993,-0.390999 1.41399,0s0.391001,1.022999 0,1.414001zm0,-29.700022c-0.194998,0.194998 -0.450996,0.292997 -0.706995,0.292997s-0.511997,-0.098 -0.706995,-0.292997l-0.706998,-0.706997c-0.391001,-0.390997 -0.391001,-1.022995 0,-1.413994s1.022996,-0.391 1.413993,0l0.706995,0.706999c0.391001,0.390997 0.391001,1.023993 0,1.413992zm10.284,15.143007l-7.142,0c-0.552,0 -1,-0.447006 -1,-1.00001s0.448,-1 1,-1l7.142,0c0.364,-1.399 1.459,-2.493999 2.858,-2.858l0,-10.142c0,-0.552996 0.448,-0.999994 1,-0.999994s1.000011,0.446999 1.000011,0.999994l0,10.142c1.720013,0.447001 3.000011,2 3.000011,3.858c0,2.206022 -1.793999,4.000025 -4.000023,4.000025c-1.858,0 -3.410999,-1.279003 -3.858,-3.000015z" id="svg_5" fill="#1b3c54"/>
  </g>
  <g id="svg_6"/>
  <g id="svg_7"/>
  <g id="svg_8"/>
  <g id="svg_9"/>
  <g id="svg_10"/>
  <g id="svg_11"/>
  <g id="svg_12"/>
  <g id="svg_13"/>
  <g id="svg_14"/>
  <g id="svg_15"/>
  <g id="svg_16"/>
  <g id="svg_17"/>
  <g id="svg_18"/>
  <g id="svg_19"/>
  <g id="svg_20"/>
 </g>
</svg>