<?xml version="1.0" encoding="UTF-8" standalone="no"?>
<!DOCTYPE svg PUBLIC "-//W3C//DTD SVG 1.1//EN" "http://www.w3.org/Graphics/SVG/1.1/DTD/svg11.dtd">
<svg version="1.1" xmlns="http://www.w3.org/2000/svg" xmlns:xlink="http://www.w3.org/1999/xlink" preserveAspectRatio="xMidYMid meet" viewBox="0 0 640 640" width="640" height="640"><defs><path d="M357.94 14.04L88.79 168.52L88.79 477.49L357.94 631.97L627.09 477.49L627.09 168.52L357.94 14.04Z" id="cTeiZX39c"></path><clipPath id="cliph3Q2aQzWjU"><use xlink:href="#cTeiZX39c" opacity="1"></use></clipPath><path d="M453.89 113.78L224.33 137.32L130.89 347.19L267 533.53L496.55 510L589.99 300.12L453.89 113.78Z" id="aJzX8xL9T"></path><clipPath id="clipaU3dvsyKc"><use xlink:href="#aJzX8xL9T" opacity="1"></use></clipPath><path d="M387.76 39.82L126.22 155.46L96.46 438.6L328.24 606.1L589.77 490.45L619.53 207.31L387.76 39.82Z" id="bUlfwMhJE"></path><clipPath id="clipb2B10Wr4vN"><use xlink:href="#bUlfwMhJE" opacity="1"></use></clipPath><path d="M415.54 63.77L162.16 145.39L107.06 404.62L305.34 582.24L558.72 500.63L613.82 241.39L415.54 63.77Z" id="aDkAMuqK0"></path><clipPath id="clipa37MSnYixl"><use xlink:href="#aDkAMuqK0" opacity="1"></use></clipPath><path d="M467.23 137.81L250.82 137.6L142.8 324.71L251.19 512.02L467.59 512.23L575.62 325.12L467.23 137.81Z" id="bf9giwA8R"></path><clipPath id="clipm3a5FwlAh"><use xlink:href="#bf9giwA8R" opacity="1"></use></clipPath><path d="M435.1 88.68L192.78 139.54L116.6 373.98L282.75 557.57L525.07 506.7L601.25 272.26L435.1 88.68Z" id="a2yqRcZ8qo"></path><clipPath id="clipd2MX7rm1ki"><use xlink:href="#a2yqRcZ8qo" opacity="1"></use></clipPath><path d="M268 478.92L19.52 324.92L268 170.92L268 268.54L531.52 268.54L531.52 381.54L268 381.54L268 478.92Z" id="e45mPFd93"></path><linearGradient id="gradiento1Lr1SUtkd" gradientUnits="userSpaceOnUse" x1="531.52" y1="324.92" x2="25.52" y2="328.92"><stop style="stop-color: #a4c97a;stop-opacity: 1" offset="0%"></stop><stop style="stop-color: #1d7700;stop-opacity: 1" offset="100%"></stop></linearGradient><clipPath id="clipb1d4A7a2eH"><use xlink:href="#e45mPFd93" opacity="1"></use></clipPath></defs><g><g><g><use xlink:href="#cTeiZX39c" opacity="1" fill="#000000" fill-opacity="0"></use><g clip-path="url(#cliph3Q2aQzWjU)"><use xlink:href="#cTeiZX39c" opacity="1" fill-opacity="0" stroke="#54a5cb" stroke-width="16" stroke-opacity="1"></use></g></g><g><use xlink:href="#aJzX8xL9T" opacity="1" fill="#70197b" fill-opacity="0"></use><g clip-path="url(#clipaU3dvsyKc)"><use xlink:href="#aJzX8xL9T" opacity="1" fill-opacity="0" stroke="#54a5cb" stroke-width="8" stroke-opacity="1"></use></g></g><g><use xlink:href="#bUlfwMhJE" opacity="1" fill="#70197b" fill-opacity="0"></use><g clip-path="url(#clipb2B10Wr4vN)"><use xlink:href="#bUlfwMhJE" opacity="1" fill-opacity="0" stroke="#54a5cb" stroke-width="14" stroke-opacity="1"></use></g></g><g><use xlink:href="#aDkAMuqK0" opacity="1" fill="#70197b" fill-opacity="0"></use><g clip-path="url(#clipa37MSnYixl)"><use xlink:href="#aDkAMuqK0" opacity="1" fill-opacity="0" stroke="#54a5cb" stroke-width="12" stroke-opacity="1"></use></g></g><g><use xlink:href="#bf9giwA8R" opacity="1" fill="#70197b" fill-opacity="0"></use><g clip-path="url(#clipm3a5FwlAh)"><use xlink:href="#bf9giwA8R" opacity="1" fill-opacity="0" stroke="#54a5cb" stroke-width="8" stroke-opacity="1"></use></g></g><g><use xlink:href="#a2yqRcZ8qo" opacity="1" fill="#70197b" fill-opacity="0"></use><g clip-path="url(#clipd2MX7rm1ki)"><use xlink:href="#a2yqRcZ8qo" opacity="1" fill-opacity="0" stroke="#54a5cb" stroke-width="10" stroke-opacity="1"></use></g></g><g><use xlink:href="#e45mPFd93" opacity="1" fill="url(#gradiento1Lr1SUtkd)"></use><g clip-path="url(#clipb1d4A7a2eH)"><use xlink:href="#e45mPFd93" opacity="1" fill-opacity="0" stroke="#000000" stroke-width="28" stroke-opacity="1"></use></g></g></g></g></svg>