<?xml version="1.0" encoding="UTF-8" standalone="no"?>
<!DOCTYPE svg PUBLIC "-//W3C//DTD SVG 1.1//EN" "http://www.w3.org/Graphics/SVG/1.1/DTD/svg11.dtd">
<svg version="1.1" xmlns="http://www.w3.org/2000/svg" xmlns:xlink="http://www.w3.org/1999/xlink" preserveAspectRatio="xMidYMid meet" viewBox="0 0 640 640" width="640" height="640"><defs><path d="M357.94 14.04L88.79 168.52L88.79 477.49L357.94 631.97L627.09 477.49L627.09 168.52L357.94 14.04Z" id="gS7j2du63"></path><clipPath id="clipc2Z9FJjRe5"><use xlink:href="#gS7j2du63" opacity="1"></use></clipPath><path d="M450.42 120.75L228.26 143.53L137.82 346.65L269.55 526.99L491.71 504.21L582.14 301.09L450.42 120.75Z" id="e16MkKj1QB"></path><clipPath id="clipcOjygZybJ"><use xlink:href="#e16MkKj1QB" opacity="1"></use></clipPath><path d="M388.79 37.98L126.37 154.02L96.51 438.12L329.07 606.19L591.49 490.15L621.35 206.05L388.79 37.98Z" id="a2girLJds"></path><clipPath id="clipb1wQ2XPqh"><use xlink:href="#a2girLJds" opacity="1"></use></clipPath><path d="M414.3 65.81L161.92 147.1L107.03 405.32L304.53 582.24L556.92 500.95L611.8 242.73L414.3 65.81Z" id="a4UgYImIc"></path><clipPath id="clipbvKFml4Zz"><use xlink:href="#a4UgYImIc" opacity="1"></use></clipPath><path d="M433.79 93.69L195.72 143.66L120.88 373.99L284.11 554.36L522.18 504.38L597.02 274.05L433.79 93.69Z" id="d2Ttgk9BtU"></path><clipPath id="clipfJX1SiRe"><use xlink:href="#d2Ttgk9BtU" opacity="1"></use></clipPath><path d="M461.34 148.61L258.05 148.31L156.66 323.91L258.57 499.82L461.87 500.12L563.26 324.52L461.34 148.61Z" id="h3i0JbX1Za"></path><clipPath id="clipevctvtFuX"><use xlink:href="#h3i0JbX1Za" opacity="1"></use></clipPath><path d="M435.93 191.55L281.53 191.32L204.53 324.68L281.93 458.28L436.33 458.51L513.33 325.15L435.93 191.55Z" id="d2CbExXiZ9"></path><clipPath id="clipeLRupSbq7"><use xlink:href="#d2CbExXiZ9" opacity="1"></use></clipPath></defs><g><g><g><use xlink:href="#gS7j2du63" opacity="1" fill="#000000" fill-opacity="0"></use><g clip-path="url(#clipc2Z9FJjRe5)"><use xlink:href="#gS7j2du63" opacity="1" fill-opacity="0" stroke="#54a5cb" stroke-width="16" stroke-opacity="1"></use></g></g><g><use xlink:href="#e16MkKj1QB" opacity="1" fill="#70197b" fill-opacity="0"></use><g clip-path="url(#clipcOjygZybJ)"><use xlink:href="#e16MkKj1QB" opacity="1" fill-opacity="0" stroke="#54a5cb" stroke-width="16" stroke-opacity="1"></use></g></g><g><use xlink:href="#a2girLJds" opacity="1" fill="#70197b" fill-opacity="0"></use><g clip-path="url(#clipb1wQ2XPqh)"><use xlink:href="#a2girLJds" opacity="1" fill-opacity="0" stroke="#54a5cb" stroke-width="16" stroke-opacity="1"></use></g></g><g><use xlink:href="#a4UgYImIc" opacity="1" fill="#70197b" fill-opacity="0"></use><g clip-path="url(#clipbvKFml4Zz)"><use xlink:href="#a4UgYImIc" opacity="1" fill-opacity="0" stroke="#54a5cb" stroke-width="16" stroke-opacity="1"></use></g></g><g><use xlink:href="#d2Ttgk9BtU" opacity="1" fill="#70197b" fill-opacity="0"></use><g clip-path="url(#clipfJX1SiRe)"><use xlink:href="#d2Ttgk9BtU" opacity="1" fill-opacity="0" stroke="#54a5cb" stroke-width="16" stroke-opacity="1"></use></g></g><g><use xlink:href="#h3i0JbX1Za" opacity="1" fill="#70197b" fill-opacity="0"></use><g clip-path="url(#clipevctvtFuX)"><use xlink:href="#h3i0JbX1Za" opacity="1" fill-opacity="0" stroke="#54a5cb" stroke-width="16" stroke-opacity="1"></use></g></g><g><use xlink:href="#d2CbExXiZ9" opacity="1" fill="#54a5cb" fill-opacity="1"></use><g clip-path="url(#clipeLRupSbq7)"><use xlink:href="#d2CbExXiZ9" opacity="1" fill-opacity="0" stroke="#54a5cb" stroke-width="16" stroke-opacity="1"></use></g></g></g></g></svg>