<?xml version="1.0" encoding="iso-8859-1"?>
<!-- Generator: Adobe Illustrator 19.0.0, SVG Export Plug-In . SVG Version: 6.00 Build 0)  -->
<svg version="1.1" id="Capa_1" xmlns="http://www.w3.org/2000/svg" xmlns:xlink="http://www.w3.org/1999/xlink" x="0px" y="0px"
	 viewBox="0 0 512 512" style="enable-background:new 0 0 512 512;" xml:space="preserve">
<g>
	<g>
		<path d="M489.5,29.1H103.885c-12.407,0-22.5,10.093-22.5,22.5v109.947H55.736c-5.579,0-10.251,3.923-11.424,9.154H11.716
			C5.256,170.7,0,175.956,0,182.415v288.769c0,6.46,5.256,11.716,11.716,11.716h213.121c6.46,0,11.715-5.256,11.715-11.716v-88.728
			H489.5c12.407,0,22.5-10.093,22.5-22.5V51.6C512,39.193,501.907,29.1,489.5,29.1z M55.736,212.84h56.042v0
			c4.142,0,7.5-3.358,7.5-7.5c0-4.142-3.358-7.5-7.5-7.5H59.021v-21.294h118.51v21.294H155c-4.142,0-7.5,3.358-7.5,7.5
			c0,4.142,3.358,7.5,7.5,7.5h25.816c5.651,0,10.38-4.021,11.476-9.353h8.279v241.64H35.98v-241.64h8.28
			C45.356,208.818,50.085,212.84,55.736,212.84z M138.157,161.546H98.395c2.527-8.482,10.476-14.699,19.88-14.699
			C127.679,146.847,135.629,153.064,138.157,161.546z M137.865,137.672V78.841h17.061l39.368,91.859h-2.054
			c-1.173-5.23-5.845-9.154-11.424-9.154h-27.288C151.882,151.585,146.04,143.012,137.865,137.672z M221.552,467.9H15V185.7h29.021
			v2.787H31.01c-5.53,0-10.03,4.498-10.03,10.028v251.583c0,5.53,4.499,10.029,10.03,10.029h174.533
			c5.53,0,10.028-4.499,10.028-10.029V198.515c0-5.529-4.499-10.028-10.028-10.028h-13.012V185.7h29.021V467.9z M334.717,367.457
			h-76.048v-29.49h76.048V367.457z M497,359.957c0,4.135-3.364,7.5-7.5,7.5h-18.809V351c0-4.142-3.358-7.5-7.5-7.5
			c-4.142,0-7.5,3.358-7.5,7.5v16.457h-60.03V181.778c0-1.301,0.542-3.94,1.053-5.134l41.915-97.803h17.061V308
			c0,4.142,3.358,7.5,7.5,7.5c4.142,0,7.5-3.358,7.5-7.5V75.556c0-6.46-5.256-11.715-11.716-11.715H437.9
			c-5.308,0-10.678,3.541-12.77,8.42l-42.204,98.475c-1.313,3.064-2.266,7.708-2.266,11.043v185.678h-30.944v-31.99
			c0-6.893-5.607-12.5-12.5-12.5h-81.048c-6.893,0-12.5,5.607-12.5,12.5v31.99h-7.117V182.415c0-6.459-5.255-11.715-11.715-11.715
			h-14.223l-42.188-98.438c-2.091-4.879-7.461-8.421-12.77-8.421H134.58c-6.46,0-11.715,5.255-11.715,11.715v56.594
			c-1.504-0.192-3.034-0.303-4.59-0.303c-8.244,0-15.839,2.792-21.891,7.463V51.6c0-4.136,3.364-7.5,7.5-7.5H489.5
			c4.136,0,7.5,3.364,7.5,7.5V359.957z"/>
	</g>
</g>
<g>
	<g>
		<path d="M326.574,177.122h-59.763c-6.893,0-12.5,5.607-12.5,12.5v20.349c0,6.893,5.607,12.5,12.5,12.5h59.763
			c6.893,0,12.5-5.607,12.5-12.5v-20.349C339.074,182.729,333.467,177.122,326.574,177.122z M324.074,207.471h-54.763v-15.349
			h54.763V207.471z"/>
	</g>
</g>
<g>
	<g>
		<path d="M412.222,69.873c-2.582-3.833-7.021-6.032-12.179-6.032H193.342c-5.158,0-9.597,2.199-12.179,6.032
			c-2.582,3.833-2.952,8.774-1.013,13.554l27.268,67.239c3.225,7.952,12.128,13.949,20.709,13.949h21.502h94.126h21.502
			c8.581,0,17.484-5.997,20.708-13.948l5.211-12.847c1.557-3.838-0.293-8.212-4.131-9.769c-3.84-1.558-8.212,0.292-9.769,4.131
			l-5.21,12.848c-0.921,2.271-4.357,4.586-6.808,4.586h-31.032c-5.808-7.743-13.701-13.403-22.674-16.373l-6.516-25.942
			c-1.733-6.891-6.824-7.427-8.343-7.427c-1.52,0-6.613,0.536-8.343,7.428l-6.516,25.94c-8.973,2.97-16.866,8.63-22.674,16.373
			h-31.032c-2.451,0-5.887-2.314-6.808-4.586l-26.842-66.188h19.247v5.814c0,4.142,3.358,7.5,7.5,7.5c4.142,0,7.5-3.358,7.5-7.5
			v-5.814h10.156v5.814c0,4.142,3.358,7.5,7.5,7.5c4.142,0,7.5-3.358,7.5-7.5v-5.814h10.156v5.814c0,4.142,3.358,7.5,7.5,7.5
			c4.142,0,7.5-3.358,7.5-7.5v-5.814h10.156v5.814c0,4.142,3.358,7.5,7.5,7.5c4.142,0,7.5-3.358,7.5-7.5v-5.814h10.156v5.814
			c0,4.142,3.358,7.5,7.5,7.5c4.142,0,7.5-3.358,7.5-7.5v-5.814h10.156v5.814c0,4.142,3.358,7.5,7.5,7.5c4.142,0,7.5-3.358,7.5-7.5
			v-5.814h10.156v5.814c0,4.142,3.358,7.5,7.5,7.5c4.142,0,7.5-3.358,7.5-7.5v-5.814h19.248l-6.222,15.34
			c-1.557,3.838,0.293,8.212,4.131,9.769c3.838,1.556,8.212-0.292,9.769-4.131l6.648-16.392
			C415.173,78.647,414.804,73.707,412.222,69.873z M296.692,145.86c5.382,0,10.536,1.321,15.089,3.754h-30.177
			C286.157,147.181,291.31,145.86,296.692,145.86z"/>
	</g>
</g>
<g>
	<g>
		<path d="M111.778,231.143H51.923c-4.142,0-7.5,3.358-7.5,7.5c0,4.142,3.358,7.5,7.5,7.5h59.855c4.142,0,7.5-3.358,7.5-7.5
			C119.278,234.501,115.92,231.143,111.778,231.143z"/>
	</g>
</g>
<g>
	<g>
		<path d="M111.778,249.205H51.923c-4.142,0-7.5,3.358-7.5,7.5c0,4.142,3.358,7.5,7.5,7.5h59.855c4.142,0,7.5-3.358,7.5-7.5
			C119.278,252.563,115.92,249.205,111.778,249.205z"/>
	</g>
</g>
<g>
	<g>
		<path d="M111.778,267.268H51.923c-4.142,0-7.5,3.358-7.5,7.5c0,4.142,3.358,7.5,7.5,7.5h59.855c4.142,0,7.5-3.358,7.5-7.5
			C119.278,270.626,115.92,267.268,111.778,267.268z"/>
	</g>
</g>
<g>
	<g>
		<path d="M158.32,222.896c-18.643,0-33.809,15.166-33.809,33.809c0,18.643,15.166,33.81,33.809,33.81s33.81-15.167,33.81-33.81
			S176.963,222.896,158.32,222.896z M158.32,275.515c-10.372,0-18.809-8.438-18.809-18.81c0-10.372,8.437-18.809,18.809-18.809
			s18.81,8.437,18.81,18.809C177.13,267.077,168.692,275.515,158.32,275.515z"/>
	</g>
</g>
<g>
	<g>
		<path d="M173.107,246.816c-2.929-2.929-7.678-2.929-10.606,0.001l-6.518,6.519l-2.433-2.433c-2.93-2.928-7.678-2.929-10.607-0.001
			c-2.929,2.929-2.929,7.678-0.001,10.607l4.757,4.757c2.284,2.281,5.282,3.422,8.282,3.422s6.001-1.141,8.286-3.424l8.841-8.842
			C176.037,254.493,176.036,249.744,173.107,246.816z"/>
	</g>
</g>
<g>
	<g>
		<path d="M111.778,305.506H51.923c-4.142,0-7.5,3.358-7.5,7.5c0,4.142,3.358,7.5,7.5,7.5h59.855c4.142,0,7.5-3.358,7.5-7.5
			C119.278,308.864,115.92,305.506,111.778,305.506z"/>
	</g>
</g>
<g>
	<g>
		<path d="M111.778,323.568H51.923c-4.142,0-7.5,3.358-7.5,7.5c0,4.142,3.358,7.5,7.5,7.5h59.855c4.142,0,7.5-3.358,7.5-7.5
			C119.278,326.926,115.92,323.568,111.778,323.568z"/>
	</g>
</g>
<g>
	<g>
		<path d="M111.778,341.631H51.923c-4.142,0-7.5,3.358-7.5,7.5c0,4.142,3.358,7.5,7.5,7.5h59.855c4.142,0,7.5-3.358,7.5-7.5
			C119.278,344.989,115.92,341.631,111.778,341.631z"/>
	</g>
</g>
<g>
	<g>
		<path d="M158.32,297.26c-18.643,0-33.809,15.167-33.809,33.809c0,18.642,15.166,33.809,33.809,33.809s33.81-15.167,33.81-33.809
			C192.13,312.426,176.963,297.26,158.32,297.26z M158.32,349.877c-10.372,0-18.809-8.438-18.809-18.809
			c0-10.371,8.437-18.809,18.809-18.809s18.81,8.438,18.81,18.809C177.13,341.439,168.692,349.877,158.32,349.877z"/>
	</g>
</g>
<g>
	<g>
		<path d="M173.108,321.179c-2.929-2.93-7.678-2.929-10.606,0l-6.519,6.52l-2.433-2.433c-2.93-2.929-7.678-2.928-10.607,0.001
			c-2.929,2.929-2.928,7.678,0.001,10.607l4.755,4.754c2.283,2.283,5.283,3.424,8.283,3.424s6.001-1.142,8.285-3.426l8.841-8.841
			C176.037,328.856,176.037,324.107,173.108,321.179z"/>
	</g>
</g>
<g>
	<g>
		<path d="M111.778,379.869H51.923c-4.142,0-7.5,3.358-7.5,7.5c0,4.142,3.358,7.5,7.5,7.5h59.855c4.142,0,7.5-3.358,7.5-7.5
			C119.278,383.227,115.92,379.869,111.778,379.869z"/>
	</g>
</g>
<g>
	<g>
		<path d="M111.778,397.932H51.923c-4.142,0-7.5,3.358-7.5,7.5c0,4.142,3.358,7.5,7.5,7.5h59.855c4.142,0,7.5-3.358,7.5-7.5
			C119.278,401.29,115.92,397.932,111.778,397.932z"/>
	</g>
</g>
<g>
	<g>
		<path d="M111.778,415.995H51.923c-4.142,0-7.5,3.358-7.5,7.5c0,4.142,3.358,7.5,7.5,7.5h59.855c4.142,0,7.5-3.358,7.5-7.5
			C119.278,419.353,115.92,415.995,111.778,415.995z"/>
	</g>
</g>
<g>
	<g>
		<path d="M158.32,371.623c-18.643,0-33.809,15.167-33.809,33.809c0,18.642,15.166,33.809,33.809,33.809s33.81-15.167,33.81-33.809
			C192.13,386.79,176.963,371.623,158.32,371.623z M158.32,424.241c-10.372,0-18.809-8.438-18.809-18.809
			c0-10.371,8.437-18.809,18.809-18.809s18.81,8.438,18.81,18.809C177.13,415.804,168.692,424.241,158.32,424.241z"/>
	</g>
</g>
<g>
</g>
<g>
</g>
<g>
</g>
<g>
</g>
<g>
</g>
<g>
</g>
<g>
</g>
<g>
</g>
<g>
</g>
<g>
</g>
<g>
</g>
<g>
</g>
<g>
</g>
<g>
</g>
<g>
</g>
</svg>
